%FSLAX25Y25*%
%MOIN*%
G70*
G01*
G75*
G04 Layer_Color=32896*
%ADD10R,0.20276X0.12402*%
%ADD11O,0.00984X0.02756*%
%ADD12R,0.00984X0.02756*%
%ADD13R,0.02756X0.00984*%
%ADD14R,0.15197X0.10787*%
%ADD15R,0.01772X0.04134*%
%ADD16O,0.01772X0.04134*%
%ADD17R,0.04000X0.06000*%
%ADD18R,0.06000X0.04000*%
G04:AMPARAMS|DCode=19|XSize=40mil|YSize=60mil|CornerRadius=10mil|HoleSize=0mil|Usage=FLASHONLY|Rotation=0.000|XOffset=0mil|YOffset=0mil|HoleType=Round|Shape=RoundedRectangle|*
%AMROUNDEDRECTD19*
21,1,0.04000,0.04000,0,0,0.0*
21,1,0.02000,0.06000,0,0,0.0*
1,1,0.02000,0.01000,-0.02000*
1,1,0.02000,-0.01000,-0.02000*
1,1,0.02000,-0.01000,0.02000*
1,1,0.02000,0.01000,0.02000*
%
%ADD19ROUNDEDRECTD19*%
%ADD20R,0.01181X0.03543*%
%ADD21R,0.03543X0.01181*%
%ADD22R,0.05512X0.04724*%
%ADD23R,0.12992X0.05512*%
%ADD24R,0.04724X0.05512*%
%ADD25R,0.09449X0.05118*%
G04:AMPARAMS|DCode=26|XSize=35.43mil|YSize=39.37mil|CornerRadius=8.86mil|HoleSize=0mil|Usage=FLASHONLY|Rotation=90.000|XOffset=0mil|YOffset=0mil|HoleType=Round|Shape=RoundedRectangle|*
%AMROUNDEDRECTD26*
21,1,0.03543,0.02165,0,0,90.0*
21,1,0.01772,0.03937,0,0,90.0*
1,1,0.01772,0.01083,0.00886*
1,1,0.01772,0.01083,-0.00886*
1,1,0.01772,-0.01083,-0.00886*
1,1,0.01772,-0.01083,0.00886*
%
%ADD26ROUNDEDRECTD26*%
%ADD27R,0.03937X0.03543*%
%ADD28R,0.02756X0.01654*%
%ADD29R,0.12598X0.08268*%
%ADD30R,0.03543X0.08268*%
%ADD31O,0.02717X0.03898*%
%ADD32R,0.02717X0.03898*%
%ADD33R,0.01181X0.04724*%
%ADD34R,0.04724X0.01181*%
%ADD35O,0.03898X0.02717*%
%ADD36R,0.03898X0.02717*%
%ADD37R,0.05000X0.06299*%
%ADD38R,0.07087X0.05512*%
%ADD39R,0.14567X0.05906*%
%ADD40R,0.08661X0.05512*%
%ADD41R,0.03543X0.05512*%
%ADD42R,0.09843X0.06299*%
%ADD43R,0.14764X0.12992*%
%ADD44R,0.05512X0.08661*%
%ADD45R,0.05512X0.03543*%
%ADD46R,0.06299X0.07500*%
%ADD47R,0.05512X0.03740*%
%ADD48R,0.02953X0.04528*%
%ADD49R,0.01772X0.09055*%
%ADD50R,0.07874X0.09843*%
%ADD51R,0.06299X0.05000*%
%ADD52R,0.04331X0.04331*%
%ADD53R,0.02362X0.01969*%
%ADD54O,0.05512X0.03937*%
%ADD55R,0.05512X0.04724*%
%ADD56C,0.00600*%
%ADD57C,0.01000*%
%ADD58C,0.02000*%
%ADD59C,0.03937*%
%ADD60C,0.07874*%
%ADD61R,0.06693X0.09331*%
%ADD62R,0.09843X0.09843*%
%ADD63C,0.09843*%
%ADD64C,0.11811*%
%ADD65C,0.02756*%
%ADD66C,0.03543*%
%ADD67C,0.07000*%
%ADD68R,0.07000X0.07000*%
%ADD69R,0.07000X0.07000*%
%ADD70R,0.09843X0.09843*%
%ADD71R,0.11811X0.11811*%
%ADD72C,0.02800*%
%ADD73C,0.00787*%
%ADD74C,0.00984*%
%ADD75C,0.01969*%
%ADD76C,0.00500*%
%ADD77R,0.01969X0.01969*%
%ADD78R,0.03937X0.03937*%
%ADD79R,0.01575X0.01575*%
%ADD80R,0.07480X0.10236*%
%ADD81R,0.21076X0.13202*%
%ADD82O,0.01784X0.03556*%
%ADD83R,0.01784X0.03556*%
%ADD84R,0.03556X0.01784*%
%ADD85R,0.15997X0.11587*%
%ADD86R,0.02572X0.04934*%
%ADD87O,0.02572X0.04934*%
%ADD88R,0.04800X0.06800*%
%ADD89R,0.06800X0.04800*%
G04:AMPARAMS|DCode=90|XSize=48mil|YSize=68mil|CornerRadius=14mil|HoleSize=0mil|Usage=FLASHONLY|Rotation=0.000|XOffset=0mil|YOffset=0mil|HoleType=Round|Shape=RoundedRectangle|*
%AMROUNDEDRECTD90*
21,1,0.04800,0.04000,0,0,0.0*
21,1,0.02000,0.06800,0,0,0.0*
1,1,0.02800,0.01000,-0.02000*
1,1,0.02800,-0.01000,-0.02000*
1,1,0.02800,-0.01000,0.02000*
1,1,0.02800,0.01000,0.02000*
%
%ADD90ROUNDEDRECTD90*%
%ADD91R,0.01981X0.04343*%
%ADD92R,0.04343X0.01981*%
%ADD93R,0.06312X0.05524*%
%ADD94R,0.13792X0.06312*%
%ADD95R,0.05524X0.06312*%
%ADD96R,0.10249X0.05918*%
G04:AMPARAMS|DCode=97|XSize=43.43mil|YSize=47.37mil|CornerRadius=12.86mil|HoleSize=0mil|Usage=FLASHONLY|Rotation=90.000|XOffset=0mil|YOffset=0mil|HoleType=Round|Shape=RoundedRectangle|*
%AMROUNDEDRECTD97*
21,1,0.04343,0.02165,0,0,90.0*
21,1,0.01772,0.04737,0,0,90.0*
1,1,0.02572,0.01083,0.00886*
1,1,0.02572,0.01083,-0.00886*
1,1,0.02572,-0.01083,-0.00886*
1,1,0.02572,-0.01083,0.00886*
%
%ADD97ROUNDEDRECTD97*%
%ADD98R,0.04737X0.04343*%
%ADD99R,0.03556X0.02454*%
%ADD100R,0.13398X0.09068*%
%ADD101R,0.04343X0.09068*%
%ADD102O,0.03517X0.04698*%
%ADD103R,0.03517X0.04698*%
%ADD104R,0.01981X0.05524*%
%ADD105R,0.05524X0.01981*%
%ADD106O,0.04698X0.03517*%
%ADD107R,0.04698X0.03517*%
%ADD108R,0.05800X0.07099*%
%ADD109R,0.07887X0.06312*%
%ADD110R,0.15367X0.06706*%
%ADD111R,0.09461X0.06312*%
%ADD112R,0.04343X0.06312*%
%ADD113R,0.10642X0.07099*%
%ADD114R,0.15564X0.13792*%
%ADD115R,0.06312X0.09461*%
%ADD116R,0.06312X0.04343*%
%ADD117R,0.07099X0.08300*%
%ADD118R,0.06312X0.04540*%
%ADD119R,0.03753X0.05328*%
%ADD120R,0.02572X0.09855*%
%ADD121R,0.08674X0.10642*%
%ADD122R,0.07099X0.05800*%
%ADD123R,0.05131X0.05131*%
%ADD124R,0.03162X0.02769*%
%ADD125O,0.06312X0.04737*%
%ADD126R,0.06312X0.05524*%
%ADD127C,0.00800*%
%ADD128R,0.10642X0.10642*%
%ADD129C,0.10642*%
%ADD130C,0.12611*%
%ADD131C,0.03556*%
%ADD132C,0.04343*%
%ADD133C,0.07800*%
%ADD134R,0.07800X0.07800*%
%ADD135R,0.07800X0.07800*%
%ADD136R,0.10642X0.10642*%
%ADD137R,0.12611X0.12611*%
D56*
X222500Y145000D02*
X225699D01*
Y146599D01*
X225166Y147133D01*
X224099D01*
X223566Y146599D01*
Y145000D01*
Y146066D02*
X222500Y147133D01*
Y150332D02*
Y148199D01*
X224633Y150332D01*
X225166D01*
X225699Y149799D01*
Y148732D01*
X225166Y148199D01*
X222500Y151398D02*
Y152464D01*
Y151931D01*
X225699D01*
X225166Y151398D01*
X225699Y154064D02*
X222500D01*
Y155663D01*
X223033Y156196D01*
X223566D01*
X224099Y155663D01*
Y154064D01*
Y155663D01*
X224633Y156196D01*
X225166D01*
X225699Y155663D01*
Y154064D01*
X390000Y165699D02*
X387867Y162500D01*
Y165699D02*
X390000Y162500D01*
X386801Y165166D02*
X386268Y165699D01*
X385202D01*
X384668Y165166D01*
Y164633D01*
X385202Y164100D01*
X385735D01*
X385202D01*
X384668Y163566D01*
Y163033D01*
X385202Y162500D01*
X386268D01*
X386801Y163033D01*
X383602Y165699D02*
Y162500D01*
X382003D01*
X381469Y163033D01*
Y163566D01*
X382003Y164100D01*
X383602D01*
X382003D01*
X381469Y164633D01*
Y165166D01*
X382003Y165699D01*
X383602D01*
X39350Y289849D02*
X37217Y286650D01*
Y289849D02*
X39350Y286650D01*
X34018D02*
X36151D01*
X34018Y288782D01*
Y289315D01*
X34551Y289849D01*
X35618D01*
X36151Y289315D01*
X32952Y286650D02*
Y289849D01*
X31352D01*
X30819Y289315D01*
Y288249D01*
X31352Y287716D01*
X32952D01*
X31885D02*
X30819Y286650D01*
X217500Y363199D02*
X215367Y360000D01*
Y363199D02*
X217500Y360000D01*
X212168D02*
X214301D01*
X212168Y362133D01*
Y362666D01*
X212702Y363199D01*
X213768D01*
X214301Y362666D01*
X211102Y360000D02*
Y363199D01*
X210036Y362133D01*
X208969Y363199D01*
Y360000D01*
X390000Y260699D02*
X387867Y257500D01*
Y260699D02*
X390000Y257500D01*
X384668D02*
X386801D01*
X384668Y259633D01*
Y260166D01*
X385202Y260699D01*
X386268D01*
X386801Y260166D01*
X383602Y260699D02*
Y257500D01*
X382003D01*
X381469Y258033D01*
Y258566D01*
X382003Y259100D01*
X383602D01*
X382003D01*
X381469Y259633D01*
Y260166D01*
X382003Y260699D01*
X383602D01*
X39350Y230849D02*
X37217Y227650D01*
Y230849D02*
X39350Y227650D01*
X36151D02*
X35084D01*
X35618D01*
Y230849D01*
X36151Y230315D01*
X33485Y227650D02*
Y230849D01*
X31885D01*
X31352Y230315D01*
Y229249D01*
X31885Y228716D01*
X33485D01*
X32419D02*
X31352Y227650D01*
X196950Y37749D02*
X194817Y34550D01*
Y37749D02*
X196950Y34550D01*
X193751D02*
X192684D01*
X193218D01*
Y37749D01*
X193751Y37215D01*
X191085Y37749D02*
Y34550D01*
X188952D01*
X185753D02*
X187886D01*
X185753Y36682D01*
Y37215D01*
X186286Y37749D01*
X187353D01*
X187886Y37215D01*
X102550Y37749D02*
X100417Y34550D01*
Y37749D02*
X102550Y34550D01*
X99351D02*
X98284D01*
X98817D01*
Y37749D01*
X99351Y37215D01*
X96685Y37749D02*
Y34550D01*
X94552D01*
X93486D02*
X92420D01*
X92953D01*
Y37749D01*
X93486Y37215D01*
X390000Y108199D02*
X387867Y105000D01*
Y108199D02*
X390000Y105000D01*
X386801D02*
X385735D01*
X386268D01*
Y108199D01*
X386801Y107666D01*
X384135Y108199D02*
Y105000D01*
X382536D01*
X382003Y105533D01*
Y106066D01*
X382536Y106599D01*
X384135D01*
X382536D01*
X382003Y107133D01*
Y107666D01*
X382536Y108199D01*
X384135D01*
X307500Y97500D02*
X310699D01*
Y99099D01*
X310166Y99633D01*
X309100D01*
X308566Y99099D01*
Y97500D01*
Y98566D02*
X307500Y99633D01*
X310166Y100699D02*
X310699Y101232D01*
Y102298D01*
X310166Y102832D01*
X309633D01*
X309100Y102298D01*
Y101765D01*
Y102298D01*
X308566Y102832D01*
X308033D01*
X307500Y102298D01*
Y101232D01*
X308033Y100699D01*
X307500Y103898D02*
Y104964D01*
Y104431D01*
X310699D01*
X310166Y103898D01*
X310699Y106564D02*
X307500D01*
Y108163D01*
X308033Y108696D01*
X308566D01*
X309100Y108163D01*
Y106564D01*
Y108163D01*
X309633Y108696D01*
X310166D01*
X310699Y108163D01*
Y106564D01*
X317500Y97500D02*
X320699D01*
Y99099D01*
X320166Y99633D01*
X319099D01*
X318566Y99099D01*
Y97500D01*
Y98566D02*
X317500Y99633D01*
X320166Y100699D02*
X320699Y101232D01*
Y102298D01*
X320166Y102832D01*
X319633D01*
X319099Y102298D01*
Y101765D01*
Y102298D01*
X318566Y102832D01*
X318033D01*
X317500Y102298D01*
Y101232D01*
X318033Y100699D01*
X320166Y103898D02*
X320699Y104431D01*
Y105497D01*
X320166Y106031D01*
X318033D01*
X317500Y105497D01*
Y104431D01*
X318033Y103898D01*
X320166D01*
X320699Y107097D02*
X317500D01*
Y108696D01*
X318033Y109230D01*
X318566D01*
X319099Y108696D01*
Y107097D01*
Y108696D01*
X319633Y109230D01*
X320166D01*
X320699Y108696D01*
Y107097D01*
X212500Y95000D02*
X215699D01*
Y96600D01*
X215166Y97133D01*
X214100D01*
X213566Y96600D01*
Y95000D01*
Y96066D02*
X212500Y97133D01*
Y100332D02*
Y98199D01*
X214633Y100332D01*
X215166D01*
X215699Y99799D01*
Y98732D01*
X215166Y98199D01*
X213033Y101398D02*
X212500Y101931D01*
Y102997D01*
X213033Y103531D01*
X215166D01*
X215699Y102997D01*
Y101931D01*
X215166Y101398D01*
X214633D01*
X214100Y101931D01*
Y103531D01*
X215699Y104597D02*
X212500D01*
Y106196D01*
X213033Y106729D01*
X213566D01*
X214100Y106196D01*
Y104597D01*
Y106196D01*
X214633Y106729D01*
X215166D01*
X215699Y106196D01*
Y104597D01*
X222500Y95000D02*
X225699D01*
Y96600D01*
X225166Y97133D01*
X224099D01*
X223566Y96600D01*
Y95000D01*
Y96066D02*
X222500Y97133D01*
Y100332D02*
Y98199D01*
X224633Y100332D01*
X225166D01*
X225699Y99799D01*
Y98732D01*
X225166Y98199D01*
Y101398D02*
X225699Y101931D01*
Y102997D01*
X225166Y103531D01*
X224633D01*
X224099Y102997D01*
X223566Y103531D01*
X223033D01*
X222500Y102997D01*
Y101931D01*
X223033Y101398D01*
X223566D01*
X224099Y101931D01*
X224633Y101398D01*
X225166D01*
X224099Y101931D02*
Y102997D01*
X225699Y104597D02*
X222500D01*
Y106196D01*
X223033Y106729D01*
X223566D01*
X224099Y106196D01*
Y104597D01*
Y106196D01*
X224633Y106729D01*
X225166D01*
X225699Y106196D01*
Y104597D01*
X232500Y95000D02*
X235699D01*
Y96600D01*
X235166Y97133D01*
X234100D01*
X233566Y96600D01*
Y95000D01*
Y96066D02*
X232500Y97133D01*
Y100332D02*
Y98199D01*
X234633Y100332D01*
X235166D01*
X235699Y99799D01*
Y98732D01*
X235166Y98199D01*
X235699Y101398D02*
Y103531D01*
X235166D01*
X233033Y101398D01*
X232500D01*
X235699Y104597D02*
X232500D01*
Y106196D01*
X233033Y106729D01*
X233566D01*
X234100Y106196D01*
Y104597D01*
Y106196D01*
X234633Y106729D01*
X235166D01*
X235699Y106196D01*
Y104597D01*
X242500Y95000D02*
X245699D01*
Y96600D01*
X245166Y97133D01*
X244099D01*
X243566Y96600D01*
Y95000D01*
Y96066D02*
X242500Y97133D01*
Y100332D02*
Y98199D01*
X244633Y100332D01*
X245166D01*
X245699Y99799D01*
Y98732D01*
X245166Y98199D01*
X245699Y103531D02*
X245166Y102464D01*
X244099Y101398D01*
X243033D01*
X242500Y101931D01*
Y102997D01*
X243033Y103531D01*
X243566D01*
X244099Y102997D01*
Y101398D01*
X245699Y104597D02*
X242500D01*
Y106196D01*
X243033Y106729D01*
X243566D01*
X244099Y106196D01*
Y104597D01*
Y106196D01*
X244633Y106729D01*
X245166D01*
X245699Y106196D01*
Y104597D01*
X252500Y95000D02*
X255699D01*
Y96600D01*
X255166Y97133D01*
X254099D01*
X253566Y96600D01*
Y95000D01*
Y96066D02*
X252500Y97133D01*
Y100332D02*
Y98199D01*
X254633Y100332D01*
X255166D01*
X255699Y99799D01*
Y98732D01*
X255166Y98199D01*
X255699Y103531D02*
Y101398D01*
X254099D01*
X254633Y102464D01*
Y102997D01*
X254099Y103531D01*
X253033D01*
X252500Y102997D01*
Y101931D01*
X253033Y101398D01*
X255699Y104597D02*
X252500D01*
Y106196D01*
X253033Y106729D01*
X253566D01*
X254099Y106196D01*
Y104597D01*
Y106196D01*
X254633Y106729D01*
X255166D01*
X255699Y106196D01*
Y104597D01*
X307500Y145000D02*
X310699D01*
Y146599D01*
X310166Y147133D01*
X309100D01*
X308566Y146599D01*
Y145000D01*
Y146066D02*
X307500Y147133D01*
Y150332D02*
Y148199D01*
X309633Y150332D01*
X310166D01*
X310699Y149799D01*
Y148732D01*
X310166Y148199D01*
X307500Y152997D02*
X310699D01*
X309100Y151398D01*
Y153531D01*
X310699Y154597D02*
X307500D01*
Y156196D01*
X308033Y156729D01*
X308566D01*
X309100Y156196D01*
Y154597D01*
Y156196D01*
X309633Y156729D01*
X310166D01*
X310699Y156196D01*
Y154597D01*
X317500Y145000D02*
X320699D01*
Y146599D01*
X320166Y147133D01*
X319099D01*
X318566Y146599D01*
Y145000D01*
Y146066D02*
X317500Y147133D01*
Y150332D02*
Y148199D01*
X319633Y150332D01*
X320166D01*
X320699Y149799D01*
Y148732D01*
X320166Y148199D01*
Y151398D02*
X320699Y151931D01*
Y152997D01*
X320166Y153531D01*
X319633D01*
X319099Y152997D01*
Y152464D01*
Y152997D01*
X318566Y153531D01*
X318033D01*
X317500Y152997D01*
Y151931D01*
X318033Y151398D01*
X320699Y154597D02*
X317500D01*
Y156196D01*
X318033Y156729D01*
X318566D01*
X319099Y156196D01*
Y154597D01*
Y156196D01*
X319633Y156729D01*
X320166D01*
X320699Y156196D01*
Y154597D01*
X212500Y145000D02*
X215699D01*
Y146599D01*
X215166Y147133D01*
X214100D01*
X213566Y146599D01*
Y145000D01*
Y146066D02*
X212500Y147133D01*
Y150332D02*
Y148199D01*
X214633Y150332D01*
X215166D01*
X215699Y149799D01*
Y148732D01*
X215166Y148199D01*
X212500Y153531D02*
Y151398D01*
X214633Y153531D01*
X215166D01*
X215699Y152997D01*
Y151931D01*
X215166Y151398D01*
X215699Y154597D02*
X212500D01*
Y156196D01*
X213033Y156729D01*
X213566D01*
X214100Y156196D01*
Y154597D01*
Y156196D01*
X214633Y156729D01*
X215166D01*
X215699Y156196D01*
Y154597D01*
X232500Y145000D02*
X235699D01*
Y146599D01*
X235166Y147133D01*
X234100D01*
X233566Y146599D01*
Y145000D01*
Y146066D02*
X232500Y147133D01*
Y150332D02*
Y148199D01*
X234633Y150332D01*
X235166D01*
X235699Y149799D01*
Y148732D01*
X235166Y148199D01*
Y151398D02*
X235699Y151931D01*
Y152997D01*
X235166Y153531D01*
X233033D01*
X232500Y152997D01*
Y151931D01*
X233033Y151398D01*
X235166D01*
X235699Y154597D02*
X232500D01*
Y156196D01*
X233033Y156729D01*
X233566D01*
X234100Y156196D01*
Y154597D01*
Y156196D01*
X234633Y156729D01*
X235166D01*
X235699Y156196D01*
Y154597D01*
X242500Y145000D02*
X245699D01*
Y146599D01*
X245166Y147133D01*
X244099D01*
X243566Y146599D01*
Y145000D01*
Y146066D02*
X242500Y147133D01*
Y148199D02*
Y149265D01*
Y148732D01*
X245699D01*
X245166Y148199D01*
X243033Y150865D02*
X242500Y151398D01*
Y152464D01*
X243033Y152997D01*
X245166D01*
X245699Y152464D01*
Y151398D01*
X245166Y150865D01*
X244633D01*
X244099Y151398D01*
Y152997D01*
X245699Y154064D02*
X242500D01*
Y155663D01*
X243033Y156196D01*
X243566D01*
X244099Y155663D01*
Y154064D01*
Y155663D01*
X244633Y156196D01*
X245166D01*
X245699Y155663D01*
Y154064D01*
X252500Y145000D02*
X255699D01*
Y146599D01*
X255166Y147133D01*
X254099D01*
X253566Y146599D01*
Y145000D01*
Y146066D02*
X252500Y147133D01*
Y148199D02*
Y149265D01*
Y148732D01*
X255699D01*
X255166Y148199D01*
Y150865D02*
X255699Y151398D01*
Y152464D01*
X255166Y152997D01*
X254633D01*
X254099Y152464D01*
X253566Y152997D01*
X253033D01*
X252500Y152464D01*
Y151398D01*
X253033Y150865D01*
X253566D01*
X254099Y151398D01*
X254633Y150865D01*
X255166D01*
X254099Y151398D02*
Y152464D01*
X255699Y154064D02*
X252500D01*
Y155663D01*
X253033Y156196D01*
X253566D01*
X254099Y155663D01*
Y154064D01*
Y155663D01*
X254633Y156196D01*
X255166D01*
X255699Y155663D01*
Y154064D01*
D57*
X64998Y98999D02*
X65998Y97999D01*
Y96000D01*
X64998Y95000D01*
X61000D01*
X60000Y96000D01*
Y97999D01*
X61000Y98999D01*
X62999D01*
Y96999D01*
X60000Y103997D02*
Y101998D01*
X61000Y100998D01*
X62999D01*
X63999Y101998D01*
Y103997D01*
X62999Y104997D01*
X61999D01*
Y100998D01*
X63999Y106996D02*
X60000D01*
X61999D01*
X62999Y107996D01*
X63999Y108995D01*
Y109995D01*
Y113994D02*
Y115993D01*
X62999Y116993D01*
X60000D01*
Y113994D01*
X61000Y112994D01*
X61999Y113994D01*
Y116993D01*
X60000Y118992D02*
Y120992D01*
Y119992D01*
X65998D01*
Y118992D01*
Y127989D02*
X60000D01*
Y124990D01*
X61000Y123991D01*
X62999D01*
X63999Y124990D01*
Y127989D01*
X65998Y139985D02*
Y135987D01*
X60000D01*
Y139985D01*
X62999Y135987D02*
Y137986D01*
X65998Y141985D02*
X60000D01*
Y144984D01*
X61000Y145984D01*
X61999D01*
X62999D01*
X63999Y144984D01*
Y141985D01*
X60000Y147983D02*
X63999D01*
Y148983D01*
X62999Y149982D01*
X60000D01*
X62999D01*
X63999Y150982D01*
X62999Y151982D01*
X60000D01*
Y156980D02*
Y154981D01*
X61000Y153981D01*
X62999D01*
X63999Y154981D01*
Y156980D01*
X62999Y157980D01*
X61999D01*
Y153981D01*
X63999Y159979D02*
X60000D01*
X61999D01*
X62999Y160979D01*
X63999Y161978D01*
Y162978D01*
X72500Y95000D02*
X78498D01*
Y97999D01*
X77498Y98999D01*
X75499D01*
X74499Y97999D01*
Y95000D01*
Y96999D02*
X72500Y98999D01*
Y103997D02*
Y101998D01*
X73500Y100998D01*
X75499D01*
X76499Y101998D01*
Y103997D01*
X75499Y104997D01*
X74499D01*
Y100998D01*
X76499Y106996D02*
X72500Y108995D01*
X76499Y110995D01*
X72500Y118992D02*
Y120992D01*
Y119992D01*
X78498D01*
X77498Y118992D01*
X72500Y123991D02*
X73500D01*
Y124990D01*
X72500D01*
Y123991D01*
X77498Y128989D02*
X78498Y129989D01*
Y131988D01*
X77498Y132988D01*
X73500D01*
X72500Y131988D01*
Y129989D01*
X73500Y128989D01*
X77498D01*
X60000Y260000D02*
X65998D01*
Y262999D01*
X64998Y263999D01*
X62999D01*
X61999Y262999D01*
Y260000D01*
Y261999D02*
X60000Y263999D01*
X65998Y269997D02*
Y265998D01*
X62999D01*
Y267997D01*
Y265998D01*
X60000D01*
X65998Y271996D02*
X60000D01*
X62999D01*
Y275995D01*
X65998D01*
X60000D01*
Y205000D02*
X65998D01*
Y207999D01*
X64998Y208999D01*
X62999D01*
X61999Y207999D01*
Y205000D01*
Y206999D02*
X60000Y208999D01*
X65998Y214997D02*
Y210998D01*
X62999D01*
Y212997D01*
Y210998D01*
X60000D01*
X65998Y216996D02*
X60000D01*
Y220995D01*
X112500Y187500D02*
X110501D01*
X111500D01*
Y193498D01*
X112500Y192498D01*
X190000Y42999D02*
X186001D01*
X188001Y44998D02*
Y41000D01*
X167500Y42999D02*
X163501D01*
X190000Y55998D02*
Y50000D01*
X186001D01*
X180003Y55998D02*
X184002D01*
Y50000D01*
X180003D01*
X184002Y52999D02*
X182003D01*
X178004Y55998D02*
Y50000D01*
X175005D01*
X174005Y51000D01*
Y54998D01*
X175005Y55998D01*
X178004D01*
X168007Y50000D02*
X172006D01*
X168007Y53999D01*
Y54998D01*
X169007Y55998D01*
X171006D01*
X172006Y54998D01*
X95886Y55998D02*
Y50000D01*
X91887D01*
X85889Y55998D02*
X89888D01*
Y50000D01*
X85889D01*
X89888Y52999D02*
X87888D01*
X83890Y55998D02*
Y50000D01*
X80891D01*
X79891Y51000D01*
Y54998D01*
X80891Y55998D01*
X83890D01*
X77892Y50000D02*
X75892D01*
X76892D01*
Y55998D01*
X77892Y54998D01*
X73386Y42999D02*
X69387D01*
X95886D02*
X91887D01*
X93887Y44998D02*
Y41000D01*
X340002Y96001D02*
X339002Y97001D01*
Y99000D01*
X340002Y100000D01*
X341001D01*
X342001Y99000D01*
Y97001D01*
X343001Y96001D01*
X344000D01*
X345000Y97001D01*
Y99000D01*
X344000Y100000D01*
X345000Y93002D02*
Y91003D01*
X344000Y90003D01*
X342001D01*
X341001Y91003D01*
Y93002D01*
X342001Y94002D01*
X344000D01*
X345000Y93002D01*
Y88004D02*
Y86005D01*
Y87004D01*
X339002D01*
Y88004D01*
X341001Y82006D02*
Y80006D01*
X342001Y79007D01*
X345000D01*
Y82006D01*
X344000Y83005D01*
X343001Y82006D01*
Y79007D01*
X341001Y77007D02*
X345000D01*
X343001D01*
X342001Y76008D01*
X341001Y75008D01*
Y74008D01*
X349002Y75000D02*
Y73001D01*
Y74000D01*
X355000D01*
Y75000D01*
Y73001D01*
Y70002D02*
X349002D01*
X355000Y66003D01*
X349002D01*
X350002Y96001D02*
X349002Y97001D01*
Y99000D01*
X350002Y100000D01*
X354000D01*
X355000Y99000D01*
Y97001D01*
X354000Y96001D01*
X352001D01*
Y98001D01*
X355000Y94002D02*
X349002D01*
X355000Y90003D01*
X349002D01*
Y88004D02*
X355000D01*
Y85005D01*
X354000Y84005D01*
X350002D01*
X349002Y85005D01*
Y88004D01*
X337703Y154961D02*
X343701D01*
X340702D01*
Y150962D01*
X337703D01*
X343701D01*
Y145964D02*
Y147963D01*
X342701Y148963D01*
X340702D01*
X339702Y147963D01*
Y145964D01*
X340702Y144964D01*
X341701D01*
Y148963D01*
X339702Y141965D02*
Y139965D01*
X340702Y138966D01*
X343701D01*
Y141965D01*
X342701Y142964D01*
X341701Y141965D01*
Y138966D01*
X338702Y135967D02*
X339702D01*
Y136967D01*
Y134967D01*
Y135967D01*
X342701D01*
X343701Y134967D01*
Y128969D02*
Y130968D01*
X342701Y131968D01*
X340702D01*
X339702Y130968D01*
Y128969D01*
X340702Y127969D01*
X341701D01*
Y131968D01*
X339702Y125970D02*
X343701D01*
X341701D01*
X340702Y124970D01*
X339702Y123971D01*
Y122971D01*
X349002Y132001D02*
Y134000D01*
X350002Y135000D01*
X354000D01*
X355000Y134000D01*
Y132001D01*
X354000Y131001D01*
X350002D01*
X349002Y132001D01*
X351001Y129002D02*
X354000D01*
X355000Y128002D01*
Y125003D01*
X351001D01*
X350002Y122004D02*
X351001D01*
Y123004D01*
Y121004D01*
Y122004D01*
X354000D01*
X355000Y121004D01*
X350002Y153501D02*
X349002Y154501D01*
Y156500D01*
X350002Y157500D01*
X354000D01*
X355000Y156500D01*
Y154501D01*
X354000Y153501D01*
X352001D01*
Y155501D01*
X355000Y151502D02*
X349002D01*
X355000Y147503D01*
X349002D01*
Y145504D02*
X355000D01*
Y142505D01*
X354000Y141505D01*
X350002D01*
X349002Y142505D01*
Y145504D01*
X337500Y250000D02*
X331502D01*
X337500Y246001D01*
X331502D01*
Y244002D02*
Y240003D01*
Y242003D01*
X337500D01*
X332502Y234005D02*
X331502Y235005D01*
Y237004D01*
X332502Y238004D01*
X336500D01*
X337500Y237004D01*
Y235005D01*
X336500Y234005D01*
X332502Y226001D02*
X331502Y227001D01*
Y229000D01*
X332502Y230000D01*
X336500D01*
X337500Y229000D01*
Y227001D01*
X336500Y226001D01*
X334501D01*
Y228001D01*
X337500Y224002D02*
X331502D01*
X337500Y220003D01*
X331502D01*
Y218004D02*
X337500D01*
Y215005D01*
X336500Y214005D01*
X332502D01*
X331502Y215005D01*
Y218004D01*
Y207500D02*
X337500D01*
Y204501D01*
X336500Y203501D01*
X335501D01*
X334501Y204501D01*
Y207500D01*
Y204501D01*
X333501Y203501D01*
X332502D01*
X331502Y204501D01*
Y207500D01*
X337500Y201502D02*
X333501D01*
X331502Y199503D01*
X333501Y197503D01*
X337500D01*
X334501D01*
Y201502D01*
X331502Y195504D02*
Y191505D01*
Y193505D01*
X337500D01*
X332502Y183501D02*
X331502Y184501D01*
Y186500D01*
X332502Y187500D01*
X336500D01*
X337500Y186500D01*
Y184501D01*
X336500Y183501D01*
X334501D01*
Y185501D01*
X337500Y181502D02*
X331502D01*
X337500Y177503D01*
X331502D01*
Y175504D02*
X337500D01*
Y172505D01*
X336500Y171505D01*
X332502D01*
X331502Y172505D01*
Y175504D01*
X316502Y250000D02*
X322500D01*
Y247001D01*
X321500Y246001D01*
X320501D01*
X319501Y247001D01*
Y250000D01*
Y247001D01*
X318501Y246001D01*
X317502D01*
X316502Y247001D01*
Y250000D01*
X318501Y243002D02*
Y241003D01*
X319501Y240003D01*
X322500D01*
Y243002D01*
X321500Y244002D01*
X320501Y243002D01*
Y240003D01*
X317502Y237004D02*
X318501D01*
Y238004D01*
Y236004D01*
Y237004D01*
X321500D01*
X322500Y236004D01*
X317502Y232006D02*
X318501D01*
Y233005D01*
Y231006D01*
Y232006D01*
X321500D01*
X322500Y231006D01*
Y225008D02*
Y227007D01*
X321500Y228007D01*
X319501D01*
X318501Y227007D01*
Y225008D01*
X319501Y224008D01*
X320501D01*
Y228007D01*
X318501Y222009D02*
X322500D01*
X320501D01*
X319501Y221009D01*
X318501Y220010D01*
Y219010D01*
Y216011D02*
X321500D01*
X322500Y215011D01*
Y212012D01*
X323500D01*
X324499Y213012D01*
Y214012D01*
X322500Y212012D02*
X318501D01*
X75000Y347500D02*
Y341502D01*
X77999D01*
X78999Y342502D01*
Y344501D01*
X77999Y345501D01*
X75000D01*
X80998Y343501D02*
Y347500D01*
Y345501D01*
X81998Y344501D01*
X82997Y343501D01*
X83997D01*
X87996Y347500D02*
X89995D01*
X90995Y346500D01*
Y344501D01*
X89995Y343501D01*
X87996D01*
X86996Y344501D01*
Y346500D01*
X87996Y347500D01*
X94994Y349499D02*
X95993D01*
X96993Y348500D01*
Y343501D01*
X93994D01*
X92994Y344501D01*
Y346500D01*
X93994Y347500D01*
X96993D01*
X98992Y343501D02*
Y347500D01*
Y345501D01*
X99992Y344501D01*
X100992Y343501D01*
X101991D01*
X105990D02*
X107989D01*
X108989Y344501D01*
Y347500D01*
X105990D01*
X104990Y346500D01*
X105990Y345501D01*
X108989D01*
X110988Y347500D02*
Y343501D01*
X111988D01*
X112988Y344501D01*
Y347500D01*
Y344501D01*
X113987Y343501D01*
X114987Y344501D01*
Y347500D01*
X116986D02*
X120985Y343501D01*
X122985Y341502D02*
Y347500D01*
X125984D01*
X126983Y346500D01*
Y342502D01*
X125984Y341502D01*
X122985D01*
X131982Y347500D02*
X129982D01*
X128982Y346500D01*
Y344501D01*
X129982Y343501D01*
X131982D01*
X132981Y344501D01*
Y345501D01*
X128982D01*
X134981Y341502D02*
Y347500D01*
X137980D01*
X138979Y346500D01*
Y345501D01*
Y344501D01*
X137980Y343501D01*
X134981D01*
X140979D02*
Y346500D01*
X141978Y347500D01*
X144977D01*
Y343501D01*
X148976Y349499D02*
X149976D01*
X150975Y348500D01*
Y343501D01*
X147976D01*
X146977Y344501D01*
Y346500D01*
X147976Y347500D01*
X150975D01*
X253498Y167500D02*
Y171499D01*
X252498D01*
X248500Y167500D01*
X247500D01*
Y171499D01*
Y176497D02*
Y174498D01*
X248500Y173498D01*
X250499D01*
X251499Y174498D01*
Y176497D01*
X250499Y177497D01*
X249499D01*
Y173498D01*
X247500Y179496D02*
Y181495D01*
Y180496D01*
X253498D01*
Y179496D01*
X247500Y184494D02*
Y186494D01*
Y185494D01*
X253498D01*
Y184494D01*
X247500Y192492D02*
Y190493D01*
X248500Y189493D01*
X250499D01*
X251499Y190493D01*
Y192492D01*
X250499Y193492D01*
X249499D01*
Y189493D01*
X247500Y195491D02*
X251499D01*
Y198490D01*
X250499Y199490D01*
X247500D01*
Y201489D02*
Y204488D01*
X248500Y205488D01*
X249499Y204488D01*
Y202489D01*
X250499Y201489D01*
X251499Y202489D01*
Y205488D01*
X247500Y210486D02*
Y208487D01*
X248500Y207487D01*
X250499D01*
X251499Y208487D01*
Y210486D01*
X250499Y211486D01*
X249499D01*
Y207487D01*
X247500Y213485D02*
Y215484D01*
Y214485D01*
X253498D01*
Y213485D01*
X247500Y221482D02*
Y219483D01*
X248500Y218483D01*
X250499D01*
X251499Y219483D01*
Y221482D01*
X250499Y222482D01*
X249499D01*
Y218483D01*
X247500Y224482D02*
X253498D01*
X249499D02*
X251499Y227481D01*
X249499Y224482D02*
X247500Y227481D01*
X252498Y231479D02*
X251499D01*
Y230480D01*
Y232479D01*
Y231479D01*
X248500D01*
X247500Y232479D01*
Y236478D02*
Y238477D01*
X248500Y239477D01*
X250499D01*
X251499Y238477D01*
Y236478D01*
X250499Y235478D01*
X248500D01*
X247500Y236478D01*
X251499Y241476D02*
X247500D01*
X249499D01*
X250499Y242476D01*
X251499Y243475D01*
Y244475D01*
X222498Y171499D02*
X223498Y170499D01*
Y168500D01*
X222498Y167500D01*
X218500D01*
X217500Y168500D01*
Y170499D01*
X218500Y171499D01*
X223498Y173498D02*
X217500D01*
X220499D01*
X221499Y174498D01*
Y176497D01*
X220499Y177497D01*
X217500D01*
Y182495D02*
Y180496D01*
X218500Y179496D01*
X220499D01*
X221499Y180496D01*
Y182495D01*
X220499Y183495D01*
X219499D01*
Y179496D01*
X217500Y185494D02*
X221499D01*
Y186494D01*
X220499Y187494D01*
X217500D01*
X220499D01*
X221499Y188493D01*
X220499Y189493D01*
X217500D01*
Y191492D02*
Y193492D01*
Y192492D01*
X221499D01*
Y191492D01*
X217500Y199490D02*
Y197490D01*
X218500Y196491D01*
X220499D01*
X221499Y197490D01*
Y199490D01*
X220499Y200489D01*
X219499D01*
Y196491D01*
X217500Y202489D02*
Y205488D01*
X218500Y206487D01*
X219499Y205488D01*
Y203488D01*
X220499Y202489D01*
X221499Y203488D01*
Y206487D01*
X217500Y211486D02*
Y209486D01*
X218500Y208487D01*
X220499D01*
X221499Y209486D01*
Y211486D01*
X220499Y212485D01*
X219499D01*
Y208487D01*
X217500Y214485D02*
Y216484D01*
Y215484D01*
X223498D01*
Y214485D01*
X217500Y222482D02*
Y220483D01*
X218500Y219483D01*
X220499D01*
X221499Y220483D01*
Y222482D01*
X220499Y223482D01*
X219499D01*
Y219483D01*
X217500Y225481D02*
X223498D01*
X219499D02*
X221499Y228480D01*
X219499Y225481D02*
X217500Y228480D01*
X222498Y232479D02*
X221499D01*
Y231479D01*
Y233479D01*
Y232479D01*
X218500D01*
X217500Y233479D01*
Y237477D02*
Y239477D01*
X218500Y240476D01*
X220499D01*
X221499Y239477D01*
Y237477D01*
X220499Y236478D01*
X218500D01*
X217500Y237477D01*
X221499Y242476D02*
X217500D01*
X219499D01*
X220499Y243475D01*
X221499Y244475D01*
Y245475D01*
X305000Y167500D02*
X310998D01*
X308999Y169499D01*
X310998Y171499D01*
X305000D01*
Y173498D02*
X310998D01*
Y176497D01*
X309998Y177497D01*
X307999D01*
X306999Y176497D01*
Y173498D01*
X305000Y179496D02*
X310998D01*
Y182495D01*
X309998Y183495D01*
X307999D01*
X306999Y182495D01*
Y179496D01*
X310998Y185494D02*
Y189493D01*
Y187494D01*
X305000D01*
X323498Y171499D02*
Y167500D01*
X317500D01*
Y171499D01*
X320499Y167500D02*
Y169499D01*
X318500Y177497D02*
X322498D01*
X323498Y176497D01*
Y174498D01*
X322498Y173498D01*
X318500D01*
X317500Y174498D01*
Y176497D01*
X319499Y175497D02*
X317500Y177497D01*
Y176497D02*
X318500Y177497D01*
D58*
X94997Y95000D02*
X85000D01*
Y101664D01*
X94997Y111661D02*
Y104997D01*
X85000D01*
Y111661D01*
X89998Y104997D02*
Y108329D01*
X94997Y114994D02*
X85000D01*
Y119992D01*
X86666Y121658D01*
X93331D01*
X94997Y119992D01*
Y114994D01*
Y134987D02*
X85000D01*
Y139986D01*
X86666Y141652D01*
X88332D01*
X89998Y139986D01*
Y134987D01*
Y139986D01*
X91664Y141652D01*
X93331D01*
X94997Y139986D01*
Y134987D01*
X85000Y146650D02*
Y149982D01*
X86666Y151648D01*
X89998D01*
X91664Y149982D01*
Y146650D01*
X89998Y144984D01*
X86666D01*
X85000Y146650D01*
X91664Y154981D02*
X85000Y161645D01*
X88332Y158313D01*
X91664Y161645D01*
X85000Y154981D01*
D73*
X37402Y205118D02*
Y212205D01*
X20079Y194882D02*
X27165D01*
X20079Y222441D02*
X27165D01*
X9843Y204724D02*
Y212205D01*
X37402Y264173D02*
Y271260D01*
X20079Y253937D02*
X27165D01*
X20079Y281496D02*
X27165D01*
X9843Y263779D02*
Y271260D01*
X74803Y393307D02*
X205118D01*
X74803Y358268D02*
Y393307D01*
Y358268D02*
X205118D01*
Y393307D01*
X257362Y134095D02*
Y136063D01*
X252638Y134095D02*
Y136063D01*
X247362Y134095D02*
Y136063D01*
X242638Y134095D02*
Y136063D01*
X237362Y134095D02*
Y136063D01*
X232638Y134095D02*
Y136063D01*
X227362Y134095D02*
Y136063D01*
X222638Y134095D02*
Y136063D01*
X217362Y134095D02*
Y136063D01*
X212638Y134095D02*
Y136063D01*
X217362Y114094D02*
Y116063D01*
X212638Y114094D02*
Y116063D01*
X227362Y114094D02*
Y116063D01*
X222638Y114094D02*
Y116063D01*
X237362Y114094D02*
Y116063D01*
X232638Y114094D02*
Y116063D01*
X247362Y114094D02*
Y116063D01*
X242638Y114094D02*
Y116063D01*
X257362Y114094D02*
Y116063D01*
X252638Y114094D02*
Y116063D01*
X312862Y134595D02*
Y136563D01*
X308138Y134595D02*
Y136563D01*
X322862Y134595D02*
Y136563D01*
X318138Y134595D02*
Y136563D01*
X322862Y114594D02*
Y116563D01*
X318138Y114594D02*
Y116563D01*
X312862Y114594D02*
Y116563D01*
X308138Y114594D02*
Y116563D01*
X346457Y167342D02*
Y253957D01*
Y167342D02*
X393701D01*
Y253957D01*
X346457D02*
X393701D01*
X262500Y90000D02*
Y162500D01*
X207500Y90000D02*
X262500D01*
X207500D02*
Y162500D01*
X262500D01*
X240000Y90000D02*
Y162500D01*
X327500Y90000D02*
Y162500D01*
X302500Y90000D02*
X327500D01*
X302500D02*
Y162500D01*
X327500D01*
X315000Y90000D02*
Y162500D01*
D76*
X60827Y-197D02*
Y31693D01*
X100886D01*
Y-197D02*
Y31693D01*
X60827Y-197D02*
X100886D01*
X155315D02*
Y31693D01*
X195374D01*
Y-197D02*
Y31693D01*
X155315Y-197D02*
X195374D01*
X362008Y119902D02*
X393898D01*
X362008D02*
Y159961D01*
X393898D01*
Y119902D02*
Y159961D01*
X362008Y60847D02*
X393898D01*
X362008D02*
Y100906D01*
X393898D01*
Y60847D02*
Y100906D01*
M02*
