%FSLAX25Y25*%
%MOIN*%
G70*
G01*
G75*
G04 Layer_Color=65535*
%ADD10R,0.20276X0.12402*%
%ADD11O,0.00984X0.02756*%
%ADD12R,0.00984X0.02756*%
%ADD13R,0.02756X0.00984*%
%ADD14R,0.15197X0.10787*%
%ADD15R,0.01772X0.04134*%
%ADD16O,0.01772X0.04134*%
%ADD17R,0.04000X0.06000*%
%ADD18R,0.06000X0.04000*%
G04:AMPARAMS|DCode=19|XSize=40mil|YSize=60mil|CornerRadius=10mil|HoleSize=0mil|Usage=FLASHONLY|Rotation=0.000|XOffset=0mil|YOffset=0mil|HoleType=Round|Shape=RoundedRectangle|*
%AMROUNDEDRECTD19*
21,1,0.04000,0.04000,0,0,0.0*
21,1,0.02000,0.06000,0,0,0.0*
1,1,0.02000,0.01000,-0.02000*
1,1,0.02000,-0.01000,-0.02000*
1,1,0.02000,-0.01000,0.02000*
1,1,0.02000,0.01000,0.02000*
%
%ADD19ROUNDEDRECTD19*%
%ADD20R,0.01181X0.03543*%
%ADD21R,0.03543X0.01181*%
%ADD22R,0.05512X0.04724*%
%ADD23R,0.12992X0.05512*%
%ADD24R,0.04724X0.05512*%
%ADD25R,0.09449X0.05118*%
G04:AMPARAMS|DCode=26|XSize=35.43mil|YSize=39.37mil|CornerRadius=8.86mil|HoleSize=0mil|Usage=FLASHONLY|Rotation=90.000|XOffset=0mil|YOffset=0mil|HoleType=Round|Shape=RoundedRectangle|*
%AMROUNDEDRECTD26*
21,1,0.03543,0.02165,0,0,90.0*
21,1,0.01772,0.03937,0,0,90.0*
1,1,0.01772,0.01083,0.00886*
1,1,0.01772,0.01083,-0.00886*
1,1,0.01772,-0.01083,-0.00886*
1,1,0.01772,-0.01083,0.00886*
%
%ADD26ROUNDEDRECTD26*%
%ADD27R,0.03937X0.03543*%
%ADD28R,0.02756X0.01654*%
%ADD29R,0.12598X0.08268*%
%ADD30R,0.03543X0.08268*%
%ADD31O,0.02717X0.03898*%
%ADD32R,0.02717X0.03898*%
%ADD33R,0.01181X0.04724*%
%ADD34R,0.04724X0.01181*%
%ADD35O,0.03898X0.02717*%
%ADD36R,0.03898X0.02717*%
%ADD37R,0.05000X0.06299*%
%ADD38R,0.07087X0.05512*%
%ADD39R,0.14567X0.05906*%
%ADD40R,0.08661X0.05512*%
%ADD41R,0.03543X0.05512*%
%ADD42R,0.09843X0.06299*%
%ADD43R,0.14764X0.12992*%
%ADD44R,0.05512X0.08661*%
%ADD45R,0.05512X0.03543*%
%ADD46R,0.06299X0.07500*%
%ADD47R,0.05512X0.03740*%
%ADD48R,0.02953X0.04528*%
%ADD49R,0.01772X0.09055*%
%ADD50R,0.07874X0.09843*%
%ADD51R,0.06299X0.05000*%
%ADD52R,0.04331X0.04331*%
%ADD53R,0.02362X0.01969*%
%ADD54O,0.05512X0.03937*%
%ADD55R,0.05512X0.04724*%
%ADD56C,0.00600*%
%ADD57C,0.01000*%
%ADD58C,0.02000*%
%ADD59C,0.03937*%
%ADD60C,0.07874*%
%ADD61R,0.06693X0.09331*%
%ADD62R,0.09843X0.09843*%
%ADD63C,0.09843*%
%ADD64C,0.11811*%
%ADD65C,0.02756*%
%ADD66C,0.03543*%
%ADD67C,0.07000*%
%ADD68R,0.07000X0.07000*%
%ADD69R,0.07000X0.07000*%
%ADD70R,0.09843X0.09843*%
%ADD71R,0.11811X0.11811*%
%ADD72C,0.02800*%
%ADD73C,0.00787*%
%ADD74C,0.00984*%
%ADD75C,0.01969*%
%ADD76C,0.00500*%
D56*
X45350Y201049D02*
X47482Y197850D01*
Y201049D02*
X45350Y197850D01*
X48549Y200515D02*
X49082Y201049D01*
X50148D01*
X50681Y200515D01*
Y199982D01*
X50148Y199449D01*
X49615D01*
X50148D01*
X50681Y198916D01*
Y198383D01*
X50148Y197850D01*
X49082D01*
X48549Y198383D01*
X51748Y197850D02*
Y201049D01*
X53347D01*
X53880Y200515D01*
Y199449D01*
X53347Y198916D01*
X51748D01*
X52814D02*
X53880Y197850D01*
X335350Y336049D02*
X337482Y332850D01*
Y336049D02*
X335350Y332850D01*
X338549Y335515D02*
X339082Y336049D01*
X340148D01*
X340681Y335515D01*
Y334982D01*
X340148Y334449D01*
X339615D01*
X340148D01*
X340681Y333916D01*
Y333383D01*
X340148Y332850D01*
X339082D01*
X338549Y333383D01*
X341748Y332850D02*
Y336049D01*
X342814Y334982D01*
X343880Y336049D01*
Y332850D01*
X281650Y399149D02*
X283782Y395950D01*
Y399149D02*
X281650Y395950D01*
X284849D02*
X285915D01*
X285382D01*
Y399149D01*
X284849Y398615D01*
X287514Y399149D02*
Y396483D01*
X288048Y395950D01*
X289114D01*
X289647Y396483D01*
Y399149D01*
X63382Y335715D02*
X62849Y336249D01*
X61783D01*
X61250Y335715D01*
Y335182D01*
X61783Y334649D01*
X62849D01*
X63382Y334116D01*
Y333583D01*
X62849Y333050D01*
X61783D01*
X61250Y333583D01*
X66581Y333050D02*
X64449D01*
X66581Y335182D01*
Y335715D01*
X66048Y336249D01*
X64982D01*
X64449Y335715D01*
X67648Y333050D02*
Y336249D01*
X68714Y335182D01*
X69780Y336249D01*
Y333050D01*
X18382Y335715D02*
X17849Y336249D01*
X16783D01*
X16250Y335715D01*
Y335182D01*
X16783Y334649D01*
X17849D01*
X18382Y334116D01*
Y333583D01*
X17849Y333050D01*
X16783D01*
X16250Y333583D01*
X19449Y333050D02*
X20515D01*
X19982D01*
Y336249D01*
X19449Y335715D01*
X22114Y333050D02*
Y336249D01*
X23181Y335182D01*
X24247Y336249D01*
Y333050D01*
X342850Y107150D02*
Y110349D01*
X344449D01*
X344982Y109815D01*
Y108749D01*
X344449Y108216D01*
X342850D01*
X343916D02*
X344982Y107150D01*
X346049Y109815D02*
X346582Y110349D01*
X347648D01*
X348181Y109815D01*
Y109282D01*
X347648Y108749D01*
X347115D01*
X347648D01*
X348181Y108216D01*
Y107683D01*
X347648Y107150D01*
X346582D01*
X346049Y107683D01*
X350847Y107150D02*
Y110349D01*
X349248Y108749D01*
X351380D01*
X352447Y110349D02*
Y107150D01*
X354046D01*
X354579Y107683D01*
Y108216D01*
X354046Y108749D01*
X352447D01*
X354046D01*
X354579Y109282D01*
Y109815D01*
X354046Y110349D01*
X352447D01*
X315000Y103500D02*
Y106699D01*
X316599D01*
X317133Y106166D01*
Y105099D01*
X316599Y104566D01*
X315000D01*
X316066D02*
X317133Y103500D01*
X318199Y106166D02*
X318732Y106699D01*
X319798D01*
X320332Y106166D01*
Y105633D01*
X319798Y105099D01*
X319265D01*
X319798D01*
X320332Y104566D01*
Y104033D01*
X319798Y103500D01*
X318732D01*
X318199Y104033D01*
X321398Y106166D02*
X321931Y106699D01*
X322997D01*
X323531Y106166D01*
Y105633D01*
X322997Y105099D01*
X322464D01*
X322997D01*
X323531Y104566D01*
Y104033D01*
X322997Y103500D01*
X321931D01*
X321398Y104033D01*
X324597Y106699D02*
Y103500D01*
X326196D01*
X326730Y104033D01*
Y104566D01*
X326196Y105099D01*
X324597D01*
X326196D01*
X326730Y105633D01*
Y106166D01*
X326196Y106699D01*
X324597D01*
X325000Y80000D02*
Y83199D01*
X326600D01*
X327133Y82666D01*
Y81599D01*
X326600Y81066D01*
X325000D01*
X326066D02*
X327133Y80000D01*
X328199Y82666D02*
X328732Y83199D01*
X329799D01*
X330332Y82666D01*
Y82133D01*
X329799Y81599D01*
X329265D01*
X329799D01*
X330332Y81066D01*
Y80533D01*
X329799Y80000D01*
X328732D01*
X328199Y80533D01*
X333531Y80000D02*
X331398D01*
X333531Y82133D01*
Y82666D01*
X332997Y83199D01*
X331931D01*
X331398Y82666D01*
X334597Y83199D02*
Y80000D01*
X336196D01*
X336730Y80533D01*
Y81066D01*
X336196Y81599D01*
X334597D01*
X336196D01*
X336730Y82133D01*
Y82666D01*
X336196Y83199D01*
X334597D01*
X205000Y45000D02*
X201801D01*
Y46600D01*
X202334Y47133D01*
X203400D01*
X203934Y46600D01*
Y45000D01*
Y46066D02*
X205000Y47133D01*
Y48199D02*
Y49265D01*
Y48732D01*
X201801D01*
X202334Y48199D01*
X204467Y50865D02*
X205000Y51398D01*
Y52464D01*
X204467Y52997D01*
X202334D01*
X201801Y52464D01*
Y51398D01*
X202334Y50865D01*
X202867D01*
X203400Y51398D01*
Y52997D01*
X201801Y54064D02*
X205000D01*
Y56196D01*
Y59395D02*
Y57263D01*
X202867Y59395D01*
X202334D01*
X201801Y58862D01*
Y57796D01*
X202334Y57263D01*
X95000Y45000D02*
X91801D01*
Y46600D01*
X92334Y47133D01*
X93401D01*
X93934Y46600D01*
Y45000D01*
Y46066D02*
X95000Y47133D01*
Y48199D02*
Y49265D01*
Y48732D01*
X91801D01*
X92334Y48199D01*
X94467Y50865D02*
X95000Y51398D01*
Y52464D01*
X94467Y52997D01*
X92334D01*
X91801Y52464D01*
Y51398D01*
X92334Y50865D01*
X92867D01*
X93401Y51398D01*
Y52997D01*
X91801Y54064D02*
X95000D01*
Y56196D01*
Y57263D02*
Y58329D01*
Y57796D01*
X91801D01*
X92334Y57263D01*
X135000Y45000D02*
X131801D01*
Y46600D01*
X132334Y47133D01*
X133400D01*
X133934Y46600D01*
Y45000D01*
Y46066D02*
X135000Y47133D01*
Y48199D02*
Y49265D01*
Y48732D01*
X131801D01*
X132334Y48199D01*
Y50865D02*
X131801Y51398D01*
Y52464D01*
X132334Y52997D01*
X132867D01*
X133400Y52464D01*
X133934Y52997D01*
X134467D01*
X135000Y52464D01*
Y51398D01*
X134467Y50865D01*
X133934D01*
X133400Y51398D01*
X132867Y50865D01*
X132334D01*
X133400Y51398D02*
Y52464D01*
X131801Y54064D02*
X135000D01*
Y56196D01*
Y59395D02*
Y57263D01*
X132867Y59395D01*
X132334D01*
X131801Y58862D01*
Y57796D01*
X132334Y57263D01*
X25000Y45000D02*
X21801D01*
Y46600D01*
X22334Y47133D01*
X23401D01*
X23934Y46600D01*
Y45000D01*
Y46066D02*
X25000Y47133D01*
Y48199D02*
Y49265D01*
Y48732D01*
X21801D01*
X22334Y48199D01*
Y50865D02*
X21801Y51398D01*
Y52464D01*
X22334Y52997D01*
X22867D01*
X23401Y52464D01*
X23934Y52997D01*
X24467D01*
X25000Y52464D01*
Y51398D01*
X24467Y50865D01*
X23934D01*
X23401Y51398D01*
X22867Y50865D01*
X22334D01*
X23401Y51398D02*
Y52464D01*
X21801Y54064D02*
X25000D01*
Y56196D01*
Y57263D02*
Y58329D01*
Y57796D01*
X21801D01*
X22334Y57263D01*
X185000Y45000D02*
X181801D01*
Y46600D01*
X182334Y47133D01*
X183400D01*
X183934Y46600D01*
Y45000D01*
Y46066D02*
X185000Y47133D01*
Y48199D02*
Y49265D01*
Y48732D01*
X181801D01*
X182334Y48199D01*
X181801Y50865D02*
Y52997D01*
X182334D01*
X184467Y50865D01*
X185000D01*
X181801Y54064D02*
X185000D01*
Y56196D01*
Y59395D02*
Y57263D01*
X182867Y59395D01*
X182334D01*
X181801Y58862D01*
Y57796D01*
X182334Y57263D01*
X75000Y45000D02*
X71801D01*
Y46600D01*
X72334Y47133D01*
X73400D01*
X73934Y46600D01*
Y45000D01*
Y46066D02*
X75000Y47133D01*
Y48199D02*
Y49265D01*
Y48732D01*
X71801D01*
X72334Y48199D01*
X71801Y50865D02*
Y52997D01*
X72334D01*
X74467Y50865D01*
X75000D01*
X71801Y54064D02*
X75000D01*
Y56196D01*
Y57263D02*
Y58329D01*
Y57796D01*
X71801D01*
X72334Y57263D01*
X318000Y143500D02*
Y146699D01*
X319600D01*
X320133Y146166D01*
Y145099D01*
X319600Y144566D01*
X318000D01*
X319066D02*
X320133Y143500D01*
X321199D02*
X322265D01*
X321732D01*
Y146699D01*
X321199Y146166D01*
X323865Y146699D02*
X325997D01*
Y146166D01*
X323865Y144033D01*
Y143500D01*
X327064Y146699D02*
Y143500D01*
X328663D01*
X329196Y144033D01*
Y144566D01*
X328663Y145099D01*
X327064D01*
X328663D01*
X329196Y145633D01*
Y146166D01*
X328663Y146699D01*
X327064D01*
X225000Y45000D02*
X221801D01*
Y46600D01*
X222334Y47133D01*
X223400D01*
X223934Y46600D01*
Y45000D01*
Y46066D02*
X225000Y47133D01*
Y48199D02*
Y49265D01*
Y48732D01*
X221801D01*
X222334Y48199D01*
X221801Y52997D02*
X222334Y51931D01*
X223400Y50865D01*
X224467D01*
X225000Y51398D01*
Y52464D01*
X224467Y52997D01*
X223934D01*
X223400Y52464D01*
Y50865D01*
X221801Y54064D02*
X225000D01*
Y56196D01*
Y59395D02*
Y57263D01*
X222867Y59395D01*
X222334D01*
X221801Y58862D01*
Y57796D01*
X222334Y57263D01*
X115000Y45000D02*
X111801D01*
Y46600D01*
X112334Y47133D01*
X113400D01*
X113934Y46600D01*
Y45000D01*
Y46066D02*
X115000Y47133D01*
Y48199D02*
Y49265D01*
Y48732D01*
X111801D01*
X112334Y48199D01*
X111801Y52997D02*
X112334Y51931D01*
X113400Y50865D01*
X114467D01*
X115000Y51398D01*
Y52464D01*
X114467Y52997D01*
X113934D01*
X113400Y52464D01*
Y50865D01*
X111801Y54064D02*
X115000D01*
Y56196D01*
Y57263D02*
Y58329D01*
Y57796D01*
X111801D01*
X112334Y57263D01*
X330000Y143500D02*
Y146699D01*
X331599D01*
X332133Y146166D01*
Y145099D01*
X331599Y144566D01*
X330000D01*
X331066D02*
X332133Y143500D01*
X333199D02*
X334265D01*
X333732D01*
Y146699D01*
X333199Y146166D01*
X337997Y146699D02*
X336931Y146166D01*
X335865Y145099D01*
Y144033D01*
X336398Y143500D01*
X337464D01*
X337997Y144033D01*
Y144566D01*
X337464Y145099D01*
X335865D01*
X339064Y146699D02*
Y143500D01*
X340663D01*
X341196Y144033D01*
Y144566D01*
X340663Y145099D01*
X339064D01*
X340663D01*
X341196Y145633D01*
Y146166D01*
X340663Y146699D01*
X339064D01*
X215000Y45000D02*
X211801D01*
Y46600D01*
X212334Y47133D01*
X213401D01*
X213934Y46600D01*
Y45000D01*
Y46066D02*
X215000Y47133D01*
Y48199D02*
Y49265D01*
Y48732D01*
X211801D01*
X212334Y48199D01*
X211801Y52997D02*
Y50865D01*
X213401D01*
X212867Y51931D01*
Y52464D01*
X213401Y52997D01*
X214467D01*
X215000Y52464D01*
Y51398D01*
X214467Y50865D01*
X211801Y54064D02*
X215000D01*
Y56196D01*
Y59395D02*
Y57263D01*
X212867Y59395D01*
X212334D01*
X211801Y58862D01*
Y57796D01*
X212334Y57263D01*
X105000Y45000D02*
X101801D01*
Y46600D01*
X102334Y47133D01*
X103401D01*
X103934Y46600D01*
Y45000D01*
Y46066D02*
X105000Y47133D01*
Y48199D02*
Y49265D01*
Y48732D01*
X101801D01*
X102334Y48199D01*
X101801Y52997D02*
Y50865D01*
X103401D01*
X102867Y51931D01*
Y52464D01*
X103401Y52997D01*
X104467D01*
X105000Y52464D01*
Y51398D01*
X104467Y50865D01*
X101801Y54064D02*
X105000D01*
Y56196D01*
Y57263D02*
Y58329D01*
Y57796D01*
X101801D01*
X102334Y57263D01*
X354500Y143500D02*
Y146699D01*
X356100D01*
X356633Y146166D01*
Y145099D01*
X356100Y144566D01*
X354500D01*
X355566D02*
X356633Y143500D01*
X357699D02*
X358765D01*
X358232D01*
Y146699D01*
X357699Y146166D01*
X362497Y146699D02*
X360365D01*
Y145099D01*
X361431Y145633D01*
X361964D01*
X362497Y145099D01*
Y144033D01*
X361964Y143500D01*
X360898D01*
X360365Y144033D01*
X363564Y146699D02*
Y143500D01*
X365163D01*
X365696Y144033D01*
Y144566D01*
X365163Y145099D01*
X363564D01*
X365163D01*
X365696Y145633D01*
Y146166D01*
X365163Y146699D01*
X363564D01*
X175000Y45000D02*
X171801D01*
Y46600D01*
X172334Y47133D01*
X173400D01*
X173934Y46600D01*
Y45000D01*
Y46066D02*
X175000Y47133D01*
Y48199D02*
Y49265D01*
Y48732D01*
X171801D01*
X172334Y48199D01*
X175000Y52464D02*
X171801D01*
X173400Y50865D01*
Y52997D01*
X171801Y54064D02*
X175000D01*
Y56196D01*
Y59395D02*
Y57263D01*
X172867Y59395D01*
X172334D01*
X171801Y58862D01*
Y57796D01*
X172334Y57263D01*
X65000Y45000D02*
X61801D01*
Y46600D01*
X62334Y47133D01*
X63401D01*
X63934Y46600D01*
Y45000D01*
Y46066D02*
X65000Y47133D01*
Y48199D02*
Y49265D01*
Y48732D01*
X61801D01*
X62334Y48199D01*
X65000Y52464D02*
X61801D01*
X63401Y50865D01*
Y52997D01*
X61801Y54064D02*
X65000D01*
Y56196D01*
Y57263D02*
Y58329D01*
Y57796D01*
X61801D01*
X62334Y57263D01*
X342000Y143500D02*
Y146699D01*
X343600D01*
X344133Y146166D01*
Y145099D01*
X343600Y144566D01*
X342000D01*
X343066D02*
X344133Y143500D01*
X345199D02*
X346265D01*
X345732D01*
Y146699D01*
X345199Y146166D01*
X349464Y143500D02*
Y146699D01*
X347865Y145099D01*
X349997D01*
X351064Y146699D02*
Y143500D01*
X352663D01*
X353196Y144033D01*
Y144566D01*
X352663Y145099D01*
X351064D01*
X352663D01*
X353196Y145633D01*
Y146166D01*
X352663Y146699D01*
X351064D01*
X130000Y105000D02*
Y108199D01*
X131599D01*
X132133Y107666D01*
Y106599D01*
X131599Y106066D01*
X130000D01*
X131066D02*
X132133Y105000D01*
X133199D02*
X134265D01*
X133732D01*
Y108199D01*
X133199Y107666D01*
X135865D02*
X136398Y108199D01*
X137464D01*
X137997Y107666D01*
Y107133D01*
X137464Y106599D01*
X136931D01*
X137464D01*
X137997Y106066D01*
Y105533D01*
X137464Y105000D01*
X136398D01*
X135865Y105533D01*
X139064Y108199D02*
Y105000D01*
X141196D01*
X144395D02*
X142263D01*
X144395Y107133D01*
Y107666D01*
X143862Y108199D01*
X142796D01*
X142263Y107666D01*
X20000Y105000D02*
Y108199D01*
X21599D01*
X22133Y107666D01*
Y106599D01*
X21599Y106066D01*
X20000D01*
X21066D02*
X22133Y105000D01*
X23199D02*
X24265D01*
X23732D01*
Y108199D01*
X23199Y107666D01*
X25865D02*
X26398Y108199D01*
X27464D01*
X27997Y107666D01*
Y107133D01*
X27464Y106599D01*
X26931D01*
X27464D01*
X27997Y106066D01*
Y105533D01*
X27464Y105000D01*
X26398D01*
X25865Y105533D01*
X29064Y108199D02*
Y105000D01*
X31196D01*
X32263D02*
X33329D01*
X32796D01*
Y108199D01*
X32263Y107666D01*
X195000Y45000D02*
X191801D01*
Y46600D01*
X192334Y47133D01*
X193401D01*
X193934Y46600D01*
Y45000D01*
Y46066D02*
X195000Y47133D01*
Y48199D02*
Y49265D01*
Y48732D01*
X191801D01*
X192334Y48199D01*
X195000Y52997D02*
Y50865D01*
X192867Y52997D01*
X192334D01*
X191801Y52464D01*
Y51398D01*
X192334Y50865D01*
X191801Y54064D02*
X195000D01*
Y56196D01*
Y59395D02*
Y57263D01*
X192867Y59395D01*
X192334D01*
X191801Y58862D01*
Y57796D01*
X192334Y57263D01*
X85000Y45000D02*
X81801D01*
Y46600D01*
X82334Y47133D01*
X83400D01*
X83934Y46600D01*
Y45000D01*
Y46066D02*
X85000Y47133D01*
Y48199D02*
Y49265D01*
Y48732D01*
X81801D01*
X82334Y48199D01*
X85000Y52997D02*
Y50865D01*
X82867Y52997D01*
X82334D01*
X81801Y52464D01*
Y51398D01*
X82334Y50865D01*
X81801Y54064D02*
X85000D01*
Y56196D01*
Y57263D02*
Y58329D01*
Y57796D01*
X81801D01*
X82334Y57263D01*
X285000Y80000D02*
Y83199D01*
X286599D01*
X287133Y82666D01*
Y81599D01*
X286599Y81066D01*
X285000D01*
X286066D02*
X287133Y80000D01*
X288199D02*
X289265D01*
X288732D01*
Y83199D01*
X288199Y82666D01*
X292997Y80000D02*
X290865D01*
X292997Y82133D01*
Y82666D01*
X292464Y83199D01*
X291398D01*
X290865Y82666D01*
X294064Y83199D02*
Y80000D01*
X295663D01*
X296196Y80533D01*
Y81066D01*
X295663Y81599D01*
X294064D01*
X295663D01*
X296196Y82133D01*
Y82666D01*
X295663Y83199D01*
X294064D01*
X180000Y80000D02*
Y83199D01*
X181599D01*
X182133Y82666D01*
Y81599D01*
X181599Y81066D01*
X180000D01*
X181066D02*
X182133Y80000D01*
X183199D02*
X184265D01*
X183732D01*
Y83199D01*
X183199Y82666D01*
X185865Y80000D02*
X186931D01*
X186398D01*
Y83199D01*
X185865Y82666D01*
X188531Y83199D02*
Y80000D01*
X190663D01*
X193862D02*
X191729D01*
X193862Y82133D01*
Y82666D01*
X193329Y83199D01*
X192263D01*
X191729Y82666D01*
X70000Y80000D02*
Y83199D01*
X71600D01*
X72133Y82666D01*
Y81599D01*
X71600Y81066D01*
X70000D01*
X71066D02*
X72133Y80000D01*
X73199D02*
X74265D01*
X73732D01*
Y83199D01*
X73199Y82666D01*
X75865Y80000D02*
X76931D01*
X76398D01*
Y83199D01*
X75865Y82666D01*
X78531Y83199D02*
Y80000D01*
X80663D01*
X81730D02*
X82796D01*
X82263D01*
Y83199D01*
X81730Y82666D01*
X352500Y115000D02*
Y118199D01*
X354099D01*
X354633Y117666D01*
Y116600D01*
X354099Y116066D01*
X352500D01*
X353566D02*
X354633Y115000D01*
X355699D02*
X356765D01*
X356232D01*
Y118199D01*
X355699Y117666D01*
X358365Y115000D02*
X359431D01*
X358898D01*
Y118199D01*
X358365Y117666D01*
X361031Y118199D02*
Y115000D01*
X362630D01*
X363163Y115533D01*
Y116066D01*
X362630Y116600D01*
X361031D01*
X362630D01*
X363163Y117133D01*
Y117666D01*
X362630Y118199D01*
X361031D01*
X150000Y105000D02*
Y108199D01*
X151600D01*
X152133Y107666D01*
Y106599D01*
X151600Y106066D01*
X150000D01*
X151066D02*
X152133Y105000D01*
X153199D02*
X154265D01*
X153732D01*
Y108199D01*
X153199Y107666D01*
X155865D02*
X156398Y108199D01*
X157464D01*
X157997Y107666D01*
Y105533D01*
X157464Y105000D01*
X156398D01*
X155865Y105533D01*
Y107666D01*
X159064Y108199D02*
Y105000D01*
X161196D01*
X164395D02*
X162263D01*
X164395Y107133D01*
Y107666D01*
X163862Y108199D01*
X162796D01*
X162263Y107666D01*
X40000Y105000D02*
Y108199D01*
X41600D01*
X42133Y107666D01*
Y106599D01*
X41600Y106066D01*
X40000D01*
X41066D02*
X42133Y105000D01*
X43199D02*
X44265D01*
X43732D01*
Y108199D01*
X43199Y107666D01*
X45865D02*
X46398Y108199D01*
X47464D01*
X47997Y107666D01*
Y105533D01*
X47464Y105000D01*
X46398D01*
X45865Y105533D01*
Y107666D01*
X49064Y108199D02*
Y105000D01*
X51196D01*
X52263D02*
X53329D01*
X52796D01*
Y108199D01*
X52263Y107666D01*
X265000Y80000D02*
Y83199D01*
X266599D01*
X267133Y82666D01*
Y81599D01*
X266599Y81066D01*
X265000D01*
X266066D02*
X267133Y80000D01*
X268199D02*
X269265D01*
X268732D01*
Y83199D01*
X268199Y82666D01*
X270865D02*
X271398Y83199D01*
X272464D01*
X272997Y82666D01*
Y80533D01*
X272464Y80000D01*
X271398D01*
X270865Y80533D01*
Y82666D01*
X274064Y83199D02*
Y80000D01*
X275663D01*
X276196Y80533D01*
Y81066D01*
X275663Y81599D01*
X274064D01*
X275663D01*
X276196Y82133D01*
Y82666D01*
X275663Y83199D01*
X274064D01*
X170000Y105000D02*
Y108199D01*
X171599D01*
X172133Y107666D01*
Y106599D01*
X171599Y106066D01*
X170000D01*
X171066D02*
X172133Y105000D01*
X173199Y105533D02*
X173732Y105000D01*
X174799D01*
X175332Y105533D01*
Y107666D01*
X174799Y108199D01*
X173732D01*
X173199Y107666D01*
Y107133D01*
X173732Y106599D01*
X175332D01*
X176398Y108199D02*
Y105000D01*
X178531D01*
X181729D02*
X179597D01*
X181729Y107133D01*
Y107666D01*
X181196Y108199D01*
X180130D01*
X179597Y107666D01*
X60000Y105000D02*
Y108199D01*
X61599D01*
X62133Y107666D01*
Y106599D01*
X61599Y106066D01*
X60000D01*
X61066D02*
X62133Y105000D01*
X63199Y105533D02*
X63732Y105000D01*
X64798D01*
X65332Y105533D01*
Y107666D01*
X64798Y108199D01*
X63732D01*
X63199Y107666D01*
Y107133D01*
X63732Y106599D01*
X65332D01*
X66398Y108199D02*
Y105000D01*
X68531D01*
X69597D02*
X70663D01*
X70130D01*
Y108199D01*
X69597Y107666D01*
X295000Y105000D02*
Y108199D01*
X296600D01*
X297133Y107666D01*
Y106599D01*
X296600Y106066D01*
X295000D01*
X296066D02*
X297133Y105000D01*
X298199Y105533D02*
X298732Y105000D01*
X299798D01*
X300332Y105533D01*
Y107666D01*
X299798Y108199D01*
X298732D01*
X298199Y107666D01*
Y107133D01*
X298732Y106599D01*
X300332D01*
X301398Y108199D02*
Y105000D01*
X302997D01*
X303531Y105533D01*
Y106066D01*
X302997Y106599D01*
X301398D01*
X302997D01*
X303531Y107133D01*
Y107666D01*
X302997Y108199D01*
X301398D01*
X160000Y80000D02*
Y83199D01*
X161600D01*
X162133Y82666D01*
Y81599D01*
X161600Y81066D01*
X160000D01*
X161066D02*
X162133Y80000D01*
X163199Y82666D02*
X163732Y83199D01*
X164798D01*
X165332Y82666D01*
Y82133D01*
X164798Y81599D01*
X165332Y81066D01*
Y80533D01*
X164798Y80000D01*
X163732D01*
X163199Y80533D01*
Y81066D01*
X163732Y81599D01*
X163199Y82133D01*
Y82666D01*
X163732Y81599D02*
X164798D01*
X166398Y83199D02*
Y80000D01*
X168531D01*
X171730D02*
X169597D01*
X171730Y82133D01*
Y82666D01*
X171196Y83199D01*
X170130D01*
X169597Y82666D01*
X50000Y80000D02*
Y83199D01*
X51600D01*
X52133Y82666D01*
Y81599D01*
X51600Y81066D01*
X50000D01*
X51066D02*
X52133Y80000D01*
X53199Y82666D02*
X53732Y83199D01*
X54799D01*
X55332Y82666D01*
Y82133D01*
X54799Y81599D01*
X55332Y81066D01*
Y80533D01*
X54799Y80000D01*
X53732D01*
X53199Y80533D01*
Y81066D01*
X53732Y81599D01*
X53199Y82133D01*
Y82666D01*
X53732Y81599D02*
X54799D01*
X56398Y83199D02*
Y80000D01*
X58531D01*
X59597D02*
X60663D01*
X60130D01*
Y83199D01*
X59597Y82666D01*
X322950Y235850D02*
Y239049D01*
X324549D01*
X325082Y238515D01*
Y237449D01*
X324549Y236916D01*
X322950D01*
X324016D02*
X325082Y235850D01*
X326149Y238515D02*
X326682Y239049D01*
X327748D01*
X328281Y238515D01*
Y237982D01*
X327748Y237449D01*
X328281Y236916D01*
Y236383D01*
X327748Y235850D01*
X326682D01*
X326149Y236383D01*
Y236916D01*
X326682Y237449D01*
X326149Y237982D01*
Y238515D01*
X326682Y237449D02*
X327748D01*
X329348Y239049D02*
Y235850D01*
X330947D01*
X331480Y236383D01*
Y236916D01*
X330947Y237449D01*
X329348D01*
X330947D01*
X331480Y237982D01*
Y238515D01*
X330947Y239049D01*
X329348D01*
X117450Y330250D02*
Y333449D01*
X119049D01*
X119582Y332915D01*
Y331849D01*
X119049Y331316D01*
X117450D01*
X118516D02*
X119582Y330250D01*
X120649Y333449D02*
X122781D01*
Y332915D01*
X120649Y330783D01*
Y330250D01*
X123848D02*
Y333449D01*
X124914Y332382D01*
X125980Y333449D01*
Y330250D01*
X136250Y170850D02*
Y174049D01*
X137849D01*
X138382Y173515D01*
Y172449D01*
X137849Y171916D01*
X136250D01*
X137316D02*
X138382Y170850D01*
X139449Y174049D02*
X141581D01*
Y173515D01*
X139449Y171383D01*
Y170850D01*
X142648Y174049D02*
Y170850D01*
X144780D01*
X147979D02*
X145846D01*
X147979Y172982D01*
Y173515D01*
X147446Y174049D01*
X146380D01*
X145846Y173515D01*
X31250Y170850D02*
Y174049D01*
X32849D01*
X33382Y173515D01*
Y172449D01*
X32849Y171916D01*
X31250D01*
X32316D02*
X33382Y170850D01*
X34449Y174049D02*
X36581D01*
Y173515D01*
X34449Y171383D01*
Y170850D01*
X37648Y174049D02*
Y170850D01*
X39780D01*
X40846D02*
X41913D01*
X41380D01*
Y174049D01*
X40846Y173515D01*
X253950Y259950D02*
Y263149D01*
X255549D01*
X256082Y262615D01*
Y261549D01*
X255549Y261016D01*
X253950D01*
X255016D02*
X256082Y259950D01*
X257149Y263149D02*
X259281D01*
Y262615D01*
X257149Y260483D01*
Y259950D01*
X260348Y263149D02*
Y259950D01*
X261947D01*
X262480Y260483D01*
Y261016D01*
X261947Y261549D01*
X260348D01*
X261947D01*
X262480Y262082D01*
Y262615D01*
X261947Y263149D01*
X260348D01*
X152500Y312500D02*
Y315699D01*
X154100D01*
X154633Y315166D01*
Y314100D01*
X154100Y313566D01*
X152500D01*
X153566D02*
X154633Y312500D01*
X157832Y315699D02*
X156765Y315166D01*
X155699Y314100D01*
Y313033D01*
X156232Y312500D01*
X157299D01*
X157832Y313033D01*
Y313566D01*
X157299Y314100D01*
X155699D01*
X158898Y312500D02*
Y315699D01*
X159964Y314633D01*
X161031Y315699D01*
Y312500D01*
X150450Y173850D02*
Y177049D01*
X152049D01*
X152582Y176515D01*
Y175449D01*
X152049Y174916D01*
X150450D01*
X151516D02*
X152582Y173850D01*
X155781Y177049D02*
X154715Y176515D01*
X153649Y175449D01*
Y174383D01*
X154182Y173850D01*
X155248D01*
X155781Y174383D01*
Y174916D01*
X155248Y175449D01*
X153649D01*
X156848Y177049D02*
Y173850D01*
X158980D01*
X162179D02*
X160047D01*
X162179Y175982D01*
Y176515D01*
X161646Y177049D01*
X160580D01*
X160047Y176515D01*
X45450Y173850D02*
Y177049D01*
X47049D01*
X47582Y176515D01*
Y175449D01*
X47049Y174916D01*
X45450D01*
X46516D02*
X47582Y173850D01*
X50781Y177049D02*
X49715Y176515D01*
X48649Y175449D01*
Y174383D01*
X49182Y173850D01*
X50248D01*
X50781Y174383D01*
Y174916D01*
X50248Y175449D01*
X48649D01*
X51848Y177049D02*
Y173850D01*
X53980D01*
X55046D02*
X56113D01*
X55580D01*
Y177049D01*
X55046Y176515D01*
X344650Y71950D02*
Y75149D01*
X346249D01*
X346782Y74615D01*
Y73549D01*
X346249Y73016D01*
X344650D01*
X345716D02*
X346782Y71950D01*
X349981Y75149D02*
X348915Y74615D01*
X347849Y73549D01*
Y72483D01*
X348382Y71950D01*
X349448D01*
X349981Y72483D01*
Y73016D01*
X349448Y73549D01*
X347849D01*
X351048Y75149D02*
Y71950D01*
X352647D01*
X353180Y72483D01*
Y73016D01*
X352647Y73549D01*
X351048D01*
X352647D01*
X353180Y74082D01*
Y74615D01*
X352647Y75149D01*
X351048D01*
X152500Y302500D02*
Y305699D01*
X154100D01*
X154633Y305166D01*
Y304099D01*
X154100Y303566D01*
X152500D01*
X153566D02*
X154633Y302500D01*
X157832Y305699D02*
X155699D01*
Y304099D01*
X156765Y304633D01*
X157299D01*
X157832Y304099D01*
Y303033D01*
X157299Y302500D01*
X156232D01*
X155699Y303033D01*
X158898Y302500D02*
Y305699D01*
X159964Y304633D01*
X161031Y305699D01*
Y302500D01*
X117950Y175550D02*
Y178749D01*
X119549D01*
X120082Y178215D01*
Y177149D01*
X119549Y176616D01*
X117950D01*
X119016D02*
X120082Y175550D01*
X123281Y178749D02*
X121149D01*
Y177149D01*
X122215Y177682D01*
X122748D01*
X123281Y177149D01*
Y176083D01*
X122748Y175550D01*
X121682D01*
X121149Y176083D01*
X124348Y178749D02*
Y175550D01*
X126480D01*
X129679D02*
X127547D01*
X129679Y177682D01*
Y178215D01*
X129146Y178749D01*
X128080D01*
X127547Y178215D01*
X12950Y175550D02*
Y178749D01*
X14549D01*
X15082Y178215D01*
Y177149D01*
X14549Y176616D01*
X12950D01*
X14016D02*
X15082Y175550D01*
X18281Y178749D02*
X16149D01*
Y177149D01*
X17215Y177682D01*
X17748D01*
X18281Y177149D01*
Y176083D01*
X17748Y175550D01*
X16682D01*
X16149Y176083D01*
X19348Y178749D02*
Y175550D01*
X21480D01*
X22546D02*
X23613D01*
X23080D01*
Y178749D01*
X22546Y178215D01*
X285000Y140000D02*
Y143199D01*
X286599D01*
X287133Y142666D01*
Y141600D01*
X286599Y141066D01*
X285000D01*
X286066D02*
X287133Y140000D01*
X290332Y143199D02*
X288199D01*
Y141600D01*
X289265Y142133D01*
X289798D01*
X290332Y141600D01*
Y140533D01*
X289798Y140000D01*
X288732D01*
X288199Y140533D01*
X291398Y143199D02*
Y140000D01*
X292997D01*
X293531Y140533D01*
Y141066D01*
X292997Y141600D01*
X291398D01*
X292997D01*
X293531Y142133D01*
Y142666D01*
X292997Y143199D01*
X291398D01*
X152500Y282500D02*
Y285699D01*
X154100D01*
X154633Y285166D01*
Y284100D01*
X154100Y283566D01*
X152500D01*
X153566D02*
X154633Y282500D01*
X157299D02*
Y285699D01*
X155699Y284100D01*
X157832D01*
X158898Y282500D02*
Y285699D01*
X159964Y284633D01*
X161031Y285699D01*
Y282500D01*
X182950Y175550D02*
Y178749D01*
X184549D01*
X185082Y178215D01*
Y177149D01*
X184549Y176616D01*
X182950D01*
X184016D02*
X185082Y175550D01*
X187748D02*
Y178749D01*
X186149Y177149D01*
X188281D01*
X189348Y178749D02*
Y175550D01*
X191480D01*
X194679D02*
X192546D01*
X194679Y177682D01*
Y178215D01*
X194146Y178749D01*
X193080D01*
X192546Y178215D01*
X77950Y175550D02*
Y178749D01*
X79549D01*
X80082Y178215D01*
Y177149D01*
X79549Y176616D01*
X77950D01*
X79016D02*
X80082Y175550D01*
X82748D02*
Y178749D01*
X81149Y177149D01*
X83281D01*
X84348Y178749D02*
Y175550D01*
X86480D01*
X87546D02*
X88613D01*
X88080D01*
Y178749D01*
X87546Y178215D01*
X300000Y50000D02*
X296801D01*
Y51600D01*
X297334Y52133D01*
X298400D01*
X298934Y51600D01*
Y50000D01*
Y51066D02*
X300000Y52133D01*
Y54799D02*
X296801D01*
X298400Y53199D01*
Y55332D01*
X296801Y56398D02*
X300000D01*
Y57997D01*
X299467Y58531D01*
X298934D01*
X298400Y57997D01*
Y56398D01*
Y57997D01*
X297867Y58531D01*
X297334D01*
X296801Y57997D01*
Y56398D01*
X241000Y292000D02*
X237801D01*
Y293600D01*
X238334Y294133D01*
X239401D01*
X239934Y293600D01*
Y292000D01*
Y293066D02*
X241000Y294133D01*
X238334Y295199D02*
X237801Y295732D01*
Y296798D01*
X238334Y297332D01*
X238867D01*
X239401Y296798D01*
Y296265D01*
Y296798D01*
X239934Y297332D01*
X240467D01*
X241000Y296798D01*
Y295732D01*
X240467Y295199D01*
X241000Y298398D02*
X237801D01*
X238867Y299464D01*
X237801Y300531D01*
X241000D01*
X225000Y2500D02*
Y5699D01*
X226600D01*
X227133Y5166D01*
Y4100D01*
X226600Y3566D01*
X225000D01*
X226066D02*
X227133Y2500D01*
X228199Y5166D02*
X228732Y5699D01*
X229799D01*
X230332Y5166D01*
Y4633D01*
X229799Y4100D01*
X229265D01*
X229799D01*
X230332Y3566D01*
Y3033D01*
X229799Y2500D01*
X228732D01*
X228199Y3033D01*
X231398Y5699D02*
Y2500D01*
X233531D01*
X236730D02*
X234597D01*
X236730Y4633D01*
Y5166D01*
X236196Y5699D01*
X235130D01*
X234597Y5166D01*
X130000Y2500D02*
Y5699D01*
X131599D01*
X132133Y5166D01*
Y4100D01*
X131599Y3566D01*
X130000D01*
X131066D02*
X132133Y2500D01*
X133199Y5166D02*
X133732Y5699D01*
X134799D01*
X135332Y5166D01*
Y4633D01*
X134799Y4100D01*
X134265D01*
X134799D01*
X135332Y3566D01*
Y3033D01*
X134799Y2500D01*
X133732D01*
X133199Y3033D01*
X136398Y5699D02*
Y2500D01*
X138531D01*
X139597D02*
X140663D01*
X140130D01*
Y5699D01*
X139597Y5166D01*
X310000Y50000D02*
X306801D01*
Y51600D01*
X307334Y52133D01*
X308401D01*
X308934Y51600D01*
Y50000D01*
Y51066D02*
X310000Y52133D01*
X307334Y53199D02*
X306801Y53732D01*
Y54799D01*
X307334Y55332D01*
X307867D01*
X308401Y54799D01*
Y54265D01*
Y54799D01*
X308934Y55332D01*
X309467D01*
X310000Y54799D01*
Y53732D01*
X309467Y53199D01*
X306801Y56398D02*
X310000D01*
Y57997D01*
X309467Y58531D01*
X308934D01*
X308401Y57997D01*
Y56398D01*
Y57997D01*
X307867Y58531D01*
X307334D01*
X306801Y57997D01*
Y56398D01*
X92450Y330250D02*
Y333449D01*
X94049D01*
X94582Y332915D01*
Y331849D01*
X94049Y331316D01*
X92450D01*
X93516D02*
X94582Y330250D01*
X97781D02*
X95649D01*
X97781Y332382D01*
Y332915D01*
X97248Y333449D01*
X96182D01*
X95649Y332915D01*
X98848Y330250D02*
Y333449D01*
X99914Y332382D01*
X100980Y333449D01*
Y330250D01*
X210000Y2500D02*
Y5699D01*
X211599D01*
X212133Y5166D01*
Y4100D01*
X211599Y3566D01*
X210000D01*
X211066D02*
X212133Y2500D01*
X215332D02*
X213199D01*
X215332Y4633D01*
Y5166D01*
X214798Y5699D01*
X213732D01*
X213199Y5166D01*
X216398Y5699D02*
Y2500D01*
X218531D01*
X221730D02*
X219597D01*
X221730Y4633D01*
Y5166D01*
X221196Y5699D01*
X220130D01*
X219597Y5166D01*
X115000Y2500D02*
Y5699D01*
X116600D01*
X117133Y5166D01*
Y4100D01*
X116600Y3566D01*
X115000D01*
X116066D02*
X117133Y2500D01*
X120332D02*
X118199D01*
X120332Y4633D01*
Y5166D01*
X119799Y5699D01*
X118732D01*
X118199Y5166D01*
X121398Y5699D02*
Y2500D01*
X123531D01*
X124597D02*
X125663D01*
X125130D01*
Y5699D01*
X124597Y5166D01*
X290000Y50000D02*
X286801D01*
Y51600D01*
X287334Y52133D01*
X288401D01*
X288934Y51600D01*
Y50000D01*
Y51066D02*
X290000Y52133D01*
Y55332D02*
Y53199D01*
X287867Y55332D01*
X287334D01*
X286801Y54799D01*
Y53732D01*
X287334Y53199D01*
X286801Y56398D02*
X290000D01*
Y57997D01*
X289467Y58531D01*
X288934D01*
X288401Y57997D01*
Y56398D01*
Y57997D01*
X287867Y58531D01*
X287334D01*
X286801Y57997D01*
Y56398D01*
X262500Y302500D02*
Y305699D01*
X264100D01*
X264633Y305166D01*
Y304099D01*
X264100Y303566D01*
X262500D01*
X263566D02*
X264633Y302500D01*
X265699D02*
X266765D01*
X266232D01*
Y305699D01*
X265699Y305166D01*
X268365Y305699D02*
Y303033D01*
X268898Y302500D01*
X269964D01*
X270497Y303033D01*
Y305699D01*
X47450Y330250D02*
Y333449D01*
X49049D01*
X49582Y332915D01*
Y331849D01*
X49049Y331316D01*
X47450D01*
X48516D02*
X49582Y330250D01*
X50649D02*
X51715D01*
X51182D01*
Y333449D01*
X50649Y332915D01*
X53314Y330250D02*
Y333449D01*
X54381Y332382D01*
X55447Y333449D01*
Y330250D01*
X240000Y2500D02*
Y5699D01*
X241599D01*
X242133Y5166D01*
Y4100D01*
X241599Y3566D01*
X240000D01*
X241066D02*
X242133Y2500D01*
X243199D02*
X244265D01*
X243732D01*
Y5699D01*
X243199Y5166D01*
X245865Y5699D02*
Y2500D01*
X247997D01*
X251196D02*
X249064D01*
X251196Y4633D01*
Y5166D01*
X250663Y5699D01*
X249597D01*
X249064Y5166D01*
X145000Y2500D02*
Y5699D01*
X146599D01*
X147133Y5166D01*
Y4100D01*
X146599Y3566D01*
X145000D01*
X146066D02*
X147133Y2500D01*
X148199D02*
X149265D01*
X148732D01*
Y5699D01*
X148199Y5166D01*
X150865Y5699D02*
Y2500D01*
X152997D01*
X154064D02*
X155130D01*
X154597D01*
Y5699D01*
X154064Y5166D01*
X222950Y175850D02*
Y179049D01*
X224549D01*
X225082Y178515D01*
Y177449D01*
X224549Y176916D01*
X222950D01*
X224016D02*
X225082Y175850D01*
X226149D02*
X227215D01*
X226682D01*
Y179049D01*
X226149Y178515D01*
X228814Y179049D02*
Y175850D01*
X230414D01*
X230947Y176383D01*
Y176916D01*
X230414Y177449D01*
X228814D01*
X230414D01*
X230947Y177982D01*
Y178515D01*
X230414Y179049D01*
X228814D01*
X106650Y335350D02*
Y338549D01*
X108249D01*
X108782Y338015D01*
Y336949D01*
X108249Y336416D01*
X106650D01*
X109849Y335350D02*
X110915D01*
X110382D01*
Y338549D01*
X109849Y338015D01*
X112514Y335350D02*
Y338549D01*
X113581Y337482D01*
X114647Y338549D01*
Y335350D01*
X323750Y169349D02*
Y166150D01*
Y167216D01*
X325882Y169349D01*
X324283Y167749D01*
X325882Y166150D01*
X329081Y169349D02*
X328015Y168815D01*
X326949Y167749D01*
Y166683D01*
X327482Y166150D01*
X328548D01*
X329081Y166683D01*
Y167216D01*
X328548Y167749D01*
X326949D01*
X330148Y169349D02*
Y166150D01*
X331747D01*
X332280Y166683D01*
Y167216D01*
X331747Y167749D01*
X330148D01*
X331747D01*
X332280Y168282D01*
Y168815D01*
X331747Y169349D01*
X330148D01*
X343250Y168049D02*
Y164850D01*
Y165916D01*
X345382Y168049D01*
X343783Y166449D01*
X345382Y164850D01*
X348581Y168049D02*
X346449D01*
Y166449D01*
X347515Y166982D01*
X348048D01*
X348581Y166449D01*
Y165383D01*
X348048Y164850D01*
X346982D01*
X346449Y165383D01*
X349648Y168049D02*
Y164850D01*
X351247D01*
X351780Y165383D01*
Y165916D01*
X351247Y166449D01*
X349648D01*
X351247D01*
X351780Y166982D01*
Y167515D01*
X351247Y168049D01*
X349648D01*
X205000Y83199D02*
Y80000D01*
Y81066D01*
X207133Y83199D01*
X205533Y81599D01*
X207133Y80000D01*
X209799D02*
Y83199D01*
X208199Y81599D01*
X210332D01*
X211398Y83199D02*
Y80000D01*
X213531D01*
X216730D02*
X214597D01*
X216730Y82133D01*
Y82666D01*
X216196Y83199D01*
X215130D01*
X214597Y82666D01*
X95000Y83199D02*
Y80000D01*
Y81066D01*
X97133Y83199D01*
X95533Y81599D01*
X97133Y80000D01*
X99799D02*
Y83199D01*
X98199Y81599D01*
X100332D01*
X101398Y83199D02*
Y80000D01*
X103531D01*
X104597D02*
X105663D01*
X105130D01*
Y83199D01*
X104597Y82666D01*
X232500Y185699D02*
Y182500D01*
Y183566D01*
X234633Y185699D01*
X233033Y184099D01*
X234633Y182500D01*
X237298D02*
Y185699D01*
X235699Y184099D01*
X237832D01*
X238898Y185699D02*
Y182500D01*
X240497D01*
X241031Y183033D01*
Y183566D01*
X240497Y184099D01*
X238898D01*
X240497D01*
X241031Y184633D01*
Y185166D01*
X240497Y185699D01*
X238898D01*
X156801Y45000D02*
X160000D01*
X158934D01*
X156801Y47133D01*
X158400Y45533D01*
X160000Y47133D01*
X157334Y48199D02*
X156801Y48732D01*
Y49799D01*
X157334Y50332D01*
X157867D01*
X158400Y49799D01*
Y49265D01*
Y49799D01*
X158934Y50332D01*
X159467D01*
X160000Y49799D01*
Y48732D01*
X159467Y48199D01*
X156801Y51398D02*
X160000D01*
Y53531D01*
Y56730D02*
Y54597D01*
X157867Y56730D01*
X157334D01*
X156801Y56196D01*
Y55130D01*
X157334Y54597D01*
X46801Y45000D02*
X50000D01*
X48934D01*
X46801Y47133D01*
X48401Y45533D01*
X50000Y47133D01*
X47334Y48199D02*
X46801Y48732D01*
Y49799D01*
X47334Y50332D01*
X47867D01*
X48401Y49799D01*
Y49265D01*
Y49799D01*
X48934Y50332D01*
X49467D01*
X50000Y49799D01*
Y48732D01*
X49467Y48199D01*
X46801Y51398D02*
X50000D01*
Y53531D01*
Y54597D02*
Y55663D01*
Y55130D01*
X46801D01*
X47334Y54597D01*
X243350Y207149D02*
Y203950D01*
Y205016D01*
X245482Y207149D01*
X243883Y205549D01*
X245482Y203950D01*
X246549Y206615D02*
X247082Y207149D01*
X248148D01*
X248681Y206615D01*
Y206082D01*
X248148Y205549D01*
X247615D01*
X248148D01*
X248681Y205016D01*
Y204483D01*
X248148Y203950D01*
X247082D01*
X246549Y204483D01*
X249748Y207149D02*
Y203950D01*
X251347D01*
X251880Y204483D01*
Y205016D01*
X251347Y205549D01*
X249748D01*
X251347D01*
X251880Y206082D01*
Y206615D01*
X251347Y207149D01*
X249748D01*
X185250Y336249D02*
Y333050D01*
Y334116D01*
X187382Y336249D01*
X185783Y334649D01*
X187382Y333050D01*
X190581D02*
X188449D01*
X190581Y335182D01*
Y335715D01*
X190048Y336249D01*
X188982D01*
X188449Y335715D01*
X191648Y333050D02*
Y336249D01*
X192714Y335182D01*
X193780Y336249D01*
Y333050D01*
X203350Y28349D02*
Y25150D01*
Y26216D01*
X205482Y28349D01*
X203883Y26749D01*
X205482Y25150D01*
X208681D02*
X206549D01*
X208681Y27282D01*
Y27815D01*
X208148Y28349D01*
X207082D01*
X206549Y27815D01*
X209748Y28349D02*
Y25150D01*
X211880D01*
X215079D02*
X212947D01*
X215079Y27282D01*
Y27815D01*
X214546Y28349D01*
X213480D01*
X212947Y27815D01*
X108350Y28349D02*
Y25150D01*
Y26216D01*
X110482Y28349D01*
X108883Y26749D01*
X110482Y25150D01*
X113681D02*
X111549D01*
X113681Y27282D01*
Y27815D01*
X113148Y28349D01*
X112082D01*
X111549Y27815D01*
X114748Y28349D02*
Y25150D01*
X116880D01*
X117947D02*
X119013D01*
X118480D01*
Y28349D01*
X117947Y27815D01*
X223350Y207149D02*
Y203950D01*
Y205016D01*
X225482Y207149D01*
X223883Y205549D01*
X225482Y203950D01*
X228681D02*
X226549D01*
X228681Y206082D01*
Y206615D01*
X228148Y207149D01*
X227082D01*
X226549Y206615D01*
X229748Y207149D02*
Y203950D01*
X231347D01*
X231880Y204483D01*
Y205016D01*
X231347Y205549D01*
X229748D01*
X231347D01*
X231880Y206082D01*
Y206615D01*
X231347Y207149D01*
X229748D01*
X226850Y381749D02*
Y378550D01*
Y379616D01*
X228982Y381749D01*
X227383Y380149D01*
X228982Y378550D01*
X230049D02*
X231115D01*
X230582D01*
Y381749D01*
X230049Y381215D01*
X232714Y378550D02*
Y381749D01*
X233781Y380682D01*
X234847Y381749D01*
Y378550D01*
X240000Y33199D02*
Y30000D01*
Y31066D01*
X242133Y33199D01*
X240533Y31600D01*
X242133Y30000D01*
X243199D02*
X244265D01*
X243732D01*
Y33199D01*
X243199Y32666D01*
X245865Y33199D02*
Y30000D01*
X247997D01*
X251196D02*
X249064D01*
X251196Y32133D01*
Y32666D01*
X250663Y33199D01*
X249597D01*
X249064Y32666D01*
X145000Y33199D02*
Y30000D01*
Y31066D01*
X147133Y33199D01*
X145533Y31600D01*
X147133Y30000D01*
X148199D02*
X149265D01*
X148732D01*
Y33199D01*
X148199Y32666D01*
X150865Y33199D02*
Y30000D01*
X152997D01*
X154064D02*
X155130D01*
X154597D01*
Y33199D01*
X154064Y32666D01*
X223350Y142249D02*
Y139050D01*
Y140116D01*
X225482Y142249D01*
X223883Y140649D01*
X225482Y139050D01*
X226549D02*
X227615D01*
X227082D01*
Y142249D01*
X226549Y141715D01*
X229214Y142249D02*
Y139050D01*
X230814D01*
X231347Y139583D01*
Y140116D01*
X230814Y140649D01*
X229214D01*
X230814D01*
X231347Y141182D01*
Y141715D01*
X230814Y142249D01*
X229214D01*
X198882Y274915D02*
X198349Y275449D01*
X197283D01*
X196750Y274915D01*
Y272783D01*
X197283Y272250D01*
X198349D01*
X198882Y272783D01*
Y273849D01*
X197816D01*
X199949Y272250D02*
X201015D01*
X200482D01*
Y275449D01*
X199949Y274915D01*
X202614Y272250D02*
Y275449D01*
X203681Y274382D01*
X204747Y275449D01*
Y272250D01*
X279633Y170166D02*
X279099Y170699D01*
X278033D01*
X277500Y170166D01*
Y168033D01*
X278033Y167500D01*
X279099D01*
X279633Y168033D01*
X282832Y167500D02*
X280699D01*
X282832Y169633D01*
Y170166D01*
X282298Y170699D01*
X281232D01*
X280699Y170166D01*
X286031Y170699D02*
X283898D01*
Y169099D01*
X284964Y169633D01*
X285497D01*
X286031Y169099D01*
Y168033D01*
X285497Y167500D01*
X284431D01*
X283898Y168033D01*
X287097Y170699D02*
Y167500D01*
X288696D01*
X289230Y168033D01*
Y168566D01*
X288696Y169099D01*
X287097D01*
X288696D01*
X289230Y169633D01*
Y170166D01*
X288696Y170699D01*
X287097D01*
X327382Y198115D02*
X326849Y198649D01*
X325783D01*
X325250Y198115D01*
Y195983D01*
X325783Y195450D01*
X326849D01*
X327382Y195983D01*
X330581Y195450D02*
X328449D01*
X330581Y197582D01*
Y198115D01*
X330048Y198649D01*
X328982D01*
X328449Y198115D01*
X331648D02*
X332181Y198649D01*
X333247D01*
X333780Y198115D01*
Y197582D01*
X333247Y197049D01*
X332714D01*
X333247D01*
X333780Y196516D01*
Y195983D01*
X333247Y195450D01*
X332181D01*
X331648Y195983D01*
X334846Y198649D02*
Y195450D01*
X336446D01*
X336979Y195983D01*
Y196516D01*
X336446Y197049D01*
X334846D01*
X336446D01*
X336979Y197582D01*
Y198115D01*
X336446Y198649D01*
X334846D01*
X307133Y82666D02*
X306599Y83199D01*
X305533D01*
X305000Y82666D01*
Y80533D01*
X305533Y80000D01*
X306599D01*
X307133Y80533D01*
X310332Y80000D02*
X308199D01*
X310332Y82133D01*
Y82666D01*
X309799Y83199D01*
X308732D01*
X308199Y82666D01*
X313531Y80000D02*
X311398D01*
X313531Y82133D01*
Y82666D01*
X312997Y83199D01*
X311931D01*
X311398Y82666D01*
X314597Y83199D02*
Y80000D01*
X316196D01*
X316730Y80533D01*
Y81066D01*
X316196Y81599D01*
X314597D01*
X316196D01*
X316730Y82133D01*
Y82666D01*
X316196Y83199D01*
X314597D01*
X309633Y170166D02*
X309100Y170699D01*
X308033D01*
X307500Y170166D01*
Y168033D01*
X308033Y167500D01*
X309100D01*
X309633Y168033D01*
X312832Y167500D02*
X310699D01*
X312832Y169633D01*
Y170166D01*
X312298Y170699D01*
X311232D01*
X310699Y170166D01*
X313898Y167500D02*
X314964D01*
X314431D01*
Y170699D01*
X313898Y170166D01*
X316564Y170699D02*
Y167500D01*
X318163D01*
X318696Y168033D01*
Y168566D01*
X318163Y169099D01*
X316564D01*
X318163D01*
X318696Y169633D01*
Y170166D01*
X318163Y170699D01*
X316564D01*
X267334Y52133D02*
X266801Y51600D01*
Y50533D01*
X267334Y50000D01*
X269467D01*
X270000Y50533D01*
Y51600D01*
X269467Y52133D01*
X270000Y55332D02*
Y53199D01*
X267867Y55332D01*
X267334D01*
X266801Y54799D01*
Y53732D01*
X267334Y53199D01*
Y56398D02*
X266801Y56931D01*
Y57997D01*
X267334Y58531D01*
X269467D01*
X270000Y57997D01*
Y56931D01*
X269467Y56398D01*
X267334D01*
X266801Y59597D02*
X270000D01*
Y61196D01*
X269467Y61730D01*
X268934D01*
X268401Y61196D01*
Y59597D01*
Y61196D01*
X267867Y61730D01*
X267334D01*
X266801Y61196D01*
Y59597D01*
X277133Y107666D02*
X276600Y108199D01*
X275533D01*
X275000Y107666D01*
Y105533D01*
X275533Y105000D01*
X276600D01*
X277133Y105533D01*
X278199Y105000D02*
X279265D01*
X278732D01*
Y108199D01*
X278199Y107666D01*
X280865Y105533D02*
X281398Y105000D01*
X282464D01*
X282997Y105533D01*
Y107666D01*
X282464Y108199D01*
X281398D01*
X280865Y107666D01*
Y107133D01*
X281398Y106599D01*
X282997D01*
X284064Y108199D02*
Y105000D01*
X285663D01*
X286196Y105533D01*
Y106066D01*
X285663Y106599D01*
X284064D01*
X285663D01*
X286196Y107133D01*
Y107666D01*
X285663Y108199D01*
X284064D01*
X369633Y117666D02*
X369099Y118199D01*
X368033D01*
X367500Y117666D01*
Y115533D01*
X368033Y115000D01*
X369099D01*
X369633Y115533D01*
X370699Y115000D02*
X371765D01*
X371232D01*
Y118199D01*
X370699Y117666D01*
X373365D02*
X373898Y118199D01*
X374964D01*
X375497Y117666D01*
Y117133D01*
X374964Y116600D01*
X375497Y116066D01*
Y115533D01*
X374964Y115000D01*
X373898D01*
X373365Y115533D01*
Y116066D01*
X373898Y116600D01*
X373365Y117133D01*
Y117666D01*
X373898Y116600D02*
X374964D01*
X376564Y118199D02*
Y115000D01*
X378163D01*
X378696Y115533D01*
Y116066D01*
X378163Y116600D01*
X376564D01*
X378163D01*
X378696Y117133D01*
Y117666D01*
X378163Y118199D01*
X376564D01*
X312382Y198115D02*
X311849Y198649D01*
X310783D01*
X310250Y198115D01*
Y195983D01*
X310783Y195450D01*
X311849D01*
X312382Y195983D01*
X313449Y195450D02*
X314515D01*
X313982D01*
Y198649D01*
X313449Y198115D01*
X316114Y198649D02*
X318247D01*
Y198115D01*
X316114Y195983D01*
Y195450D01*
X319313Y198649D02*
Y195450D01*
X320913D01*
X321446Y195983D01*
Y196516D01*
X320913Y197049D01*
X319313D01*
X320913D01*
X321446Y197582D01*
Y198115D01*
X320913Y198649D01*
X319313D01*
X306133Y146166D02*
X305599Y146699D01*
X304533D01*
X304000Y146166D01*
Y144033D01*
X304533Y143500D01*
X305599D01*
X306133Y144033D01*
X307199Y143500D02*
X308265D01*
X307732D01*
Y146699D01*
X307199Y146166D01*
X311997Y146699D02*
X309865D01*
Y145099D01*
X310931Y145633D01*
X311464D01*
X311997Y145099D01*
Y144033D01*
X311464Y143500D01*
X310398D01*
X309865Y144033D01*
X313064Y146699D02*
Y143500D01*
X314663D01*
X315196Y144033D01*
Y144566D01*
X314663Y145099D01*
X313064D01*
X314663D01*
X315196Y145633D01*
Y146166D01*
X314663Y146699D01*
X313064D01*
X339633Y117666D02*
X339100Y118199D01*
X338033D01*
X337500Y117666D01*
Y115533D01*
X338033Y115000D01*
X339100D01*
X339633Y115533D01*
X340699Y115000D02*
X341765D01*
X341232D01*
Y118199D01*
X340699Y117666D01*
X344964Y115000D02*
Y118199D01*
X343365Y116600D01*
X345497D01*
X346564Y118199D02*
Y115000D01*
X348163D01*
X348696Y115533D01*
Y116066D01*
X348163Y116600D01*
X346564D01*
X348163D01*
X348696Y117133D01*
Y117666D01*
X348163Y118199D01*
X346564D01*
X297133Y170166D02*
X296600Y170699D01*
X295533D01*
X295000Y170166D01*
Y168033D01*
X295533Y167500D01*
X296600D01*
X297133Y168033D01*
X298199Y167500D02*
X299265D01*
X298732D01*
Y170699D01*
X298199Y170166D01*
X300865D02*
X301398Y170699D01*
X302464D01*
X302997Y170166D01*
Y169633D01*
X302464Y169099D01*
X301931D01*
X302464D01*
X302997Y168566D01*
Y168033D01*
X302464Y167500D01*
X301398D01*
X300865Y168033D01*
X304064Y170699D02*
Y167500D01*
X305663D01*
X306196Y168033D01*
Y168566D01*
X305663Y169099D01*
X304064D01*
X305663D01*
X306196Y169633D01*
Y170166D01*
X305663Y170699D01*
X304064D01*
X238334Y316133D02*
X237801Y315599D01*
Y314533D01*
X238334Y314000D01*
X240467D01*
X241000Y314533D01*
Y315599D01*
X240467Y316133D01*
X241000Y317199D02*
Y318265D01*
Y317732D01*
X237801D01*
X238334Y317199D01*
X241000Y321997D02*
Y319865D01*
X238867Y321997D01*
X238334D01*
X237801Y321464D01*
Y320398D01*
X238334Y319865D01*
X241000Y323064D02*
X237801D01*
X238867Y324130D01*
X237801Y325196D01*
X241000D01*
X267133Y170166D02*
X266599Y170699D01*
X265533D01*
X265000Y170166D01*
Y168033D01*
X265533Y167500D01*
X266599D01*
X267133Y168033D01*
X268199Y167500D02*
X269265D01*
X268732D01*
Y170699D01*
X268199Y170166D01*
X272997Y167500D02*
X270865D01*
X272997Y169633D01*
Y170166D01*
X272464Y170699D01*
X271398D01*
X270865Y170166D01*
X274064Y170699D02*
Y167500D01*
X275663D01*
X276196Y168033D01*
Y168566D01*
X275663Y169099D01*
X274064D01*
X275663D01*
X276196Y169633D01*
Y170166D01*
X275663Y170699D01*
X274064D01*
X238334Y304133D02*
X237801Y303600D01*
Y302533D01*
X238334Y302000D01*
X240467D01*
X241000Y302533D01*
Y303600D01*
X240467Y304133D01*
X241000Y305199D02*
Y306265D01*
Y305732D01*
X237801D01*
X238334Y305199D01*
X241000Y307865D02*
Y308931D01*
Y308398D01*
X237801D01*
X238334Y307865D01*
X241000Y310531D02*
X237801D01*
X238867Y311597D01*
X237801Y312663D01*
X241000D01*
X257133Y107666D02*
X256599Y108199D01*
X255533D01*
X255000Y107666D01*
Y105533D01*
X255533Y105000D01*
X256599D01*
X257133Y105533D01*
X258199Y105000D02*
X259265D01*
X258732D01*
Y108199D01*
X258199Y107666D01*
X260865Y105000D02*
X261931D01*
X261398D01*
Y108199D01*
X260865Y107666D01*
X263531Y108199D02*
Y105000D01*
X265130D01*
X265663Y105533D01*
Y106066D01*
X265130Y106599D01*
X263531D01*
X265130D01*
X265663Y107133D01*
Y107666D01*
X265130Y108199D01*
X263531D01*
X152133Y295166D02*
X151600Y295699D01*
X150533D01*
X150000Y295166D01*
Y293033D01*
X150533Y292500D01*
X151600D01*
X152133Y293033D01*
X153199Y292500D02*
X154265D01*
X153732D01*
Y295699D01*
X153199Y295166D01*
X155865D02*
X156398Y295699D01*
X157464D01*
X157997Y295166D01*
Y293033D01*
X157464Y292500D01*
X156398D01*
X155865Y293033D01*
Y295166D01*
X159064Y292500D02*
Y295699D01*
X160130Y294633D01*
X161196Y295699D01*
Y292500D01*
X317334Y52133D02*
X316801Y51600D01*
Y50533D01*
X317334Y50000D01*
X319467D01*
X320000Y50533D01*
Y51600D01*
X319467Y52133D01*
X320000Y53199D02*
Y54265D01*
Y53732D01*
X316801D01*
X317334Y53199D01*
Y55865D02*
X316801Y56398D01*
Y57464D01*
X317334Y57997D01*
X319467D01*
X320000Y57464D01*
Y56398D01*
X319467Y55865D01*
X317334D01*
X316801Y59064D02*
X320000D01*
Y60663D01*
X319467Y61196D01*
X318934D01*
X318401Y60663D01*
Y59064D01*
Y60663D01*
X317867Y61196D01*
X317334D01*
X316801Y60663D01*
Y59064D01*
X190082Y348415D02*
X189549Y348949D01*
X188483D01*
X187950Y348415D01*
Y346283D01*
X188483Y345750D01*
X189549D01*
X190082Y346283D01*
X191149D02*
X191682Y345750D01*
X192748D01*
X193281Y346283D01*
Y348415D01*
X192748Y348949D01*
X191682D01*
X191149Y348415D01*
Y347882D01*
X191682Y347349D01*
X193281D01*
X194348Y345750D02*
Y348949D01*
X195414Y347882D01*
X196480Y348949D01*
Y345750D01*
X295682Y200915D02*
X295149Y201449D01*
X294083D01*
X293550Y200915D01*
Y198783D01*
X294083Y198250D01*
X295149D01*
X295682Y198783D01*
X296749D02*
X297282Y198250D01*
X298348D01*
X298881Y198783D01*
Y200915D01*
X298348Y201449D01*
X297282D01*
X296749Y200915D01*
Y200382D01*
X297282Y199849D01*
X298881D01*
X299948Y201449D02*
Y198250D01*
X301547D01*
X302080Y198783D01*
Y199316D01*
X301547Y199849D01*
X299948D01*
X301547D01*
X302080Y200382D01*
Y200915D01*
X301547Y201449D01*
X299948D01*
X219582Y277915D02*
X219049Y278449D01*
X217983D01*
X217450Y277915D01*
Y275783D01*
X217983Y275250D01*
X219049D01*
X219582Y275783D01*
X220649Y277915D02*
X221182Y278449D01*
X222248D01*
X222781Y277915D01*
Y277382D01*
X222248Y276849D01*
X222781Y276316D01*
Y275783D01*
X222248Y275250D01*
X221182D01*
X220649Y275783D01*
Y276316D01*
X221182Y276849D01*
X220649Y277382D01*
Y277915D01*
X221182Y276849D02*
X222248D01*
X223848Y275250D02*
Y278449D01*
X224914Y277382D01*
X225980Y278449D01*
Y275250D01*
X142334Y47133D02*
X141801Y46600D01*
Y45533D01*
X142334Y45000D01*
X144467D01*
X145000Y45533D01*
Y46600D01*
X144467Y47133D01*
X141801Y50332D02*
X142334Y49265D01*
X143401Y48199D01*
X144467D01*
X145000Y48732D01*
Y49799D01*
X144467Y50332D01*
X143934D01*
X143401Y49799D01*
Y48199D01*
X141801Y51398D02*
X145000D01*
Y53531D01*
Y56730D02*
Y54597D01*
X142867Y56730D01*
X142334D01*
X141801Y56196D01*
Y55130D01*
X142334Y54597D01*
X32334Y47133D02*
X31801Y46600D01*
Y45533D01*
X32334Y45000D01*
X34467D01*
X35000Y45533D01*
Y46600D01*
X34467Y47133D01*
X31801Y50332D02*
X32334Y49265D01*
X33400Y48199D01*
X34467D01*
X35000Y48732D01*
Y49799D01*
X34467Y50332D01*
X33934D01*
X33400Y49799D01*
Y48199D01*
X31801Y51398D02*
X35000D01*
Y53531D01*
Y54597D02*
Y55663D01*
Y55130D01*
X31801D01*
X32334Y54597D01*
X265682Y200915D02*
X265149Y201449D01*
X264083D01*
X263550Y200915D01*
Y198783D01*
X264083Y198250D01*
X265149D01*
X265682Y198783D01*
X266749Y200915D02*
X267282Y201449D01*
X268348D01*
X268881Y200915D01*
Y200382D01*
X268348Y199849D01*
X268881Y199316D01*
Y198783D01*
X268348Y198250D01*
X267282D01*
X266749Y198783D01*
Y199316D01*
X267282Y199849D01*
X266749Y200382D01*
Y200915D01*
X267282Y199849D02*
X268348D01*
X269948Y201449D02*
Y198250D01*
X271547D01*
X272080Y198783D01*
Y199316D01*
X271547Y199849D01*
X269948D01*
X271547D01*
X272080Y200382D01*
Y200915D01*
X271547Y201449D01*
X269948D01*
X189582Y277915D02*
X189049Y278449D01*
X187983D01*
X187450Y277915D01*
Y275783D01*
X187983Y275250D01*
X189049D01*
X189582Y275783D01*
X190649Y278449D02*
X192781D01*
Y277915D01*
X190649Y275783D01*
Y275250D01*
X193848D02*
Y278449D01*
X194914Y277382D01*
X195980Y278449D01*
Y275250D01*
X142133Y82666D02*
X141600Y83199D01*
X140533D01*
X140000Y82666D01*
Y80533D01*
X140533Y80000D01*
X141600D01*
X142133Y80533D01*
X145332Y83199D02*
X143199D01*
Y81599D01*
X144265Y82133D01*
X144799D01*
X145332Y81599D01*
Y80533D01*
X144799Y80000D01*
X143732D01*
X143199Y80533D01*
X146398Y83199D02*
Y80000D01*
X148531D01*
X151730D02*
X149597D01*
X151730Y82133D01*
Y82666D01*
X151196Y83199D01*
X150130D01*
X149597Y82666D01*
X32133D02*
X31600Y83199D01*
X30533D01*
X30000Y82666D01*
Y80533D01*
X30533Y80000D01*
X31600D01*
X32133Y80533D01*
X35332Y83199D02*
X33199D01*
Y81599D01*
X34265Y82133D01*
X34798D01*
X35332Y81599D01*
Y80533D01*
X34798Y80000D01*
X33732D01*
X33199Y80533D01*
X36398Y83199D02*
Y80000D01*
X38531D01*
X39597D02*
X40663D01*
X40130D01*
Y83199D01*
X39597Y82666D01*
X280682Y200915D02*
X280149Y201449D01*
X279083D01*
X278550Y200915D01*
Y198783D01*
X279083Y198250D01*
X280149D01*
X280682Y198783D01*
X281749Y201449D02*
X283881D01*
Y200915D01*
X281749Y198783D01*
Y198250D01*
X284948Y201449D02*
Y198250D01*
X286547D01*
X287080Y198783D01*
Y199316D01*
X286547Y199849D01*
X284948D01*
X286547D01*
X287080Y200382D01*
Y200915D01*
X286547Y201449D01*
X284948D01*
X169582Y278015D02*
X169049Y278549D01*
X167983D01*
X167450Y278015D01*
Y275883D01*
X167983Y275350D01*
X169049D01*
X169582Y275883D01*
X172781Y278549D02*
X171715Y278015D01*
X170649Y276949D01*
Y275883D01*
X171182Y275350D01*
X172248D01*
X172781Y275883D01*
Y276416D01*
X172248Y276949D01*
X170649D01*
X173848Y275350D02*
Y278549D01*
X174914Y277482D01*
X175980Y278549D01*
Y275350D01*
X192133Y107666D02*
X191600Y108199D01*
X190533D01*
X190000Y107666D01*
Y105533D01*
X190533Y105000D01*
X191600D01*
X192133Y105533D01*
X194799Y105000D02*
Y108199D01*
X193199Y106599D01*
X195332D01*
X196398Y108199D02*
Y105000D01*
X198531D01*
X201729D02*
X199597D01*
X201729Y107133D01*
Y107666D01*
X201196Y108199D01*
X200130D01*
X199597Y107666D01*
X82133D02*
X81599Y108199D01*
X80533D01*
X80000Y107666D01*
Y105533D01*
X80533Y105000D01*
X81599D01*
X82133Y105533D01*
X84799Y105000D02*
Y108199D01*
X83199Y106599D01*
X85332D01*
X86398Y108199D02*
Y105000D01*
X88531D01*
X89597D02*
X90663D01*
X90130D01*
Y108199D01*
X89597Y107666D01*
X247133Y170166D02*
X246600Y170699D01*
X245533D01*
X245000Y170166D01*
Y168033D01*
X245533Y167500D01*
X246600D01*
X247133Y168033D01*
X250332Y170699D02*
X249265Y170166D01*
X248199Y169099D01*
Y168033D01*
X248732Y167500D01*
X249798D01*
X250332Y168033D01*
Y168566D01*
X249798Y169099D01*
X248199D01*
X251398Y170699D02*
Y167500D01*
X252997D01*
X253531Y168033D01*
Y168566D01*
X252997Y169099D01*
X251398D01*
X252997D01*
X253531Y169633D01*
Y170166D01*
X252997Y170699D01*
X251398D01*
X229582Y277915D02*
X229049Y278449D01*
X227983D01*
X227450Y277915D01*
Y275783D01*
X227983Y275250D01*
X229049D01*
X229582Y275783D01*
X232781Y278449D02*
X230649D01*
Y276849D01*
X231715Y277382D01*
X232248D01*
X232781Y276849D01*
Y275783D01*
X232248Y275250D01*
X231182D01*
X230649Y275783D01*
X233848Y275250D02*
Y278449D01*
X234914Y277382D01*
X235980Y278449D01*
Y275250D01*
X257133Y170166D02*
X256599Y170699D01*
X255533D01*
X255000Y170166D01*
Y168033D01*
X255533Y167500D01*
X256599D01*
X257133Y168033D01*
X260332Y170699D02*
X258199D01*
Y169099D01*
X259265Y169633D01*
X259799D01*
X260332Y169099D01*
Y168033D01*
X259799Y167500D01*
X258732D01*
X258199Y168033D01*
X261398Y170699D02*
Y167500D01*
X262997D01*
X263531Y168033D01*
Y168566D01*
X262997Y169099D01*
X261398D01*
X262997D01*
X263531Y169633D01*
Y170166D01*
X262997Y170699D01*
X261398D01*
X264633Y315166D02*
X264100Y315699D01*
X263033D01*
X262500Y315166D01*
Y313033D01*
X263033Y312500D01*
X264100D01*
X264633Y313033D01*
X267299Y312500D02*
Y315699D01*
X265699Y314100D01*
X267832D01*
X268898Y315699D02*
Y313033D01*
X269431Y312500D01*
X270497D01*
X271031Y313033D01*
Y315699D01*
X238334Y283133D02*
X237801Y282599D01*
Y281533D01*
X238334Y281000D01*
X240467D01*
X241000Y281533D01*
Y282599D01*
X240467Y283133D01*
X241000Y285799D02*
X237801D01*
X239401Y284199D01*
Y286332D01*
X241000Y287398D02*
X237801D01*
X238867Y288464D01*
X237801Y289531D01*
X241000D01*
X245682Y131115D02*
X245149Y131649D01*
X244083D01*
X243550Y131115D01*
Y128983D01*
X244083Y128450D01*
X245149D01*
X245682Y128983D01*
X248348Y128450D02*
Y131649D01*
X246749Y130049D01*
X248881D01*
X249948Y131649D02*
Y128450D01*
X251547D01*
X252080Y128983D01*
Y129516D01*
X251547Y130049D01*
X249948D01*
X251547D01*
X252080Y130582D01*
Y131115D01*
X251547Y131649D01*
X249948D01*
X264633Y325166D02*
X264100Y325699D01*
X263033D01*
X262500Y325166D01*
Y323033D01*
X263033Y322500D01*
X264100D01*
X264633Y323033D01*
X265699Y325166D02*
X266232Y325699D01*
X267299D01*
X267832Y325166D01*
Y324633D01*
X267299Y324099D01*
X266765D01*
X267299D01*
X267832Y323566D01*
Y323033D01*
X267299Y322500D01*
X266232D01*
X265699Y323033D01*
X268898Y325699D02*
Y323033D01*
X269431Y322500D01*
X270497D01*
X271031Y323033D01*
Y325699D01*
X84582Y333015D02*
X84049Y333549D01*
X82983D01*
X82450Y333015D01*
Y330883D01*
X82983Y330350D01*
X84049D01*
X84582Y330883D01*
X85649Y333015D02*
X86182Y333549D01*
X87248D01*
X87781Y333015D01*
Y332482D01*
X87248Y331949D01*
X86715D01*
X87248D01*
X87781Y331416D01*
Y330883D01*
X87248Y330350D01*
X86182D01*
X85649Y330883D01*
X88848Y330350D02*
Y333549D01*
X89914Y332482D01*
X90980Y333549D01*
Y330350D01*
X137133Y140166D02*
X136600Y140699D01*
X135533D01*
X135000Y140166D01*
Y138033D01*
X135533Y137500D01*
X136600D01*
X137133Y138033D01*
X138199Y140166D02*
X138732Y140699D01*
X139798D01*
X140332Y140166D01*
Y139633D01*
X139798Y139100D01*
X139265D01*
X139798D01*
X140332Y138566D01*
Y138033D01*
X139798Y137500D01*
X138732D01*
X138199Y138033D01*
X141398Y140699D02*
Y137500D01*
X143531D01*
X146730D02*
X144597D01*
X146730Y139633D01*
Y140166D01*
X146196Y140699D01*
X145130D01*
X144597Y140166D01*
X32133D02*
X31600Y140699D01*
X30533D01*
X30000Y140166D01*
Y138033D01*
X30533Y137500D01*
X31600D01*
X32133Y138033D01*
X33199Y140166D02*
X33732Y140699D01*
X34798D01*
X35332Y140166D01*
Y139633D01*
X34798Y139100D01*
X34265D01*
X34798D01*
X35332Y138566D01*
Y138033D01*
X34798Y137500D01*
X33732D01*
X33199Y138033D01*
X36398Y140699D02*
Y137500D01*
X38531D01*
X39597D02*
X40663D01*
X40130D01*
Y140699D01*
X39597Y140166D01*
X277334Y52133D02*
X276801Y51600D01*
Y50533D01*
X277334Y50000D01*
X279467D01*
X280000Y50533D01*
Y51600D01*
X279467Y52133D01*
X277334Y53199D02*
X276801Y53732D01*
Y54799D01*
X277334Y55332D01*
X277867D01*
X278400Y54799D01*
Y54265D01*
Y54799D01*
X278934Y55332D01*
X279467D01*
X280000Y54799D01*
Y53732D01*
X279467Y53199D01*
X276801Y56398D02*
X280000D01*
Y57997D01*
X279467Y58531D01*
X278934D01*
X278400Y57997D01*
Y56398D01*
Y57997D01*
X277867Y58531D01*
X277334D01*
X276801Y57997D01*
Y56398D01*
X264633Y335166D02*
X264100Y335699D01*
X263033D01*
X262500Y335166D01*
Y333033D01*
X263033Y332500D01*
X264100D01*
X264633Y333033D01*
X267832Y332500D02*
X265699D01*
X267832Y334633D01*
Y335166D01*
X267299Y335699D01*
X266232D01*
X265699Y335166D01*
X268898Y335699D02*
Y333033D01*
X269431Y332500D01*
X270497D01*
X271031Y333033D01*
Y335699D01*
X84633Y280166D02*
X84100Y280699D01*
X83033D01*
X82500Y280166D01*
Y278033D01*
X83033Y277500D01*
X84100D01*
X84633Y278033D01*
X87832Y277500D02*
X85699D01*
X87832Y279633D01*
Y280166D01*
X87299Y280699D01*
X86232D01*
X85699Y280166D01*
X88898Y277500D02*
Y280699D01*
X90497D01*
X91031Y280166D01*
Y279099D01*
X90497Y278566D01*
X88898D01*
X89964D02*
X91031Y277500D01*
X39582Y333015D02*
X39049Y333549D01*
X37983D01*
X37450Y333015D01*
Y330883D01*
X37983Y330350D01*
X39049D01*
X39582Y330883D01*
X42781Y330350D02*
X40649D01*
X42781Y332482D01*
Y333015D01*
X42248Y333549D01*
X41182D01*
X40649Y333015D01*
X43848Y330350D02*
Y333549D01*
X44914Y332482D01*
X45980Y333549D01*
Y330350D01*
X122133Y140166D02*
X121599Y140699D01*
X120533D01*
X120000Y140166D01*
Y138033D01*
X120533Y137500D01*
X121599D01*
X122133Y138033D01*
X125332Y137500D02*
X123199D01*
X125332Y139633D01*
Y140166D01*
X124799Y140699D01*
X123732D01*
X123199Y140166D01*
X126398Y140699D02*
Y137500D01*
X128531D01*
X131729D02*
X129597D01*
X131729Y139633D01*
Y140166D01*
X131196Y140699D01*
X130130D01*
X129597Y140166D01*
X17133D02*
X16600Y140699D01*
X15533D01*
X15000Y140166D01*
Y138033D01*
X15533Y137500D01*
X16600D01*
X17133Y138033D01*
X20332Y137500D02*
X18199D01*
X20332Y139633D01*
Y140166D01*
X19798Y140699D01*
X18732D01*
X18199Y140166D01*
X21398Y140699D02*
Y137500D01*
X23531D01*
X24597D02*
X25663D01*
X25130D01*
Y140699D01*
X24597Y140166D01*
X264633Y345166D02*
X264100Y345699D01*
X263033D01*
X262500Y345166D01*
Y343033D01*
X263033Y342500D01*
X264100D01*
X264633Y343033D01*
X265699Y342500D02*
X266765D01*
X266232D01*
Y345699D01*
X265699Y345166D01*
X268365Y345699D02*
Y343033D01*
X268898Y342500D01*
X269964D01*
X270497Y343033D01*
Y345699D01*
X97133Y280166D02*
X96600Y280699D01*
X95533D01*
X95000Y280166D01*
Y278033D01*
X95533Y277500D01*
X96600D01*
X97133Y278033D01*
X98199Y277500D02*
X99265D01*
X98732D01*
Y280699D01*
X98199Y280166D01*
X100865Y277500D02*
Y280699D01*
X102464D01*
X102997Y280166D01*
Y279099D01*
X102464Y278566D01*
X100865D01*
X101931D02*
X102997Y277500D01*
X219582Y372915D02*
X219049Y373449D01*
X217983D01*
X217450Y372915D01*
Y370783D01*
X217983Y370250D01*
X219049D01*
X219582Y370783D01*
X220649Y370250D02*
X221715D01*
X221182D01*
Y373449D01*
X220649Y372915D01*
X223314Y370250D02*
Y373449D01*
X224381Y372382D01*
X225447Y373449D01*
Y370250D01*
X187133Y140166D02*
X186600Y140699D01*
X185533D01*
X185000Y140166D01*
Y138033D01*
X185533Y137500D01*
X186600D01*
X187133Y138033D01*
X188199Y137500D02*
X189265D01*
X188732D01*
Y140699D01*
X188199Y140166D01*
X190865Y140699D02*
Y137500D01*
X192997D01*
X196196D02*
X194064D01*
X196196Y139633D01*
Y140166D01*
X195663Y140699D01*
X194597D01*
X194064Y140166D01*
X82133D02*
X81599Y140699D01*
X80533D01*
X80000Y140166D01*
Y138033D01*
X80533Y137500D01*
X81599D01*
X82133Y138033D01*
X83199Y137500D02*
X84265D01*
X83732D01*
Y140699D01*
X83199Y140166D01*
X85865Y140699D02*
Y137500D01*
X87997D01*
X89064D02*
X90130D01*
X89597D01*
Y140699D01*
X89064Y140166D01*
X249582Y148015D02*
X249049Y148549D01*
X247983D01*
X247450Y148015D01*
Y145883D01*
X247983Y145350D01*
X249049D01*
X249582Y145883D01*
X250649Y145350D02*
X251715D01*
X251182D01*
Y148549D01*
X250649Y148015D01*
X253314Y148549D02*
Y145350D01*
X254914D01*
X255447Y145883D01*
Y146416D01*
X254914Y146949D01*
X253314D01*
X254914D01*
X255447Y147482D01*
Y148015D01*
X254914Y148549D01*
X253314D01*
X177450Y278449D02*
Y275250D01*
X179049D01*
X179582Y275783D01*
Y276316D01*
X179049Y276849D01*
X177450D01*
X179049D01*
X179582Y277382D01*
Y277915D01*
X179049Y278449D01*
X177450D01*
X180649Y275250D02*
X181715D01*
X181182D01*
Y278449D01*
X180649Y277915D01*
X183314Y275250D02*
Y278449D01*
X184381Y277382D01*
X185447Y278449D01*
Y275250D01*
X322500Y347500D02*
Y349633D01*
X323566Y350699D01*
X324633Y349633D01*
Y347500D01*
Y349099D01*
X322500D01*
X327832Y347500D02*
X325699D01*
X327832Y349633D01*
Y350166D01*
X327298Y350699D01*
X326232D01*
X325699Y350166D01*
X328898Y350699D02*
Y348033D01*
X329431Y347500D01*
X330497D01*
X331031Y348033D01*
Y350699D01*
X300350Y329650D02*
Y331782D01*
X301416Y332849D01*
X302482Y331782D01*
Y329650D01*
Y331249D01*
X300350D01*
X303549Y329650D02*
X304615D01*
X304082D01*
Y332849D01*
X303549Y332315D01*
X306214Y332849D02*
Y330183D01*
X306748Y329650D01*
X307814D01*
X308347Y330183D01*
Y332849D01*
X47250Y281050D02*
Y283182D01*
X48316Y284249D01*
X49382Y283182D01*
Y281050D01*
Y282649D01*
X47250D01*
X50449Y281050D02*
X51515D01*
X50982D01*
Y284249D01*
X50449Y283715D01*
X53114Y281050D02*
Y284249D01*
X54714D01*
X55247Y283715D01*
Y282649D01*
X54714Y282116D01*
X53114D01*
X54181D02*
X55247Y281050D01*
X153950Y141950D02*
Y144082D01*
X155016Y145149D01*
X156082Y144082D01*
Y141950D01*
Y143549D01*
X153950D01*
X157149Y141950D02*
X158215D01*
X157682D01*
Y145149D01*
X157149Y144615D01*
X159814Y145149D02*
Y141950D01*
X161947D01*
X165146D02*
X163013D01*
X165146Y144082D01*
Y144615D01*
X164613Y145149D01*
X163547D01*
X163013Y144615D01*
X48950Y141950D02*
Y144082D01*
X50016Y145149D01*
X51082Y144082D01*
Y141950D01*
Y143549D01*
X48950D01*
X52149Y141950D02*
X53215D01*
X52682D01*
Y145149D01*
X52149Y144615D01*
X54814Y145149D02*
Y141950D01*
X56947D01*
X58013D02*
X59080D01*
X58547D01*
Y145149D01*
X58013Y144615D01*
X266250Y138250D02*
Y140382D01*
X267316Y141449D01*
X268382Y140382D01*
Y138250D01*
Y139849D01*
X266250D01*
X269449Y138250D02*
X270515D01*
X269982D01*
Y141449D01*
X269449Y140915D01*
X272114Y141449D02*
Y138250D01*
X273714D01*
X274247Y138783D01*
Y139316D01*
X273714Y139849D01*
X272114D01*
X273714D01*
X274247Y140382D01*
Y140915D01*
X273714Y141449D01*
X272114D01*
D57*
X150000Y260000D02*
G03*
X150000Y260000I-5000J0D01*
G01*
X197801Y256457D02*
G03*
X197801Y256457I-557J0D01*
G01*
X186378Y328622D02*
X192283D01*
X186378Y322716D02*
Y328622D01*
X227716D02*
X233622D01*
Y322716D02*
Y328622D01*
Y281378D02*
Y287283D01*
X227716Y281378D02*
X233622D01*
X186378Y287283D02*
X192283Y281378D01*
X16142Y329842D02*
X21063D01*
X16142Y310157D02*
Y329842D01*
Y310157D02*
X21063D01*
X28937D02*
X33858D01*
Y329842D01*
X28937D02*
X33858D01*
X61142D02*
X66063D01*
X61142Y310157D02*
Y329842D01*
Y310157D02*
X66063D01*
X73937D02*
X78858D01*
Y329842D01*
X73937D02*
X78858D01*
X7500Y305998D02*
Y300000D01*
X10499D01*
X11499Y301000D01*
Y301999D01*
X10499Y302999D01*
X7500D01*
X10499D01*
X11499Y303999D01*
Y304998D01*
X10499Y305998D01*
X7500D01*
X16497Y300000D02*
X14498D01*
X13498Y301000D01*
Y302999D01*
X14498Y303999D01*
X16497D01*
X17497Y302999D01*
Y301999D01*
X13498D01*
X19496Y300000D02*
Y303999D01*
X22495D01*
X23495Y302999D01*
Y300000D01*
X25494Y303999D02*
Y301000D01*
X26494Y300000D01*
X29493D01*
Y303999D01*
X32492Y304998D02*
Y303999D01*
X31492D01*
X33492D01*
X32492D01*
Y301000D01*
X33492Y300000D01*
X36491Y303999D02*
X40489D01*
X36491Y300000D01*
X40489D01*
X45488D02*
X43488D01*
X42489Y301000D01*
Y302999D01*
X43488Y303999D01*
X45488D01*
X46487Y302999D01*
Y301999D01*
X42489D01*
X48487Y303999D02*
Y300000D01*
Y301999D01*
X49486Y302999D01*
X50486Y303999D01*
X51486D01*
X62500Y300000D02*
Y305998D01*
X65499D01*
X66499Y304998D01*
Y302999D01*
X65499Y301999D01*
X62500D01*
X64499D02*
X66499Y300000D01*
X71497D02*
X69498D01*
X68498Y301000D01*
Y302999D01*
X69498Y303999D01*
X71497D01*
X72497Y302999D01*
Y301999D01*
X68498D01*
X74496Y300000D02*
X77495D01*
X78495Y301000D01*
X77495Y301999D01*
X75496D01*
X74496Y302999D01*
X75496Y303999D01*
X78495D01*
X83493Y300000D02*
X81494D01*
X80494Y301000D01*
Y302999D01*
X81494Y303999D01*
X83493D01*
X84493Y302999D01*
Y301999D01*
X80494D01*
X87492Y304998D02*
Y303999D01*
X86492D01*
X88492D01*
X87492D01*
Y301000D01*
X88492Y300000D01*
X350000Y322500D02*
Y328498D01*
X352999D01*
X353999Y327498D01*
Y325499D01*
X352999Y324499D01*
X350000D01*
X351999D02*
X353999Y322500D01*
X355998Y328498D02*
X359997Y322500D01*
Y328498D02*
X355998Y322500D01*
X350000Y318498D02*
X353999D01*
X351999D01*
Y312500D01*
X355998Y318498D02*
X359997Y312500D01*
Y318498D02*
X355998Y312500D01*
X353999Y307498D02*
X352999Y308498D01*
X351000D01*
X350000Y307498D01*
Y303500D01*
X351000Y302500D01*
X352999D01*
X353999Y303500D01*
Y305499D01*
X351999D01*
X355998Y302500D02*
Y308498D01*
X359997Y302500D01*
Y308498D01*
X361996D02*
Y302500D01*
X364995D01*
X365995Y303500D01*
Y307498D01*
X364995Y308498D01*
X361996D01*
X110000Y187500D02*
X111999D01*
X111000D01*
Y193498D01*
X110000Y192498D01*
D73*
X48720Y125285D02*
G03*
X48720Y126565I0J640D01*
G01*
X153720Y125285D02*
G03*
X153720Y126565I0J640D01*
G01*
X108130Y14163D02*
G03*
X108130Y16034I0J935D01*
G01*
X203130Y14163D02*
G03*
X203130Y16034I0J935D01*
G01*
X349163Y161870D02*
G03*
X351033Y161870I935J0D01*
G01*
X313484Y348583D02*
G03*
X309744Y348583I-1870J-824D01*
G01*
X270453Y117106D02*
X292106D01*
Y131791D01*
X269547D02*
X292106D01*
X269547Y118012D02*
Y131791D01*
Y118012D02*
X270453Y117106D01*
X48720Y118839D02*
Y125285D01*
Y126565D02*
Y133012D01*
X74311D01*
Y118839D02*
Y133012D01*
X48720Y118839D02*
X74311D01*
X153720D02*
Y125285D01*
Y126565D02*
Y133012D01*
X179311D01*
Y118839D02*
Y133012D01*
X153720Y118839D02*
X179311D01*
X50000Y260000D02*
Y275000D01*
Y205000D02*
Y220000D01*
X155000Y205000D02*
Y275000D01*
X305807Y320965D02*
X313071D01*
X305807Y309823D02*
Y320965D01*
Y309823D02*
X316949D01*
Y317087D01*
X313071Y320965D02*
X316949Y317087D01*
X182362Y263937D02*
Y265905D01*
X177638Y263937D02*
Y265905D01*
X247638Y134095D02*
Y136063D01*
X252362Y134095D02*
Y136063D01*
X222362Y358937D02*
Y360906D01*
X217638Y358937D02*
Y360906D01*
X37638Y319094D02*
Y321063D01*
X42362Y319094D02*
Y321063D01*
X82638Y319094D02*
Y321063D01*
X87362Y319094D02*
Y321063D01*
X256102Y111850D02*
Y118150D01*
X243898Y111850D02*
Y118150D01*
X232362Y263937D02*
Y265905D01*
X227638Y263937D02*
Y265905D01*
X167638Y264094D02*
Y266063D01*
X172362Y264094D02*
Y266063D01*
X278898Y181713D02*
Y188012D01*
X291102Y181713D02*
Y188012D01*
X192362Y263937D02*
Y265905D01*
X187638Y263937D02*
Y265905D01*
X263898Y181713D02*
Y188012D01*
X276102Y181713D02*
Y188012D01*
X222362Y263937D02*
Y265905D01*
X217638Y263937D02*
Y265905D01*
X293898Y181713D02*
Y188012D01*
X306102Y181713D02*
Y188012D01*
X194095Y342362D02*
X196063D01*
X194095Y337638D02*
X196063D01*
X319921Y181004D02*
Y185728D01*
X310079Y181004D02*
Y185728D01*
X334921Y181004D02*
Y185728D01*
X325079Y181004D02*
Y185728D01*
X196850Y258819D02*
Y268661D01*
X211417Y258819D02*
Y268661D01*
X203150Y269055D02*
X205118D01*
X203150Y258819D02*
X205118D01*
X196850Y256457D02*
X197801D01*
X226811Y354095D02*
Y365905D01*
X253189Y354095D02*
Y365905D01*
X226811Y354095D02*
X253189D01*
X226811Y365905D02*
X253189D01*
X108130Y15236D02*
X119350D01*
Y14961D02*
Y15236D01*
X108130Y14961D02*
X119350D01*
X108130D02*
Y16034D01*
Y14163D02*
Y15236D01*
X203130D02*
X214350D01*
Y14961D02*
Y15236D01*
X203130Y14961D02*
X214350D01*
X203130D02*
Y16034D01*
Y14163D02*
Y15236D01*
X350236Y150650D02*
Y161870D01*
X349961Y150650D02*
X350236D01*
X349961D02*
Y161870D01*
X351033D01*
X349163D02*
X350236D01*
X335906Y156673D02*
Y158500D01*
X334035D02*
X335906D01*
X324095D02*
X325965D01*
X324095Y156673D02*
Y158500D01*
X106850Y319429D02*
X113150D01*
X106850Y325236D02*
X106851Y319429D01*
X113150D02*
Y325236D01*
X223307Y149784D02*
Y165335D01*
X236693Y149784D02*
Y165335D01*
X52362Y318937D02*
Y320905D01*
X47638Y318937D02*
Y320905D01*
X97362Y318937D02*
Y320905D01*
X92638Y318937D02*
Y320905D01*
X91693Y149528D02*
Y165079D01*
X78307Y149528D02*
Y165079D01*
X196693Y149528D02*
Y165079D01*
X183307Y149528D02*
Y165079D01*
X26693Y149528D02*
Y165079D01*
X13307Y149528D02*
Y165079D01*
X131693Y149528D02*
Y165079D01*
X118307Y149528D02*
Y165079D01*
X344468Y61063D02*
Y65000D01*
Y61063D02*
X362874D01*
Y68937D01*
X344468D02*
X362874D01*
X344468Y65000D02*
Y68937D01*
X48189Y170827D02*
X71811D01*
Y149173D02*
Y155079D01*
X48189Y149173D02*
Y155079D01*
Y164921D02*
Y170827D01*
X71811Y164921D02*
Y170827D01*
X48189Y149173D02*
X71811D01*
X153189Y170827D02*
X176811D01*
Y149173D02*
Y155079D01*
X153189Y149173D02*
Y155079D01*
Y164921D02*
Y170827D01*
X176811Y164921D02*
Y170827D01*
X153189Y149173D02*
X176811D01*
X259016Y255256D02*
X310984D01*
X259016Y204468D02*
X310984D01*
X259016Y237933D02*
Y255256D01*
X310984Y237933D02*
Y255256D01*
X259016Y204468D02*
Y221791D01*
X310984Y204468D02*
Y221791D01*
X35000Y149469D02*
X38937D01*
Y167874D01*
X31063D02*
X38937D01*
X31063Y149469D02*
Y167874D01*
Y149469D02*
X35000D01*
X140000D02*
X143937D01*
Y167874D01*
X136063D02*
X143937D01*
X136063Y149469D02*
Y167874D01*
Y149469D02*
X140000D01*
X122362Y318937D02*
Y320905D01*
X117638Y318937D02*
Y320905D01*
X323307Y209784D02*
Y225335D01*
X336693Y209784D02*
Y225335D01*
X283661Y388386D02*
Y390945D01*
X322638D01*
Y388386D02*
Y390945D01*
X283661Y366732D02*
Y375394D01*
X290945Y357087D02*
X294291D01*
X312008D02*
X315158D01*
X322638Y366732D02*
Y375394D01*
X27362Y68937D02*
Y70906D01*
X22638Y68937D02*
Y70906D01*
X37362Y68937D02*
Y70906D01*
X32638Y68937D02*
Y70906D01*
X46500Y75906D02*
X48327D01*
X46500Y74035D02*
Y75906D01*
Y64095D02*
Y65965D01*
Y64095D02*
X48327D01*
X68543Y62913D02*
Y77480D01*
X61457Y62913D02*
Y77480D01*
Y68032D02*
X68543D01*
X72638Y69095D02*
Y71063D01*
X77362Y69095D02*
Y71063D01*
X87362Y68937D02*
Y70906D01*
X82638Y68937D02*
Y70906D01*
X93425Y70787D02*
X96575D01*
X93425Y69213D02*
Y70787D01*
X96575Y69213D02*
Y70787D01*
X102638Y69095D02*
Y71063D01*
X107362Y69095D02*
Y71063D01*
X117362Y68937D02*
Y70906D01*
X112638Y68937D02*
Y70906D01*
X137362Y68937D02*
Y70906D01*
X132638Y68937D02*
Y70906D01*
X129095Y31500D02*
Y33327D01*
Y31500D02*
X130965D01*
X139035D02*
X140905D01*
Y33327D01*
X147362Y68937D02*
Y70906D01*
X142638Y68937D02*
Y70906D01*
X156500Y75906D02*
X158327D01*
X156500Y74035D02*
Y75906D01*
Y64095D02*
Y65965D01*
Y64095D02*
X158327D01*
X178543Y62913D02*
Y77480D01*
X171457Y62913D02*
Y77480D01*
Y68032D02*
X178543D01*
X182638Y69095D02*
Y71063D01*
X187362Y69095D02*
Y71063D01*
X197362Y68937D02*
Y70906D01*
X192638Y68937D02*
Y70906D01*
X203425Y70787D02*
X206575D01*
X203425Y69213D02*
Y70787D01*
X206575Y69213D02*
Y70787D01*
X212638Y69095D02*
Y71063D01*
X217362Y69095D02*
Y71063D01*
X227362Y68937D02*
Y70906D01*
X222638Y68937D02*
Y70906D01*
X224095Y31500D02*
Y33327D01*
Y31500D02*
X225965D01*
X234035D02*
X235906D01*
Y33327D01*
X123425Y15787D02*
X126575D01*
X123425Y14213D02*
Y15787D01*
X126575Y14213D02*
Y15787D01*
X132638Y14095D02*
Y16063D01*
X137362Y14095D02*
Y16063D01*
X147362Y13937D02*
Y15905D01*
X142638Y13937D02*
Y15905D01*
X218425Y15787D02*
X221575D01*
X218425Y14213D02*
Y15787D01*
X221575Y14213D02*
Y15787D01*
X227638Y14095D02*
Y16063D01*
X232362Y14095D02*
Y16063D01*
X242362Y13937D02*
Y15905D01*
X237638Y13937D02*
Y15905D01*
X272362Y68937D02*
Y70906D01*
X267638Y68937D02*
Y70906D01*
X277638Y69095D02*
Y71063D01*
X282362Y69095D02*
Y71063D01*
X287638Y69095D02*
Y71063D01*
X292362Y69095D02*
Y71063D01*
X302362Y68937D02*
Y70906D01*
X297638Y68937D02*
Y70906D01*
X312362Y68937D02*
Y70906D01*
X307638Y68937D02*
Y70906D01*
X322362Y68937D02*
Y70906D01*
X317638Y68937D02*
Y70906D01*
X257638Y93957D02*
Y95925D01*
X262362Y93957D02*
Y95925D01*
X267638Y94095D02*
Y96063D01*
X272362Y94095D02*
Y96063D01*
X277638Y94095D02*
Y96063D01*
X282362Y94095D02*
Y96063D01*
X287638Y94095D02*
Y96063D01*
X292362Y94095D02*
Y96063D01*
X302362Y93937D02*
Y95906D01*
X297638Y93937D02*
Y95906D01*
X312362Y93937D02*
Y95906D01*
X307638Y93937D02*
Y95906D01*
X317638Y94095D02*
Y96063D01*
X322362Y94095D02*
Y96063D01*
X332362Y93937D02*
Y95906D01*
X327638Y93937D02*
Y95906D01*
X27362Y93937D02*
Y95906D01*
X22638Y93937D02*
Y95906D01*
X32638Y94095D02*
Y96063D01*
X37362Y94095D02*
Y96063D01*
X47362Y93937D02*
Y95906D01*
X42638Y93937D02*
Y95906D01*
X52638Y94095D02*
Y96063D01*
X57362Y94095D02*
Y96063D01*
X62638Y94095D02*
Y96063D01*
X67362Y94095D02*
Y96063D01*
X77362Y93937D02*
Y95906D01*
X72638Y93937D02*
Y95906D01*
X82638Y94095D02*
Y96063D01*
X87362Y94095D02*
Y96063D01*
X94095Y91500D02*
Y93327D01*
Y91500D02*
X95965D01*
X104035D02*
X105905D01*
Y93327D01*
X137362Y93937D02*
Y95906D01*
X132638Y93937D02*
Y95906D01*
X142638Y94095D02*
Y96063D01*
X147362Y94095D02*
Y96063D01*
X157362Y93937D02*
Y95906D01*
X152638Y93937D02*
Y95906D01*
X162638Y94095D02*
Y96063D01*
X167362Y94095D02*
Y96063D01*
X172638Y94095D02*
Y96063D01*
X177362Y94095D02*
Y96063D01*
X187362Y93937D02*
Y95906D01*
X182638Y93937D02*
Y95906D01*
X192638Y94095D02*
Y96063D01*
X197362Y94095D02*
Y96063D01*
X204095Y91500D02*
Y93327D01*
Y91500D02*
X205965D01*
X214035D02*
X215905D01*
Y93327D01*
X15079Y124134D02*
Y128858D01*
X24921Y124134D02*
Y128858D01*
X30079Y124134D02*
Y128858D01*
X39921Y124134D02*
Y128858D01*
X120079Y124134D02*
Y128858D01*
X129921Y124134D02*
Y128858D01*
X135079Y124134D02*
Y128858D01*
X144921Y124134D02*
Y128858D01*
X80079Y124134D02*
Y128858D01*
X89921Y124134D02*
Y128858D01*
X185079Y124134D02*
Y128858D01*
X194921Y124134D02*
Y128858D01*
X312362Y113937D02*
Y115905D01*
X307638Y113937D02*
Y115905D01*
X317638Y114094D02*
Y116063D01*
X322362Y114094D02*
Y116063D01*
X332362Y113937D02*
Y115905D01*
X327638Y113937D02*
Y115905D01*
X307638Y133937D02*
Y135906D01*
X312362Y133937D02*
Y135906D01*
X327362Y133937D02*
Y135906D01*
X322638Y133937D02*
Y135906D01*
X332638Y134095D02*
Y136063D01*
X337362Y134095D02*
Y136063D01*
X342638Y134095D02*
Y136063D01*
X347362Y134095D02*
Y136063D01*
X353425Y134213D02*
X356575D01*
Y135787D01*
X353425Y134213D02*
Y135787D01*
X252362Y153937D02*
Y155905D01*
X247638Y153937D02*
Y155905D01*
X257638Y154095D02*
Y156063D01*
X262362Y154095D02*
Y156063D01*
X272362Y153937D02*
Y155905D01*
X267638Y153937D02*
Y155905D01*
X282362Y153937D02*
Y155905D01*
X277638Y153937D02*
Y155905D01*
X286457Y147520D02*
Y162087D01*
X293543Y147520D02*
Y162087D01*
X286457Y156968D02*
X293543D01*
X302362Y153937D02*
Y155905D01*
X297638Y153937D02*
Y155905D01*
X312362Y153937D02*
Y155905D01*
X307638Y153937D02*
Y155905D01*
X249095Y287362D02*
X251063D01*
X249095Y282638D02*
X251063D01*
X249095Y297362D02*
X251063D01*
X249095Y292638D02*
X251063D01*
X249095Y307362D02*
X251063D01*
X249095Y302638D02*
X251063D01*
X281378Y307205D02*
X283347D01*
X281378Y302480D02*
X283347D01*
X281221Y312480D02*
X283189D01*
X281221Y317205D02*
X283189D01*
X249095Y317362D02*
X251063D01*
X249095Y312638D02*
X251063D01*
X281221Y322480D02*
X283189D01*
X281221Y327205D02*
X283189D01*
X281221Y332480D02*
X283189D01*
X281221Y337205D02*
X283189D01*
X281221Y342480D02*
X283189D01*
X281221Y347205D02*
X283189D01*
X320079Y333622D02*
Y348583D01*
X303346Y333622D02*
X320079D01*
X303346D02*
Y348583D01*
X313484D01*
X309744D02*
X320079D01*
X169095Y317362D02*
X171063D01*
X169095Y312638D02*
X171063D01*
X168937Y282638D02*
X170905D01*
X168937Y287362D02*
X170905D01*
X168937Y292638D02*
X170905D01*
X168937Y297362D02*
X170905D01*
X169095Y307362D02*
X171063D01*
X169095Y302638D02*
X171063D01*
X82638Y289094D02*
Y291063D01*
X87362Y289094D02*
Y291063D01*
X92638Y289094D02*
Y291063D01*
X97362Y289094D02*
Y291063D01*
D74*
X253484Y371220D02*
G03*
X253484Y371220I-492J0D01*
G01*
D75*
X187953Y282165D02*
G03*
X187953Y282165I-787J0D01*
G01*
D76*
X345276Y78839D02*
X354724D01*
X342520Y80807D02*
Y98917D01*
Y80807D02*
X357480D01*
X354724Y98917D02*
Y100886D01*
X345276D02*
X354724D01*
X345276Y98917D02*
Y100886D01*
X354724Y78839D02*
Y80807D01*
X345276Y78839D02*
Y80807D01*
X342520Y98917D02*
X357480D01*
X342520Y83169D02*
X357480D01*
Y80807D02*
Y98917D01*
X335000Y330000D02*
X345000D01*
Y300000D02*
Y330000D01*
X335000Y300000D02*
Y330000D01*
Y300000D02*
X345000D01*
X45000Y185000D02*
Y195000D01*
X105000D01*
X45000Y185000D02*
X105000D01*
Y195000D01*
M02*
