G04*
G04 #@! TF.GenerationSoftware,Altium Limited,Altium Designer,18.1.9 (240)*
G04*
G04 Layer_Color=16711935*
%FSLAX25Y25*%
%MOIN*%
G70*
G01*
G75*
%ADD88R,0.06312X0.05524*%
%ADD117C,0.03556*%
%ADD118C,0.07800*%
%ADD119R,0.07800X0.07800*%
%ADD120R,0.07800X0.07800*%
%ADD121C,0.00800*%
%ADD122R,0.10642X0.10642*%
%ADD123C,0.10642*%
%ADD124C,0.04343*%
%ADD125R,0.10642X0.10642*%
%ADD126R,0.12611X0.12611*%
%ADD127C,0.12611*%
D88*
X255000Y140000D02*
D03*
Y130157D02*
D03*
X245000Y140000D02*
D03*
Y130157D02*
D03*
X235000Y140000D02*
D03*
Y130157D02*
D03*
X225000Y140000D02*
D03*
Y130157D02*
D03*
X215000Y140000D02*
D03*
Y130157D02*
D03*
Y120000D02*
D03*
Y110158D02*
D03*
X225000Y120000D02*
D03*
Y110158D02*
D03*
X235000Y120000D02*
D03*
Y110158D02*
D03*
X245000Y120000D02*
D03*
Y110158D02*
D03*
X255000Y120000D02*
D03*
Y110158D02*
D03*
X310500Y140500D02*
D03*
Y130657D02*
D03*
X320500Y140500D02*
D03*
Y130657D02*
D03*
Y120500D02*
D03*
Y110658D02*
D03*
X310500Y120500D02*
D03*
Y110658D02*
D03*
D117*
X135531Y245669D02*
D03*
Y238583D02*
D03*
Y298819D02*
D03*
Y291732D02*
D03*
D118*
X100394Y312992D02*
D03*
X129764Y259842D02*
D03*
X129921Y312992D02*
D03*
X100236Y277559D02*
D03*
X100389Y242126D02*
D03*
X67378Y295276D02*
D03*
X47378D02*
D03*
X27378D02*
D03*
X57378D02*
D03*
X37378D02*
D03*
X17378D02*
D03*
X277716Y264500D02*
D03*
X267717D02*
D03*
X353346D02*
D03*
X333347D02*
D03*
X313347D02*
D03*
X343347D02*
D03*
X323346D02*
D03*
X303346D02*
D03*
X196000Y212441D02*
D03*
Y232441D02*
D03*
Y222441D02*
D03*
X181890Y212283D02*
D03*
Y232283D02*
D03*
Y222284D02*
D03*
X67378Y312531D02*
D03*
X47378D02*
D03*
X57378D02*
D03*
X37378D02*
D03*
X185039Y380079D02*
D03*
X175039D02*
D03*
X165039D02*
D03*
X155039D02*
D03*
X145039D02*
D03*
X135039D02*
D03*
X125039D02*
D03*
X115039D02*
D03*
X175039Y370079D02*
D03*
X165039D02*
D03*
X155039D02*
D03*
X145039D02*
D03*
X135039D02*
D03*
X125039D02*
D03*
X115039D02*
D03*
X95039D02*
D03*
X105039D02*
D03*
X95039Y380079D02*
D03*
X105039D02*
D03*
D119*
X110394Y312992D02*
D03*
X139764Y259842D02*
D03*
X139921Y312992D02*
D03*
X110236Y277559D02*
D03*
X110389Y242126D02*
D03*
X196000Y202441D02*
D03*
X181890Y202284D02*
D03*
D120*
X77378Y295276D02*
D03*
X287717Y264500D02*
D03*
X363347D02*
D03*
X77378Y312531D02*
D03*
X185039Y370079D02*
D03*
D121*
X39370Y39370D02*
D03*
Y354331D02*
D03*
X354331D02*
D03*
Y39370D02*
D03*
D122*
X70866Y15748D02*
D03*
X165354D02*
D03*
D123*
X90866D02*
D03*
X185354D02*
D03*
X377953Y149941D02*
D03*
Y90886D02*
D03*
D124*
X373154Y314894D02*
D03*
Y297571D02*
D03*
D125*
X377953Y129941D02*
D03*
Y70886D02*
D03*
D126*
X354331Y240177D02*
D03*
D127*
Y220492D02*
D03*
Y200807D02*
D03*
Y181122D02*
D03*
M02*
