%FSLAX25Y25*%
%MOIN*%
G70*
G01*
G75*
G04 Layer_Color=128*
%ADD10R,0.20276X0.12402*%
%ADD11O,0.00984X0.02756*%
%ADD12R,0.00984X0.02756*%
%ADD13R,0.02756X0.00984*%
%ADD14R,0.15197X0.10787*%
%ADD15R,0.01772X0.04134*%
%ADD16O,0.01772X0.04134*%
%ADD17R,0.04000X0.06000*%
%ADD18R,0.06000X0.04000*%
G04:AMPARAMS|DCode=19|XSize=40mil|YSize=60mil|CornerRadius=10mil|HoleSize=0mil|Usage=FLASHONLY|Rotation=0.000|XOffset=0mil|YOffset=0mil|HoleType=Round|Shape=RoundedRectangle|*
%AMROUNDEDRECTD19*
21,1,0.04000,0.04000,0,0,0.0*
21,1,0.02000,0.06000,0,0,0.0*
1,1,0.02000,0.01000,-0.02000*
1,1,0.02000,-0.01000,-0.02000*
1,1,0.02000,-0.01000,0.02000*
1,1,0.02000,0.01000,0.02000*
%
%ADD19ROUNDEDRECTD19*%
%ADD20R,0.01181X0.03543*%
%ADD21R,0.03543X0.01181*%
%ADD22R,0.05512X0.04724*%
%ADD23R,0.12992X0.05512*%
%ADD24R,0.04724X0.05512*%
%ADD25R,0.09449X0.05118*%
G04:AMPARAMS|DCode=26|XSize=35.43mil|YSize=39.37mil|CornerRadius=8.86mil|HoleSize=0mil|Usage=FLASHONLY|Rotation=90.000|XOffset=0mil|YOffset=0mil|HoleType=Round|Shape=RoundedRectangle|*
%AMROUNDEDRECTD26*
21,1,0.03543,0.02165,0,0,90.0*
21,1,0.01772,0.03937,0,0,90.0*
1,1,0.01772,0.01083,0.00886*
1,1,0.01772,0.01083,-0.00886*
1,1,0.01772,-0.01083,-0.00886*
1,1,0.01772,-0.01083,0.00886*
%
%ADD26ROUNDEDRECTD26*%
%ADD27R,0.03937X0.03543*%
%ADD28R,0.02756X0.01654*%
%ADD29R,0.12598X0.08268*%
%ADD30R,0.03543X0.08268*%
%ADD31O,0.02717X0.03898*%
%ADD32R,0.02717X0.03898*%
%ADD33R,0.01181X0.04724*%
%ADD34R,0.04724X0.01181*%
%ADD35O,0.03898X0.02717*%
%ADD36R,0.03898X0.02717*%
%ADD37R,0.05000X0.06299*%
%ADD38R,0.07087X0.05512*%
%ADD39R,0.14567X0.05906*%
%ADD40R,0.08661X0.05512*%
%ADD41R,0.03543X0.05512*%
%ADD42R,0.09843X0.06299*%
%ADD43R,0.14764X0.12992*%
%ADD44R,0.05512X0.08661*%
%ADD45R,0.05512X0.03543*%
%ADD46R,0.06299X0.07500*%
%ADD47R,0.05512X0.03740*%
%ADD48R,0.02953X0.04528*%
%ADD49R,0.01772X0.09055*%
%ADD50R,0.07874X0.09843*%
%ADD51R,0.06299X0.05000*%
%ADD52R,0.04331X0.04331*%
%ADD53R,0.02362X0.01969*%
%ADD54O,0.05512X0.03937*%
%ADD55R,0.05512X0.04724*%
%ADD56C,0.00600*%
%ADD57C,0.01000*%
%ADD58C,0.02000*%
%ADD59C,0.03937*%
%ADD60C,0.07874*%
%ADD61R,0.06693X0.09331*%
%ADD62R,0.09843X0.09843*%
%ADD63C,0.09843*%
%ADD64C,0.11811*%
%ADD65C,0.02756*%
%ADD66C,0.03543*%
%ADD67C,0.07000*%
%ADD68R,0.07000X0.07000*%
%ADD69R,0.07000X0.07000*%
%ADD70R,0.09843X0.09843*%
%ADD71R,0.11811X0.11811*%
%ADD72C,0.02800*%
%ADD73C,0.00787*%
%ADD74C,0.00984*%
%ADD75C,0.01969*%
%ADD76C,0.00500*%
%ADD77R,0.01969X0.01969*%
%ADD78R,0.03937X0.03937*%
%ADD79R,0.01575X0.01575*%
%ADD80R,0.07480X0.10236*%
%ADD81R,0.21076X0.13202*%
%ADD82O,0.01784X0.03556*%
%ADD83R,0.01784X0.03556*%
%ADD84R,0.03556X0.01784*%
%ADD85R,0.15997X0.11587*%
%ADD86R,0.02572X0.04934*%
%ADD87O,0.02572X0.04934*%
%ADD88R,0.04800X0.06800*%
%ADD89R,0.06800X0.04800*%
G04:AMPARAMS|DCode=90|XSize=48mil|YSize=68mil|CornerRadius=14mil|HoleSize=0mil|Usage=FLASHONLY|Rotation=0.000|XOffset=0mil|YOffset=0mil|HoleType=Round|Shape=RoundedRectangle|*
%AMROUNDEDRECTD90*
21,1,0.04800,0.04000,0,0,0.0*
21,1,0.02000,0.06800,0,0,0.0*
1,1,0.02800,0.01000,-0.02000*
1,1,0.02800,-0.01000,-0.02000*
1,1,0.02800,-0.01000,0.02000*
1,1,0.02800,0.01000,0.02000*
%
%ADD90ROUNDEDRECTD90*%
%ADD91R,0.01981X0.04343*%
%ADD92R,0.04343X0.01981*%
%ADD93R,0.06312X0.05524*%
%ADD94R,0.13792X0.06312*%
%ADD95R,0.05524X0.06312*%
%ADD96R,0.10249X0.05918*%
G04:AMPARAMS|DCode=97|XSize=43.43mil|YSize=47.37mil|CornerRadius=12.86mil|HoleSize=0mil|Usage=FLASHONLY|Rotation=90.000|XOffset=0mil|YOffset=0mil|HoleType=Round|Shape=RoundedRectangle|*
%AMROUNDEDRECTD97*
21,1,0.04343,0.02165,0,0,90.0*
21,1,0.01772,0.04737,0,0,90.0*
1,1,0.02572,0.01083,0.00886*
1,1,0.02572,0.01083,-0.00886*
1,1,0.02572,-0.01083,-0.00886*
1,1,0.02572,-0.01083,0.00886*
%
%ADD97ROUNDEDRECTD97*%
%ADD98R,0.04737X0.04343*%
%ADD99R,0.03556X0.02454*%
%ADD100R,0.13398X0.09068*%
%ADD101R,0.04343X0.09068*%
%ADD102O,0.03517X0.04698*%
%ADD103R,0.03517X0.04698*%
%ADD104R,0.01981X0.05524*%
%ADD105R,0.05524X0.01981*%
%ADD106O,0.04698X0.03517*%
%ADD107R,0.04698X0.03517*%
%ADD108R,0.05800X0.07099*%
%ADD109R,0.07887X0.06312*%
%ADD110R,0.15367X0.06706*%
%ADD111R,0.09461X0.06312*%
%ADD112R,0.04343X0.06312*%
%ADD113R,0.10642X0.07099*%
%ADD114R,0.15564X0.13792*%
%ADD115R,0.06312X0.09461*%
%ADD116R,0.06312X0.04343*%
%ADD117R,0.07099X0.08300*%
%ADD118R,0.06312X0.04540*%
%ADD119R,0.03753X0.05328*%
%ADD120R,0.02572X0.09855*%
%ADD121R,0.08674X0.10642*%
%ADD122R,0.07099X0.05800*%
%ADD123R,0.05131X0.05131*%
%ADD124R,0.03162X0.02769*%
%ADD125O,0.06312X0.04737*%
%ADD126R,0.06312X0.05524*%
%ADD127C,0.00800*%
%ADD128R,0.10642X0.10642*%
%ADD129C,0.10642*%
%ADD130C,0.12611*%
%ADD131C,0.03556*%
%ADD132C,0.04343*%
%ADD133C,0.07800*%
%ADD134R,0.07800X0.07800*%
%ADD135R,0.07800X0.07800*%
%ADD136R,0.10642X0.10642*%
%ADD137R,0.12611X0.12611*%
D22*
X255000Y140000D02*
D03*
Y130157D02*
D03*
X245000Y140000D02*
D03*
Y130157D02*
D03*
X235000Y140000D02*
D03*
Y130157D02*
D03*
X225000Y140000D02*
D03*
Y130157D02*
D03*
X215000Y140000D02*
D03*
Y130157D02*
D03*
Y120000D02*
D03*
Y110158D02*
D03*
X225000Y120000D02*
D03*
Y110158D02*
D03*
X235000Y120000D02*
D03*
Y110158D02*
D03*
X245000Y120000D02*
D03*
Y110158D02*
D03*
X255000Y120000D02*
D03*
Y110158D02*
D03*
X310500Y140500D02*
D03*
Y130657D02*
D03*
X320500Y140500D02*
D03*
Y130657D02*
D03*
Y120500D02*
D03*
Y110658D02*
D03*
X310500Y120500D02*
D03*
Y110658D02*
D03*
M02*
