G04*
G04 #@! TF.GenerationSoftware,Altium Limited,Altium Designer,18.1.9 (240)*
G04*
G04 Layer_Color=8421504*
%FSLAX25Y25*%
%MOIN*%
G70*
G01*
G75*
%ADD16R,0.01968X0.01968*%
%ADD17R,0.03937X0.03937*%
%ADD18R,0.03937X0.03937*%
%ADD19R,0.03937X0.03937*%
%ADD20R,0.03937X0.03937*%
%ADD21R,0.01575X0.01575*%
%ADD22O,0.04724X0.09843*%
%ADD23R,0.04724X0.09843*%
%ADD24R,0.05512X0.07087*%
%ADD25R,0.04528X0.02953*%
%ADD26R,0.03740X0.05512*%
%ADD27R,0.04724X0.05512*%
%ADD28R,0.04724X0.07087*%
%ADD29R,0.01181X0.04724*%
%ADD30R,0.03937X0.04134*%
%ADD31R,0.04134X0.08661*%
%ADD32O,0.00984X0.02756*%
%ADD33R,0.00984X0.02756*%
%ADD34R,0.02756X0.00984*%
%ADD35R,0.01772X0.04134*%
%ADD36O,0.01772X0.04134*%
%ADD37R,0.03543X0.01181*%
%ADD38R,0.01181X0.03543*%
%ADD39R,0.05512X0.04724*%
%ADD40R,0.12992X0.05512*%
%ADD41R,0.09449X0.05118*%
G04:AMPARAMS|DCode=42|XSize=35.43mil|YSize=39.37mil|CornerRadius=8.86mil|HoleSize=0mil|Usage=FLASHONLY|Rotation=90.000|XOffset=0mil|YOffset=0mil|HoleType=Round|Shape=RoundedRectangle|*
%AMROUNDEDRECTD42*
21,1,0.03543,0.02165,0,0,90.0*
21,1,0.01772,0.03937,0,0,90.0*
1,1,0.01772,0.01083,0.00886*
1,1,0.01772,0.01083,-0.00886*
1,1,0.01772,-0.01083,-0.00886*
1,1,0.01772,-0.01083,0.00886*
%
%ADD42ROUNDEDRECTD42*%
%ADD43R,0.03937X0.03543*%
%ADD44R,0.02756X0.01654*%
%ADD45R,0.12598X0.08268*%
%ADD46R,0.03543X0.08268*%
%ADD47O,0.02717X0.03898*%
%ADD48R,0.02717X0.03898*%
%ADD49R,0.04724X0.01181*%
%ADD50O,0.03898X0.02717*%
%ADD51R,0.03898X0.02717*%
%ADD52R,0.05000X0.06299*%
%ADD53R,0.14567X0.05906*%
%ADD54R,0.08661X0.05512*%
%ADD55R,0.03543X0.05512*%
%ADD56R,0.09843X0.06299*%
%ADD57R,0.14764X0.12992*%
%ADD58R,0.05512X0.08661*%
%ADD59R,0.05512X0.03543*%
%ADD60R,0.06299X0.07500*%
%ADD61R,0.09055X0.01772*%
%ADD62R,0.09843X0.07874*%
%ADD63R,0.06299X0.05000*%
%ADD64R,0.04331X0.04331*%
%ADD65R,0.02362X0.01968*%
%ADD66O,0.03937X0.05512*%
%ADD67R,0.04724X0.05512*%
D16*
X288701Y119528D02*
D03*
Y122480D02*
D03*
Y126417D02*
D03*
Y129370D02*
D03*
X284764Y119528D02*
D03*
Y122480D02*
D03*
Y126417D02*
D03*
Y129370D02*
D03*
X280827Y119528D02*
D03*
Y122480D02*
D03*
Y126417D02*
D03*
Y129370D02*
D03*
X276890Y119528D02*
D03*
Y122480D02*
D03*
Y126417D02*
D03*
Y129370D02*
D03*
X272953D02*
D03*
Y126417D02*
D03*
Y122480D02*
D03*
Y119528D02*
D03*
D17*
X61516Y128878D02*
D03*
X56595D02*
D03*
X166516D02*
D03*
X161594D02*
D03*
D18*
X61516Y122972D02*
D03*
X56595D02*
D03*
X166516D02*
D03*
X161594D02*
D03*
D19*
X66437D02*
D03*
X171437D02*
D03*
D20*
X66437Y128878D02*
D03*
X171437D02*
D03*
D21*
X232756Y133543D02*
D03*
Y126457D02*
D03*
X232756Y131181D02*
D03*
Y128819D02*
D03*
X230000D02*
D03*
Y131181D02*
D03*
Y126457D02*
D03*
Y133543D02*
D03*
X232756Y198406D02*
D03*
Y191319D02*
D03*
X232756Y196043D02*
D03*
Y193681D02*
D03*
X230000D02*
D03*
Y196043D02*
D03*
Y191319D02*
D03*
Y198406D02*
D03*
X252756D02*
D03*
Y191319D02*
D03*
X252756Y196043D02*
D03*
Y193681D02*
D03*
X250000D02*
D03*
Y196043D02*
D03*
Y191319D02*
D03*
Y198406D02*
D03*
X247244Y176319D02*
D03*
Y183405D02*
D03*
X247244Y178681D02*
D03*
Y181043D02*
D03*
X250000D02*
D03*
Y178681D02*
D03*
Y183405D02*
D03*
Y176319D02*
D03*
D22*
X21656Y220492D02*
D03*
X29530D02*
D03*
X37404D02*
D03*
X45278D02*
D03*
X53152D02*
D03*
X61026D02*
D03*
X68900D02*
D03*
X76774D02*
D03*
X21656Y279547D02*
D03*
X29530D02*
D03*
X37404D02*
D03*
X45278D02*
D03*
X53152D02*
D03*
X61026D02*
D03*
X68900D02*
D03*
D23*
X76774D02*
D03*
D24*
X112992Y301181D02*
D03*
X98425D02*
D03*
D25*
X129331Y248130D02*
D03*
X141732D02*
D03*
X129331Y236122D02*
D03*
X141732D02*
D03*
X129331Y301279D02*
D03*
X141732D02*
D03*
X129331Y289272D02*
D03*
X141732D02*
D03*
D26*
X127362Y242126D02*
D03*
X143701D02*
D03*
X127362Y295276D02*
D03*
X143701D02*
D03*
D27*
X139764Y269685D02*
D03*
X129921D02*
D03*
Y279528D02*
D03*
X139764D02*
D03*
X98425Y289370D02*
D03*
X108268D02*
D03*
X98425Y253937D02*
D03*
X108268D02*
D03*
X98425Y218504D02*
D03*
X108268D02*
D03*
X129921Y228346D02*
D03*
X139764D02*
D03*
X140000Y218869D02*
D03*
X130158D02*
D03*
X163386Y324803D02*
D03*
X173228D02*
D03*
X163386Y316929D02*
D03*
X173228D02*
D03*
X163386Y309055D02*
D03*
X173228D02*
D03*
X66929Y322098D02*
D03*
X57087D02*
D03*
X47378D02*
D03*
X37535D02*
D03*
X198819Y336614D02*
D03*
X188976D02*
D03*
X255000Y285000D02*
D03*
X245158D02*
D03*
X255000Y295000D02*
D03*
X245158D02*
D03*
X255000Y305000D02*
D03*
X245158D02*
D03*
X255000Y315000D02*
D03*
X245158D02*
D03*
X173228Y293307D02*
D03*
X163386D02*
D03*
Y285433D02*
D03*
X173228D02*
D03*
Y301181D02*
D03*
X163386D02*
D03*
D28*
X98425Y265748D02*
D03*
X111024D02*
D03*
X98425Y230315D02*
D03*
X111024D02*
D03*
D29*
X203110Y327638D02*
D03*
X207047D02*
D03*
X209016D02*
D03*
X195236Y282362D02*
D03*
X197205D02*
D03*
X199173D02*
D03*
X201142D02*
D03*
X203110D02*
D03*
X205079D02*
D03*
X207047D02*
D03*
X209016D02*
D03*
X210984D02*
D03*
X212953D02*
D03*
X214921D02*
D03*
X216890D02*
D03*
X218858D02*
D03*
X220827D02*
D03*
X222795D02*
D03*
X224764D02*
D03*
Y327638D02*
D03*
X222795D02*
D03*
X220827D02*
D03*
X218858D02*
D03*
X216890D02*
D03*
X214921D02*
D03*
X212953D02*
D03*
X210984D02*
D03*
X205079D02*
D03*
X201142D02*
D03*
X199173D02*
D03*
X197205D02*
D03*
X195236D02*
D03*
D30*
X21500Y202756D02*
D03*
D31*
X15693Y196850D02*
D03*
X27307D02*
D03*
D32*
X270000Y115000D02*
D03*
D33*
X271969D02*
D03*
X273937D02*
D03*
X275905D02*
D03*
X277874D02*
D03*
X279842D02*
D03*
X281811D02*
D03*
X283780D02*
D03*
X285748D02*
D03*
X287717D02*
D03*
X289685D02*
D03*
X291653D02*
D03*
Y133898D02*
D03*
X289685D02*
D03*
X287717D02*
D03*
X285748D02*
D03*
X283780D02*
D03*
X281811D02*
D03*
X279842D02*
D03*
X277874D02*
D03*
X275905D02*
D03*
X273937D02*
D03*
X271969D02*
D03*
X270000D02*
D03*
D34*
X294213Y118543D02*
D03*
Y120512D02*
D03*
Y122480D02*
D03*
Y124449D02*
D03*
Y126417D02*
D03*
Y128386D02*
D03*
Y130354D02*
D03*
X267441D02*
D03*
Y128386D02*
D03*
Y126417D02*
D03*
Y124449D02*
D03*
Y122480D02*
D03*
Y120512D02*
D03*
Y118543D02*
D03*
D35*
X50000Y115000D02*
D03*
X155000D02*
D03*
D36*
X52559D02*
D03*
X55118D02*
D03*
X57677D02*
D03*
X60236D02*
D03*
X62795D02*
D03*
X65354D02*
D03*
X67913D02*
D03*
X70473D02*
D03*
X73032D02*
D03*
X50000Y136850D02*
D03*
X52559D02*
D03*
X55118D02*
D03*
X57677D02*
D03*
X60236D02*
D03*
X62795D02*
D03*
X65354D02*
D03*
X67913D02*
D03*
X70473D02*
D03*
X73032D02*
D03*
X157559Y115000D02*
D03*
X160118D02*
D03*
X162677D02*
D03*
X165236D02*
D03*
X167795D02*
D03*
X170354D02*
D03*
X172913D02*
D03*
X175472D02*
D03*
X178032D02*
D03*
X155000Y136850D02*
D03*
X157559D02*
D03*
X160118D02*
D03*
X162677D02*
D03*
X165236D02*
D03*
X167795D02*
D03*
X170354D02*
D03*
X172913D02*
D03*
X175472D02*
D03*
X178032D02*
D03*
D37*
X327917Y292098D02*
D03*
Y294067D02*
D03*
Y296035D02*
D03*
Y298004D02*
D03*
Y299972D02*
D03*
Y301941D02*
D03*
Y303909D02*
D03*
X309020D02*
D03*
Y301941D02*
D03*
Y299972D02*
D03*
Y298004D02*
D03*
Y296035D02*
D03*
Y294067D02*
D03*
Y292098D02*
D03*
D38*
X324374Y307453D02*
D03*
X322406D02*
D03*
X320437D02*
D03*
X318468D02*
D03*
X316500D02*
D03*
X314531D02*
D03*
X312563D02*
D03*
Y288555D02*
D03*
X314531D02*
D03*
X316500D02*
D03*
X318468D02*
D03*
X320437D02*
D03*
X322406D02*
D03*
X324374D02*
D03*
D39*
X180000Y260000D02*
D03*
Y269843D02*
D03*
X250000Y140000D02*
D03*
Y130157D02*
D03*
X220472Y375984D02*
D03*
Y366142D02*
D03*
X230000Y260000D02*
D03*
Y269843D02*
D03*
X170000Y270000D02*
D03*
Y260157D02*
D03*
X190000Y260000D02*
D03*
Y269843D02*
D03*
X220000Y260000D02*
D03*
Y269843D02*
D03*
X25000Y65000D02*
D03*
Y74843D02*
D03*
X35000Y65000D02*
D03*
Y74843D02*
D03*
X75000Y75000D02*
D03*
Y65158D02*
D03*
X85000Y65000D02*
D03*
Y74843D02*
D03*
X105000Y75000D02*
D03*
Y65158D02*
D03*
X115000Y65000D02*
D03*
Y74843D02*
D03*
X135000Y65000D02*
D03*
Y74843D02*
D03*
X145000Y65000D02*
D03*
Y74843D02*
D03*
X185000Y75000D02*
D03*
Y65158D02*
D03*
X195000Y65000D02*
D03*
Y74843D02*
D03*
X215000Y75000D02*
D03*
Y65158D02*
D03*
X225000Y65000D02*
D03*
Y74843D02*
D03*
X135000Y20000D02*
D03*
Y10158D02*
D03*
X145000Y10000D02*
D03*
Y19842D02*
D03*
X230000Y20000D02*
D03*
Y10158D02*
D03*
X240000Y10000D02*
D03*
Y19842D02*
D03*
X270000Y65000D02*
D03*
Y74843D02*
D03*
X280000Y75000D02*
D03*
Y65158D02*
D03*
X290000Y75000D02*
D03*
Y65158D02*
D03*
X300000Y65000D02*
D03*
Y74843D02*
D03*
X310000Y65000D02*
D03*
Y74843D02*
D03*
X320000Y65000D02*
D03*
Y74843D02*
D03*
X260000Y99862D02*
D03*
Y90020D02*
D03*
X270000Y100000D02*
D03*
Y90158D02*
D03*
X280000Y100000D02*
D03*
Y90158D02*
D03*
X290000Y100000D02*
D03*
Y90158D02*
D03*
X300000Y90000D02*
D03*
Y99843D02*
D03*
X310000Y90000D02*
D03*
Y99843D02*
D03*
X320000Y100000D02*
D03*
Y90158D02*
D03*
X330000Y90000D02*
D03*
Y99843D02*
D03*
X25000Y90000D02*
D03*
Y99843D02*
D03*
X35000Y100000D02*
D03*
Y90158D02*
D03*
X45000Y90000D02*
D03*
Y99843D02*
D03*
X55000Y100000D02*
D03*
Y90158D02*
D03*
X65000Y100000D02*
D03*
Y90158D02*
D03*
X75000Y90000D02*
D03*
Y99843D02*
D03*
X85000Y100000D02*
D03*
Y90158D02*
D03*
X135000Y90000D02*
D03*
Y99843D02*
D03*
X145000Y100000D02*
D03*
Y90158D02*
D03*
X155000Y90000D02*
D03*
Y99843D02*
D03*
X165000Y100000D02*
D03*
Y90158D02*
D03*
X175000Y100000D02*
D03*
Y90158D02*
D03*
X185000Y90000D02*
D03*
Y99843D02*
D03*
X195000Y100000D02*
D03*
Y90158D02*
D03*
X310000Y110000D02*
D03*
Y119843D02*
D03*
X320000Y120000D02*
D03*
Y110158D02*
D03*
X330000Y110000D02*
D03*
Y119843D02*
D03*
X310000Y139842D02*
D03*
Y130000D02*
D03*
X325000D02*
D03*
Y139842D02*
D03*
X335000Y140000D02*
D03*
Y130157D02*
D03*
X345000Y140000D02*
D03*
Y130157D02*
D03*
X250000Y150000D02*
D03*
Y159843D02*
D03*
X260000Y160000D02*
D03*
Y150157D02*
D03*
X270000Y150000D02*
D03*
Y159843D02*
D03*
X280000Y150000D02*
D03*
Y159843D02*
D03*
X300000Y150000D02*
D03*
Y159843D02*
D03*
X310000Y150000D02*
D03*
Y159843D02*
D03*
X307917Y322098D02*
D03*
Y331941D02*
D03*
X317917Y332098D02*
D03*
Y322256D02*
D03*
X337917Y332098D02*
D03*
Y322256D02*
D03*
X347917Y332098D02*
D03*
Y322256D02*
D03*
X52815Y192795D02*
D03*
Y202638D02*
D03*
X42815Y192795D02*
D03*
Y202638D02*
D03*
D40*
X250000Y122480D02*
D03*
Y107520D02*
D03*
X285000Y177382D02*
D03*
Y192342D02*
D03*
X270000Y177382D02*
D03*
Y192342D02*
D03*
X300000Y177382D02*
D03*
Y192342D02*
D03*
D41*
X315000Y189862D02*
D03*
Y176870D02*
D03*
X330000Y189862D02*
D03*
Y176870D02*
D03*
X20000Y120000D02*
D03*
Y132992D02*
D03*
X35000Y120000D02*
D03*
Y132992D02*
D03*
X125000Y120000D02*
D03*
Y132992D02*
D03*
X140000Y120000D02*
D03*
Y132992D02*
D03*
X85000Y120000D02*
D03*
Y132992D02*
D03*
X190000Y120000D02*
D03*
Y132992D02*
D03*
D42*
X200000Y260000D02*
D03*
D43*
X208268D02*
D03*
Y267480D02*
D03*
X200000D02*
D03*
D44*
X235512Y133839D02*
D03*
Y131280D02*
D03*
Y128720D02*
D03*
Y126161D02*
D03*
X224488D02*
D03*
Y128720D02*
D03*
Y131280D02*
D03*
Y133839D02*
D03*
X235512Y198701D02*
D03*
Y196142D02*
D03*
Y193583D02*
D03*
Y191024D02*
D03*
X224488D02*
D03*
Y193583D02*
D03*
Y196142D02*
D03*
Y198701D02*
D03*
X255512D02*
D03*
Y196142D02*
D03*
Y193583D02*
D03*
Y191024D02*
D03*
X244488D02*
D03*
Y193583D02*
D03*
Y196142D02*
D03*
Y198701D02*
D03*
Y176024D02*
D03*
Y178583D02*
D03*
Y181142D02*
D03*
Y183701D02*
D03*
X255512D02*
D03*
Y181142D02*
D03*
Y178583D02*
D03*
Y176024D02*
D03*
D45*
X240000Y348780D02*
D03*
D46*
X230945Y371220D02*
D03*
X240000D02*
D03*
X249055D02*
D03*
D47*
X117480Y20197D02*
D03*
X113740D02*
D03*
X110000D02*
D03*
X117480Y10000D02*
D03*
X113740D02*
D03*
X212480Y20197D02*
D03*
X208740D02*
D03*
X205000D02*
D03*
X212480Y10000D02*
D03*
X208740D02*
D03*
D48*
X110000D02*
D03*
X205000D02*
D03*
D49*
X232638Y290236D02*
D03*
Y292205D02*
D03*
Y294173D02*
D03*
Y296142D02*
D03*
Y298110D02*
D03*
Y300079D02*
D03*
Y302047D02*
D03*
Y304016D02*
D03*
Y305984D02*
D03*
Y307953D02*
D03*
Y309921D02*
D03*
Y311890D02*
D03*
Y313858D02*
D03*
Y315827D02*
D03*
Y317795D02*
D03*
Y319764D02*
D03*
X187362Y319764D02*
D03*
Y317795D02*
D03*
Y315827D02*
D03*
Y313858D02*
D03*
Y311890D02*
D03*
Y309921D02*
D03*
Y307953D02*
D03*
Y305984D02*
D03*
Y304016D02*
D03*
Y302047D02*
D03*
Y300079D02*
D03*
Y298110D02*
D03*
Y296142D02*
D03*
Y294173D02*
D03*
Y292205D02*
D03*
Y290236D02*
D03*
D50*
X355197Y152520D02*
D03*
Y156260D02*
D03*
Y160000D02*
D03*
X345000Y152520D02*
D03*
Y156260D02*
D03*
D51*
Y160000D02*
D03*
D52*
X326000Y152000D02*
D03*
X334000D02*
D03*
X330000Y160000D02*
D03*
X139000Y38000D02*
D03*
X131000D02*
D03*
X135000Y30000D02*
D03*
X234000Y38000D02*
D03*
X226000D02*
D03*
X230000Y30000D02*
D03*
X104000Y98000D02*
D03*
X96000D02*
D03*
X100000Y90000D02*
D03*
X214000Y98000D02*
D03*
X206000D02*
D03*
X210000Y90000D02*
D03*
D53*
X230000Y169862D02*
D03*
Y145256D02*
D03*
X85000Y145000D02*
D03*
Y169606D02*
D03*
X190000Y145000D02*
D03*
Y169606D02*
D03*
X20000Y145000D02*
D03*
Y169606D02*
D03*
X125000Y145000D02*
D03*
Y169606D02*
D03*
X330000Y229862D02*
D03*
Y205256D02*
D03*
D54*
X349980Y65000D02*
D03*
D55*
X360020D02*
D03*
D56*
X69842Y160000D02*
D03*
X50157D02*
D03*
X174843D02*
D03*
X155157D02*
D03*
D57*
X262756Y229862D02*
D03*
X307244D02*
D03*
D58*
X35000Y154980D02*
D03*
X140000D02*
D03*
D59*
X35000Y165020D02*
D03*
X140000D02*
D03*
D60*
X350000Y100362D02*
D03*
Y79362D02*
D03*
D61*
X362917Y312531D02*
D03*
Y309382D02*
D03*
Y299933D02*
D03*
Y303083D02*
D03*
Y306232D02*
D03*
D62*
X363311Y288516D02*
D03*
Y323949D02*
D03*
X384965Y288516D02*
D03*
Y323949D02*
D03*
D63*
X53000Y66000D02*
D03*
Y74000D02*
D03*
X45000Y70000D02*
D03*
X163000Y66000D02*
D03*
Y74000D02*
D03*
X155000Y70000D02*
D03*
D64*
X65000Y64291D02*
D03*
Y75709D02*
D03*
X175000Y64291D02*
D03*
Y75709D02*
D03*
X290000Y160709D02*
D03*
Y149291D02*
D03*
D65*
X95000Y67244D02*
D03*
Y72756D02*
D03*
X205000Y67244D02*
D03*
Y72756D02*
D03*
X125000Y12244D02*
D03*
Y17756D02*
D03*
X220000Y12244D02*
D03*
Y17756D02*
D03*
X355000Y137756D02*
D03*
Y132244D02*
D03*
D66*
X340437Y293437D02*
D03*
X347917D02*
D03*
X340437Y302098D02*
D03*
D67*
X347917D02*
D03*
M02*
