G04*
G04 #@! TF.GenerationSoftware,Altium Limited,Altium Designer,18.1.9 (240)*
G04*
G04 Layer_Physical_Order=2*
G04 Layer_Color=16711680*
%FSLAX25Y25*%
%MOIN*%
G70*
G01*
G75*
%ADD11C,0.01000*%
%ADD39R,0.05512X0.04724*%
%ADD130C,0.00600*%
%ADD131C,0.02000*%
%ADD136C,0.02756*%
%ADD137C,0.07000*%
%ADD138R,0.07000X0.07000*%
%ADD139R,0.07000X0.07000*%
%ADD140R,0.09843X0.09843*%
%ADD141C,0.09843*%
%ADD142C,0.03543*%
%ADD143R,0.09843X0.09843*%
%ADD144R,0.11811X0.11811*%
%ADD145C,0.11811*%
%ADD146C,0.02799*%
%ADD147C,0.02800*%
G36*
X334646Y334646D02*
X389764D01*
Y312576D01*
X389264Y312425D01*
X389237Y312465D01*
X388795Y312760D01*
Y311023D01*
Y309287D01*
X389237Y309582D01*
X389264Y309622D01*
X389764Y309471D01*
Y265332D01*
X389264Y265180D01*
X389237Y265221D01*
X388795Y265516D01*
Y263779D01*
X386795D01*
Y265516D01*
X386353Y265221D01*
X385911Y264560D01*
X385756Y263779D01*
X385815Y263486D01*
X385593Y263171D01*
X385398Y263019D01*
X384720Y262884D01*
X384058Y262442D01*
X383616Y261780D01*
X383461Y261000D01*
X383616Y260220D01*
X384058Y259558D01*
X384379Y259344D01*
Y252269D01*
X383878Y252219D01*
X383773Y252749D01*
X383331Y253410D01*
X382890Y253705D01*
Y251968D01*
Y250232D01*
X383331Y250527D01*
X383773Y251188D01*
X383878Y251717D01*
X384379Y251668D01*
Y205025D01*
X383878Y204975D01*
X383773Y205504D01*
X383331Y206166D01*
X382890Y206461D01*
Y204724D01*
Y202988D01*
X383331Y203283D01*
X383773Y203944D01*
X383878Y204473D01*
X384379Y204424D01*
Y181402D01*
X383878Y181353D01*
X383773Y181882D01*
X383331Y182544D01*
X382890Y182839D01*
Y181102D01*
Y179366D01*
X383331Y179661D01*
X383773Y180322D01*
X383878Y180851D01*
X384379Y180802D01*
Y172965D01*
X378185Y166771D01*
X376127D01*
X376078Y167271D01*
X376356Y167326D01*
X376764Y167408D01*
X377426Y167850D01*
X377721Y168291D01*
X374247D01*
X374542Y167850D01*
X375204Y167408D01*
X375612Y167326D01*
X375890Y167271D01*
X375841Y166771D01*
X364556D01*
X364442Y166942D01*
X363780Y167384D01*
X363000Y167539D01*
X362220Y167384D01*
X361558Y166942D01*
X361116Y166280D01*
X360961Y165500D01*
X361116Y164720D01*
X361558Y164058D01*
X362220Y163616D01*
X363000Y163461D01*
X363780Y163616D01*
X364442Y164058D01*
X364756Y164528D01*
X378650D01*
X378650Y164528D01*
X379079Y164613D01*
X379443Y164857D01*
X386293Y171707D01*
X386293Y171707D01*
X386536Y172071D01*
X386621Y172500D01*
Y259344D01*
X386942Y259558D01*
X387384Y260220D01*
X387539Y261000D01*
X387481Y261293D01*
X387795Y261741D01*
X388575Y261896D01*
X389237Y262338D01*
X389264Y262378D01*
X389764Y262227D01*
Y59055D01*
X372700D01*
X372442Y59442D01*
X371780Y59884D01*
X371000Y60039D01*
X370220Y59884D01*
X369558Y59442D01*
X369300Y59055D01*
X334646D01*
Y3937D01*
X59055D01*
Y59055D01*
X3937D01*
Y162072D01*
X4103Y162184D01*
X4437Y162265D01*
X8084Y158618D01*
X7961Y158000D01*
X8116Y157220D01*
X8558Y156558D01*
X9220Y156116D01*
X10000Y155961D01*
X10780Y156116D01*
X11442Y156558D01*
X11884Y157220D01*
X11978Y157693D01*
X12162Y158014D01*
X12521Y158056D01*
X13000Y157961D01*
X13780Y158116D01*
X14442Y158558D01*
X14884Y159220D01*
X14978Y159693D01*
X15161Y160014D01*
X15521Y160056D01*
X16000Y159961D01*
X16780Y160116D01*
X17442Y160558D01*
X17884Y161220D01*
X18039Y162000D01*
X17884Y162780D01*
X17442Y163442D01*
X16780Y163884D01*
X16000Y164039D01*
X15382Y163916D01*
X11300Y167998D01*
X11349Y168496D01*
X11442Y168558D01*
X11884Y169220D01*
X12039Y170000D01*
X11884Y170780D01*
X11442Y171442D01*
X10780Y171884D01*
X10000Y172039D01*
X9220Y171884D01*
X8558Y171442D01*
X8116Y170780D01*
X7961Y170000D01*
X7987Y169866D01*
X7634Y169513D01*
X7500Y169539D01*
X6720Y169384D01*
X6058Y168942D01*
X5616Y168280D01*
X5461Y167500D01*
X5487Y167366D01*
X5134Y167013D01*
X5000Y167039D01*
X4437Y166927D01*
X3937Y167251D01*
Y334646D01*
X59055D01*
Y389764D01*
X334646D01*
Y334646D01*
D02*
G37*
%LPC*%
G36*
X329740Y383626D02*
Y382890D01*
X330477D01*
X330182Y383331D01*
X329740Y383626D01*
D02*
G37*
G36*
X327740D02*
X327298Y383331D01*
X327003Y382890D01*
X327740D01*
Y383626D01*
D02*
G37*
G36*
X317929D02*
Y382890D01*
X318666D01*
X318371Y383331D01*
X317929Y383626D01*
D02*
G37*
G36*
X315929D02*
X315487Y383331D01*
X315192Y382890D01*
X315929D01*
Y383626D01*
D02*
G37*
G36*
X306118D02*
Y382890D01*
X306855D01*
X306560Y383331D01*
X306118Y383626D01*
D02*
G37*
G36*
X304118D02*
X303676Y383331D01*
X303381Y382890D01*
X304118D01*
Y383626D01*
D02*
G37*
G36*
X294307D02*
Y382890D01*
X295044D01*
X294749Y383331D01*
X294307Y383626D01*
D02*
G37*
G36*
X292307D02*
X291865Y383331D01*
X291570Y382890D01*
X292307D01*
Y383626D01*
D02*
G37*
G36*
X282496D02*
Y382890D01*
X283233D01*
X282938Y383331D01*
X282496Y383626D01*
D02*
G37*
G36*
X280496D02*
X280054Y383331D01*
X279759Y382890D01*
X280496D01*
Y383626D01*
D02*
G37*
G36*
X270685D02*
Y382890D01*
X271422D01*
X271127Y383331D01*
X270685Y383626D01*
D02*
G37*
G36*
X268685D02*
X268243Y383331D01*
X267948Y382890D01*
X268685D01*
Y383626D01*
D02*
G37*
G36*
X258874D02*
Y382890D01*
X259611D01*
X259315Y383331D01*
X258874Y383626D01*
D02*
G37*
G36*
X256874D02*
X256432Y383331D01*
X256137Y382890D01*
X256874D01*
Y383626D01*
D02*
G37*
G36*
X247063D02*
Y382890D01*
X247800D01*
X247504Y383331D01*
X247063Y383626D01*
D02*
G37*
G36*
X245063D02*
X244621Y383331D01*
X244326Y382890D01*
X245063D01*
Y383626D01*
D02*
G37*
G36*
X235252D02*
Y382890D01*
X235989D01*
X235694Y383331D01*
X235252Y383626D01*
D02*
G37*
G36*
X233252D02*
X232810Y383331D01*
X232515Y382890D01*
X233252D01*
Y383626D01*
D02*
G37*
G36*
X223441D02*
Y382890D01*
X224178D01*
X223883Y383331D01*
X223441Y383626D01*
D02*
G37*
G36*
X221441D02*
X220999Y383331D01*
X220704Y382890D01*
X221441D01*
Y383626D01*
D02*
G37*
G36*
X211630D02*
Y382890D01*
X212367D01*
X212071Y383331D01*
X211630Y383626D01*
D02*
G37*
G36*
X209630D02*
X209188Y383331D01*
X208893Y382890D01*
X209630D01*
Y383626D01*
D02*
G37*
G36*
X199819D02*
Y382890D01*
X200555D01*
X200260Y383331D01*
X199819Y383626D01*
D02*
G37*
G36*
X197819D02*
X197377Y383331D01*
X197082Y382890D01*
X197819D01*
Y383626D01*
D02*
G37*
G36*
X69898D02*
Y382890D01*
X70634D01*
X70339Y383331D01*
X69898Y383626D01*
D02*
G37*
G36*
X67898D02*
X67456Y383331D01*
X67161Y382890D01*
X67898D01*
Y383626D01*
D02*
G37*
G36*
X176039Y384083D02*
Y381079D01*
X179043D01*
X179034Y381149D01*
X178621Y382146D01*
X177963Y383003D01*
X177107Y383660D01*
X176110Y384073D01*
X176039Y384083D01*
D02*
G37*
G36*
X166039D02*
Y381079D01*
X169043D01*
X169034Y381149D01*
X168621Y382146D01*
X167964Y383003D01*
X167107Y383660D01*
X166110Y384073D01*
X166039Y384083D01*
D02*
G37*
G36*
X156039D02*
Y381079D01*
X159043D01*
X159034Y381149D01*
X158621Y382146D01*
X157964Y383003D01*
X157107Y383660D01*
X156110Y384073D01*
X156039Y384083D01*
D02*
G37*
G36*
X146039D02*
Y381079D01*
X149043D01*
X149034Y381149D01*
X148621Y382146D01*
X147964Y383003D01*
X147107Y383660D01*
X146110Y384073D01*
X146039Y384083D01*
D02*
G37*
G36*
X136039D02*
Y381079D01*
X139043D01*
X139034Y381149D01*
X138621Y382146D01*
X137963Y383003D01*
X137107Y383660D01*
X136110Y384073D01*
X136039Y384083D01*
D02*
G37*
G36*
X126039D02*
Y381079D01*
X129043D01*
X129034Y381149D01*
X128621Y382146D01*
X127963Y383003D01*
X127107Y383660D01*
X126110Y384073D01*
X126039Y384083D01*
D02*
G37*
G36*
X116039D02*
Y381079D01*
X119043D01*
X119034Y381149D01*
X118621Y382146D01*
X117964Y383003D01*
X117107Y383660D01*
X116110Y384073D01*
X116039Y384083D01*
D02*
G37*
G36*
X106039D02*
Y381079D01*
X109043D01*
X109034Y381149D01*
X108621Y382146D01*
X107964Y383003D01*
X107107Y383660D01*
X106110Y384073D01*
X106039Y384083D01*
D02*
G37*
G36*
X96039D02*
Y381079D01*
X99043D01*
X99034Y381149D01*
X98621Y382146D01*
X97964Y383003D01*
X97107Y383660D01*
X96110Y384073D01*
X96039Y384083D01*
D02*
G37*
G36*
X174039D02*
X173969Y384073D01*
X172972Y383660D01*
X172115Y383003D01*
X171458Y382146D01*
X171045Y381149D01*
X171036Y381079D01*
X174039D01*
Y384083D01*
D02*
G37*
G36*
X164039D02*
X163969Y384073D01*
X162972Y383660D01*
X162115Y383003D01*
X161458Y382146D01*
X161045Y381149D01*
X161036Y381079D01*
X164039D01*
Y384083D01*
D02*
G37*
G36*
X154039D02*
X153969Y384073D01*
X152972Y383660D01*
X152115Y383003D01*
X151458Y382146D01*
X151045Y381149D01*
X151036Y381079D01*
X154039D01*
Y384083D01*
D02*
G37*
G36*
X144039D02*
X143969Y384073D01*
X142972Y383660D01*
X142115Y383003D01*
X141458Y382146D01*
X141045Y381149D01*
X141036Y381079D01*
X144039D01*
Y384083D01*
D02*
G37*
G36*
X94039D02*
X93969Y384073D01*
X92972Y383660D01*
X92115Y383003D01*
X91458Y382146D01*
X91045Y381149D01*
X91036Y381079D01*
X94039D01*
Y384083D01*
D02*
G37*
G36*
X134039D02*
X133969Y384073D01*
X132972Y383660D01*
X132115Y383003D01*
X131458Y382146D01*
X131045Y381149D01*
X131036Y381079D01*
X134039D01*
Y384083D01*
D02*
G37*
G36*
X124039D02*
X123969Y384073D01*
X122972Y383660D01*
X122115Y383003D01*
X121458Y382146D01*
X121045Y381149D01*
X121036Y381079D01*
X124039D01*
Y384083D01*
D02*
G37*
G36*
X114039D02*
X113969Y384073D01*
X112972Y383660D01*
X112115Y383003D01*
X111458Y382146D01*
X111045Y381149D01*
X111036Y381079D01*
X114039D01*
Y384083D01*
D02*
G37*
G36*
X104039D02*
X103969Y384073D01*
X102972Y383660D01*
X102115Y383003D01*
X101458Y382146D01*
X101045Y381149D01*
X101036Y381079D01*
X104039D01*
Y384083D01*
D02*
G37*
G36*
X330477Y380890D02*
X329740D01*
Y380153D01*
X330182Y380448D01*
X330477Y380890D01*
D02*
G37*
G36*
X327740D02*
X327003D01*
X327298Y380448D01*
X327740Y380153D01*
Y380890D01*
D02*
G37*
G36*
X318666D02*
X317929D01*
Y380153D01*
X318371Y380448D01*
X318666Y380890D01*
D02*
G37*
G36*
X315929D02*
X315192D01*
X315487Y380448D01*
X315929Y380153D01*
Y380890D01*
D02*
G37*
G36*
X306855D02*
X306118D01*
Y380153D01*
X306560Y380448D01*
X306855Y380890D01*
D02*
G37*
G36*
X304118D02*
X303381D01*
X303676Y380448D01*
X304118Y380153D01*
Y380890D01*
D02*
G37*
G36*
X295044D02*
X294307D01*
Y380153D01*
X294749Y380448D01*
X295044Y380890D01*
D02*
G37*
G36*
X292307D02*
X291570D01*
X291865Y380448D01*
X292307Y380153D01*
Y380890D01*
D02*
G37*
G36*
X283233D02*
X282496D01*
Y380153D01*
X282938Y380448D01*
X283233Y380890D01*
D02*
G37*
G36*
X280496D02*
X279759D01*
X280054Y380448D01*
X280496Y380153D01*
Y380890D01*
D02*
G37*
G36*
X271422D02*
X270685D01*
Y380153D01*
X271127Y380448D01*
X271422Y380890D01*
D02*
G37*
G36*
X268685D02*
X267948D01*
X268243Y380448D01*
X268685Y380153D01*
Y380890D01*
D02*
G37*
G36*
X259611D02*
X258874D01*
Y380153D01*
X259315Y380448D01*
X259611Y380890D01*
D02*
G37*
G36*
X256874D02*
X256137D01*
X256432Y380448D01*
X256874Y380153D01*
Y380890D01*
D02*
G37*
G36*
X247800D02*
X247063D01*
Y380153D01*
X247504Y380448D01*
X247800Y380890D01*
D02*
G37*
G36*
X245063D02*
X244326D01*
X244621Y380448D01*
X245063Y380153D01*
Y380890D01*
D02*
G37*
G36*
X235989D02*
X235252D01*
Y380153D01*
X235694Y380448D01*
X235989Y380890D01*
D02*
G37*
G36*
X233252D02*
X232515D01*
X232810Y380448D01*
X233252Y380153D01*
Y380890D01*
D02*
G37*
G36*
X224178D02*
X223441D01*
Y380153D01*
X223883Y380448D01*
X224178Y380890D01*
D02*
G37*
G36*
X221441D02*
X220704D01*
X220999Y380448D01*
X221441Y380153D01*
Y380890D01*
D02*
G37*
G36*
X212367D02*
X211630D01*
Y380153D01*
X212071Y380448D01*
X212367Y380890D01*
D02*
G37*
G36*
X209630D02*
X208893D01*
X209188Y380448D01*
X209630Y380153D01*
Y380890D01*
D02*
G37*
G36*
X200555D02*
X199819D01*
Y380153D01*
X200260Y380448D01*
X200555Y380890D01*
D02*
G37*
G36*
X197819D02*
X197082D01*
X197377Y380448D01*
X197819Y380153D01*
Y380890D01*
D02*
G37*
G36*
X70634D02*
X69898D01*
Y380153D01*
X70339Y380448D01*
X70634Y380890D01*
D02*
G37*
G36*
X67898D02*
X67161D01*
X67456Y380448D01*
X67898Y380153D01*
Y380890D01*
D02*
G37*
G36*
X164039Y379079D02*
X161036D01*
X161045Y379008D01*
X161458Y378011D01*
X162115Y377155D01*
X162972Y376497D01*
X163969Y376084D01*
X164039Y376075D01*
Y379079D01*
D02*
G37*
G36*
X154039D02*
X151036D01*
X151045Y379008D01*
X151458Y378011D01*
X152115Y377155D01*
X152972Y376497D01*
X153969Y376084D01*
X154039Y376075D01*
Y379079D01*
D02*
G37*
G36*
X114039D02*
X111036D01*
X111045Y379008D01*
X111458Y378011D01*
X112115Y377155D01*
X112972Y376497D01*
X113969Y376084D01*
X114039Y376075D01*
Y379079D01*
D02*
G37*
G36*
X104039D02*
X101036D01*
X101045Y379008D01*
X101458Y378011D01*
X102115Y377155D01*
X102972Y376497D01*
X103969Y376084D01*
X104039Y376075D01*
Y379079D01*
D02*
G37*
G36*
X174039D02*
X171036D01*
X171045Y379008D01*
X171458Y378011D01*
X172115Y377155D01*
X172972Y376497D01*
X173969Y376084D01*
X174039Y376075D01*
Y379079D01*
D02*
G37*
G36*
X144039D02*
X141036D01*
X141045Y379008D01*
X141458Y378011D01*
X142115Y377155D01*
X142972Y376497D01*
X143969Y376084D01*
X144039Y376075D01*
Y379079D01*
D02*
G37*
G36*
X134039D02*
X131036D01*
X131045Y379008D01*
X131458Y378011D01*
X132115Y377155D01*
X132972Y376497D01*
X133969Y376084D01*
X134039Y376075D01*
Y379079D01*
D02*
G37*
G36*
X124039D02*
X121036D01*
X121045Y379008D01*
X121458Y378011D01*
X122115Y377155D01*
X122972Y376497D01*
X123969Y376084D01*
X124039Y376075D01*
Y379079D01*
D02*
G37*
G36*
X94039D02*
X91036D01*
X91045Y379008D01*
X91458Y378011D01*
X92115Y377155D01*
X92972Y376497D01*
X93969Y376084D01*
X94039Y376075D01*
Y379079D01*
D02*
G37*
G36*
X139043D02*
X136039D01*
Y376075D01*
X136110Y376084D01*
X137107Y376497D01*
X137963Y377155D01*
X138621Y378011D01*
X139034Y379008D01*
X139043Y379079D01*
D02*
G37*
G36*
X179043D02*
X176039D01*
Y376075D01*
X176110Y376084D01*
X177107Y376497D01*
X177963Y377155D01*
X178621Y378011D01*
X179034Y379008D01*
X179043Y379079D01*
D02*
G37*
G36*
X169043D02*
X166039D01*
Y376075D01*
X166110Y376084D01*
X167107Y376497D01*
X167964Y377155D01*
X168621Y378011D01*
X169034Y379008D01*
X169043Y379079D01*
D02*
G37*
G36*
X159043D02*
X156039D01*
Y376075D01*
X156110Y376084D01*
X157107Y376497D01*
X157964Y377155D01*
X158621Y378011D01*
X159034Y379008D01*
X159043Y379079D01*
D02*
G37*
G36*
X149043D02*
X146039D01*
Y376075D01*
X146110Y376084D01*
X147107Y376497D01*
X147964Y377155D01*
X148621Y378011D01*
X149034Y379008D01*
X149043Y379079D01*
D02*
G37*
G36*
X129043D02*
X126039D01*
Y376075D01*
X126110Y376084D01*
X127107Y376497D01*
X127963Y377155D01*
X128621Y378011D01*
X129034Y379008D01*
X129043Y379079D01*
D02*
G37*
G36*
X119043D02*
X116039D01*
Y376075D01*
X116110Y376084D01*
X117107Y376497D01*
X117964Y377155D01*
X118621Y378011D01*
X119034Y379008D01*
X119043Y379079D01*
D02*
G37*
G36*
X109043D02*
X106039D01*
Y376075D01*
X106110Y376084D01*
X107107Y376497D01*
X107964Y377155D01*
X108621Y378011D01*
X109034Y379008D01*
X109043Y379079D01*
D02*
G37*
G36*
X99043D02*
X96039D01*
Y376075D01*
X96110Y376084D01*
X97107Y376497D01*
X97964Y377155D01*
X98621Y378011D01*
X99034Y379008D01*
X99043Y379079D01*
D02*
G37*
G36*
X185039Y384214D02*
X183969Y384073D01*
X182972Y383660D01*
X182115Y383003D01*
X181458Y382146D01*
X181045Y381149D01*
X180904Y380079D01*
X181045Y379008D01*
X181458Y378011D01*
X182115Y377155D01*
X182972Y376497D01*
X183969Y376084D01*
X185039Y375943D01*
X186110Y376084D01*
X187107Y376497D01*
X187963Y377155D01*
X188621Y378011D01*
X189034Y379008D01*
X189175Y380079D01*
X189034Y381149D01*
X188621Y382146D01*
X187963Y383003D01*
X187107Y383660D01*
X186110Y384073D01*
X185039Y384214D01*
D02*
G37*
G36*
X176039Y374082D02*
Y371079D01*
X179043D01*
X179034Y371149D01*
X178621Y372146D01*
X177963Y373003D01*
X177107Y373660D01*
X176110Y374073D01*
X176039Y374082D01*
D02*
G37*
G36*
X166039D02*
Y371079D01*
X169043D01*
X169034Y371149D01*
X168621Y372146D01*
X167964Y373003D01*
X167107Y373660D01*
X166110Y374073D01*
X166039Y374082D01*
D02*
G37*
G36*
X164039D02*
X163969Y374073D01*
X162972Y373660D01*
X162115Y373003D01*
X161458Y372146D01*
X161045Y371149D01*
X161036Y371079D01*
X164039D01*
Y374082D01*
D02*
G37*
G36*
X174039D02*
X173969Y374073D01*
X172972Y373660D01*
X172115Y373003D01*
X171458Y372146D01*
X171045Y371149D01*
X171036Y371079D01*
X174039D01*
Y374082D01*
D02*
G37*
G36*
X323834Y371815D02*
Y371079D01*
X324571D01*
X324276Y371520D01*
X323834Y371815D01*
D02*
G37*
G36*
X321834D02*
X321393Y371520D01*
X321098Y371079D01*
X321834D01*
Y371815D01*
D02*
G37*
G36*
X312023D02*
Y371079D01*
X312760D01*
X312465Y371520D01*
X312023Y371815D01*
D02*
G37*
G36*
X310023D02*
X309582Y371520D01*
X309287Y371079D01*
X310023D01*
Y371815D01*
D02*
G37*
G36*
X300212D02*
Y371079D01*
X300949D01*
X300654Y371520D01*
X300212Y371815D01*
D02*
G37*
G36*
X298212D02*
X297771Y371520D01*
X297476Y371079D01*
X298212D01*
Y371815D01*
D02*
G37*
G36*
X288401D02*
Y371079D01*
X289138D01*
X288843Y371520D01*
X288401Y371815D01*
D02*
G37*
G36*
X286401D02*
X285960Y371520D01*
X285665Y371079D01*
X286401D01*
Y371815D01*
D02*
G37*
G36*
X276590D02*
Y371079D01*
X277327D01*
X277032Y371520D01*
X276590Y371815D01*
D02*
G37*
G36*
X274590D02*
X274149Y371520D01*
X273854Y371079D01*
X274590D01*
Y371815D01*
D02*
G37*
G36*
X264779D02*
Y371079D01*
X265516D01*
X265221Y371520D01*
X264779Y371815D01*
D02*
G37*
G36*
X262779D02*
X262338Y371520D01*
X262043Y371079D01*
X262779D01*
Y371815D01*
D02*
G37*
G36*
X87614D02*
Y371079D01*
X88351D01*
X88056Y371520D01*
X87614Y371815D01*
D02*
G37*
G36*
X85614D02*
X85172Y371520D01*
X84877Y371079D01*
X85614D01*
Y371815D01*
D02*
G37*
G36*
X75803D02*
Y371079D01*
X76540D01*
X76245Y371520D01*
X75803Y371815D01*
D02*
G37*
G36*
X73803D02*
X73361Y371520D01*
X73066Y371079D01*
X73803D01*
Y371815D01*
D02*
G37*
G36*
X63992D02*
Y371079D01*
X64729D01*
X64434Y371520D01*
X63992Y371815D01*
D02*
G37*
G36*
X61992D02*
X61550Y371520D01*
X61255Y371079D01*
X61992D01*
Y371815D01*
D02*
G37*
G36*
X324571Y369079D02*
X323834D01*
Y368342D01*
X324276Y368637D01*
X324571Y369079D01*
D02*
G37*
G36*
X321834D02*
X321098D01*
X321393Y368637D01*
X321834Y368342D01*
Y369079D01*
D02*
G37*
G36*
X312760D02*
X312023D01*
Y368342D01*
X312465Y368637D01*
X312760Y369079D01*
D02*
G37*
G36*
X310023D02*
X309287D01*
X309582Y368637D01*
X310023Y368342D01*
Y369079D01*
D02*
G37*
G36*
X300949D02*
X300212D01*
Y368342D01*
X300654Y368637D01*
X300949Y369079D01*
D02*
G37*
G36*
X298212D02*
X297476D01*
X297771Y368637D01*
X298212Y368342D01*
Y369079D01*
D02*
G37*
G36*
X289138D02*
X288401D01*
Y368342D01*
X288843Y368637D01*
X289138Y369079D01*
D02*
G37*
G36*
X286401D02*
X285665D01*
X285960Y368637D01*
X286401Y368342D01*
Y369079D01*
D02*
G37*
G36*
X277327D02*
X276590D01*
Y368342D01*
X277032Y368637D01*
X277327Y369079D01*
D02*
G37*
G36*
X274590D02*
X273854D01*
X274149Y368637D01*
X274590Y368342D01*
Y369079D01*
D02*
G37*
G36*
X265516D02*
X264779D01*
Y368342D01*
X265221Y368637D01*
X265516Y369079D01*
D02*
G37*
G36*
X262779D02*
X262043D01*
X262338Y368637D01*
X262779Y368342D01*
Y369079D01*
D02*
G37*
G36*
X88351D02*
X87614D01*
Y368342D01*
X88056Y368637D01*
X88351Y369079D01*
D02*
G37*
G36*
X85614D02*
X84877D01*
X85172Y368637D01*
X85614Y368342D01*
Y369079D01*
D02*
G37*
G36*
X76540D02*
X75803D01*
Y368342D01*
X76245Y368637D01*
X76540Y369079D01*
D02*
G37*
G36*
X73803D02*
X73066D01*
X73361Y368637D01*
X73803Y368342D01*
Y369079D01*
D02*
G37*
G36*
X64729D02*
X63992D01*
Y368342D01*
X64434Y368637D01*
X64729Y369079D01*
D02*
G37*
G36*
X61992D02*
X61255D01*
X61550Y368637D01*
X61992Y368342D01*
Y369079D01*
D02*
G37*
G36*
X164039Y369079D02*
X161036D01*
X161045Y369008D01*
X161458Y368011D01*
X162115Y367155D01*
X162972Y366497D01*
X163969Y366084D01*
X164039Y366075D01*
Y369079D01*
D02*
G37*
G36*
X174039D02*
X171036D01*
X171045Y369008D01*
X171458Y368011D01*
X172115Y367155D01*
X172972Y366497D01*
X173969Y366084D01*
X174039Y366075D01*
Y369079D01*
D02*
G37*
G36*
X179043D02*
X176039D01*
Y366075D01*
X176110Y366084D01*
X177107Y366497D01*
X177963Y367155D01*
X178621Y368011D01*
X179034Y369008D01*
X179043Y369079D01*
D02*
G37*
G36*
X169043D02*
X166039D01*
Y366075D01*
X166110Y366084D01*
X167107Y366497D01*
X167964Y367155D01*
X168621Y368011D01*
X169034Y369008D01*
X169043Y369079D01*
D02*
G37*
G36*
X135039Y374214D02*
X133969Y374073D01*
X132972Y373660D01*
X132115Y373003D01*
X131458Y372146D01*
X131045Y371149D01*
X130904Y370079D01*
X131045Y369008D01*
X131458Y368011D01*
X132115Y367155D01*
X132972Y366497D01*
X133969Y366084D01*
X135039Y365943D01*
X136110Y366084D01*
X137107Y366497D01*
X137963Y367155D01*
X138621Y368011D01*
X139034Y369008D01*
X139175Y370079D01*
X139034Y371149D01*
X138621Y372146D01*
X137963Y373003D01*
X137107Y373660D01*
X136110Y374073D01*
X135039Y374214D01*
D02*
G37*
G36*
X105039D02*
X103969Y374073D01*
X102972Y373660D01*
X102115Y373003D01*
X101458Y372146D01*
X101045Y371149D01*
X100904Y370079D01*
X101045Y369008D01*
X101458Y368011D01*
X102115Y367155D01*
X102972Y366497D01*
X103969Y366084D01*
X105039Y365943D01*
X106110Y366084D01*
X107107Y366497D01*
X107964Y367155D01*
X108621Y368011D01*
X109034Y369008D01*
X109175Y370079D01*
X109034Y371149D01*
X108621Y372146D01*
X107964Y373003D01*
X107107Y373660D01*
X106110Y374073D01*
X105039Y374214D01*
D02*
G37*
G36*
X95039D02*
X93969Y374073D01*
X92972Y373660D01*
X92115Y373003D01*
X91458Y372146D01*
X91045Y371149D01*
X90904Y370079D01*
X91045Y369008D01*
X91458Y368011D01*
X92115Y367155D01*
X92972Y366497D01*
X93969Y366084D01*
X95039Y365943D01*
X96110Y366084D01*
X97107Y366497D01*
X97964Y367155D01*
X98621Y368011D01*
X99034Y369008D01*
X99175Y370079D01*
X99034Y371149D01*
X98621Y372146D01*
X97964Y373003D01*
X97107Y373660D01*
X96110Y374073D01*
X95039Y374214D01*
D02*
G37*
G36*
X329740Y360004D02*
Y359267D01*
X330477D01*
X330182Y359709D01*
X329740Y360004D01*
D02*
G37*
G36*
X327740D02*
X327298Y359709D01*
X327003Y359267D01*
X327740D01*
Y360004D01*
D02*
G37*
G36*
X317929D02*
Y359267D01*
X318666D01*
X318371Y359709D01*
X317929Y360004D01*
D02*
G37*
G36*
X315929D02*
X315487Y359709D01*
X315192Y359267D01*
X315929D01*
Y360004D01*
D02*
G37*
G36*
X306118D02*
Y359267D01*
X306855D01*
X306560Y359709D01*
X306118Y360004D01*
D02*
G37*
G36*
X304118D02*
X303676Y359709D01*
X303381Y359267D01*
X304118D01*
Y360004D01*
D02*
G37*
G36*
X294307D02*
Y359267D01*
X295044D01*
X294749Y359709D01*
X294307Y360004D01*
D02*
G37*
G36*
X292307D02*
X291865Y359709D01*
X291570Y359267D01*
X292307D01*
Y360004D01*
D02*
G37*
G36*
X282496D02*
Y359267D01*
X283233D01*
X282938Y359709D01*
X282496Y360004D01*
D02*
G37*
G36*
X280496D02*
X280054Y359709D01*
X279759Y359267D01*
X280496D01*
Y360004D01*
D02*
G37*
G36*
X270685D02*
Y359267D01*
X271422D01*
X271127Y359709D01*
X270685Y360004D01*
D02*
G37*
G36*
X268685D02*
X268243Y359709D01*
X267948Y359267D01*
X268685D01*
Y360004D01*
D02*
G37*
G36*
X223441D02*
Y359267D01*
X224178D01*
X223883Y359709D01*
X223441Y360004D01*
D02*
G37*
G36*
X221441D02*
X220999Y359709D01*
X220704Y359267D01*
X221441D01*
Y360004D01*
D02*
G37*
G36*
X211630D02*
Y359267D01*
X212367D01*
X212071Y359709D01*
X211630Y360004D01*
D02*
G37*
G36*
X209630D02*
X209188Y359709D01*
X208893Y359267D01*
X209630D01*
Y360004D01*
D02*
G37*
G36*
X330477Y357267D02*
X329740D01*
Y356531D01*
X330182Y356826D01*
X330477Y357267D01*
D02*
G37*
G36*
X327740D02*
X327003D01*
X327298Y356826D01*
X327740Y356531D01*
Y357267D01*
D02*
G37*
G36*
X318666D02*
X317929D01*
Y356531D01*
X318371Y356826D01*
X318666Y357267D01*
D02*
G37*
G36*
X315929D02*
X315192D01*
X315487Y356826D01*
X315929Y356531D01*
Y357267D01*
D02*
G37*
G36*
X306855D02*
X306118D01*
Y356531D01*
X306560Y356826D01*
X306855Y357267D01*
D02*
G37*
G36*
X304118D02*
X303381D01*
X303676Y356826D01*
X304118Y356531D01*
Y357267D01*
D02*
G37*
G36*
X295044D02*
X294307D01*
Y356531D01*
X294749Y356826D01*
X295044Y357267D01*
D02*
G37*
G36*
X292307D02*
X291570D01*
X291865Y356826D01*
X292307Y356531D01*
Y357267D01*
D02*
G37*
G36*
X283233D02*
X282496D01*
Y356531D01*
X282938Y356826D01*
X283233Y357267D01*
D02*
G37*
G36*
X280496D02*
X279759D01*
X280054Y356826D01*
X280496Y356531D01*
Y357267D01*
D02*
G37*
G36*
X271422D02*
X270685D01*
Y356531D01*
X271127Y356826D01*
X271422Y357267D01*
D02*
G37*
G36*
X268685D02*
X267948D01*
X268243Y356826D01*
X268685Y356531D01*
Y357267D01*
D02*
G37*
G36*
X224178D02*
X223441D01*
Y356531D01*
X223883Y356826D01*
X224178Y357267D01*
D02*
G37*
G36*
X221441D02*
X220704D01*
X220999Y356826D01*
X221441Y356531D01*
Y357267D01*
D02*
G37*
G36*
X212367D02*
X211630D01*
Y356531D01*
X212071Y356826D01*
X212367Y357267D01*
D02*
G37*
G36*
X209630D02*
X208893D01*
X209188Y356826D01*
X209630Y356531D01*
Y357267D01*
D02*
G37*
G36*
X125039Y374214D02*
X123969Y374073D01*
X122972Y373660D01*
X122115Y373003D01*
X121458Y372146D01*
X121045Y371149D01*
X120904Y370079D01*
X121045Y369008D01*
X121458Y368011D01*
X122115Y367155D01*
X122972Y366497D01*
X123969Y366084D01*
X124122Y366064D01*
Y350716D01*
X123558Y350340D01*
X123116Y349678D01*
X122961Y348898D01*
X122982Y348793D01*
X122551Y348395D01*
X122047Y348495D01*
X121267Y348340D01*
X120606Y347898D01*
X120310Y347457D01*
X122047D01*
Y346457D01*
X123047D01*
Y344720D01*
X123489Y345015D01*
X123931Y345676D01*
X124086Y346457D01*
X124065Y346561D01*
X124496Y346959D01*
X125000Y346859D01*
X125780Y347014D01*
X126442Y347456D01*
X126884Y348117D01*
X127039Y348898D01*
X126884Y349678D01*
X126442Y350340D01*
X125957Y350664D01*
Y366064D01*
X126110Y366084D01*
X127107Y366497D01*
X127963Y367155D01*
X128621Y368011D01*
X129034Y369008D01*
X129175Y370079D01*
X129034Y371149D01*
X128621Y372146D01*
X127963Y373003D01*
X127107Y373660D01*
X126110Y374073D01*
X125039Y374214D01*
D02*
G37*
G36*
X323834Y348193D02*
Y347457D01*
X324571D01*
X324276Y347898D01*
X323834Y348193D01*
D02*
G37*
G36*
X321834D02*
X321393Y347898D01*
X321098Y347457D01*
X321834D01*
Y348193D01*
D02*
G37*
G36*
X312023D02*
Y347457D01*
X312760D01*
X312465Y347898D01*
X312023Y348193D01*
D02*
G37*
G36*
X310023D02*
X309582Y347898D01*
X309287Y347457D01*
X310023D01*
Y348193D01*
D02*
G37*
G36*
X300212D02*
Y347457D01*
X300949D01*
X300654Y347898D01*
X300212Y348193D01*
D02*
G37*
G36*
X298212D02*
X297771Y347898D01*
X297476Y347457D01*
X298212D01*
Y348193D01*
D02*
G37*
G36*
X288401D02*
Y347457D01*
X289138D01*
X288843Y347898D01*
X288401Y348193D01*
D02*
G37*
G36*
X286401D02*
X285960Y347898D01*
X285665Y347457D01*
X286401D01*
Y348193D01*
D02*
G37*
G36*
X276590D02*
Y347457D01*
X277327D01*
X277032Y347898D01*
X276590Y348193D01*
D02*
G37*
G36*
X274590D02*
X274149Y347898D01*
X273854Y347457D01*
X274590D01*
Y348193D01*
D02*
G37*
G36*
X264779D02*
Y347457D01*
X265516D01*
X265221Y347898D01*
X264779Y348193D01*
D02*
G37*
G36*
X262779D02*
X262338Y347898D01*
X262043Y347457D01*
X262779D01*
Y348193D01*
D02*
G37*
G36*
X229346D02*
Y347457D01*
X230083D01*
X229788Y347898D01*
X229346Y348193D01*
D02*
G37*
G36*
X227346D02*
X226905Y347898D01*
X226610Y347457D01*
X227346D01*
Y348193D01*
D02*
G37*
G36*
X193913D02*
Y347457D01*
X194650D01*
X194355Y347898D01*
X193913Y348193D01*
D02*
G37*
G36*
X191913D02*
X191472Y347898D01*
X191176Y347457D01*
X191913D01*
Y348193D01*
D02*
G37*
G36*
X134858D02*
Y347457D01*
X135595D01*
X135300Y347898D01*
X134858Y348193D01*
D02*
G37*
G36*
X132858D02*
X132416Y347898D01*
X132122Y347457D01*
X132858D01*
Y348193D01*
D02*
G37*
G36*
X111236D02*
Y347457D01*
X111973D01*
X111678Y347898D01*
X111236Y348193D01*
D02*
G37*
G36*
X109236D02*
X108794Y347898D01*
X108499Y347457D01*
X109236D01*
Y348193D01*
D02*
G37*
G36*
X99425D02*
Y347457D01*
X100162D01*
X99867Y347898D01*
X99425Y348193D01*
D02*
G37*
G36*
X97425D02*
X96983Y347898D01*
X96688Y347457D01*
X97425D01*
Y348193D01*
D02*
G37*
G36*
X87614D02*
Y347457D01*
X88351D01*
X88056Y347898D01*
X87614Y348193D01*
D02*
G37*
G36*
X85614D02*
X85172Y347898D01*
X84877Y347457D01*
X85614D01*
Y348193D01*
D02*
G37*
G36*
X75803D02*
Y347457D01*
X76540D01*
X76245Y347898D01*
X75803Y348193D01*
D02*
G37*
G36*
X73803D02*
X73361Y347898D01*
X73066Y347457D01*
X73803D01*
Y348193D01*
D02*
G37*
G36*
X189139Y374179D02*
X180939D01*
Y365979D01*
X183408D01*
Y350095D01*
X183155Y349717D01*
X183000Y348937D01*
X183155Y348157D01*
X183598Y347495D01*
X184259Y347053D01*
X185039Y346898D01*
X185820Y347053D01*
X186481Y347495D01*
X186923Y348157D01*
X187078Y348937D01*
X186923Y349717D01*
X186671Y350095D01*
Y365979D01*
X189139D01*
Y374179D01*
D02*
G37*
G36*
X115039Y374214D02*
X113969Y374073D01*
X112972Y373660D01*
X112115Y373003D01*
X111458Y372146D01*
X111045Y371149D01*
X110904Y370079D01*
X111045Y369008D01*
X111458Y368011D01*
X112115Y367155D01*
X112972Y366497D01*
X113969Y366084D01*
X114122Y366064D01*
Y350818D01*
X113464Y350379D01*
X113022Y349717D01*
X112867Y348937D01*
X113022Y348157D01*
X113464Y347495D01*
X114126Y347053D01*
X114906Y346898D01*
X115687Y347053D01*
X116348Y347495D01*
X116790Y348157D01*
X116946Y348937D01*
X116790Y349717D01*
X116348Y350379D01*
X115957Y350640D01*
Y366064D01*
X116110Y366084D01*
X117107Y366497D01*
X117964Y367155D01*
X118621Y368011D01*
X119034Y369008D01*
X119175Y370079D01*
X119034Y371149D01*
X118621Y372146D01*
X117964Y373003D01*
X117107Y373660D01*
X116110Y374073D01*
X115039Y374214D01*
D02*
G37*
G36*
X155039D02*
X153969Y374073D01*
X152972Y373660D01*
X152115Y373003D01*
X151458Y372146D01*
X151045Y371149D01*
X150904Y370079D01*
X151045Y369008D01*
X151458Y368011D01*
X152115Y367155D01*
X152972Y366497D01*
X153969Y366084D01*
X154122Y366064D01*
Y350493D01*
X153716Y350221D01*
X153273Y349560D01*
X153118Y348780D01*
X153273Y347999D01*
X153716Y347338D01*
X154377Y346896D01*
X155157Y346740D01*
X155938Y346896D01*
X156599Y347338D01*
X157041Y347999D01*
X157197Y348780D01*
X157041Y349560D01*
X156599Y350221D01*
X155957Y350651D01*
Y366064D01*
X156110Y366084D01*
X157107Y366497D01*
X157964Y367155D01*
X158621Y368011D01*
X159034Y369008D01*
X159175Y370079D01*
X159034Y371149D01*
X158621Y372146D01*
X157964Y373003D01*
X157107Y373660D01*
X156110Y374073D01*
X155039Y374214D01*
D02*
G37*
G36*
X80908Y368181D02*
X80128Y368026D01*
X79466Y367584D01*
X79024Y366922D01*
X78869Y366142D01*
X79024Y365361D01*
X79277Y364983D01*
Y349584D01*
X79024Y349206D01*
X78869Y348425D01*
X79024Y347645D01*
X79466Y346983D01*
X80128Y346541D01*
X80908Y346386D01*
X81688Y346541D01*
X82350Y346983D01*
X82792Y347645D01*
X82947Y348425D01*
X82792Y349206D01*
X82539Y349584D01*
Y364983D01*
X82792Y365361D01*
X82947Y366142D01*
X82792Y366922D01*
X82350Y367584D01*
X81688Y368026D01*
X80908Y368181D01*
D02*
G37*
G36*
X324571Y345457D02*
X323834D01*
Y344720D01*
X324276Y345015D01*
X324571Y345457D01*
D02*
G37*
G36*
X321834D02*
X321098D01*
X321393Y345015D01*
X321834Y344720D01*
Y345457D01*
D02*
G37*
G36*
X312760D02*
X312023D01*
Y344720D01*
X312465Y345015D01*
X312760Y345457D01*
D02*
G37*
G36*
X310023D02*
X309287D01*
X309582Y345015D01*
X310023Y344720D01*
Y345457D01*
D02*
G37*
G36*
X300949D02*
X300212D01*
Y344720D01*
X300654Y345015D01*
X300949Y345457D01*
D02*
G37*
G36*
X298212D02*
X297476D01*
X297771Y345015D01*
X298212Y344720D01*
Y345457D01*
D02*
G37*
G36*
X289138D02*
X288401D01*
Y344720D01*
X288843Y345015D01*
X289138Y345457D01*
D02*
G37*
G36*
X286401D02*
X285665D01*
X285960Y345015D01*
X286401Y344720D01*
Y345457D01*
D02*
G37*
G36*
X277327D02*
X276590D01*
Y344720D01*
X277032Y345015D01*
X277327Y345457D01*
D02*
G37*
G36*
X274590D02*
X273854D01*
X274149Y345015D01*
X274590Y344720D01*
Y345457D01*
D02*
G37*
G36*
X265516D02*
X264779D01*
Y344720D01*
X265221Y345015D01*
X265516Y345457D01*
D02*
G37*
G36*
X262779D02*
X262043D01*
X262338Y345015D01*
X262779Y344720D01*
Y345457D01*
D02*
G37*
G36*
X230083D02*
X229346D01*
Y344720D01*
X229788Y345015D01*
X230083Y345457D01*
D02*
G37*
G36*
X227346D02*
X226610D01*
X226905Y345015D01*
X227346Y344720D01*
Y345457D01*
D02*
G37*
G36*
X194650D02*
X193913D01*
Y344720D01*
X194355Y345015D01*
X194650Y345457D01*
D02*
G37*
G36*
X191913D02*
X191176D01*
X191472Y345015D01*
X191913Y344720D01*
Y345457D01*
D02*
G37*
G36*
X135595D02*
X134858D01*
Y344720D01*
X135300Y345015D01*
X135595Y345457D01*
D02*
G37*
G36*
X132858D02*
X132122D01*
X132416Y345015D01*
X132858Y344720D01*
Y345457D01*
D02*
G37*
G36*
X121047D02*
X120310D01*
X120606Y345015D01*
X121047Y344720D01*
Y345457D01*
D02*
G37*
G36*
X111973D02*
X111236D01*
Y344720D01*
X111678Y345015D01*
X111973Y345457D01*
D02*
G37*
G36*
X109236D02*
X108499D01*
X108794Y345015D01*
X109236Y344720D01*
Y345457D01*
D02*
G37*
G36*
X100162D02*
X99425D01*
Y344720D01*
X99867Y345015D01*
X100162Y345457D01*
D02*
G37*
G36*
X97425D02*
X96688D01*
X96983Y345015D01*
X97425Y344720D01*
Y345457D01*
D02*
G37*
G36*
X88351D02*
X87614D01*
Y344720D01*
X88056Y345015D01*
X88351Y345457D01*
D02*
G37*
G36*
X85614D02*
X84877D01*
X85172Y345015D01*
X85614Y344720D01*
Y345457D01*
D02*
G37*
G36*
X76540D02*
X75803D01*
Y344720D01*
X76245Y345015D01*
X76540Y345457D01*
D02*
G37*
G36*
X73803D02*
X73066D01*
X73361Y345015D01*
X73803Y344720D01*
Y345457D01*
D02*
G37*
G36*
X145039Y374214D02*
X143969Y374073D01*
X142972Y373660D01*
X142115Y373003D01*
X141458Y372146D01*
X141045Y371149D01*
X140904Y370079D01*
X141045Y369008D01*
X141458Y368011D01*
X142115Y367155D01*
X142972Y366497D01*
X143969Y366084D01*
X144122Y366064D01*
Y348249D01*
X143597Y347899D01*
X143155Y347237D01*
X143000Y346457D01*
X143155Y345676D01*
X143597Y345015D01*
X144259Y344573D01*
X145039Y344418D01*
X145820Y344573D01*
X146481Y345015D01*
X146923Y345676D01*
X147079Y346457D01*
X146923Y347237D01*
X146481Y347899D01*
X145957Y348249D01*
Y366064D01*
X146110Y366084D01*
X147107Y366497D01*
X147964Y367155D01*
X148621Y368011D01*
X149034Y369008D01*
X149175Y370079D01*
X149034Y371149D01*
X148621Y372146D01*
X147964Y373003D01*
X147107Y373660D01*
X146110Y374073D01*
X145039Y374214D01*
D02*
G37*
G36*
X179720Y344101D02*
X178940Y343946D01*
X178278Y343504D01*
X178222Y343420D01*
X177916Y343215D01*
X170925Y336225D01*
X170480Y336136D01*
X169818Y335694D01*
X169376Y335032D01*
X169221Y334252D01*
X169376Y333472D01*
X169818Y332810D01*
X170480Y332368D01*
X171260Y332213D01*
X172040Y332368D01*
X172702Y332810D01*
X173144Y333472D01*
X173232Y333917D01*
X179401Y340086D01*
X179720Y340023D01*
X180501Y340178D01*
X181162Y340620D01*
X181604Y341282D01*
X181760Y342062D01*
X181604Y342842D01*
X181162Y343504D01*
X180501Y343946D01*
X179720Y344101D01*
D02*
G37*
G36*
X329740Y336382D02*
Y335646D01*
X330477D01*
X330182Y336087D01*
X329740Y336382D01*
D02*
G37*
G36*
X327740D02*
X327298Y336087D01*
X327003Y335646D01*
X327740D01*
Y336382D01*
D02*
G37*
G36*
X294307D02*
Y335646D01*
X295044D01*
X294749Y336087D01*
X294307Y336382D01*
D02*
G37*
G36*
X292307D02*
X291865Y336087D01*
X291570Y335646D01*
X292307D01*
Y336382D01*
D02*
G37*
G36*
X282496D02*
Y335646D01*
X283233D01*
X282938Y336087D01*
X282496Y336382D01*
D02*
G37*
G36*
X280496D02*
X280054Y336087D01*
X279759Y335646D01*
X280496D01*
Y336382D01*
D02*
G37*
G36*
X270685D02*
Y335646D01*
X271422D01*
X271127Y336087D01*
X270685Y336382D01*
D02*
G37*
G36*
X268685D02*
X268243Y336087D01*
X267948Y335646D01*
X268685D01*
Y336382D01*
D02*
G37*
G36*
X247063D02*
Y335646D01*
X247800D01*
X247504Y336087D01*
X247063Y336382D01*
D02*
G37*
G36*
X245063D02*
X244621Y336087D01*
X244326Y335646D01*
X245063D01*
Y336382D01*
D02*
G37*
G36*
X235252D02*
Y335646D01*
X235989D01*
X235694Y336087D01*
X235252Y336382D01*
D02*
G37*
G36*
X233252D02*
X232810Y336087D01*
X232515Y335646D01*
X233252D01*
Y336382D01*
D02*
G37*
G36*
X152575D02*
Y335646D01*
X153311D01*
X153016Y336087D01*
X152575Y336382D01*
D02*
G37*
G36*
X150575D02*
X150133Y336087D01*
X149838Y335646D01*
X150575D01*
Y336382D01*
D02*
G37*
G36*
X140764D02*
Y335646D01*
X141500D01*
X141205Y336087D01*
X140764Y336382D01*
D02*
G37*
G36*
X138764D02*
X138322Y336087D01*
X138027Y335646D01*
X138764D01*
Y336382D01*
D02*
G37*
G36*
X128953D02*
Y335646D01*
X129689D01*
X129394Y336087D01*
X128953Y336382D01*
D02*
G37*
G36*
X126953D02*
X126511Y336087D01*
X126216Y335646D01*
X126953D01*
Y336382D01*
D02*
G37*
G36*
X117142D02*
Y335646D01*
X117878D01*
X117583Y336087D01*
X117142Y336382D01*
D02*
G37*
G36*
X115142D02*
X114700Y336087D01*
X114405Y335646D01*
X115142D01*
Y336382D01*
D02*
G37*
G36*
X105331D02*
Y335646D01*
X106067D01*
X105772Y336087D01*
X105331Y336382D01*
D02*
G37*
G36*
X103331D02*
X102889Y336087D01*
X102594Y335646D01*
X103331D01*
Y336382D01*
D02*
G37*
G36*
X93520D02*
Y335646D01*
X94256D01*
X93961Y336087D01*
X93520Y336382D01*
D02*
G37*
G36*
X91520D02*
X91078Y336087D01*
X90783Y335646D01*
X91520D01*
Y336382D01*
D02*
G37*
G36*
X69898D02*
Y335646D01*
X70634D01*
X70339Y336087D01*
X69898Y336382D01*
D02*
G37*
G36*
X67898D02*
X67456Y336087D01*
X67161Y335646D01*
X67898D01*
Y336382D01*
D02*
G37*
G36*
X330477Y333646D02*
X329740D01*
Y332909D01*
X330182Y333204D01*
X330477Y333646D01*
D02*
G37*
G36*
X327740D02*
X327003D01*
X327298Y333204D01*
X327740Y332909D01*
Y333646D01*
D02*
G37*
G36*
X295044D02*
X294307D01*
Y332909D01*
X294749Y333204D01*
X295044Y333646D01*
D02*
G37*
G36*
X292307D02*
X291570D01*
X291865Y333204D01*
X292307Y332909D01*
Y333646D01*
D02*
G37*
G36*
X283233D02*
X282496D01*
Y332909D01*
X282938Y333204D01*
X283233Y333646D01*
D02*
G37*
G36*
X280496D02*
X279759D01*
X280054Y333204D01*
X280496Y332909D01*
Y333646D01*
D02*
G37*
G36*
X271422D02*
X270685D01*
Y332909D01*
X271127Y333204D01*
X271422Y333646D01*
D02*
G37*
G36*
X268685D02*
X267948D01*
X268243Y333204D01*
X268685Y332909D01*
Y333646D01*
D02*
G37*
G36*
X247800D02*
X247063D01*
Y332909D01*
X247504Y333204D01*
X247800Y333646D01*
D02*
G37*
G36*
X245063D02*
X244326D01*
X244621Y333204D01*
X245063Y332909D01*
Y333646D01*
D02*
G37*
G36*
X235989D02*
X235252D01*
Y332909D01*
X235694Y333204D01*
X235989Y333646D01*
D02*
G37*
G36*
X233252D02*
X232515D01*
X232810Y333204D01*
X233252Y332909D01*
Y333646D01*
D02*
G37*
G36*
X153311D02*
X152575D01*
Y332909D01*
X153016Y333204D01*
X153311Y333646D01*
D02*
G37*
G36*
X150575D02*
X149838D01*
X150133Y333204D01*
X150575Y332909D01*
Y333646D01*
D02*
G37*
G36*
X141500D02*
X140764D01*
Y332909D01*
X141205Y333204D01*
X141500Y333646D01*
D02*
G37*
G36*
X138764D02*
X138027D01*
X138322Y333204D01*
X138764Y332909D01*
Y333646D01*
D02*
G37*
G36*
X129689D02*
X128953D01*
Y332909D01*
X129394Y333204D01*
X129689Y333646D01*
D02*
G37*
G36*
X126953D02*
X126216D01*
X126511Y333204D01*
X126953Y332909D01*
Y333646D01*
D02*
G37*
G36*
X117878D02*
X117142D01*
Y332909D01*
X117583Y333204D01*
X117878Y333646D01*
D02*
G37*
G36*
X115142D02*
X114405D01*
X114700Y333204D01*
X115142Y332909D01*
Y333646D01*
D02*
G37*
G36*
X106067D02*
X105331D01*
Y332909D01*
X105772Y333204D01*
X106067Y333646D01*
D02*
G37*
G36*
X103331D02*
X102594D01*
X102889Y333204D01*
X103331Y332909D01*
Y333646D01*
D02*
G37*
G36*
X94256D02*
X93520D01*
Y332909D01*
X93961Y333204D01*
X94256Y333646D01*
D02*
G37*
G36*
X91520D02*
X90783D01*
X91078Y333204D01*
X91520Y332909D01*
Y333646D01*
D02*
G37*
G36*
X70634D02*
X69898D01*
Y332909D01*
X70339Y333204D01*
X70634Y333646D01*
D02*
G37*
G36*
X67898D02*
X67161D01*
X67456Y333204D01*
X67898Y332909D01*
Y333646D01*
D02*
G37*
G36*
X122047Y328299D02*
X121267Y328144D01*
X120605Y327702D01*
X120255Y327178D01*
X114784D01*
X114434Y327702D01*
X113772Y328144D01*
X112992Y328299D01*
X112212Y328144D01*
X111550Y327702D01*
X111108Y327040D01*
X110953Y326260D01*
X111108Y325480D01*
X111375Y325079D01*
X111236Y324939D01*
Y323834D01*
X111973D01*
X111853Y324014D01*
X112209Y324374D01*
X112213Y324376D01*
X112992Y324221D01*
X113772Y324376D01*
X114434Y324818D01*
X114784Y325342D01*
X120255D01*
X120605Y324818D01*
X121267Y324376D01*
X122047Y324221D01*
X122828Y324376D01*
X123489Y324818D01*
X123931Y325480D01*
X124086Y326260D01*
X123931Y327040D01*
X123489Y327702D01*
X122828Y328144D01*
X122047Y328299D01*
D02*
G37*
G36*
X300212Y324571D02*
Y323834D01*
X300949D01*
X300654Y324276D01*
X300212Y324571D01*
D02*
G37*
G36*
X298212D02*
X297771Y324276D01*
X297476Y323834D01*
X298212D01*
Y324571D01*
D02*
G37*
G36*
X288401D02*
Y323834D01*
X289138D01*
X288843Y324276D01*
X288401Y324571D01*
D02*
G37*
G36*
X286401D02*
X285960Y324276D01*
X285665Y323834D01*
X286401D01*
Y324571D01*
D02*
G37*
G36*
X276590D02*
Y323834D01*
X277327D01*
X277032Y324276D01*
X276590Y324571D01*
D02*
G37*
G36*
X274590D02*
X274149Y324276D01*
X273854Y323834D01*
X274590D01*
Y324571D01*
D02*
G37*
G36*
X158480D02*
Y323834D01*
X159217D01*
X158922Y324276D01*
X158480Y324571D01*
D02*
G37*
G36*
X156480D02*
X156039Y324276D01*
X155744Y323834D01*
X156480D01*
Y324571D01*
D02*
G37*
G36*
X146669D02*
Y323834D01*
X147406D01*
X147111Y324276D01*
X146669Y324571D01*
D02*
G37*
G36*
X144669D02*
X144228Y324276D01*
X143932Y323834D01*
X144669D01*
Y324571D01*
D02*
G37*
G36*
X134858D02*
Y323834D01*
X135595D01*
X135300Y324276D01*
X134858Y324571D01*
D02*
G37*
G36*
X132858D02*
X132416Y324276D01*
X132122Y323834D01*
X132858D01*
Y324571D01*
D02*
G37*
G36*
X109236D02*
X108794Y324276D01*
X108499Y323834D01*
X109236D01*
Y324571D01*
D02*
G37*
G36*
X99425D02*
Y323834D01*
X100162D01*
X99867Y324276D01*
X99425Y324571D01*
D02*
G37*
G36*
X97425D02*
X96983Y324276D01*
X96688Y323834D01*
X97425D01*
Y324571D01*
D02*
G37*
G36*
X75803D02*
Y323834D01*
X76540D01*
X76245Y324276D01*
X75803Y324571D01*
D02*
G37*
G36*
X73803D02*
X73361Y324276D01*
X73066Y323834D01*
X73803D01*
Y324571D01*
D02*
G37*
G36*
X28559D02*
Y323834D01*
X29296D01*
X29001Y324276D01*
X28559Y324571D01*
D02*
G37*
G36*
X26559D02*
X26117Y324276D01*
X25822Y323834D01*
X26559D01*
Y324571D01*
D02*
G37*
G36*
X258500Y332539D02*
X257720Y332384D01*
X257058Y331942D01*
X256616Y331280D01*
X256461Y330500D01*
X256616Y329720D01*
X256869Y329342D01*
Y322158D01*
X256800Y322056D01*
X256200D01*
X255942Y322442D01*
X255500Y322737D01*
Y321000D01*
Y319263D01*
X255942Y319558D01*
X256200Y319944D01*
X256800D01*
X257058Y319558D01*
X257720Y319116D01*
X258500Y318961D01*
X259280Y319116D01*
X259942Y319558D01*
X260384Y320220D01*
X260539Y321000D01*
X260384Y321780D01*
X260131Y322158D01*
Y329342D01*
X260384Y329720D01*
X260539Y330500D01*
X260384Y331280D01*
X259942Y331942D01*
X259280Y332384D01*
X258500Y332539D01*
D02*
G37*
G36*
X300949Y321834D02*
X300212D01*
Y321098D01*
X300654Y321393D01*
X300949Y321834D01*
D02*
G37*
G36*
X298212D02*
X297476D01*
X297771Y321393D01*
X298212Y321098D01*
Y321834D01*
D02*
G37*
G36*
X289138D02*
X288401D01*
Y321098D01*
X288843Y321393D01*
X289138Y321834D01*
D02*
G37*
G36*
X286401D02*
X285665D01*
X285960Y321393D01*
X286401Y321098D01*
Y321834D01*
D02*
G37*
G36*
X277327D02*
X276590D01*
Y321098D01*
X277032Y321393D01*
X277327Y321834D01*
D02*
G37*
G36*
X274590D02*
X273854D01*
X274149Y321393D01*
X274590Y321098D01*
Y321834D01*
D02*
G37*
G36*
X159217D02*
X158480D01*
Y321098D01*
X158922Y321393D01*
X159217Y321834D01*
D02*
G37*
G36*
X156480D02*
X155744D01*
X156039Y321393D01*
X156480Y321098D01*
Y321834D01*
D02*
G37*
G36*
X147406D02*
X146669D01*
Y321098D01*
X147111Y321393D01*
X147406Y321834D01*
D02*
G37*
G36*
X144669D02*
X143932D01*
X144228Y321393D01*
X144669Y321098D01*
Y321834D01*
D02*
G37*
G36*
X135595D02*
X134858D01*
Y321098D01*
X135300Y321393D01*
X135595Y321834D01*
D02*
G37*
G36*
X132858D02*
X132122D01*
X132416Y321393D01*
X132858Y321098D01*
Y321834D01*
D02*
G37*
G36*
X111973D02*
X111236D01*
Y321098D01*
X111678Y321393D01*
X111973Y321834D01*
D02*
G37*
G36*
X109236D02*
X108499D01*
X108794Y321393D01*
X109236Y321098D01*
Y321834D01*
D02*
G37*
G36*
X100162D02*
X99425D01*
Y321098D01*
X99867Y321393D01*
X100162Y321834D01*
D02*
G37*
G36*
X97425D02*
X96688D01*
X96983Y321393D01*
X97425Y321098D01*
Y321834D01*
D02*
G37*
G36*
X76540D02*
X75803D01*
Y321098D01*
X76245Y321393D01*
X76540Y321834D01*
D02*
G37*
G36*
X73803D02*
X73066D01*
X73361Y321393D01*
X73803Y321098D01*
Y321834D01*
D02*
G37*
G36*
X29296D02*
X28559D01*
Y321098D01*
X29001Y321393D01*
X29296Y321834D01*
D02*
G37*
G36*
X26559D02*
X25822D01*
X26117Y321393D01*
X26559Y321098D01*
Y321834D01*
D02*
G37*
G36*
X250000Y332539D02*
X249220Y332384D01*
X248558Y331942D01*
X248116Y331280D01*
X247961Y330500D01*
X248116Y329720D01*
X248369Y329342D01*
Y322158D01*
X248116Y321780D01*
X247961Y321000D01*
X248116Y320220D01*
X248558Y319558D01*
X249220Y319116D01*
X250000Y318961D01*
X250780Y319116D01*
X251442Y319558D01*
X251884Y320220D01*
X251985Y320726D01*
X251995Y320778D01*
X252505D01*
X252515Y320726D01*
X252616Y320220D01*
X253058Y319558D01*
X253500Y319263D01*
Y321000D01*
Y322737D01*
X253058Y322442D01*
X252616Y321780D01*
X252515Y321274D01*
X252505Y321222D01*
X251995D01*
X251985Y321274D01*
X251884Y321780D01*
X251631Y322158D01*
Y329342D01*
X251884Y329720D01*
X252039Y330500D01*
X251884Y331280D01*
X251442Y331942D01*
X250780Y332384D01*
X250000Y332539D01*
D02*
G37*
G36*
X240500Y318737D02*
Y318000D01*
X241237D01*
X240942Y318442D01*
X240500Y318737D01*
D02*
G37*
G36*
X238500D02*
X238058Y318442D01*
X237763Y318000D01*
X238500D01*
Y318737D01*
D02*
G37*
G36*
X241237Y316000D02*
X240500D01*
Y315263D01*
X240942Y315558D01*
X241237Y316000D01*
D02*
G37*
G36*
X238500D02*
X237763D01*
X238058Y315558D01*
X238500Y315263D01*
Y316000D01*
D02*
G37*
G36*
X331075Y315921D02*
X330294Y315766D01*
X329633Y315324D01*
X329419Y315003D01*
X325731D01*
X325517Y315324D01*
X324855Y315766D01*
X324075Y315921D01*
X323294Y315766D01*
X322633Y315324D01*
X322191Y314662D01*
X322036Y313882D01*
X322191Y313102D01*
X322633Y312440D01*
X323294Y311998D01*
X324075Y311843D01*
X324855Y311998D01*
X325517Y312440D01*
X325731Y312760D01*
X329419D01*
X329633Y312440D01*
X330294Y311998D01*
X331075Y311843D01*
X331855Y311998D01*
X332517Y312440D01*
X332959Y313102D01*
X333114Y313882D01*
X332959Y314662D01*
X332517Y315324D01*
X331855Y315766D01*
X331075Y315921D01*
D02*
G37*
G36*
X144021Y317092D02*
X140921D01*
Y313992D01*
X144021D01*
Y317092D01*
D02*
G37*
G36*
X138921D02*
X135821D01*
Y313992D01*
X138921D01*
Y317092D01*
D02*
G37*
G36*
X81478Y316632D02*
X78378D01*
Y313531D01*
X81478D01*
Y316632D01*
D02*
G37*
G36*
X76378D02*
X73278D01*
Y313531D01*
X76378D01*
Y316632D01*
D02*
G37*
G36*
X386795Y312760D02*
X386353Y312465D01*
X386058Y312023D01*
X386795D01*
Y312760D01*
D02*
G37*
G36*
X376984D02*
Y312023D01*
X377721D01*
X377426Y312465D01*
X376984Y312760D01*
D02*
G37*
G36*
X373154Y317312D02*
X372228Y317128D01*
X371444Y316604D01*
X370919Y315819D01*
X370735Y314894D01*
X370919Y313968D01*
X371444Y313184D01*
X372228Y312660D01*
X373154Y312476D01*
X374070Y312658D01*
X374101Y312637D01*
X374425Y312290D01*
X374247Y312023D01*
X374984D01*
Y313289D01*
X374961Y313330D01*
X375388Y313968D01*
X375572Y314894D01*
X375388Y315819D01*
X374863Y316604D01*
X374079Y317128D01*
X373154Y317312D01*
D02*
G37*
G36*
X306118Y312760D02*
Y312023D01*
X306855D01*
X306560Y312465D01*
X306118Y312760D01*
D02*
G37*
G36*
X304118D02*
X303676Y312465D01*
X303381Y312023D01*
X304118D01*
Y312760D01*
D02*
G37*
G36*
X294307D02*
Y312023D01*
X295044D01*
X294749Y312465D01*
X294307Y312760D01*
D02*
G37*
G36*
X292307D02*
X291865Y312465D01*
X291570Y312023D01*
X292307D01*
Y312760D01*
D02*
G37*
G36*
X282496D02*
Y312023D01*
X283233D01*
X282938Y312465D01*
X282496Y312760D01*
D02*
G37*
G36*
X280496D02*
X280054Y312465D01*
X279759Y312023D01*
X280496D01*
Y312760D01*
D02*
G37*
G36*
X152575D02*
Y312023D01*
X153311D01*
X153016Y312465D01*
X152575Y312760D01*
D02*
G37*
G36*
X150575D02*
X150133Y312465D01*
X149838Y312023D01*
X150575D01*
Y312760D01*
D02*
G37*
G36*
X93520D02*
Y312023D01*
X94256D01*
X93961Y312465D01*
X93520Y312760D01*
D02*
G37*
G36*
X91520D02*
X91078Y312465D01*
X90783Y312023D01*
X91520D01*
Y312760D01*
D02*
G37*
G36*
X333724Y310770D02*
Y310032D01*
X334462D01*
X334166Y310474D01*
X333724Y310770D01*
D02*
G37*
G36*
X331724D02*
X331282Y310474D01*
X330987Y310032D01*
X331724D01*
Y310770D01*
D02*
G37*
G36*
X386795Y310023D02*
X386058D01*
X386353Y309582D01*
X386795Y309287D01*
Y310023D01*
D02*
G37*
G36*
X377721D02*
X376984D01*
Y309287D01*
X377426Y309582D01*
X377721Y310023D01*
D02*
G37*
G36*
X374984D02*
X374247D01*
X374542Y309582D01*
X374984Y309287D01*
Y310023D01*
D02*
G37*
G36*
X306855D02*
X306118D01*
Y309287D01*
X306560Y309582D01*
X306855Y310023D01*
D02*
G37*
G36*
X304118D02*
X303381D01*
X303676Y309582D01*
X304118Y309287D01*
Y310023D01*
D02*
G37*
G36*
X295044D02*
X294307D01*
Y309287D01*
X294749Y309582D01*
X295044Y310023D01*
D02*
G37*
G36*
X292307D02*
X291570D01*
X291865Y309582D01*
X292307Y309287D01*
Y310023D01*
D02*
G37*
G36*
X283233D02*
X282496D01*
Y309287D01*
X282938Y309582D01*
X283233Y310023D01*
D02*
G37*
G36*
X280496D02*
X279759D01*
X280054Y309582D01*
X280496Y309287D01*
Y310023D01*
D02*
G37*
G36*
X153311D02*
X152575D01*
Y309287D01*
X153016Y309582D01*
X153311Y310023D01*
D02*
G37*
G36*
X150575D02*
X149838D01*
X150133Y309582D01*
X150575Y309287D01*
Y310023D01*
D02*
G37*
G36*
X94256D02*
X93520D01*
Y309287D01*
X93961Y309582D01*
X94256Y310023D01*
D02*
G37*
G36*
X91520D02*
X90783D01*
X91078Y309582D01*
X91520Y309287D01*
Y310023D01*
D02*
G37*
G36*
X114494Y317092D02*
X106294D01*
Y308892D01*
X114494D01*
Y317092D01*
D02*
G37*
G36*
X144021Y311992D02*
X140921D01*
Y308892D01*
X144021D01*
Y311992D01*
D02*
G37*
G36*
X138921D02*
X135821D01*
Y308892D01*
X138921D01*
Y311992D01*
D02*
G37*
G36*
X100394Y317127D02*
X99323Y316987D01*
X98326Y316574D01*
X97470Y315916D01*
X96812Y315060D01*
X96399Y314062D01*
X96258Y312992D01*
X96399Y311922D01*
X96812Y310924D01*
X97470Y310068D01*
X98326Y309411D01*
X99323Y308998D01*
X100394Y308857D01*
X101464Y308998D01*
X102461Y309411D01*
X103318Y310068D01*
X103975Y310924D01*
X104388Y311922D01*
X104529Y312992D01*
X104388Y314062D01*
X103975Y315060D01*
X103318Y315916D01*
X102461Y316574D01*
X101464Y316987D01*
X100394Y317127D01*
D02*
G37*
G36*
X129921Y317127D02*
X128851Y316987D01*
X127854Y316574D01*
X126997Y315916D01*
X126340Y315060D01*
X125927Y314062D01*
X125786Y312992D01*
X125927Y311922D01*
X126340Y310924D01*
X126997Y310068D01*
X127854Y309411D01*
X128851Y308998D01*
X129921Y308857D01*
X130992Y308998D01*
X131989Y309411D01*
X132845Y310068D01*
X133503Y310924D01*
X133916Y311922D01*
X134057Y312992D01*
X133916Y314062D01*
X133503Y315060D01*
X132845Y315916D01*
X131989Y316574D01*
X130992Y316987D01*
X129921Y317127D01*
D02*
G37*
G36*
X81478Y311531D02*
X78378D01*
Y308432D01*
X81478D01*
Y311531D01*
D02*
G37*
G36*
X76378D02*
X73278D01*
Y308432D01*
X76378D01*
Y311531D01*
D02*
G37*
G36*
X67378Y316667D02*
X66308Y316526D01*
X65310Y316113D01*
X64454Y315456D01*
X63797Y314599D01*
X63384Y313602D01*
X63243Y312531D01*
X63384Y311461D01*
X63797Y310464D01*
X64454Y309607D01*
X65310Y308950D01*
X66308Y308537D01*
X67378Y308396D01*
X68448Y308537D01*
X69446Y308950D01*
X70302Y309607D01*
X70959Y310464D01*
X71372Y311461D01*
X71513Y312531D01*
X71372Y313602D01*
X70959Y314599D01*
X70302Y315456D01*
X69446Y316113D01*
X68448Y316526D01*
X67378Y316667D01*
D02*
G37*
G36*
X57378D02*
X56308Y316526D01*
X55310Y316113D01*
X54454Y315456D01*
X53797Y314599D01*
X53383Y313602D01*
X53243Y312531D01*
X53383Y311461D01*
X53797Y310464D01*
X54454Y309607D01*
X55310Y308950D01*
X56308Y308537D01*
X57378Y308396D01*
X58448Y308537D01*
X59446Y308950D01*
X60302Y309607D01*
X60959Y310464D01*
X61372Y311461D01*
X61513Y312531D01*
X61372Y313602D01*
X60959Y314599D01*
X60302Y315456D01*
X59446Y316113D01*
X58448Y316526D01*
X57378Y316667D01*
D02*
G37*
G36*
X47378D02*
X46308Y316526D01*
X45310Y316113D01*
X44454Y315456D01*
X43797Y314599D01*
X43383Y313602D01*
X43243Y312531D01*
X43383Y311461D01*
X43797Y310464D01*
X44454Y309607D01*
X45310Y308950D01*
X46308Y308537D01*
X47378Y308396D01*
X48448Y308537D01*
X49446Y308950D01*
X50302Y309607D01*
X50959Y310464D01*
X51372Y311461D01*
X51513Y312531D01*
X51372Y313602D01*
X50959Y314599D01*
X50302Y315456D01*
X49446Y316113D01*
X48448Y316526D01*
X47378Y316667D01*
D02*
G37*
G36*
X37378D02*
X36308Y316526D01*
X35310Y316113D01*
X34454Y315456D01*
X33797Y314599D01*
X33384Y313602D01*
X33243Y312531D01*
X33384Y311461D01*
X33797Y310464D01*
X34454Y309607D01*
X35310Y308950D01*
X36308Y308537D01*
X37378Y308396D01*
X38448Y308537D01*
X39446Y308950D01*
X40302Y309607D01*
X40959Y310464D01*
X41372Y311461D01*
X41513Y312531D01*
X41372Y313602D01*
X40959Y314599D01*
X40302Y315456D01*
X39446Y316113D01*
X38448Y316526D01*
X37378Y316667D01*
D02*
G37*
G36*
X334462Y308032D02*
X333724D01*
Y307295D01*
X334166Y307590D01*
X334462Y308032D01*
D02*
G37*
G36*
X331724D02*
X330987D01*
X331282Y307590D01*
X331724Y307295D01*
Y308032D01*
D02*
G37*
G36*
X250000Y317039D02*
X249220Y316884D01*
X248558Y316442D01*
X248116Y315780D01*
X247961Y315000D01*
X248116Y314220D01*
X248369Y313842D01*
Y306158D01*
X248116Y305780D01*
X247961Y305000D01*
X248116Y304220D01*
X248558Y303558D01*
X249220Y303116D01*
X250000Y302961D01*
X250780Y303116D01*
X251442Y303558D01*
X251884Y304220D01*
X252039Y305000D01*
X251884Y305780D01*
X251631Y306158D01*
Y313842D01*
X251884Y314220D01*
X252039Y315000D01*
X251884Y315780D01*
X251442Y316442D01*
X250780Y316884D01*
X250000Y317039D01*
D02*
G37*
G36*
X354075Y303619D02*
Y302882D01*
X354812D01*
X354517Y303324D01*
X354075Y303619D01*
D02*
G37*
G36*
X352075D02*
X351633Y303324D01*
X351338Y302882D01*
X352075D01*
Y303619D01*
D02*
G37*
G36*
X256000Y301737D02*
Y301000D01*
X256737D01*
X256442Y301442D01*
X256000Y301737D01*
D02*
G37*
G36*
X254000D02*
X253558Y301442D01*
X253263Y301000D01*
X254000D01*
Y301737D01*
D02*
G37*
G36*
X382890Y300949D02*
Y300212D01*
X383626D01*
X383331Y300654D01*
X382890Y300949D01*
D02*
G37*
G36*
X380890D02*
X380448Y300654D01*
X380153Y300212D01*
X380890D01*
Y300949D01*
D02*
G37*
G36*
X323834D02*
Y300212D01*
X324571D01*
X324276Y300654D01*
X323834Y300949D01*
D02*
G37*
G36*
X321834D02*
X321393Y300654D01*
X321098Y300212D01*
X321834D01*
Y300949D01*
D02*
G37*
G36*
X300212D02*
Y300212D01*
X300949D01*
X300654Y300654D01*
X300212Y300949D01*
D02*
G37*
G36*
X298212D02*
X297771Y300654D01*
X297476Y300212D01*
X298212D01*
Y300949D01*
D02*
G37*
G36*
X288401D02*
Y300212D01*
X289138D01*
X288843Y300654D01*
X288401Y300949D01*
D02*
G37*
G36*
X286401D02*
X285960Y300654D01*
X285665Y300212D01*
X286401D01*
Y300949D01*
D02*
G37*
G36*
X276590D02*
Y300212D01*
X277327D01*
X277032Y300654D01*
X276590Y300949D01*
D02*
G37*
G36*
X274590D02*
X274149Y300654D01*
X273854Y300212D01*
X274590D01*
Y300949D01*
D02*
G37*
G36*
X217535D02*
Y300212D01*
X218272D01*
X217977Y300654D01*
X217535Y300949D01*
D02*
G37*
G36*
X215535D02*
X215094Y300654D01*
X214799Y300212D01*
X215535D01*
Y300949D01*
D02*
G37*
G36*
X158480D02*
Y300212D01*
X159217D01*
X158922Y300654D01*
X158480Y300949D01*
D02*
G37*
G36*
X156480D02*
X156039Y300654D01*
X155744Y300212D01*
X156480D01*
Y300949D01*
D02*
G37*
G36*
X354812Y300882D02*
X354075D01*
Y300145D01*
X354517Y300440D01*
X354812Y300882D01*
D02*
G37*
G36*
X352075D02*
X351338D01*
X351633Y300440D01*
X352075Y300145D01*
Y300882D01*
D02*
G37*
G36*
X256737Y299000D02*
X256000D01*
Y298263D01*
X256442Y298558D01*
X256737Y299000D01*
D02*
G37*
G36*
X254000D02*
X253263D01*
X253558Y298558D01*
X254000Y298263D01*
Y299000D01*
D02*
G37*
G36*
X383626Y298212D02*
X382890D01*
Y297476D01*
X383331Y297771D01*
X383626Y298212D01*
D02*
G37*
G36*
X380890D02*
X380153D01*
X380448Y297771D01*
X380890Y297476D01*
Y298212D01*
D02*
G37*
G36*
X324571D02*
X323834D01*
Y297476D01*
X324276Y297771D01*
X324571Y298212D01*
D02*
G37*
G36*
X321834D02*
X321098D01*
X321393Y297771D01*
X321834Y297476D01*
Y298212D01*
D02*
G37*
G36*
X300949D02*
X300212D01*
Y297476D01*
X300654Y297771D01*
X300949Y298212D01*
D02*
G37*
G36*
X298212D02*
X297476D01*
X297771Y297771D01*
X298212Y297476D01*
Y298212D01*
D02*
G37*
G36*
X289138D02*
X288401D01*
Y297476D01*
X288843Y297771D01*
X289138Y298212D01*
D02*
G37*
G36*
X286401D02*
X285665D01*
X285960Y297771D01*
X286401Y297476D01*
Y298212D01*
D02*
G37*
G36*
X277327D02*
X276590D01*
Y297476D01*
X277032Y297771D01*
X277327Y298212D01*
D02*
G37*
G36*
X274590D02*
X273854D01*
X274149Y297771D01*
X274590Y297476D01*
Y298212D01*
D02*
G37*
G36*
X218272D02*
X217535D01*
Y297476D01*
X217977Y297771D01*
X218272Y298212D01*
D02*
G37*
G36*
X215535D02*
X214799D01*
X215094Y297771D01*
X215535Y297476D01*
Y298212D01*
D02*
G37*
G36*
X159217D02*
X158480D01*
Y297476D01*
X158922Y297771D01*
X159217Y298212D01*
D02*
G37*
G36*
X156480D02*
X155744D01*
X156039Y297771D01*
X156480Y297476D01*
Y298212D01*
D02*
G37*
G36*
X135531Y301036D02*
X134683Y300868D01*
X133964Y300387D01*
X133483Y299668D01*
X133314Y298819D01*
X133483Y297970D01*
X133964Y297251D01*
X134683Y296770D01*
X135531Y296602D01*
X136380Y296770D01*
X137100Y297251D01*
X137580Y297970D01*
X137749Y298819D01*
X137580Y299668D01*
X137100Y300387D01*
X136380Y300868D01*
X135531Y301036D01*
D02*
G37*
G36*
X81478Y299376D02*
X78378D01*
Y296276D01*
X81478D01*
Y299376D01*
D02*
G37*
G36*
X76378D02*
X73278D01*
Y296276D01*
X76378D01*
Y299376D01*
D02*
G37*
G36*
X334075Y301921D02*
X333295Y301766D01*
X332633Y301324D01*
X332191Y300662D01*
X332036Y299882D01*
X332191Y299101D01*
X332633Y298440D01*
X333295Y297998D01*
X334075Y297843D01*
X334855Y297998D01*
X335517Y298440D01*
X335731Y298760D01*
X340610D01*
X341111Y298260D01*
X341036Y297882D01*
X341191Y297101D01*
X341633Y296440D01*
X342295Y295998D01*
X343075Y295843D01*
X343855Y295998D01*
X344517Y296440D01*
X344959Y297101D01*
X345114Y297882D01*
X344959Y298662D01*
X344517Y299324D01*
X343855Y299766D01*
X343075Y299921D01*
X342697Y299846D01*
X341868Y300675D01*
X341504Y300918D01*
X341075Y301004D01*
X341075Y301003D01*
X335731D01*
X335517Y301324D01*
X334855Y301766D01*
X334075Y301921D01*
D02*
G37*
G36*
X373154Y299989D02*
X372228Y299805D01*
X371444Y299281D01*
X370919Y298496D01*
X370735Y297571D01*
X370919Y296645D01*
X371444Y295861D01*
X372228Y295337D01*
X373154Y295153D01*
X374079Y295337D01*
X374863Y295861D01*
X375388Y296645D01*
X375572Y297571D01*
X375388Y298496D01*
X374863Y299281D01*
X374079Y299805D01*
X373154Y299989D01*
D02*
G37*
G36*
X180134Y295044D02*
Y294307D01*
X180871D01*
X180576Y294749D01*
X180134Y295044D01*
D02*
G37*
G36*
X178134D02*
X177692Y294749D01*
X177397Y294307D01*
X178134D01*
Y295044D01*
D02*
G37*
G36*
X239189Y293075D02*
Y292339D01*
X239926D01*
X239631Y292780D01*
X239189Y293075D01*
D02*
G37*
G36*
X237189D02*
X236747Y292780D01*
X236452Y292339D01*
X237189D01*
Y293075D01*
D02*
G37*
G36*
X180871Y292307D02*
X180134D01*
Y291570D01*
X180576Y291865D01*
X180871Y292307D01*
D02*
G37*
G36*
X178134D02*
X177397D01*
X177692Y291865D01*
X178134Y291570D01*
Y292307D01*
D02*
G37*
G36*
X81478Y294276D02*
X78378D01*
Y291176D01*
X81478D01*
Y294276D01*
D02*
G37*
G36*
X76378D02*
X73278D01*
Y291176D01*
X76378D01*
Y294276D01*
D02*
G37*
G36*
X67378Y299411D02*
X66308Y299270D01*
X65310Y298857D01*
X64454Y298200D01*
X63797Y297343D01*
X63384Y296346D01*
X63243Y295276D01*
X63384Y294205D01*
X63797Y293208D01*
X64454Y292351D01*
X65310Y291694D01*
X66308Y291281D01*
X67378Y291140D01*
X68448Y291281D01*
X69446Y291694D01*
X70302Y292351D01*
X70959Y293208D01*
X71372Y294205D01*
X71513Y295276D01*
X71372Y296346D01*
X70959Y297343D01*
X70302Y298200D01*
X69446Y298857D01*
X68448Y299270D01*
X67378Y299411D01*
D02*
G37*
G36*
X57378D02*
X56308Y299270D01*
X55310Y298857D01*
X54454Y298200D01*
X53797Y297343D01*
X53383Y296346D01*
X53243Y295276D01*
X53383Y294205D01*
X53797Y293208D01*
X53890Y293086D01*
X49222Y288418D01*
X42141D01*
X42083Y288916D01*
X42381Y289115D01*
X45112Y291846D01*
X45310Y291694D01*
X46308Y291281D01*
X47378Y291140D01*
X48448Y291281D01*
X49446Y291694D01*
X50302Y292351D01*
X50959Y293208D01*
X51372Y294205D01*
X51513Y295276D01*
X51372Y296346D01*
X50959Y297343D01*
X50302Y298200D01*
X49446Y298857D01*
X48448Y299270D01*
X47378Y299411D01*
X46308Y299270D01*
X45310Y298857D01*
X44454Y298200D01*
X43797Y297343D01*
X43383Y296346D01*
X43243Y295276D01*
X43383Y294205D01*
X43797Y293208D01*
X43832Y293162D01*
X41352Y290681D01*
X37724D01*
X37691Y291181D01*
X38448Y291281D01*
X39446Y291694D01*
X40302Y292351D01*
X40959Y293208D01*
X41372Y294205D01*
X41513Y295276D01*
X41372Y296346D01*
X40959Y297343D01*
X40302Y298200D01*
X39446Y298857D01*
X38448Y299270D01*
X37378Y299411D01*
X36308Y299270D01*
X35310Y298857D01*
X34454Y298200D01*
X33797Y297343D01*
X33384Y296346D01*
X33243Y295276D01*
X33384Y294205D01*
X33797Y293208D01*
X34454Y292351D01*
X35310Y291694D01*
X36308Y291281D01*
X37065Y291181D01*
X37032Y290681D01*
X35827D01*
X35476Y290612D01*
X35178Y290413D01*
X33084Y288319D01*
X19509D01*
X19159Y288843D01*
X18497Y289285D01*
X17717Y289441D01*
X16936Y289285D01*
X16275Y288843D01*
X15833Y288182D01*
X15677Y287402D01*
X15833Y286621D01*
X16275Y285960D01*
X16936Y285518D01*
X17717Y285362D01*
X18497Y285518D01*
X19159Y285960D01*
X19509Y286484D01*
X33465D01*
X33816Y286554D01*
X34113Y286753D01*
X36207Y288846D01*
X39060D01*
X39117Y288348D01*
X38820Y288149D01*
X36755Y286084D01*
X36556Y285787D01*
X36486Y285435D01*
Y273446D01*
X35962Y273095D01*
X35520Y272434D01*
X35365Y271654D01*
X35520Y270873D01*
X35962Y270212D01*
X36624Y269770D01*
X37404Y269614D01*
X38184Y269770D01*
X38846Y270212D01*
X39288Y270873D01*
X39443Y271654D01*
X39288Y272434D01*
X38846Y273095D01*
X38322Y273446D01*
Y285055D01*
X39849Y286582D01*
X49602D01*
X49953Y286652D01*
X50251Y286851D01*
X55188Y291788D01*
X55310Y291694D01*
X56308Y291281D01*
X57378Y291140D01*
X58448Y291281D01*
X59446Y291694D01*
X60302Y292351D01*
X60959Y293208D01*
X61372Y294205D01*
X61513Y295276D01*
X61372Y296346D01*
X60959Y297343D01*
X60302Y298200D01*
X59446Y298857D01*
X58448Y299270D01*
X57378Y299411D01*
D02*
G37*
G36*
X27378D02*
X26308Y299270D01*
X25310Y298857D01*
X24454Y298200D01*
X23797Y297343D01*
X23383Y296346D01*
X23243Y295276D01*
X23383Y294205D01*
X23797Y293208D01*
X24454Y292351D01*
X25310Y291694D01*
X26308Y291281D01*
X27378Y291140D01*
X28448Y291281D01*
X29446Y291694D01*
X30302Y292351D01*
X30959Y293208D01*
X31372Y294205D01*
X31513Y295276D01*
X31372Y296346D01*
X30959Y297343D01*
X30302Y298200D01*
X29446Y298857D01*
X28448Y299270D01*
X27378Y299411D01*
D02*
G37*
G36*
X17378D02*
X16308Y299270D01*
X15310Y298857D01*
X14454Y298200D01*
X13797Y297343D01*
X13384Y296346D01*
X13243Y295276D01*
X13384Y294205D01*
X13797Y293208D01*
X14454Y292351D01*
X15310Y291694D01*
X16308Y291281D01*
X17378Y291140D01*
X18448Y291281D01*
X19446Y291694D01*
X20302Y292351D01*
X20959Y293208D01*
X21372Y294205D01*
X21513Y295276D01*
X21372Y296346D01*
X20959Y297343D01*
X20302Y298200D01*
X19446Y298857D01*
X18448Y299270D01*
X17378Y299411D01*
D02*
G37*
G36*
X237500Y306039D02*
X236720Y305884D01*
X236058Y305442D01*
X235616Y304780D01*
X235461Y304000D01*
X235616Y303220D01*
X236058Y302558D01*
X236720Y302116D01*
X237500Y301961D01*
X238118Y302084D01*
X248851Y291351D01*
X249149Y291152D01*
X249500Y291082D01*
X273708D01*
X274058Y290558D01*
X274720Y290116D01*
X275500Y289961D01*
X276280Y290116D01*
X276942Y290558D01*
X277384Y291220D01*
X277539Y292000D01*
X277384Y292780D01*
X276942Y293442D01*
X276280Y293884D01*
X275500Y294039D01*
X274720Y293884D01*
X274058Y293442D01*
X273708Y292918D01*
X249880D01*
X239416Y303382D01*
X239539Y304000D01*
X239384Y304780D01*
X238942Y305442D01*
X238280Y305884D01*
X237500Y306039D01*
D02*
G37*
G36*
X239926Y290339D02*
X239189D01*
Y289602D01*
X239631Y289897D01*
X239926Y290339D01*
D02*
G37*
G36*
X237189D02*
X236452D01*
X236747Y289897D01*
X237189Y289602D01*
Y290339D01*
D02*
G37*
G36*
X135531Y293950D02*
X134683Y293781D01*
X133964Y293300D01*
X133483Y292581D01*
X133314Y291732D01*
X133483Y290884D01*
X133964Y290164D01*
X134683Y289684D01*
X135531Y289515D01*
X136380Y289684D01*
X137100Y290164D01*
X137580Y290884D01*
X137749Y291732D01*
X137580Y292581D01*
X137100Y293300D01*
X136380Y293781D01*
X135531Y293950D01*
D02*
G37*
G36*
X353362Y289138D02*
Y288401D01*
X354099D01*
X353804Y288843D01*
X353362Y289138D01*
D02*
G37*
G36*
X351362D02*
X350920Y288843D01*
X350625Y288401D01*
X351362D01*
Y289138D01*
D02*
G37*
G36*
X341551D02*
Y288401D01*
X342288D01*
X341993Y288843D01*
X341551Y289138D01*
D02*
G37*
G36*
X339551D02*
X339109Y288843D01*
X338814Y288401D01*
X339551D01*
Y289138D01*
D02*
G37*
G36*
X329740D02*
Y288401D01*
X330477D01*
X330182Y288843D01*
X329740Y289138D01*
D02*
G37*
G36*
X327740D02*
X327298Y288843D01*
X327003Y288401D01*
X327740D01*
Y289138D01*
D02*
G37*
G36*
X306118D02*
Y288401D01*
X306855D01*
X306560Y288843D01*
X306118Y289138D01*
D02*
G37*
G36*
X304118D02*
X303676Y288843D01*
X303381Y288401D01*
X304118D01*
Y289138D01*
D02*
G37*
G36*
X294307D02*
Y288401D01*
X295044D01*
X294749Y288843D01*
X294307Y289138D01*
D02*
G37*
G36*
X292307D02*
X291865Y288843D01*
X291570Y288401D01*
X292307D01*
Y289138D01*
D02*
G37*
G36*
X282496D02*
Y288401D01*
X283233D01*
X282938Y288843D01*
X282496Y289138D01*
D02*
G37*
G36*
X280496D02*
X280054Y288843D01*
X279759Y288401D01*
X280496D01*
Y289138D01*
D02*
G37*
G36*
X211630D02*
Y288401D01*
X212367D01*
X212071Y288843D01*
X211630Y289138D01*
D02*
G37*
G36*
X209630D02*
X209188Y288843D01*
X208893Y288401D01*
X209630D01*
Y289138D01*
D02*
G37*
G36*
X152575D02*
Y288401D01*
X153311D01*
X153016Y288843D01*
X152575Y289138D01*
D02*
G37*
G36*
X150575D02*
X150133Y288843D01*
X149838Y288401D01*
X150575D01*
Y289138D01*
D02*
G37*
G36*
X93520D02*
Y288401D01*
X94256D01*
X93961Y288843D01*
X93520Y289138D01*
D02*
G37*
G36*
X91520D02*
X91078Y288843D01*
X90783Y288401D01*
X91520D01*
Y289138D01*
D02*
G37*
G36*
X81709D02*
Y288401D01*
X82445D01*
X82150Y288843D01*
X81709Y289138D01*
D02*
G37*
G36*
X79709D02*
X79267Y288843D01*
X78972Y288401D01*
X79709D01*
Y289138D01*
D02*
G37*
G36*
X354099Y286401D02*
X353362D01*
Y285665D01*
X353804Y285960D01*
X354099Y286401D01*
D02*
G37*
G36*
X351362D02*
X350625D01*
X350920Y285960D01*
X351362Y285665D01*
Y286401D01*
D02*
G37*
G36*
X342288D02*
X341551D01*
Y285665D01*
X341993Y285960D01*
X342288Y286401D01*
D02*
G37*
G36*
X339551D02*
X338814D01*
X339109Y285960D01*
X339551Y285665D01*
Y286401D01*
D02*
G37*
G36*
X330477D02*
X329740D01*
Y285665D01*
X330182Y285960D01*
X330477Y286401D01*
D02*
G37*
G36*
X327740D02*
X327003D01*
X327298Y285960D01*
X327740Y285665D01*
Y286401D01*
D02*
G37*
G36*
X306855D02*
X306118D01*
Y285665D01*
X306560Y285960D01*
X306855Y286401D01*
D02*
G37*
G36*
X304118D02*
X303381D01*
X303676Y285960D01*
X304118Y285665D01*
Y286401D01*
D02*
G37*
G36*
X295044D02*
X294307D01*
Y285665D01*
X294749Y285960D01*
X295044Y286401D01*
D02*
G37*
G36*
X292307D02*
X291570D01*
X291865Y285960D01*
X292307Y285665D01*
Y286401D01*
D02*
G37*
G36*
X283233D02*
X282496D01*
Y285665D01*
X282938Y285960D01*
X283233Y286401D01*
D02*
G37*
G36*
X280496D02*
X279759D01*
X280054Y285960D01*
X280496Y285665D01*
Y286401D01*
D02*
G37*
G36*
X212367D02*
X211630D01*
Y285665D01*
X212071Y285960D01*
X212367Y286401D01*
D02*
G37*
G36*
X209630D02*
X208893D01*
X209188Y285960D01*
X209630Y285665D01*
Y286401D01*
D02*
G37*
G36*
X153311D02*
X152575D01*
Y285665D01*
X153016Y285960D01*
X153311Y286401D01*
D02*
G37*
G36*
X150575D02*
X149838D01*
X150133Y285960D01*
X150575Y285665D01*
Y286401D01*
D02*
G37*
G36*
X94256D02*
X93520D01*
Y285665D01*
X93961Y285960D01*
X94256Y286401D01*
D02*
G37*
G36*
X91520D02*
X90783D01*
X91078Y285960D01*
X91520Y285665D01*
Y286401D01*
D02*
G37*
G36*
X82445D02*
X81709D01*
Y285665D01*
X82150Y285960D01*
X82445Y286401D01*
D02*
G37*
G36*
X79709D02*
X78972D01*
X79267Y285960D01*
X79709Y285665D01*
Y286401D01*
D02*
G37*
G36*
X223500Y292039D02*
X222720Y291884D01*
X222058Y291442D01*
X221616Y290780D01*
X221461Y290000D01*
X221616Y289220D01*
X222058Y288558D01*
X222720Y288116D01*
X222817Y288097D01*
X224207Y286707D01*
X224571Y286464D01*
X225000Y286378D01*
X225000Y286379D01*
X230344D01*
X230558Y286058D01*
X231220Y285616D01*
X232000Y285461D01*
X232780Y285616D01*
X233442Y286058D01*
X233884Y286720D01*
X234039Y287500D01*
X233884Y288280D01*
X233442Y288942D01*
X232780Y289384D01*
X232000Y289539D01*
X231220Y289384D01*
X230558Y288942D01*
X230344Y288621D01*
X225577D01*
X225262Y289038D01*
X225384Y289220D01*
X225539Y290000D01*
X225384Y290780D01*
X224942Y291442D01*
X224280Y291884D01*
X223500Y292039D01*
D02*
G37*
G36*
X183500Y285779D02*
X182720Y285624D01*
X182058Y285182D01*
X181616Y284521D01*
X181461Y283740D01*
X181616Y282960D01*
X182058Y282298D01*
X182720Y281856D01*
X183500Y281701D01*
X184118Y281824D01*
X185891Y280051D01*
X186189Y279852D01*
X186540Y279782D01*
X189623D01*
X189973Y279258D01*
X190635Y278816D01*
X191415Y278661D01*
X192195Y278816D01*
X192857Y279258D01*
X193299Y279920D01*
X193454Y280700D01*
X193299Y281480D01*
X192857Y282142D01*
X192195Y282584D01*
X191415Y282739D01*
X190635Y282584D01*
X189973Y282142D01*
X189623Y281618D01*
X186920D01*
X185416Y283122D01*
X185539Y283740D01*
X185384Y284521D01*
X184942Y285182D01*
X184280Y285624D01*
X183500Y285779D01*
D02*
G37*
G36*
X282622Y279736D02*
X281842Y279581D01*
X281180Y279139D01*
X280738Y278477D01*
X280711Y278340D01*
X280471Y278188D01*
X279914Y278426D01*
X279904Y278477D01*
X279462Y279139D01*
X278800Y279581D01*
X278020Y279736D01*
X277239Y279581D01*
X276578Y279139D01*
X276136Y278477D01*
X275980Y277697D01*
X276103Y277079D01*
X267652Y268627D01*
X266646Y268495D01*
X265649Y268081D01*
X264792Y267424D01*
X264135Y266568D01*
X263722Y265570D01*
X263581Y264500D01*
X263722Y263430D01*
X264135Y262432D01*
X264792Y261576D01*
X265649Y260919D01*
X266646Y260506D01*
X267717Y260365D01*
X268787Y260506D01*
X269784Y260919D01*
X270641Y261576D01*
X271298Y262432D01*
X271711Y263430D01*
X271852Y264500D01*
X271711Y265570D01*
X271298Y266568D01*
X270641Y267424D01*
X270138Y267810D01*
X270094Y268474D01*
X277188Y275568D01*
X277437Y275505D01*
X277590Y274951D01*
X276635Y273995D01*
X276436Y273698D01*
X276366Y273346D01*
Y268378D01*
X275649Y268081D01*
X274792Y267424D01*
X274135Y266568D01*
X273722Y265570D01*
X273581Y264500D01*
X273722Y263430D01*
X274135Y262432D01*
X274792Y261576D01*
X275649Y260919D01*
X276646Y260506D01*
X277716Y260365D01*
X278787Y260506D01*
X279784Y260919D01*
X280641Y261576D01*
X281298Y262432D01*
X281711Y263430D01*
X281852Y264500D01*
X281711Y265570D01*
X281298Y266568D01*
X280641Y267424D01*
X279784Y268081D01*
X278787Y268495D01*
X278201Y268572D01*
Y272966D01*
X281366Y276131D01*
X281842Y275813D01*
X282622Y275658D01*
X283402Y275813D01*
X284064Y276255D01*
X284506Y276917D01*
X284661Y277697D01*
X284506Y278477D01*
X284064Y279139D01*
X283402Y279581D01*
X282622Y279736D01*
D02*
G37*
G36*
X170500Y279205D02*
X169720Y279049D01*
X169058Y278607D01*
X168708Y278083D01*
X161910D01*
X161560Y278607D01*
X160898Y279049D01*
X160118Y279205D01*
X159338Y279049D01*
X158676Y278607D01*
X158234Y277946D01*
X158079Y277165D01*
X158234Y276385D01*
X158676Y275723D01*
X159338Y275281D01*
X160118Y275126D01*
X160898Y275281D01*
X161560Y275723D01*
X161910Y276248D01*
X168708D01*
X169058Y275723D01*
X169720Y275281D01*
X170500Y275126D01*
X171280Y275281D01*
X171942Y275723D01*
X172384Y276385D01*
X172539Y277165D01*
X172384Y277946D01*
X171942Y278607D01*
X171280Y279049D01*
X170500Y279205D01*
D02*
G37*
G36*
X217535Y277327D02*
Y276590D01*
X218272D01*
X217977Y277032D01*
X217535Y277327D01*
D02*
G37*
G36*
X215535D02*
X215094Y277032D01*
X214799Y276590D01*
X215535D01*
Y277327D01*
D02*
G37*
G36*
X146669D02*
Y276590D01*
X147406D01*
X147111Y277032D01*
X146669Y277327D01*
D02*
G37*
G36*
X144669D02*
X144228Y277032D01*
X143932Y276590D01*
X144669D01*
Y277327D01*
D02*
G37*
G36*
X16748D02*
Y276590D01*
X17485D01*
X17190Y277032D01*
X16748Y277327D01*
D02*
G37*
G36*
X14748D02*
X14306Y277032D01*
X14011Y276590D01*
X14748D01*
Y277327D01*
D02*
G37*
G36*
X165236Y275539D02*
X164456Y275384D01*
X163794Y274942D01*
X163352Y274280D01*
X163280Y273918D01*
X159273D01*
X158922Y274442D01*
X158261Y274884D01*
X157480Y275039D01*
X156700Y274884D01*
X156038Y274442D01*
X155596Y273780D01*
X155441Y273000D01*
X155596Y272220D01*
X156038Y271558D01*
X156700Y271116D01*
X157480Y270961D01*
X158261Y271116D01*
X158922Y271558D01*
X159273Y272082D01*
X163778D01*
X163794Y272058D01*
X164456Y271616D01*
X165236Y271461D01*
X166017Y271616D01*
X166678Y272058D01*
X167120Y272720D01*
X167275Y273500D01*
X167120Y274280D01*
X166678Y274942D01*
X166017Y275384D01*
X165236Y275539D01*
D02*
G37*
G36*
X218272Y274590D02*
X217535D01*
Y273854D01*
X217977Y274149D01*
X218272Y274590D01*
D02*
G37*
G36*
X215535D02*
X214799D01*
X215094Y274149D01*
X215535Y273854D01*
Y274590D01*
D02*
G37*
G36*
X147406D02*
X146669D01*
Y273854D01*
X147111Y274149D01*
X147406Y274590D01*
D02*
G37*
G36*
X144669D02*
X143932D01*
X144228Y274149D01*
X144669Y273854D01*
Y274590D01*
D02*
G37*
G36*
X17485D02*
X16748D01*
Y273854D01*
X17190Y274149D01*
X17485Y274590D01*
D02*
G37*
G36*
X14748D02*
X14011D01*
X14306Y274149D01*
X14748Y273854D01*
Y274590D01*
D02*
G37*
G36*
X114336Y281659D02*
X106136D01*
Y273459D01*
X114336D01*
Y281659D01*
D02*
G37*
G36*
X100236Y281695D02*
X99166Y281554D01*
X98168Y281140D01*
X97312Y280483D01*
X96655Y279627D01*
X96242Y278629D01*
X96101Y277559D01*
X96242Y276489D01*
X96655Y275491D01*
X97312Y274635D01*
X98168Y273978D01*
X99166Y273565D01*
X100236Y273424D01*
X101306Y273565D01*
X102304Y273978D01*
X103160Y274635D01*
X103818Y275491D01*
X104231Y276489D01*
X104372Y277559D01*
X104231Y278629D01*
X103818Y279627D01*
X103160Y280483D01*
X102304Y281140D01*
X101306Y281554D01*
X100236Y281695D01*
D02*
G37*
G36*
X234500Y281539D02*
X233720Y281384D01*
X233058Y280942D01*
X232616Y280280D01*
X232461Y279500D01*
X232616Y278720D01*
X233058Y278058D01*
X233582Y277708D01*
Y276753D01*
X233652Y276401D01*
X233851Y276104D01*
X234055Y275900D01*
X233910Y275422D01*
X233720Y275384D01*
X233058Y274942D01*
X232616Y274280D01*
X232461Y273500D01*
X232616Y272720D01*
X233058Y272058D01*
X233720Y271616D01*
X234500Y271461D01*
X235118Y271584D01*
X235782Y270920D01*
Y269092D01*
X235558Y268942D01*
X235116Y268280D01*
X234961Y267500D01*
X235116Y266720D01*
X235214Y266572D01*
X234979Y266131D01*
X232158D01*
X231780Y266384D01*
X231000Y266539D01*
X230220Y266384D01*
X229558Y265942D01*
X229116Y265280D01*
X228961Y264500D01*
X229116Y263720D01*
X229558Y263058D01*
X230220Y262616D01*
X231000Y262461D01*
X231780Y262616D01*
X232158Y262869D01*
X242500D01*
X243124Y262993D01*
X243653Y263347D01*
X244834Y264527D01*
X245280Y264616D01*
X245942Y265058D01*
X246384Y265720D01*
X246539Y266500D01*
X246384Y267280D01*
X245942Y267942D01*
X245280Y268384D01*
X244500Y268539D01*
X243720Y268384D01*
X243058Y267942D01*
X242616Y267280D01*
X242527Y266834D01*
X241824Y266131D01*
X239021D01*
X238786Y266572D01*
X238884Y266720D01*
X239039Y267500D01*
X238944Y267979D01*
X238986Y268338D01*
X239307Y268522D01*
X239780Y268616D01*
X240442Y269058D01*
X240884Y269720D01*
X241039Y270500D01*
X241013Y270634D01*
X241366Y270987D01*
X241500Y270961D01*
X242280Y271116D01*
X242942Y271558D01*
X243384Y272220D01*
X243539Y273000D01*
X243384Y273780D01*
X242942Y274442D01*
X242280Y274884D01*
X241500Y275039D01*
X240882Y274916D01*
X239761Y276036D01*
X239884Y276220D01*
X240039Y277000D01*
X239884Y277780D01*
X239442Y278442D01*
X238780Y278884D01*
X238000Y279039D01*
X237220Y278884D01*
X236881Y278658D01*
X236432Y278959D01*
X236539Y279500D01*
X236384Y280280D01*
X235942Y280942D01*
X235280Y281384D01*
X234500Y281539D01*
D02*
G37*
G36*
X309055Y275039D02*
X308275Y274884D01*
X307613Y274442D01*
X307171Y273780D01*
X307016Y273000D01*
X307171Y272220D01*
X307613Y271558D01*
X307732Y271479D01*
X307795Y270835D01*
X305150Y268191D01*
X304417Y268495D01*
X303346Y268635D01*
X302276Y268495D01*
X301279Y268081D01*
X300422Y267424D01*
X299765Y266568D01*
X299352Y265570D01*
X299211Y264500D01*
X299352Y263430D01*
X299765Y262432D01*
X300422Y261576D01*
X301279Y260919D01*
X302276Y260506D01*
X303346Y260365D01*
X304417Y260506D01*
X305414Y260919D01*
X306271Y261576D01*
X306928Y262432D01*
X307341Y263430D01*
X307482Y264500D01*
X307341Y265570D01*
X306928Y266568D01*
X306578Y267023D01*
X309704Y270149D01*
X309903Y270446D01*
X309973Y270798D01*
Y271208D01*
X310497Y271558D01*
X310939Y272220D01*
X311094Y273000D01*
X310939Y273780D01*
X310497Y274442D01*
X309836Y274884D01*
X309055Y275039D01*
D02*
G37*
G36*
X367446Y268600D02*
X364347D01*
Y265500D01*
X367446D01*
Y268600D01*
D02*
G37*
G36*
X362347D02*
X359246D01*
Y265500D01*
X362347D01*
Y268600D01*
D02*
G37*
G36*
X286717D02*
X283616D01*
Y265500D01*
X286717D01*
Y268600D01*
D02*
G37*
G36*
X294307Y265516D02*
Y264779D01*
X295044D01*
X294749Y265221D01*
X294307Y265516D01*
D02*
G37*
G36*
X176197D02*
Y264779D01*
X176934D01*
X176638Y265221D01*
X176197Y265516D01*
D02*
G37*
G36*
X174197D02*
X173755Y265221D01*
X173460Y264779D01*
X174197D01*
Y265516D01*
D02*
G37*
G36*
X105331D02*
Y264779D01*
X106067D01*
X105772Y265221D01*
X105331Y265516D01*
D02*
G37*
G36*
X103331D02*
X102889Y265221D01*
X102594Y264779D01*
X103331D01*
Y265516D01*
D02*
G37*
G36*
X81709D02*
Y264779D01*
X82445D01*
X82150Y265221D01*
X81709Y265516D01*
D02*
G37*
G36*
X79709D02*
X79267Y265221D01*
X78972Y264779D01*
X79709D01*
Y265516D01*
D02*
G37*
G36*
X69898D02*
Y264779D01*
X70634D01*
X70339Y265221D01*
X69898Y265516D01*
D02*
G37*
G36*
X67898D02*
X67456Y265221D01*
X67161Y264779D01*
X67898D01*
Y265516D01*
D02*
G37*
G36*
X58087D02*
Y264779D01*
X58823D01*
X58528Y265221D01*
X58087Y265516D01*
D02*
G37*
G36*
X56086D02*
X55645Y265221D01*
X55350Y264779D01*
X56086D01*
Y265516D01*
D02*
G37*
G36*
X46275D02*
Y264779D01*
X47012D01*
X46717Y265221D01*
X46275Y265516D01*
D02*
G37*
G36*
X44276D02*
X43834Y265221D01*
X43539Y264779D01*
X44276D01*
Y265516D01*
D02*
G37*
G36*
X34464D02*
Y264779D01*
X35201D01*
X34906Y265221D01*
X34464Y265516D01*
D02*
G37*
G36*
X32465D02*
X32023Y265221D01*
X31728Y264779D01*
X32465D01*
Y265516D01*
D02*
G37*
G36*
X22654D02*
Y264779D01*
X23390D01*
X23095Y265221D01*
X22654Y265516D01*
D02*
G37*
G36*
X20653D02*
X20212Y265221D01*
X19917Y264779D01*
X20653D01*
Y265516D01*
D02*
G37*
G36*
X295044Y262779D02*
X294307D01*
Y262043D01*
X294749Y262338D01*
X295044Y262779D01*
D02*
G37*
G36*
X176934D02*
X176197D01*
Y262043D01*
X176638Y262338D01*
X176934Y262779D01*
D02*
G37*
G36*
X174197D02*
X173460D01*
X173755Y262338D01*
X174197Y262043D01*
Y262779D01*
D02*
G37*
G36*
X106067D02*
X105331D01*
Y262043D01*
X105772Y262338D01*
X106067Y262779D01*
D02*
G37*
G36*
X103331D02*
X102594D01*
X102889Y262338D01*
X103331Y262043D01*
Y262779D01*
D02*
G37*
G36*
X82445D02*
X81709D01*
Y262043D01*
X82150Y262338D01*
X82445Y262779D01*
D02*
G37*
G36*
X79709D02*
X78972D01*
X79267Y262338D01*
X79709Y262043D01*
Y262779D01*
D02*
G37*
G36*
X70634D02*
X69898D01*
Y262043D01*
X70339Y262338D01*
X70634Y262779D01*
D02*
G37*
G36*
X67898D02*
X67161D01*
X67456Y262338D01*
X67898Y262043D01*
Y262779D01*
D02*
G37*
G36*
X58823D02*
X58087D01*
Y262043D01*
X58528Y262338D01*
X58823Y262779D01*
D02*
G37*
G36*
X56086D02*
X55350D01*
X55645Y262338D01*
X56086Y262043D01*
Y262779D01*
D02*
G37*
G36*
X47012D02*
X46275D01*
Y262043D01*
X46717Y262338D01*
X47012Y262779D01*
D02*
G37*
G36*
X44276D02*
X43539D01*
X43834Y262338D01*
X44276Y262043D01*
Y262779D01*
D02*
G37*
G36*
X35201D02*
X34464D01*
Y262043D01*
X34906Y262338D01*
X35201Y262779D01*
D02*
G37*
G36*
X32465D02*
X31728D01*
X32023Y262338D01*
X32465Y262043D01*
Y262779D01*
D02*
G37*
G36*
X23390D02*
X22654D01*
Y262043D01*
X23095Y262338D01*
X23390Y262779D01*
D02*
G37*
G36*
X20653D02*
X19917D01*
X20212Y262338D01*
X20653Y262043D01*
Y262779D01*
D02*
G37*
G36*
X143864Y263943D02*
X140764D01*
Y260842D01*
X143864D01*
Y263943D01*
D02*
G37*
G36*
X138764D02*
X135664D01*
Y260842D01*
X138764D01*
Y263943D01*
D02*
G37*
G36*
X367446Y263500D02*
X364347D01*
Y260400D01*
X367446D01*
Y263500D01*
D02*
G37*
G36*
X362347D02*
X359246D01*
Y260400D01*
X362347D01*
Y263500D01*
D02*
G37*
G36*
X291816Y268600D02*
X288717D01*
Y264500D01*
Y260400D01*
X291816D01*
Y261769D01*
X292307Y262031D01*
Y263779D01*
Y265528D01*
X291816Y265790D01*
Y268600D01*
D02*
G37*
G36*
X286717Y263500D02*
X283616D01*
Y260400D01*
X286717D01*
Y263500D01*
D02*
G37*
G36*
X353346Y268635D02*
X352276Y268495D01*
X351279Y268081D01*
X350422Y267424D01*
X349765Y266568D01*
X349352Y265570D01*
X349211Y264500D01*
X349352Y263430D01*
X349765Y262432D01*
X350422Y261576D01*
X351279Y260919D01*
X352276Y260506D01*
X353346Y260365D01*
X354417Y260506D01*
X355414Y260919D01*
X356271Y261576D01*
X356928Y262432D01*
X357341Y263430D01*
X357482Y264500D01*
X357341Y265570D01*
X356928Y266568D01*
X356271Y267424D01*
X355414Y268081D01*
X354417Y268495D01*
X353346Y268635D01*
D02*
G37*
G36*
X343347Y273693D02*
X342566Y273537D01*
X341904Y273095D01*
X341462Y272434D01*
X341307Y271654D01*
X341462Y270873D01*
X341904Y270212D01*
X342429Y269861D01*
Y268515D01*
X342276Y268495D01*
X341279Y268081D01*
X340422Y267424D01*
X339765Y266568D01*
X339352Y265570D01*
X339211Y264500D01*
X339352Y263430D01*
X339765Y262432D01*
X340422Y261576D01*
X341279Y260919D01*
X342276Y260506D01*
X343347Y260365D01*
X344417Y260506D01*
X345414Y260919D01*
X346271Y261576D01*
X346928Y262432D01*
X347341Y263430D01*
X347482Y264500D01*
X347341Y265570D01*
X346928Y266568D01*
X346271Y267424D01*
X345414Y268081D01*
X344417Y268495D01*
X344264Y268515D01*
Y269861D01*
X344788Y270212D01*
X345230Y270873D01*
X345386Y271654D01*
X345230Y272434D01*
X344788Y273095D01*
X344127Y273537D01*
X343347Y273693D01*
D02*
G37*
G36*
X333347Y268635D02*
X332276Y268495D01*
X331279Y268081D01*
X330422Y267424D01*
X329765Y266568D01*
X329352Y265570D01*
X329211Y264500D01*
X329352Y263430D01*
X329765Y262432D01*
X330422Y261576D01*
X331279Y260919D01*
X332276Y260506D01*
X333347Y260365D01*
X334417Y260506D01*
X335414Y260919D01*
X336271Y261576D01*
X336928Y262432D01*
X337341Y263430D01*
X337482Y264500D01*
X337341Y265570D01*
X336928Y266568D01*
X336271Y267424D01*
X335414Y268081D01*
X334417Y268495D01*
X333347Y268635D01*
D02*
G37*
G36*
X323307Y277673D02*
X322527Y277517D01*
X321865Y277075D01*
X321423Y276414D01*
X321268Y275633D01*
X321423Y274853D01*
X321865Y274191D01*
X322390Y273841D01*
Y268509D01*
X322276Y268495D01*
X321279Y268081D01*
X320422Y267424D01*
X319765Y266568D01*
X319352Y265570D01*
X319211Y264500D01*
X319352Y263430D01*
X319765Y262432D01*
X320422Y261576D01*
X321279Y260919D01*
X322276Y260506D01*
X323346Y260365D01*
X324417Y260506D01*
X325414Y260919D01*
X326271Y261576D01*
X326928Y262432D01*
X327341Y263430D01*
X327482Y264500D01*
X327341Y265570D01*
X326928Y266568D01*
X326271Y267424D01*
X325414Y268081D01*
X324417Y268495D01*
X324225Y268520D01*
Y273841D01*
X324749Y274191D01*
X325191Y274853D01*
X325346Y275633D01*
X325191Y276414D01*
X324749Y277075D01*
X324087Y277517D01*
X323307Y277673D01*
D02*
G37*
G36*
X143864Y258842D02*
X140764D01*
Y255743D01*
X143864D01*
Y258842D01*
D02*
G37*
G36*
X138764D02*
X135664D01*
Y255743D01*
X138764D01*
Y258842D01*
D02*
G37*
G36*
X129764Y263978D02*
X128693Y263837D01*
X127696Y263424D01*
X126840Y262767D01*
X126182Y261910D01*
X125769Y260913D01*
X125628Y259842D01*
X125769Y258772D01*
X126182Y257775D01*
X126840Y256918D01*
X127696Y256261D01*
X128693Y255848D01*
X129764Y255707D01*
X130834Y255848D01*
X131832Y256261D01*
X132688Y256918D01*
X133345Y257775D01*
X133758Y258772D01*
X133899Y259842D01*
X133758Y260913D01*
X133345Y261910D01*
X132688Y262767D01*
X131832Y263424D01*
X130834Y263837D01*
X129764Y263978D01*
D02*
G37*
G36*
X258500Y263039D02*
X257720Y262884D01*
X257058Y262442D01*
X256708Y261918D01*
X256000D01*
X255649Y261848D01*
X255351Y261649D01*
X246120Y252418D01*
X219292D01*
X218942Y252942D01*
X218280Y253384D01*
X217500Y253539D01*
X216720Y253384D01*
X216058Y252942D01*
X215616Y252280D01*
X215461Y251500D01*
X215616Y250720D01*
X216058Y250058D01*
X216720Y249616D01*
X217500Y249461D01*
X218280Y249616D01*
X218942Y250058D01*
X219292Y250582D01*
X220051D01*
X220318Y250082D01*
X220116Y249780D01*
X219961Y249000D01*
X220116Y248220D01*
X220558Y247558D01*
X221220Y247116D01*
X222000Y246961D01*
X222780Y247116D01*
X223442Y247558D01*
X223792Y248082D01*
X248500D01*
X248851Y248152D01*
X249149Y248351D01*
X256382Y255584D01*
X257000Y255461D01*
X257780Y255616D01*
X258442Y256058D01*
X258884Y256720D01*
X259039Y257500D01*
X258884Y258280D01*
X258738Y258498D01*
X258968Y259054D01*
X259280Y259116D01*
X259942Y259558D01*
X260384Y260220D01*
X260539Y261000D01*
X260384Y261780D01*
X259942Y262442D01*
X259280Y262884D01*
X258500Y263039D01*
D02*
G37*
G36*
X313347Y268635D02*
X312276Y268495D01*
X311279Y268081D01*
X310422Y267424D01*
X309765Y266568D01*
X309352Y265570D01*
X309211Y264500D01*
X309352Y263430D01*
X309765Y262432D01*
X310422Y261576D01*
X311279Y260919D01*
X311980Y260628D01*
Y257048D01*
X311456Y256698D01*
X311014Y256036D01*
X310858Y255256D01*
X311014Y254475D01*
X311456Y253814D01*
X312117Y253372D01*
X312898Y253217D01*
X313678Y253372D01*
X314340Y253814D01*
X314782Y254475D01*
X314937Y255256D01*
X314782Y256036D01*
X314340Y256698D01*
X313815Y257048D01*
Y260426D01*
X314417Y260506D01*
X315414Y260919D01*
X316271Y261576D01*
X316928Y262432D01*
X317341Y263430D01*
X317482Y264500D01*
X317341Y265570D01*
X316928Y266568D01*
X316271Y267424D01*
X315414Y268081D01*
X314417Y268495D01*
X313347Y268635D01*
D02*
G37*
G36*
X380890Y253705D02*
X380448Y253410D01*
X380153Y252968D01*
X380890D01*
Y253705D01*
D02*
G37*
G36*
X371079D02*
Y252968D01*
X371815D01*
X371520Y253410D01*
X371079Y253705D01*
D02*
G37*
G36*
X369079D02*
X368637Y253410D01*
X368342Y252968D01*
X369079D01*
Y253705D01*
D02*
G37*
G36*
X359267D02*
Y252968D01*
X360004D01*
X359709Y253410D01*
X359267Y253705D01*
D02*
G37*
G36*
X357267D02*
X356826Y253410D01*
X356531Y252968D01*
X357267D01*
Y253705D01*
D02*
G37*
G36*
X347457D02*
Y252968D01*
X348193D01*
X347898Y253410D01*
X347457Y253705D01*
D02*
G37*
G36*
X345457D02*
X345015Y253410D01*
X344720Y252968D01*
X345457D01*
Y253705D01*
D02*
G37*
G36*
X158480D02*
Y252968D01*
X159217D01*
X158922Y253410D01*
X158480Y253705D01*
D02*
G37*
G36*
X156480D02*
X156039Y253410D01*
X155744Y252968D01*
X156480D01*
Y253705D01*
D02*
G37*
G36*
X146669D02*
Y252968D01*
X147406D01*
X147111Y253410D01*
X146669Y253705D01*
D02*
G37*
G36*
X144669D02*
X144228Y253410D01*
X143932Y252968D01*
X144669D01*
Y253705D01*
D02*
G37*
G36*
X134858D02*
Y252968D01*
X135595D01*
X135300Y253410D01*
X134858Y253705D01*
D02*
G37*
G36*
X132858D02*
X132416Y253410D01*
X132122Y252968D01*
X132858D01*
Y253705D01*
D02*
G37*
G36*
X75803D02*
Y252968D01*
X76540D01*
X76245Y253410D01*
X75803Y253705D01*
D02*
G37*
G36*
X73803D02*
X73361Y253410D01*
X73066Y252968D01*
X73803D01*
Y253705D01*
D02*
G37*
G36*
X63992D02*
Y252968D01*
X64729D01*
X64434Y253410D01*
X63992Y253705D01*
D02*
G37*
G36*
X61992D02*
X61550Y253410D01*
X61255Y252968D01*
X61992D01*
Y253705D01*
D02*
G37*
G36*
X52181D02*
Y252968D01*
X52918D01*
X52623Y253410D01*
X52181Y253705D01*
D02*
G37*
G36*
X50181D02*
X49739Y253410D01*
X49444Y252968D01*
X50181D01*
Y253705D01*
D02*
G37*
G36*
X40370D02*
Y252968D01*
X41107D01*
X40812Y253410D01*
X40370Y253705D01*
D02*
G37*
G36*
X38370D02*
X37928Y253410D01*
X37633Y252968D01*
X38370D01*
Y253705D01*
D02*
G37*
G36*
X28559D02*
Y252968D01*
X29296D01*
X29001Y253410D01*
X28559Y253705D01*
D02*
G37*
G36*
X26559D02*
X26117Y253410D01*
X25822Y252968D01*
X26559D01*
Y253705D01*
D02*
G37*
G36*
X16748D02*
Y252968D01*
X17485D01*
X17190Y253410D01*
X16748Y253705D01*
D02*
G37*
G36*
X14748D02*
X14306Y253410D01*
X14011Y252968D01*
X14748D01*
Y253705D01*
D02*
G37*
G36*
X380890Y250968D02*
X380153D01*
X380448Y250527D01*
X380890Y250232D01*
Y250968D01*
D02*
G37*
G36*
X371815D02*
X371079D01*
Y250232D01*
X371520Y250527D01*
X371815Y250968D01*
D02*
G37*
G36*
X369079D02*
X368342D01*
X368637Y250527D01*
X369079Y250232D01*
Y250968D01*
D02*
G37*
G36*
X360004D02*
X359267D01*
Y250232D01*
X359709Y250527D01*
X360004Y250968D01*
D02*
G37*
G36*
X357267D02*
X356531D01*
X356826Y250527D01*
X357267Y250232D01*
Y250968D01*
D02*
G37*
G36*
X348193D02*
X347457D01*
Y250232D01*
X347898Y250527D01*
X348193Y250968D01*
D02*
G37*
G36*
X345457D02*
X344720D01*
X345015Y250527D01*
X345457Y250232D01*
Y250968D01*
D02*
G37*
G36*
X159217D02*
X158480D01*
Y250232D01*
X158922Y250527D01*
X159217Y250968D01*
D02*
G37*
G36*
X156480D02*
X155744D01*
X156039Y250527D01*
X156480Y250232D01*
Y250968D01*
D02*
G37*
G36*
X147406D02*
X146669D01*
Y250232D01*
X147111Y250527D01*
X147406Y250968D01*
D02*
G37*
G36*
X144669D02*
X143932D01*
X144228Y250527D01*
X144669Y250232D01*
Y250968D01*
D02*
G37*
G36*
X135595D02*
X134858D01*
Y250232D01*
X135300Y250527D01*
X135595Y250968D01*
D02*
G37*
G36*
X132858D02*
X132122D01*
X132416Y250527D01*
X132858Y250232D01*
Y250968D01*
D02*
G37*
G36*
X76540D02*
X75803D01*
Y250232D01*
X76245Y250527D01*
X76540Y250968D01*
D02*
G37*
G36*
X73803D02*
X73066D01*
X73361Y250527D01*
X73803Y250232D01*
Y250968D01*
D02*
G37*
G36*
X64729D02*
X63992D01*
Y250232D01*
X64434Y250527D01*
X64729Y250968D01*
D02*
G37*
G36*
X61992D02*
X61255D01*
X61550Y250527D01*
X61992Y250232D01*
Y250968D01*
D02*
G37*
G36*
X52918D02*
X52181D01*
Y250232D01*
X52623Y250527D01*
X52918Y250968D01*
D02*
G37*
G36*
X50181D02*
X49444D01*
X49739Y250527D01*
X50181Y250232D01*
Y250968D01*
D02*
G37*
G36*
X41107D02*
X40370D01*
Y250232D01*
X40812Y250527D01*
X41107Y250968D01*
D02*
G37*
G36*
X38370D02*
X37633D01*
X37928Y250527D01*
X38370Y250232D01*
Y250968D01*
D02*
G37*
G36*
X29296D02*
X28559D01*
Y250232D01*
X29001Y250527D01*
X29296Y250968D01*
D02*
G37*
G36*
X26559D02*
X25822D01*
X26117Y250527D01*
X26559Y250232D01*
Y250968D01*
D02*
G37*
G36*
X17485D02*
X16748D01*
Y250232D01*
X17190Y250527D01*
X17485Y250968D01*
D02*
G37*
G36*
X14748D02*
X14011D01*
X14306Y250527D01*
X14748Y250232D01*
Y250968D01*
D02*
G37*
G36*
X135531Y247887D02*
X134683Y247718D01*
X133964Y247237D01*
X133483Y246518D01*
X133314Y245669D01*
X133483Y244821D01*
X133964Y244101D01*
X134683Y243621D01*
X135531Y243452D01*
X136380Y243621D01*
X137100Y244101D01*
X137580Y244821D01*
X137749Y245669D01*
X137580Y246518D01*
X137100Y247237D01*
X136380Y247718D01*
X135531Y247887D01*
D02*
G37*
G36*
X188008Y241894D02*
Y241157D01*
X188744D01*
X188449Y241599D01*
X188008Y241894D01*
D02*
G37*
G36*
X186008D02*
X185566Y241599D01*
X185271Y241157D01*
X186008D01*
Y241894D01*
D02*
G37*
G36*
X176197D02*
Y241157D01*
X176934D01*
X176638Y241599D01*
X176197Y241894D01*
D02*
G37*
G36*
X174197D02*
X173755Y241599D01*
X173460Y241157D01*
X174197D01*
Y241894D01*
D02*
G37*
G36*
X164386D02*
Y241157D01*
X165122D01*
X164827Y241599D01*
X164386Y241894D01*
D02*
G37*
G36*
X162386D02*
X161944Y241599D01*
X161649Y241157D01*
X162386D01*
Y241894D01*
D02*
G37*
G36*
X140764D02*
Y241157D01*
X141500D01*
X141205Y241599D01*
X140764Y241894D01*
D02*
G37*
G36*
X117142D02*
Y241157D01*
X117878D01*
X117583Y241599D01*
X117142Y241894D01*
D02*
G37*
G36*
X93520D02*
Y241157D01*
X94256D01*
X93961Y241599D01*
X93520Y241894D01*
D02*
G37*
G36*
X91520D02*
X91078Y241599D01*
X90783Y241157D01*
X91520D01*
Y241894D01*
D02*
G37*
G36*
X81709D02*
Y241157D01*
X82445D01*
X82150Y241599D01*
X81709Y241894D01*
D02*
G37*
G36*
X79709D02*
X79267Y241599D01*
X78972Y241157D01*
X79709D01*
Y241894D01*
D02*
G37*
G36*
X69898D02*
Y241157D01*
X70634D01*
X70339Y241599D01*
X69898Y241894D01*
D02*
G37*
G36*
X67898D02*
X67456Y241599D01*
X67161Y241157D01*
X67898D01*
Y241894D01*
D02*
G37*
G36*
X58087D02*
Y241157D01*
X58823D01*
X58528Y241599D01*
X58087Y241894D01*
D02*
G37*
G36*
X56086D02*
X55645Y241599D01*
X55350Y241157D01*
X56086D01*
Y241894D01*
D02*
G37*
G36*
X46275D02*
Y241157D01*
X47012D01*
X46717Y241599D01*
X46275Y241894D01*
D02*
G37*
G36*
X44276D02*
X43834Y241599D01*
X43539Y241157D01*
X44276D01*
Y241894D01*
D02*
G37*
G36*
X34464D02*
Y241157D01*
X35201D01*
X34906Y241599D01*
X34464Y241894D01*
D02*
G37*
G36*
X32465D02*
X32023Y241599D01*
X31728Y241157D01*
X32465D01*
Y241894D01*
D02*
G37*
G36*
X22654D02*
Y241157D01*
X23390D01*
X23095Y241599D01*
X22654Y241894D01*
D02*
G37*
G36*
X20653D02*
X20212Y241599D01*
X19917Y241157D01*
X20653D01*
Y241894D01*
D02*
G37*
G36*
X138764D02*
X138322Y241599D01*
X137880Y240938D01*
X137725Y240157D01*
X137737Y240096D01*
X137266Y239901D01*
X137100Y240151D01*
X136380Y240631D01*
X135531Y240800D01*
X134683Y240631D01*
X133964Y240151D01*
X133483Y239431D01*
X133314Y238583D01*
X133483Y237734D01*
X133964Y237015D01*
X134683Y236534D01*
X135531Y236365D01*
X136380Y236534D01*
X137100Y237015D01*
X137580Y237734D01*
X137749Y238583D01*
X137723Y238712D01*
X138194Y238907D01*
X138322Y238716D01*
X138764Y238421D01*
Y240157D01*
Y241894D01*
D02*
G37*
G36*
X188744Y239157D02*
X188008D01*
Y238421D01*
X188449Y238716D01*
X188744Y239157D01*
D02*
G37*
G36*
X186008D02*
X185271D01*
X185566Y238716D01*
X186008Y238421D01*
Y239157D01*
D02*
G37*
G36*
X176934D02*
X176197D01*
Y238421D01*
X176638Y238716D01*
X176934Y239157D01*
D02*
G37*
G36*
X174197D02*
X173460D01*
X173755Y238716D01*
X174197Y238421D01*
Y239157D01*
D02*
G37*
G36*
X165122D02*
X164386D01*
Y238421D01*
X164827Y238716D01*
X165122Y239157D01*
D02*
G37*
G36*
X162386D02*
X161649D01*
X161944Y238716D01*
X162386Y238421D01*
Y239157D01*
D02*
G37*
G36*
X141500D02*
X140764D01*
Y238421D01*
X141205Y238716D01*
X141500Y239157D01*
D02*
G37*
G36*
X117878D02*
X117142D01*
Y238421D01*
X117583Y238716D01*
X117878Y239157D01*
D02*
G37*
G36*
X114489Y246226D02*
X106289D01*
Y238026D01*
X114489D01*
Y238256D01*
X114989Y238523D01*
X115142Y238421D01*
Y240157D01*
Y241894D01*
X114989Y241792D01*
X114489Y242059D01*
Y246226D01*
D02*
G37*
G36*
X94256Y239157D02*
X93520D01*
Y238421D01*
X93961Y238716D01*
X94256Y239157D01*
D02*
G37*
G36*
X91520D02*
X90783D01*
X91078Y238716D01*
X91520Y238421D01*
Y239157D01*
D02*
G37*
G36*
X82445D02*
X81709D01*
Y238421D01*
X82150Y238716D01*
X82445Y239157D01*
D02*
G37*
G36*
X79709D02*
X78972D01*
X79267Y238716D01*
X79709Y238421D01*
Y239157D01*
D02*
G37*
G36*
X70634D02*
X69898D01*
Y238421D01*
X70339Y238716D01*
X70634Y239157D01*
D02*
G37*
G36*
X67898D02*
X67161D01*
X67456Y238716D01*
X67898Y238421D01*
Y239157D01*
D02*
G37*
G36*
X58823D02*
X58087D01*
Y238421D01*
X58528Y238716D01*
X58823Y239157D01*
D02*
G37*
G36*
X56086D02*
X55350D01*
X55645Y238716D01*
X56086Y238421D01*
Y239157D01*
D02*
G37*
G36*
X47012D02*
X46275D01*
Y238421D01*
X46717Y238716D01*
X47012Y239157D01*
D02*
G37*
G36*
X44276D02*
X43539D01*
X43834Y238716D01*
X44276Y238421D01*
Y239157D01*
D02*
G37*
G36*
X35201D02*
X34464D01*
Y238421D01*
X34906Y238716D01*
X35201Y239157D01*
D02*
G37*
G36*
X32465D02*
X31728D01*
X32023Y238716D01*
X32465Y238421D01*
Y239157D01*
D02*
G37*
G36*
X23390D02*
X22654D01*
Y238421D01*
X23095Y238716D01*
X23390Y239157D01*
D02*
G37*
G36*
X20653D02*
X19917D01*
X20212Y238716D01*
X20653Y238421D01*
Y239157D01*
D02*
G37*
G36*
X100389Y246261D02*
X99318Y246121D01*
X98321Y245707D01*
X97465Y245050D01*
X96807Y244194D01*
X96394Y243196D01*
X96253Y242126D01*
X96394Y241056D01*
X96807Y240058D01*
X97465Y239202D01*
X98321Y238545D01*
X99318Y238131D01*
X100389Y237991D01*
X101459Y238131D01*
X102456Y238545D01*
X103313Y239202D01*
X103970Y240058D01*
X104383Y241056D01*
X104524Y242126D01*
X104383Y243196D01*
X103970Y244194D01*
X103313Y245050D01*
X102456Y245707D01*
X101459Y246121D01*
X100389Y246261D01*
D02*
G37*
G36*
X360836Y246683D02*
X347825D01*
Y233672D01*
X360836D01*
Y246683D01*
D02*
G37*
G36*
X371079Y230083D02*
Y229346D01*
X371815D01*
X371520Y229788D01*
X371079Y230083D01*
D02*
G37*
G36*
X369079D02*
X368637Y229788D01*
X368342Y229346D01*
X369079D01*
Y230083D01*
D02*
G37*
G36*
X359267D02*
Y229346D01*
X360004D01*
X359709Y229788D01*
X359267Y230083D01*
D02*
G37*
G36*
X357267D02*
X356826Y229788D01*
X356531Y229346D01*
X357267D01*
Y230083D01*
D02*
G37*
G36*
X347457D02*
Y229346D01*
X348193D01*
X347898Y229788D01*
X347457Y230083D01*
D02*
G37*
G36*
X345457D02*
X345015Y229788D01*
X344720Y229346D01*
X345457D01*
Y230083D01*
D02*
G37*
G36*
X205724D02*
Y229346D01*
X206461D01*
X206166Y229788D01*
X205724Y230083D01*
D02*
G37*
G36*
X170291D02*
Y229346D01*
X171028D01*
X170733Y229788D01*
X170291Y230083D01*
D02*
G37*
G36*
X168291D02*
X167850Y229788D01*
X167554Y229346D01*
X168291D01*
Y230083D01*
D02*
G37*
G36*
X158480D02*
Y229346D01*
X159217D01*
X158922Y229788D01*
X158480Y230083D01*
D02*
G37*
G36*
X156480D02*
X156039Y229788D01*
X155744Y229346D01*
X156480D01*
Y230083D01*
D02*
G37*
G36*
X123047D02*
Y229346D01*
X123784D01*
X123489Y229788D01*
X123047Y230083D01*
D02*
G37*
G36*
X121047D02*
X120606Y229788D01*
X120310Y229346D01*
X121047D01*
Y230083D01*
D02*
G37*
G36*
X75803D02*
Y229346D01*
X76540D01*
X76245Y229788D01*
X75803Y230083D01*
D02*
G37*
G36*
X73803D02*
X73361Y229788D01*
X73066Y229346D01*
X73803D01*
Y230083D01*
D02*
G37*
G36*
X52181D02*
Y229346D01*
X52918D01*
X52623Y229788D01*
X52181Y230083D01*
D02*
G37*
G36*
X50181D02*
X49739Y229788D01*
X49444Y229346D01*
X50181D01*
Y230083D01*
D02*
G37*
G36*
X40370D02*
Y229346D01*
X41107D01*
X40812Y229788D01*
X40370Y230083D01*
D02*
G37*
G36*
X38370D02*
X37928Y229788D01*
X37633Y229346D01*
X38370D01*
Y230083D01*
D02*
G37*
G36*
X28559D02*
Y229346D01*
X29296D01*
X29001Y229788D01*
X28559Y230083D01*
D02*
G37*
G36*
X26559D02*
X26117Y229788D01*
X25822Y229346D01*
X26559D01*
Y230083D01*
D02*
G37*
G36*
X16748D02*
Y229346D01*
X17485D01*
X17190Y229788D01*
X16748Y230083D01*
D02*
G37*
G36*
X14748D02*
X14306Y229788D01*
X14011Y229346D01*
X14748D01*
Y230083D01*
D02*
G37*
G36*
X181890Y236419D02*
X180819Y236278D01*
X179822Y235865D01*
X178966Y235208D01*
X178308Y234351D01*
X177895Y233354D01*
X177754Y232283D01*
X177895Y231213D01*
X178308Y230216D01*
X178966Y229359D01*
X179822Y228702D01*
X180819Y228289D01*
X181890Y228148D01*
X182960Y228289D01*
X183958Y228702D01*
X184814Y229359D01*
X185471Y230216D01*
X185884Y231213D01*
X186025Y232283D01*
X185884Y233354D01*
X185471Y234351D01*
X184814Y235208D01*
X183958Y235865D01*
X182960Y236278D01*
X181890Y236419D01*
D02*
G37*
G36*
X360004Y227346D02*
X356531D01*
X356699Y227094D01*
X356383Y226668D01*
X355606Y226904D01*
X355331Y226931D01*
Y221492D01*
X360769D01*
X360742Y221767D01*
X360370Y222994D01*
X359766Y224124D01*
X358953Y225114D01*
X358073Y225836D01*
X358243Y226247D01*
X358284Y226311D01*
X359048Y226463D01*
X359709Y226905D01*
X360004Y227346D01*
D02*
G37*
G36*
X371815D02*
X371079D01*
Y226610D01*
X371520Y226905D01*
X371815Y227346D01*
D02*
G37*
G36*
X369079D02*
X368342D01*
X368637Y226905D01*
X369079Y226610D01*
Y227346D01*
D02*
G37*
G36*
X348193D02*
X347457D01*
Y226610D01*
X347898Y226905D01*
X348193Y227346D01*
D02*
G37*
G36*
X345457D02*
X344720D01*
X345015Y226905D01*
X345457Y226610D01*
Y227346D01*
D02*
G37*
G36*
X206461D02*
X205724D01*
Y226610D01*
X206166Y226905D01*
X206461Y227346D01*
D02*
G37*
G36*
X171028D02*
X170291D01*
Y226610D01*
X170733Y226905D01*
X171028Y227346D01*
D02*
G37*
G36*
X168291D02*
X167554D01*
X167850Y226905D01*
X168291Y226610D01*
Y227346D01*
D02*
G37*
G36*
X159217D02*
X158480D01*
Y226610D01*
X158922Y226905D01*
X159217Y227346D01*
D02*
G37*
G36*
X156480D02*
X155744D01*
X156039Y226905D01*
X156480Y226610D01*
Y227346D01*
D02*
G37*
G36*
X123784D02*
X123047D01*
Y226610D01*
X123489Y226905D01*
X123784Y227346D01*
D02*
G37*
G36*
X121047D02*
X120310D01*
X120606Y226905D01*
X121047Y226610D01*
Y227346D01*
D02*
G37*
G36*
X76540D02*
X75803D01*
Y226610D01*
X76245Y226905D01*
X76540Y227346D01*
D02*
G37*
G36*
X73803D02*
X73066D01*
X73361Y226905D01*
X73803Y226610D01*
Y227346D01*
D02*
G37*
G36*
X52918D02*
X52181D01*
Y226610D01*
X52623Y226905D01*
X52918Y227346D01*
D02*
G37*
G36*
X50181D02*
X49444D01*
X49739Y226905D01*
X50181Y226610D01*
Y227346D01*
D02*
G37*
G36*
X41107D02*
X40370D01*
Y226610D01*
X40812Y226905D01*
X41107Y227346D01*
D02*
G37*
G36*
X38370D02*
X37633D01*
X37928Y226905D01*
X38370Y226610D01*
Y227346D01*
D02*
G37*
G36*
X29296D02*
X28559D01*
Y226610D01*
X29001Y226905D01*
X29296Y227346D01*
D02*
G37*
G36*
X26559D02*
X25822D01*
X26117Y226905D01*
X26559Y226610D01*
Y227346D01*
D02*
G37*
G36*
X17485D02*
X16748D01*
Y226610D01*
X17190Y226905D01*
X17485Y227346D01*
D02*
G37*
G36*
X14748D02*
X14011D01*
X14306Y226905D01*
X14748Y226610D01*
Y227346D01*
D02*
G37*
G36*
X353331Y226931D02*
X353055Y226904D01*
X351829Y226532D01*
X350699Y225927D01*
X349708Y225114D01*
X348895Y224124D01*
X348291Y222994D01*
X347919Y221767D01*
X347892Y221492D01*
X353331D01*
Y226931D01*
D02*
G37*
G36*
X196000Y236576D02*
X194930Y236435D01*
X193932Y236022D01*
X193076Y235365D01*
X192419Y234509D01*
X192006Y233511D01*
X191865Y232441D01*
X192006Y231371D01*
X192419Y230373D01*
X193076Y229517D01*
X193932Y228860D01*
X194930Y228447D01*
X196000Y228306D01*
X197070Y228447D01*
X198068Y228860D01*
X198190Y228953D01*
X202125Y225018D01*
Y210330D01*
X201663Y210139D01*
X200045Y211756D01*
X200135Y212441D01*
X199995Y213511D01*
X199581Y214509D01*
X198924Y215365D01*
X198068Y216022D01*
X197070Y216435D01*
X196000Y216576D01*
X194930Y216435D01*
X193932Y216022D01*
X193076Y215365D01*
X192419Y214509D01*
X192362Y214373D01*
X191862Y214473D01*
Y217006D01*
X193810Y218953D01*
X193932Y218860D01*
X194930Y218446D01*
X196000Y218306D01*
X197070Y218446D01*
X198068Y218860D01*
X198924Y219517D01*
X199581Y220373D01*
X199995Y221371D01*
X200135Y222441D01*
X199995Y223511D01*
X199581Y224509D01*
X198924Y225365D01*
X198068Y226022D01*
X197070Y226435D01*
X196000Y226576D01*
X194930Y226435D01*
X193932Y226022D01*
X193076Y225365D01*
X192419Y224509D01*
X192006Y223511D01*
X191865Y222441D01*
X192006Y221371D01*
X192419Y220373D01*
X192512Y220251D01*
X190296Y218035D01*
X190097Y217737D01*
X190027Y217386D01*
Y210630D01*
X190097Y210279D01*
X190296Y209981D01*
X193236Y207041D01*
X193029Y206541D01*
X191900D01*
Y203441D01*
X196000D01*
Y202441D01*
X197000D01*
Y198341D01*
X199482D01*
Y189059D01*
X198858Y188642D01*
X198416Y187980D01*
X198261Y187200D01*
X198416Y186420D01*
X198858Y185758D01*
X199382Y185408D01*
Y170950D01*
X199058Y170733D01*
X198616Y170072D01*
X198461Y169291D01*
X198616Y168511D01*
X199058Y167849D01*
X199720Y167407D01*
X200500Y167252D01*
X201280Y167407D01*
X201942Y167849D01*
X202000Y167936D01*
X202500D01*
X202558Y167849D01*
X203220Y167407D01*
X204000Y167252D01*
X204780Y167407D01*
X205384Y167811D01*
X205575Y167863D01*
X205826D01*
X206017Y167811D01*
X206621Y167407D01*
X207402Y167252D01*
X208182Y167407D01*
X208843Y167849D01*
X209285Y168511D01*
X209441Y169291D01*
X209285Y170072D01*
X208843Y170733D01*
X208319Y171084D01*
Y185143D01*
X208737Y185226D01*
X209399Y185668D01*
X209841Y186329D01*
X209996Y187110D01*
X209841Y187890D01*
X209399Y188551D01*
X208875Y188902D01*
Y189598D01*
X208875Y189942D01*
X208875D01*
X208875Y189661D01*
X208962Y189953D01*
X209209Y189983D01*
X209406Y189865D01*
X209541Y189541D01*
X210000Y189351D01*
X245967D01*
X246202Y188910D01*
X246116Y188780D01*
X245961Y188000D01*
X246116Y187220D01*
X246558Y186558D01*
X246879Y186344D01*
Y172656D01*
X246558Y172442D01*
X246116Y171780D01*
X245961Y171000D01*
X246116Y170220D01*
X246558Y169558D01*
X247220Y169116D01*
X248000Y168961D01*
X248780Y169116D01*
X249442Y169558D01*
X249884Y170220D01*
X250039Y171000D01*
X249884Y171780D01*
X249442Y172442D01*
X249121Y172656D01*
Y186344D01*
X249442Y186558D01*
X249884Y187220D01*
X250039Y188000D01*
X249884Y188780D01*
X249798Y188910D01*
X250033Y189351D01*
X279946D01*
X280038Y189313D01*
X280157Y189362D01*
X280287D01*
X280749Y189553D01*
X280840Y189645D01*
X280959Y189694D01*
X281009Y189813D01*
X281100Y189905D01*
Y190034D01*
X281149Y190153D01*
Y210000D01*
X280959Y210459D01*
X280500Y210649D01*
X225246D01*
X225044Y210566D01*
X224834Y210502D01*
X224818Y210472D01*
X224787Y210459D01*
X224703Y210257D01*
X224600Y210064D01*
X224551Y209564D01*
X224473Y209434D01*
X224220Y209384D01*
X223558Y208942D01*
X223116Y208280D01*
X223051Y207952D01*
X223005Y207928D01*
X222495D01*
X222449Y207952D01*
X222384Y208280D01*
X221942Y208942D01*
X221280Y209384D01*
X220500Y209539D01*
X219720Y209384D01*
X219058Y208942D01*
X218800Y208556D01*
X218200D01*
X217942Y208942D01*
X217280Y209384D01*
X216500Y209539D01*
X215720Y209384D01*
X215058Y208942D01*
X214800Y208556D01*
X214200D01*
X213942Y208942D01*
X213280Y209384D01*
X212500Y209539D01*
X211720Y209384D01*
X211058Y208942D01*
X210616Y208280D01*
X210566Y208027D01*
X210436Y207949D01*
X209936Y207900D01*
X209743Y207797D01*
X209541Y207713D01*
X209528Y207682D01*
X209498Y207666D01*
X209434Y207456D01*
X209351Y207254D01*
Y190468D01*
X208851Y190270D01*
X208805Y190319D01*
X208749Y190402D01*
X208606Y190616D01*
X203960Y195262D01*
Y225398D01*
X203890Y225750D01*
X203691Y226047D01*
X203724Y226101D01*
Y228346D01*
Y230083D01*
X203283Y229788D01*
X202841Y229127D01*
X202685Y228346D01*
X202740Y228074D01*
X202351Y227502D01*
X202254Y227484D01*
X199488Y230251D01*
X199581Y230373D01*
X199995Y231371D01*
X200135Y232441D01*
X199995Y233511D01*
X199581Y234509D01*
X198924Y235365D01*
X198068Y236022D01*
X197070Y236435D01*
X196000Y236576D01*
D02*
G37*
G36*
X181890Y226419D02*
X180819Y226278D01*
X179822Y225865D01*
X178966Y225208D01*
X178308Y224351D01*
X177895Y223354D01*
X177754Y222284D01*
X177895Y221213D01*
X178308Y220216D01*
X178966Y219359D01*
X179822Y218702D01*
X180819Y218289D01*
X181890Y218148D01*
X182960Y218289D01*
X183958Y218702D01*
X184814Y219359D01*
X185471Y220216D01*
X185884Y221213D01*
X186025Y222284D01*
X185884Y223354D01*
X185471Y224351D01*
X184814Y225208D01*
X183958Y225865D01*
X182960Y226278D01*
X181890Y226419D01*
D02*
G37*
G36*
X376984Y218272D02*
Y217535D01*
X377721D01*
X377426Y217977D01*
X376984Y218272D01*
D02*
G37*
G36*
X374984D02*
X374542Y217977D01*
X374247Y217535D01*
X374984D01*
Y218272D01*
D02*
G37*
G36*
X365173D02*
Y217535D01*
X365910D01*
X365615Y217977D01*
X365173Y218272D01*
D02*
G37*
G36*
X363173D02*
X362731Y217977D01*
X362436Y217535D01*
X363173D01*
Y218272D01*
D02*
G37*
G36*
X176197D02*
Y217535D01*
X176934D01*
X176638Y217977D01*
X176197Y218272D01*
D02*
G37*
G36*
X174197D02*
X173755Y217977D01*
X173460Y217535D01*
X174197D01*
Y218272D01*
D02*
G37*
G36*
X164386D02*
Y217535D01*
X165122D01*
X164827Y217977D01*
X164386Y218272D01*
D02*
G37*
G36*
X162386D02*
X161944Y217977D01*
X161649Y217535D01*
X162386D01*
Y218272D01*
D02*
G37*
G36*
X152575D02*
Y217535D01*
X153311D01*
X153016Y217977D01*
X152575Y218272D01*
D02*
G37*
G36*
X150575D02*
X150133Y217977D01*
X149838Y217535D01*
X150575D01*
Y218272D01*
D02*
G37*
G36*
X93520D02*
Y217535D01*
X94256D01*
X93961Y217977D01*
X93520Y218272D01*
D02*
G37*
G36*
X91520D02*
X91078Y217977D01*
X90783Y217535D01*
X91520D01*
Y218272D01*
D02*
G37*
G36*
X377721Y215535D02*
X376984D01*
Y214799D01*
X377426Y215094D01*
X377721Y215535D01*
D02*
G37*
G36*
X374984D02*
X374247D01*
X374542Y215094D01*
X374984Y214799D01*
Y215535D01*
D02*
G37*
G36*
X365910D02*
X365173D01*
Y214799D01*
X365615Y215094D01*
X365910Y215535D01*
D02*
G37*
G36*
X363173D02*
X362436D01*
X362731Y215094D01*
X363173Y214799D01*
Y215535D01*
D02*
G37*
G36*
X176934D02*
X176197D01*
Y214799D01*
X176638Y215094D01*
X176934Y215535D01*
D02*
G37*
G36*
X174197D02*
X173460D01*
X173755Y215094D01*
X174197Y214799D01*
Y215535D01*
D02*
G37*
G36*
X165122D02*
X164386D01*
Y214799D01*
X164827Y215094D01*
X165122Y215535D01*
D02*
G37*
G36*
X162386D02*
X161649D01*
X161944Y215094D01*
X162386Y214799D01*
Y215535D01*
D02*
G37*
G36*
X153311D02*
X152575D01*
Y214799D01*
X153016Y215094D01*
X153311Y215535D01*
D02*
G37*
G36*
X150575D02*
X149838D01*
X150133Y215094D01*
X150575Y214799D01*
Y215535D01*
D02*
G37*
G36*
X94256D02*
X93520D01*
Y214799D01*
X93961Y215094D01*
X94256Y215535D01*
D02*
G37*
G36*
X91520D02*
X90783D01*
X91078Y215094D01*
X91520Y214799D01*
Y215535D01*
D02*
G37*
G36*
X360769Y219492D02*
X355331D01*
Y214054D01*
X355606Y214081D01*
X356832Y214453D01*
X357962Y215057D01*
X358953Y215870D01*
X359766Y216860D01*
X360370Y217990D01*
X360742Y219217D01*
X360769Y219492D01*
D02*
G37*
G36*
X353331D02*
X347892D01*
X347919Y219217D01*
X348291Y217990D01*
X348895Y216860D01*
X349708Y215870D01*
X350699Y215057D01*
X351829Y214453D01*
X353055Y214081D01*
X353331Y214054D01*
Y219492D01*
D02*
G37*
G36*
X181890Y216419D02*
X180819Y216278D01*
X179822Y215865D01*
X178966Y215208D01*
X178308Y214351D01*
X177895Y213354D01*
X177754Y212283D01*
X177895Y211213D01*
X178308Y210216D01*
X178966Y209359D01*
X179822Y208702D01*
X180819Y208289D01*
X181890Y208148D01*
X182960Y208289D01*
X183958Y208702D01*
X184814Y209359D01*
X185471Y210216D01*
X185884Y211213D01*
X186025Y212283D01*
X185884Y213354D01*
X185471Y214351D01*
X184814Y215208D01*
X183958Y215865D01*
X182960Y216278D01*
X181890Y216419D01*
D02*
G37*
G36*
X380890Y206461D02*
X380448Y206166D01*
X380153Y205724D01*
X380890D01*
Y206461D01*
D02*
G37*
G36*
X158480D02*
Y205724D01*
X159217D01*
X158922Y206166D01*
X158480Y206461D01*
D02*
G37*
G36*
X156480D02*
X156039Y206166D01*
X155744Y205724D01*
X156480D01*
Y206461D01*
D02*
G37*
G36*
X146669D02*
Y205724D01*
X147406D01*
X147111Y206166D01*
X146669Y206461D01*
D02*
G37*
G36*
X144669D02*
X144228Y206166D01*
X143932Y205724D01*
X144669D01*
Y206461D01*
D02*
G37*
G36*
X134858D02*
Y205724D01*
X135595D01*
X135300Y206166D01*
X134858Y206461D01*
D02*
G37*
G36*
X132858D02*
X132416Y206166D01*
X132122Y205724D01*
X132858D01*
Y206461D01*
D02*
G37*
G36*
X123047D02*
Y205724D01*
X123784D01*
X123489Y206166D01*
X123047Y206461D01*
D02*
G37*
G36*
X121047D02*
X120606Y206166D01*
X120310Y205724D01*
X121047D01*
Y206461D01*
D02*
G37*
G36*
X111236D02*
Y205724D01*
X111973D01*
X111678Y206166D01*
X111236Y206461D01*
D02*
G37*
G36*
X109236D02*
X108794Y206166D01*
X108499Y205724D01*
X109236D01*
Y206461D01*
D02*
G37*
G36*
X99425D02*
Y205724D01*
X100162D01*
X99867Y206166D01*
X99425Y206461D01*
D02*
G37*
G36*
X97425D02*
X96983Y206166D01*
X96688Y205724D01*
X97425D01*
Y206461D01*
D02*
G37*
G36*
X28559D02*
Y205724D01*
X29296D01*
X29001Y206166D01*
X28559Y206461D01*
D02*
G37*
G36*
X26559D02*
X26117Y206166D01*
X25822Y205724D01*
X26559D01*
Y206461D01*
D02*
G37*
G36*
X16748D02*
Y205724D01*
X17485D01*
X17190Y206166D01*
X16748Y206461D01*
D02*
G37*
G36*
X14748D02*
X14306Y206166D01*
X14011Y205724D01*
X14748D01*
Y206461D01*
D02*
G37*
G36*
X185990Y206383D02*
X182890D01*
Y203284D01*
X185990D01*
Y206383D01*
D02*
G37*
G36*
X180890D02*
X177790D01*
Y203284D01*
X180890D01*
Y206383D01*
D02*
G37*
G36*
X380890Y203724D02*
X380153D01*
X380448Y203283D01*
X380890Y202988D01*
Y203724D01*
D02*
G37*
G36*
X159217D02*
X158480D01*
Y202988D01*
X158922Y203283D01*
X159217Y203724D01*
D02*
G37*
G36*
X156480D02*
X155744D01*
X156039Y203283D01*
X156480Y202988D01*
Y203724D01*
D02*
G37*
G36*
X147406D02*
X146669D01*
Y202988D01*
X147111Y203283D01*
X147406Y203724D01*
D02*
G37*
G36*
X144669D02*
X143932D01*
X144228Y203283D01*
X144669Y202988D01*
Y203724D01*
D02*
G37*
G36*
X135595D02*
X134858D01*
Y202988D01*
X135300Y203283D01*
X135595Y203724D01*
D02*
G37*
G36*
X132858D02*
X132122D01*
X132416Y203283D01*
X132858Y202988D01*
Y203724D01*
D02*
G37*
G36*
X123784D02*
X123047D01*
Y202988D01*
X123489Y203283D01*
X123784Y203724D01*
D02*
G37*
G36*
X121047D02*
X120310D01*
X120606Y203283D01*
X121047Y202988D01*
Y203724D01*
D02*
G37*
G36*
X111973D02*
X111236D01*
Y202988D01*
X111678Y203283D01*
X111973Y203724D01*
D02*
G37*
G36*
X109236D02*
X108499D01*
X108794Y203283D01*
X109236Y202988D01*
Y203724D01*
D02*
G37*
G36*
X100162D02*
X99425D01*
Y202988D01*
X99867Y203283D01*
X100162Y203724D01*
D02*
G37*
G36*
X97425D02*
X96688D01*
X96983Y203283D01*
X97425Y202988D01*
Y203724D01*
D02*
G37*
G36*
X29296D02*
X28559D01*
Y202988D01*
X29001Y203283D01*
X29296Y203724D01*
D02*
G37*
G36*
X26559D02*
X25822D01*
X26117Y203283D01*
X26559Y202988D01*
Y203724D01*
D02*
G37*
G36*
X17485D02*
X16748D01*
Y202988D01*
X17190Y203283D01*
X17485Y203724D01*
D02*
G37*
G36*
X14748D02*
X14011D01*
X14306Y203283D01*
X14748Y202988D01*
Y203724D01*
D02*
G37*
G36*
X195000Y201441D02*
X191900D01*
Y198341D01*
X195000D01*
Y201441D01*
D02*
G37*
G36*
X185990Y201284D02*
X182890D01*
Y198184D01*
X185990D01*
Y201284D01*
D02*
G37*
G36*
X180890D02*
X177790D01*
Y198184D01*
X180890D01*
Y201284D01*
D02*
G37*
G36*
X354331Y207344D02*
X353055Y207219D01*
X351829Y206846D01*
X350699Y206242D01*
X349708Y205429D01*
X348895Y204439D01*
X348291Y203309D01*
X347919Y202082D01*
X347794Y200807D01*
X347919Y199532D01*
X348291Y198305D01*
X348895Y197175D01*
X349708Y196185D01*
X350699Y195372D01*
X351829Y194768D01*
X353055Y194396D01*
X354331Y194270D01*
X355606Y194396D01*
X356832Y194768D01*
X357962Y195372D01*
X358953Y196185D01*
X359766Y197175D01*
X360370Y198305D01*
X360742Y199532D01*
X360868Y200807D01*
X360742Y202082D01*
X360370Y203309D01*
X359766Y204439D01*
X358953Y205429D01*
X357962Y206242D01*
X356832Y206846D01*
X355606Y207219D01*
X354331Y207344D01*
D02*
G37*
G36*
X376984Y194650D02*
Y193913D01*
X377721D01*
X377426Y194355D01*
X376984Y194650D01*
D02*
G37*
G36*
X374984D02*
X374542Y194355D01*
X374247Y193913D01*
X374984D01*
Y194650D01*
D02*
G37*
G36*
X105331D02*
Y193913D01*
X106067D01*
X105772Y194355D01*
X105331Y194650D01*
D02*
G37*
G36*
X103331D02*
X102889Y194355D01*
X102594Y193913D01*
X103331D01*
Y194650D01*
D02*
G37*
G36*
X93520D02*
Y193913D01*
X94256D01*
X93961Y194355D01*
X93520Y194650D01*
D02*
G37*
G36*
X91520D02*
X91078Y194355D01*
X90783Y193913D01*
X91520D01*
Y194650D01*
D02*
G37*
G36*
X81709D02*
Y193913D01*
X82445D01*
X82150Y194355D01*
X81709Y194650D01*
D02*
G37*
G36*
X79709D02*
X79267Y194355D01*
X78972Y193913D01*
X79709D01*
Y194650D01*
D02*
G37*
G36*
X69898D02*
Y193913D01*
X70634D01*
X70339Y194355D01*
X69898Y194650D01*
D02*
G37*
G36*
X67898D02*
X67456Y194355D01*
X67161Y193913D01*
X67898D01*
Y194650D01*
D02*
G37*
G36*
X34464D02*
Y193913D01*
X35201D01*
X34906Y194355D01*
X34464Y194650D01*
D02*
G37*
G36*
X32465D02*
X32023Y194355D01*
X31728Y193913D01*
X32465D01*
Y194650D01*
D02*
G37*
G36*
X22654D02*
Y193913D01*
X23390D01*
X23095Y194355D01*
X22654Y194650D01*
D02*
G37*
G36*
X20653D02*
X20212Y194355D01*
X19917Y193913D01*
X20653D01*
Y194650D01*
D02*
G37*
G36*
X377721Y191913D02*
X376984D01*
Y191176D01*
X377426Y191472D01*
X377721Y191913D01*
D02*
G37*
G36*
X374984D02*
X374247D01*
X374542Y191472D01*
X374984Y191176D01*
Y191913D01*
D02*
G37*
G36*
X106067D02*
X105331D01*
Y191176D01*
X105772Y191472D01*
X106067Y191913D01*
D02*
G37*
G36*
X103331D02*
X102594D01*
X102889Y191472D01*
X103331Y191176D01*
Y191913D01*
D02*
G37*
G36*
X94256D02*
X93520D01*
Y191176D01*
X93961Y191472D01*
X94256Y191913D01*
D02*
G37*
G36*
X91520D02*
X90783D01*
X91078Y191472D01*
X91520Y191176D01*
Y191913D01*
D02*
G37*
G36*
X82445D02*
X81709D01*
Y191176D01*
X82150Y191472D01*
X82445Y191913D01*
D02*
G37*
G36*
X79709D02*
X78972D01*
X79267Y191472D01*
X79709Y191176D01*
Y191913D01*
D02*
G37*
G36*
X70634D02*
X69898D01*
Y191176D01*
X70339Y191472D01*
X70634Y191913D01*
D02*
G37*
G36*
X67898D02*
X67161D01*
X67456Y191472D01*
X67898Y191176D01*
Y191913D01*
D02*
G37*
G36*
X35201D02*
X34464D01*
Y191176D01*
X34906Y191472D01*
X35201Y191913D01*
D02*
G37*
G36*
X32465D02*
X31728D01*
X32023Y191472D01*
X32465Y191176D01*
Y191913D01*
D02*
G37*
G36*
X23390D02*
X22654D01*
Y191176D01*
X23095Y191472D01*
X23390Y191913D01*
D02*
G37*
G36*
X20653D02*
X19917D01*
X20212Y191472D01*
X20653Y191176D01*
Y191913D01*
D02*
G37*
G36*
X174185Y200842D02*
X173405Y200687D01*
X172743Y200245D01*
X172301Y199583D01*
X172146Y198803D01*
X172301Y198023D01*
X172743Y197361D01*
X173267Y197011D01*
Y192312D01*
X173313Y192081D01*
X173313Y192080D01*
X173158Y191300D01*
X173313Y190520D01*
X173755Y189858D01*
X174416Y189416D01*
X175197Y189261D01*
X175977Y189416D01*
X176639Y189858D01*
X177081Y190520D01*
X177236Y191300D01*
X177081Y192080D01*
X176639Y192742D01*
X175977Y193184D01*
X175197Y193339D01*
X175103Y193417D01*
Y197011D01*
X175627Y197361D01*
X176069Y198023D01*
X176224Y198803D01*
X176069Y199583D01*
X175627Y200245D01*
X174965Y200687D01*
X174185Y200842D01*
D02*
G37*
G36*
X170000Y198592D02*
X169220Y198437D01*
X168558Y197995D01*
X168116Y197334D01*
X167961Y196553D01*
X168116Y195773D01*
X168558Y195111D01*
X168984Y194826D01*
Y190792D01*
X168460Y190442D01*
X168018Y189780D01*
X167863Y189000D01*
X168018Y188220D01*
X168460Y187558D01*
X169122Y187116D01*
X169902Y186961D01*
X170682Y187116D01*
X171344Y187558D01*
X171786Y188220D01*
X171941Y189000D01*
X171786Y189780D01*
X171344Y190442D01*
X170819Y190792D01*
Y194695D01*
X171442Y195111D01*
X171884Y195773D01*
X172039Y196553D01*
X171884Y197334D01*
X171442Y197995D01*
X170780Y198437D01*
X170000Y198592D01*
D02*
G37*
G36*
X331000Y184237D02*
Y183500D01*
X331737D01*
X331442Y183942D01*
X331000Y184237D01*
D02*
G37*
G36*
X329000D02*
X328558Y183942D01*
X328263Y183500D01*
X329000D01*
Y184237D01*
D02*
G37*
G36*
X316000D02*
Y183500D01*
X316737D01*
X316442Y183942D01*
X316000Y184237D01*
D02*
G37*
G36*
X314000D02*
X313558Y183942D01*
X313263Y183500D01*
X314000D01*
Y184237D01*
D02*
G37*
G36*
X301000D02*
Y183500D01*
X301737D01*
X301442Y183942D01*
X301000Y184237D01*
D02*
G37*
G36*
X299000D02*
X298558Y183942D01*
X298263Y183500D01*
X299000D01*
Y184237D01*
D02*
G37*
G36*
X286000D02*
Y183500D01*
X286737D01*
X286442Y183942D01*
X286000Y184237D01*
D02*
G37*
G36*
X284000D02*
X283558Y183942D01*
X283263Y183500D01*
X284000D01*
Y184237D01*
D02*
G37*
G36*
X271000D02*
Y183500D01*
X271737D01*
X271442Y183942D01*
X271000Y184237D01*
D02*
G37*
G36*
X269000D02*
X268558Y183942D01*
X268263Y183500D01*
X269000D01*
Y184237D01*
D02*
G37*
G36*
X353331Y187560D02*
X353055Y187533D01*
X351829Y187161D01*
X350699Y186557D01*
X349708Y185744D01*
X348895Y184754D01*
X348291Y183624D01*
X348104Y183007D01*
X347518Y182798D01*
X347457Y182839D01*
Y181102D01*
Y179366D01*
X347528Y179413D01*
X348114Y179204D01*
X348291Y178620D01*
X348895Y177490D01*
X349708Y176500D01*
X350699Y175687D01*
X351829Y175083D01*
X353055Y174711D01*
X353331Y174683D01*
Y181122D01*
Y187560D01*
D02*
G37*
G36*
X355331Y187560D02*
Y182122D01*
X360769D01*
X360742Y182397D01*
X360370Y183624D01*
X359766Y184754D01*
X358953Y185744D01*
X357962Y186557D01*
X356832Y187161D01*
X355606Y187533D01*
X355331Y187560D01*
D02*
G37*
G36*
X380890Y182839D02*
X380448Y182544D01*
X380153Y182102D01*
X380890D01*
Y182839D01*
D02*
G37*
G36*
X345457D02*
X345015Y182544D01*
X344720Y182102D01*
X345457D01*
Y182839D01*
D02*
G37*
G36*
X323834D02*
Y182102D01*
X324571D01*
X324276Y182544D01*
X323834Y182839D01*
D02*
G37*
G36*
X321834D02*
X321393Y182544D01*
X321098Y182102D01*
X321834D01*
Y182839D01*
D02*
G37*
G36*
X99425D02*
Y182102D01*
X100162D01*
X99867Y182544D01*
X99425Y182839D01*
D02*
G37*
G36*
X97425D02*
X96983Y182544D01*
X96688Y182102D01*
X97425D01*
Y182839D01*
D02*
G37*
G36*
X87614D02*
Y182102D01*
X88351D01*
X88056Y182544D01*
X87614Y182839D01*
D02*
G37*
G36*
X85614D02*
X85172Y182544D01*
X84877Y182102D01*
X85614D01*
Y182839D01*
D02*
G37*
G36*
X75803D02*
Y182102D01*
X76540D01*
X76245Y182544D01*
X75803Y182839D01*
D02*
G37*
G36*
X73803D02*
X73361Y182544D01*
X73066Y182102D01*
X73803D01*
Y182839D01*
D02*
G37*
G36*
X63992D02*
Y182102D01*
X64729D01*
X64434Y182544D01*
X63992Y182839D01*
D02*
G37*
G36*
X61992D02*
X61550Y182544D01*
X61255Y182102D01*
X61992D01*
Y182839D01*
D02*
G37*
G36*
X52181D02*
Y182102D01*
X52918D01*
X52623Y182544D01*
X52181Y182839D01*
D02*
G37*
G36*
X50181D02*
X49739Y182544D01*
X49444Y182102D01*
X50181D01*
Y182839D01*
D02*
G37*
G36*
X40370D02*
Y182102D01*
X41107D01*
X40812Y182544D01*
X40370Y182839D01*
D02*
G37*
G36*
X38370D02*
X37928Y182544D01*
X37633Y182102D01*
X38370D01*
Y182839D01*
D02*
G37*
G36*
X28559D02*
Y182102D01*
X29296D01*
X29001Y182544D01*
X28559Y182839D01*
D02*
G37*
G36*
X26559D02*
X26117Y182544D01*
X25822Y182102D01*
X26559D01*
Y182839D01*
D02*
G37*
G36*
X16748D02*
Y182102D01*
X17485D01*
X17190Y182544D01*
X16748Y182839D01*
D02*
G37*
G36*
X14748D02*
X14306Y182544D01*
X14011Y182102D01*
X14748D01*
Y182839D01*
D02*
G37*
G36*
X331737Y181500D02*
X331000D01*
Y180763D01*
X331442Y181058D01*
X331737Y181500D01*
D02*
G37*
G36*
X329000D02*
X328263D01*
X328558Y181058D01*
X329000Y180763D01*
Y181500D01*
D02*
G37*
G36*
X316737D02*
X316000D01*
Y180763D01*
X316442Y181058D01*
X316737Y181500D01*
D02*
G37*
G36*
X314000D02*
X313263D01*
X313558Y181058D01*
X314000Y180763D01*
Y181500D01*
D02*
G37*
G36*
X301737D02*
X301000D01*
Y180763D01*
X301442Y181058D01*
X301737Y181500D01*
D02*
G37*
G36*
X299000D02*
X298263D01*
X298558Y181058D01*
X299000Y180763D01*
Y181500D01*
D02*
G37*
G36*
X286737D02*
X286000D01*
Y180763D01*
X286442Y181058D01*
X286737Y181500D01*
D02*
G37*
G36*
X284000D02*
X283263D01*
X283558Y181058D01*
X284000Y180763D01*
Y181500D01*
D02*
G37*
G36*
X271737D02*
X271000D01*
Y180763D01*
X271442Y181058D01*
X271737Y181500D01*
D02*
G37*
G36*
X269000D02*
X268263D01*
X268558Y181058D01*
X269000Y180763D01*
Y181500D01*
D02*
G37*
G36*
X380890Y180102D02*
X380153D01*
X380448Y179661D01*
X380890Y179366D01*
Y180102D01*
D02*
G37*
G36*
X345457D02*
X344720D01*
X345015Y179661D01*
X345457Y179366D01*
Y180102D01*
D02*
G37*
G36*
X324571D02*
X323834D01*
Y179366D01*
X324276Y179661D01*
X324571Y180102D01*
D02*
G37*
G36*
X321834D02*
X321098D01*
X321393Y179661D01*
X321834Y179366D01*
Y180102D01*
D02*
G37*
G36*
X100162D02*
X99425D01*
Y179366D01*
X99867Y179661D01*
X100162Y180102D01*
D02*
G37*
G36*
X97425D02*
X96688D01*
X96983Y179661D01*
X97425Y179366D01*
Y180102D01*
D02*
G37*
G36*
X88351D02*
X87614D01*
Y179366D01*
X88056Y179661D01*
X88351Y180102D01*
D02*
G37*
G36*
X85614D02*
X84877D01*
X85172Y179661D01*
X85614Y179366D01*
Y180102D01*
D02*
G37*
G36*
X76540D02*
X75803D01*
Y179366D01*
X76245Y179661D01*
X76540Y180102D01*
D02*
G37*
G36*
X73803D02*
X73066D01*
X73361Y179661D01*
X73803Y179366D01*
Y180102D01*
D02*
G37*
G36*
X64729D02*
X63992D01*
Y179366D01*
X64434Y179661D01*
X64729Y180102D01*
D02*
G37*
G36*
X61992D02*
X61255D01*
X61550Y179661D01*
X61992Y179366D01*
Y180102D01*
D02*
G37*
G36*
X52918D02*
X52181D01*
Y179366D01*
X52623Y179661D01*
X52918Y180102D01*
D02*
G37*
G36*
X50181D02*
X49444D01*
X49739Y179661D01*
X50181Y179366D01*
Y180102D01*
D02*
G37*
G36*
X41107D02*
X40370D01*
Y179366D01*
X40812Y179661D01*
X41107Y180102D01*
D02*
G37*
G36*
X38370D02*
X37633D01*
X37928Y179661D01*
X38370Y179366D01*
Y180102D01*
D02*
G37*
G36*
X29296D02*
X28559D01*
Y179366D01*
X29001Y179661D01*
X29296Y180102D01*
D02*
G37*
G36*
X26559D02*
X25822D01*
X26117Y179661D01*
X26559Y179366D01*
Y180102D01*
D02*
G37*
G36*
X17485D02*
X16748D01*
Y179366D01*
X17190Y179661D01*
X17485Y180102D01*
D02*
G37*
G36*
X14748D02*
X14011D01*
X14306Y179661D01*
X14748Y179366D01*
Y180102D01*
D02*
G37*
G36*
X188992Y195622D02*
X188212Y195467D01*
X187550Y195025D01*
X187108Y194363D01*
X186953Y193583D01*
X187108Y192802D01*
X187361Y192424D01*
Y178158D01*
X187108Y177780D01*
X186953Y177000D01*
X187108Y176220D01*
X187550Y175558D01*
X188212Y175116D01*
X188992Y174961D01*
X189772Y175116D01*
X190434Y175558D01*
X190876Y176220D01*
X191031Y177000D01*
X190876Y177780D01*
X190623Y178158D01*
Y192424D01*
X190876Y192802D01*
X191031Y193583D01*
X190876Y194363D01*
X190434Y195025D01*
X189772Y195467D01*
X188992Y195622D01*
D02*
G37*
G36*
X360769Y180122D02*
X355331D01*
Y174683D01*
X355606Y174711D01*
X356832Y175083D01*
X357962Y175687D01*
X358953Y176500D01*
X359766Y177490D01*
X360370Y178620D01*
X360742Y179847D01*
X360769Y180122D01*
D02*
G37*
G36*
X376984Y171028D02*
Y170291D01*
X377721D01*
X377426Y170733D01*
X376984Y171028D01*
D02*
G37*
G36*
X374984D02*
X374542Y170733D01*
X374247Y170291D01*
X374984D01*
Y171028D01*
D02*
G37*
G36*
X306118D02*
Y170291D01*
X306855D01*
X306560Y170733D01*
X306118Y171028D01*
D02*
G37*
G36*
X304118D02*
X303676Y170733D01*
X303381Y170291D01*
X304118D01*
Y171028D01*
D02*
G37*
G36*
X294307D02*
Y170291D01*
X295044D01*
X294749Y170733D01*
X294307Y171028D01*
D02*
G37*
G36*
X292307D02*
X291865Y170733D01*
X291570Y170291D01*
X292307D01*
Y171028D01*
D02*
G37*
G36*
X306855Y168291D02*
X306118D01*
Y167554D01*
X306560Y167850D01*
X306855Y168291D01*
D02*
G37*
G36*
X304118D02*
X303381D01*
X303676Y167850D01*
X304118Y167554D01*
Y168291D01*
D02*
G37*
G36*
X295044D02*
X294307D01*
Y167554D01*
X294749Y167850D01*
X295044Y168291D01*
D02*
G37*
G36*
X292307D02*
X291570D01*
X291865Y167850D01*
X292307Y167554D01*
Y168291D01*
D02*
G37*
G36*
X267000Y174039D02*
X266220Y173884D01*
X265558Y173442D01*
X265116Y172780D01*
X264961Y172000D01*
X265116Y171220D01*
X265558Y170558D01*
X265879Y170344D01*
Y166656D01*
X265558Y166442D01*
X265116Y165780D01*
X264961Y165000D01*
X265116Y164220D01*
X265558Y163558D01*
X266220Y163116D01*
X267000Y162961D01*
X267780Y163116D01*
X268442Y163558D01*
X268884Y164220D01*
X269039Y165000D01*
X268884Y165780D01*
X268442Y166442D01*
X268122Y166656D01*
Y170344D01*
X268442Y170558D01*
X268884Y171220D01*
X269039Y172000D01*
X268884Y172780D01*
X268442Y173442D01*
X267780Y173884D01*
X267000Y174039D01*
D02*
G37*
G36*
X382890Y159217D02*
Y158480D01*
X383626D01*
X383331Y158922D01*
X382890Y159217D01*
D02*
G37*
G36*
X380890D02*
X380448Y158922D01*
X380153Y158480D01*
X380890D01*
Y159217D01*
D02*
G37*
G36*
X323834D02*
Y158480D01*
X324571D01*
X324276Y158922D01*
X323834Y159217D01*
D02*
G37*
G36*
X321834D02*
X321393Y158922D01*
X321098Y158480D01*
X321834D01*
Y159217D01*
D02*
G37*
G36*
X241157D02*
Y158480D01*
X241894D01*
X241599Y158922D01*
X241157Y159217D01*
D02*
G37*
G36*
X239157D02*
X238716Y158922D01*
X238421Y158480D01*
X239157D01*
Y159217D01*
D02*
G37*
G36*
X276000Y158237D02*
Y157500D01*
X276737D01*
X276442Y157942D01*
X276000Y158237D01*
D02*
G37*
G36*
X274000D02*
X273558Y157942D01*
X273263Y157500D01*
X274000D01*
Y158237D01*
D02*
G37*
G36*
X211500Y168039D02*
X210720Y167884D01*
X210058Y167442D01*
X209616Y166780D01*
X209461Y166000D01*
X209616Y165220D01*
X210058Y164558D01*
X210720Y164116D01*
X211166Y164027D01*
X215082Y160111D01*
X214961Y159500D01*
X215116Y158720D01*
X215558Y158058D01*
X216220Y157616D01*
X217000Y157461D01*
X217780Y157616D01*
X218442Y158058D01*
X218884Y158720D01*
X219039Y159500D01*
X218884Y160280D01*
X218586Y160726D01*
X218507Y161124D01*
X218154Y161653D01*
X213473Y166334D01*
X213384Y166780D01*
X212942Y167442D01*
X212280Y167884D01*
X211500Y168039D01*
D02*
G37*
G36*
X383626Y156480D02*
X382890D01*
Y155744D01*
X383331Y156039D01*
X383626Y156480D01*
D02*
G37*
G36*
X380890D02*
X380153D01*
X380448Y156039D01*
X380890Y155744D01*
Y156480D01*
D02*
G37*
G36*
X324571D02*
X323834D01*
Y155744D01*
X324276Y156039D01*
X324571Y156480D01*
D02*
G37*
G36*
X321834D02*
X321098D01*
X321393Y156039D01*
X321834Y155744D01*
Y156480D01*
D02*
G37*
G36*
X241894D02*
X241157D01*
Y155744D01*
X241599Y156039D01*
X241894Y156480D01*
D02*
G37*
G36*
X239157D02*
X238421D01*
X238716Y156039D01*
X239157Y155744D01*
Y156480D01*
D02*
G37*
G36*
X290000Y156039D02*
X289220Y155884D01*
X288558Y155442D01*
X288344Y155122D01*
X281656D01*
X281442Y155442D01*
X280780Y155884D01*
X280000Y156039D01*
X279220Y155884D01*
X278558Y155442D01*
X278344Y155122D01*
X277015D01*
X276812Y155500D01*
X273188D01*
X272985Y155122D01*
X264000D01*
X263571Y155036D01*
X263207Y154793D01*
X263207Y154793D01*
X254207Y145793D01*
X253964Y145429D01*
X253878Y145000D01*
X253878Y145000D01*
Y142962D01*
X251644D01*
Y141122D01*
X248356D01*
Y142962D01*
X241644D01*
Y141122D01*
X238356D01*
Y142962D01*
X231644D01*
Y141122D01*
X228356D01*
Y142962D01*
X221644D01*
Y141122D01*
X218356D01*
Y142962D01*
X211644D01*
Y137038D01*
X218356D01*
Y138878D01*
X221644D01*
Y137038D01*
X228356D01*
Y138878D01*
X231644D01*
Y137038D01*
X238356D01*
Y138878D01*
X241644D01*
Y137038D01*
X248356D01*
Y138878D01*
X251644D01*
Y137038D01*
X258356D01*
Y142962D01*
X256121D01*
Y144535D01*
X264465Y152878D01*
X278344D01*
X278558Y152558D01*
X279220Y152116D01*
X280000Y151961D01*
X280780Y152116D01*
X281442Y152558D01*
X281656Y152878D01*
X288344D01*
X288558Y152558D01*
X289220Y152116D01*
X290000Y151961D01*
X290780Y152116D01*
X291442Y152558D01*
X291884Y153220D01*
X292039Y154000D01*
X291884Y154780D01*
X291442Y155442D01*
X290780Y155884D01*
X290000Y156039D01*
D02*
G37*
G36*
X295000Y165039D02*
X294220Y164884D01*
X293558Y164442D01*
X293116Y163780D01*
X292961Y163000D01*
X293116Y162220D01*
X293558Y161558D01*
X293879Y161344D01*
Y158656D01*
X293558Y158442D01*
X293116Y157780D01*
X292961Y157000D01*
X293116Y156220D01*
X293558Y155558D01*
X294220Y155116D01*
X295000Y154961D01*
X295780Y155116D01*
X296442Y155558D01*
X296884Y156220D01*
X297039Y157000D01*
X296884Y157780D01*
X296442Y158442D01*
X296122Y158656D01*
Y161344D01*
X296442Y161558D01*
X296884Y162220D01*
X297039Y163000D01*
X296884Y163780D01*
X296442Y164442D01*
X295780Y164884D01*
X295000Y165039D01*
D02*
G37*
G36*
X68900Y155773D02*
X68120Y155618D01*
X67458Y155176D01*
X67302Y154942D01*
X66942D01*
X66280Y155384D01*
X65500Y155539D01*
X64720Y155384D01*
X64058Y154942D01*
X63616Y154280D01*
X63461Y153500D01*
X63616Y152720D01*
X64058Y152058D01*
X64414Y151820D01*
X64464Y151571D01*
X64707Y151207D01*
X69036Y146878D01*
X68961Y146500D01*
X69116Y145720D01*
X69558Y145058D01*
X70220Y144616D01*
X71000Y144461D01*
X71780Y144616D01*
X72442Y145058D01*
X72884Y145720D01*
X73039Y146500D01*
X73013Y146634D01*
X73366Y146987D01*
X73500Y146961D01*
X74280Y147116D01*
X74942Y147558D01*
X75384Y148220D01*
X75539Y149000D01*
X75384Y149780D01*
X74942Y150442D01*
X74280Y150884D01*
X73500Y151039D01*
X73122Y150964D01*
X70842Y153244D01*
X70939Y153734D01*
X70784Y154514D01*
X70342Y155176D01*
X69680Y155618D01*
X68900Y155773D01*
D02*
G37*
G36*
X174000Y154539D02*
X173220Y154384D01*
X172558Y153942D01*
X172116Y153280D01*
X171586Y153180D01*
X171280Y153384D01*
X170500Y153539D01*
X169720Y153384D01*
X169058Y152942D01*
X168616Y152280D01*
X168461Y151500D01*
X168616Y150720D01*
X169058Y150058D01*
X169378Y149844D01*
Y149500D01*
X169378Y149500D01*
X169464Y149071D01*
X169707Y148707D01*
X175036Y143378D01*
X174961Y143000D01*
X175116Y142220D01*
X175558Y141558D01*
X176220Y141116D01*
X177000Y140961D01*
X177780Y141116D01*
X178442Y141558D01*
X178884Y142220D01*
X179039Y143000D01*
X178927Y143565D01*
X179270Y143977D01*
X179312Y143998D01*
X179500Y143961D01*
X180280Y144116D01*
X180942Y144558D01*
X181384Y145220D01*
X181539Y146000D01*
X181384Y146780D01*
X180942Y147442D01*
X180280Y147884D01*
X179500Y148039D01*
X179122Y147964D01*
X175677Y151409D01*
X175884Y151720D01*
X176039Y152500D01*
X175884Y153280D01*
X175442Y153942D01*
X174780Y154384D01*
X174000Y154539D01*
D02*
G37*
G36*
X378953Y155378D02*
Y150941D01*
X383390D01*
X383332Y151382D01*
X382776Y152725D01*
X381891Y153879D01*
X380737Y154764D01*
X379394Y155320D01*
X378953Y155378D01*
D02*
G37*
G36*
X376953D02*
X376511Y155320D01*
X375168Y154764D01*
X374015Y153879D01*
X373130Y152725D01*
X372574Y151382D01*
X372516Y150941D01*
X376953D01*
Y155378D01*
D02*
G37*
G36*
X365500Y156539D02*
X364720Y156384D01*
X364058Y155942D01*
X363616Y155280D01*
X363461Y154500D01*
X363584Y153882D01*
X360351Y150649D01*
X360152Y150351D01*
X360082Y150000D01*
Y143292D01*
X359558Y142942D01*
X359116Y142280D01*
X358961Y141500D01*
X359116Y140720D01*
X359558Y140058D01*
X360220Y139616D01*
X361000Y139461D01*
X361733Y139606D01*
X361938Y139438D01*
X362107Y139233D01*
X361961Y138500D01*
X362116Y137720D01*
X362558Y137058D01*
X363220Y136616D01*
X364000Y136461D01*
X364780Y136616D01*
X365442Y137058D01*
X365884Y137720D01*
X366039Y138500D01*
X365884Y139280D01*
X365442Y139942D01*
X364918Y140292D01*
Y147620D01*
X367382Y150084D01*
X368000Y149961D01*
X368780Y150116D01*
X369442Y150558D01*
X369884Y151220D01*
X370039Y152000D01*
X369884Y152780D01*
X369442Y153442D01*
X368780Y153884D01*
X368000Y154039D01*
X367866Y154013D01*
X367513Y154366D01*
X367539Y154500D01*
X367384Y155280D01*
X366942Y155942D01*
X366280Y156384D01*
X365500Y156539D01*
D02*
G37*
G36*
X329740Y147406D02*
Y146669D01*
X330477D01*
X330182Y147111D01*
X329740Y147406D01*
D02*
G37*
G36*
X327740D02*
X327298Y147111D01*
X327003Y146669D01*
X327740D01*
Y147406D01*
D02*
G37*
G36*
X383390Y148941D02*
X378953D01*
Y144504D01*
X379394Y144562D01*
X380737Y145118D01*
X381891Y146003D01*
X382776Y147157D01*
X383332Y148500D01*
X383390Y148941D01*
D02*
G37*
G36*
X376953D02*
X372516D01*
X372574Y148500D01*
X373130Y147157D01*
X374015Y146003D01*
X375168Y145118D01*
X376511Y144562D01*
X376953Y144504D01*
Y148941D01*
D02*
G37*
G36*
X289000Y146039D02*
X288220Y145884D01*
X287558Y145442D01*
X287116Y144780D01*
X286985Y144122D01*
X284278D01*
X284064Y144442D01*
X283402Y144884D01*
X282622Y145039D01*
X281842Y144884D01*
X281180Y144442D01*
X280738Y143780D01*
X280583Y143000D01*
X280738Y142220D01*
X281180Y141558D01*
X281842Y141116D01*
X282622Y140961D01*
X283402Y141116D01*
X284064Y141558D01*
X284278Y141878D01*
X289000D01*
X289429Y141964D01*
X289605Y142081D01*
X289780Y142116D01*
X290442Y142558D01*
X290884Y143220D01*
X291039Y144000D01*
X290884Y144780D01*
X290442Y145442D01*
X289780Y145884D01*
X289000Y146039D01*
D02*
G37*
G36*
X330477Y144669D02*
X329740D01*
Y143932D01*
X330182Y144228D01*
X330477Y144669D01*
D02*
G37*
G36*
X327740D02*
X327003D01*
X327298Y144228D01*
X327740Y143932D01*
Y144669D01*
D02*
G37*
G36*
X205000Y139039D02*
X204220Y138884D01*
X203558Y138442D01*
X203500Y138355D01*
X203000D01*
X202942Y138442D01*
X202280Y138884D01*
X201500Y139039D01*
X200720Y138884D01*
X200058Y138442D01*
X200000Y138355D01*
X199500D01*
X199442Y138442D01*
X198780Y138884D01*
X198000Y139039D01*
X197220Y138884D01*
X196558Y138442D01*
X196116Y137780D01*
X195961Y137000D01*
X196116Y136220D01*
X196558Y135558D01*
X197082Y135208D01*
Y125792D01*
X196558Y125442D01*
X196116Y124780D01*
X195961Y124000D01*
X196116Y123220D01*
X196558Y122558D01*
X197220Y122116D01*
X198000Y121961D01*
X198780Y122116D01*
X199442Y122558D01*
X199500Y122645D01*
X200000D01*
X200058Y122558D01*
X200720Y122116D01*
X201500Y121961D01*
X202280Y122116D01*
X202942Y122558D01*
X203000Y122645D01*
X203500D01*
X203558Y122558D01*
X204220Y122116D01*
X205000Y121961D01*
X205780Y122116D01*
X206442Y122558D01*
X206884Y123220D01*
X207039Y124000D01*
X206884Y124780D01*
X206442Y125442D01*
X205918Y125792D01*
Y135208D01*
X206442Y135558D01*
X206884Y136220D01*
X207039Y137000D01*
X206884Y137780D01*
X206442Y138442D01*
X205780Y138884D01*
X205000Y139039D01*
D02*
G37*
G36*
X323856Y143462D02*
X317144D01*
Y137538D01*
X322345D01*
X322394Y137038D01*
X322139Y136987D01*
X321720Y136904D01*
X321058Y136462D01*
X320695Y135918D01*
X316380D01*
X313856Y138442D01*
Y143462D01*
X307144D01*
Y139307D01*
X306682Y139116D01*
X305916Y139882D01*
X306039Y140500D01*
X305884Y141280D01*
X305442Y141942D01*
X304780Y142384D01*
X304000Y142539D01*
X303220Y142384D01*
X302558Y141942D01*
X302116Y141280D01*
X301961Y140500D01*
X302116Y139720D01*
X302558Y139058D01*
X302645Y139000D01*
Y138500D01*
X302558Y138442D01*
X302116Y137780D01*
X301961Y137000D01*
X302116Y136220D01*
X302558Y135558D01*
X302878Y135344D01*
Y132656D01*
X302558Y132442D01*
X302116Y131780D01*
X301961Y131000D01*
X302116Y130220D01*
X302558Y129558D01*
X303220Y129116D01*
X304000Y128961D01*
X304780Y129116D01*
X305442Y129558D01*
X305884Y130220D01*
X306039Y131000D01*
X305884Y131780D01*
X305442Y132442D01*
X305121Y132656D01*
Y135344D01*
X305442Y135558D01*
X305884Y136220D01*
X305949Y136546D01*
X306491Y136711D01*
X309083Y134120D01*
X308875Y133620D01*
X307144D01*
Y127695D01*
X309582D01*
Y123462D01*
X307144D01*
Y117538D01*
X313856D01*
Y123462D01*
X311418D01*
Y127695D01*
X313856D01*
Y133620D01*
X311418D01*
Y134000D01*
X311348Y134351D01*
X311149Y134649D01*
X308722Y137076D01*
X308913Y137538D01*
X312164D01*
X315351Y134351D01*
X315649Y134152D01*
X316000Y134082D01*
X317054D01*
X317144Y133620D01*
X317144D01*
Y127695D01*
X319582D01*
Y123462D01*
X317144D01*
Y117538D01*
X317587D01*
X317778Y117076D01*
X316120Y115418D01*
X298292D01*
X297942Y115942D01*
X297280Y116384D01*
X296500Y116539D01*
X295720Y116384D01*
X295058Y115942D01*
X294616Y115280D01*
X294461Y114500D01*
X294616Y113720D01*
X295058Y113058D01*
X295720Y112616D01*
X296500Y112461D01*
X297280Y112616D01*
X297942Y113058D01*
X298292Y113582D01*
X307144D01*
Y111658D01*
X310500D01*
X313856D01*
Y113582D01*
X316500D01*
X316644Y113611D01*
X317083Y113331D01*
X317144Y113247D01*
Y111658D01*
X319500D01*
Y113620D01*
X317624D01*
X317417Y114120D01*
X320835Y117538D01*
X323856D01*
Y123462D01*
X321418D01*
Y127695D01*
X323856D01*
Y133520D01*
X323942Y133578D01*
X324384Y134239D01*
X324539Y135020D01*
X324384Y135800D01*
X323942Y136462D01*
X323280Y136904D01*
X322861Y136987D01*
X322606Y137038D01*
X322655Y137538D01*
X323856D01*
Y139582D01*
X325620D01*
X328584Y136618D01*
X328461Y136000D01*
X328616Y135220D01*
X329058Y134558D01*
X329720Y134116D01*
X330500Y133961D01*
X331280Y134116D01*
X331942Y134558D01*
X332384Y135220D01*
X332539Y136000D01*
X332384Y136780D01*
X331942Y137442D01*
X331280Y137884D01*
X330500Y138039D01*
X329882Y137916D01*
X326649Y141149D01*
X326351Y141348D01*
X326000Y141418D01*
X323856D01*
Y143462D01*
D02*
G37*
G36*
X182102Y135595D02*
Y134858D01*
X182839D01*
X182544Y135300D01*
X182102Y135595D01*
D02*
G37*
G36*
X180102D02*
X179661Y135300D01*
X179366Y134858D01*
X180102D01*
Y135595D01*
D02*
G37*
G36*
X182839Y132858D02*
X182102D01*
Y132122D01*
X182544Y132416D01*
X182839Y132858D01*
D02*
G37*
G36*
X180102D02*
X179366D01*
X179661Y132416D01*
X180102Y132122D01*
Y132858D01*
D02*
G37*
G36*
X288500Y129237D02*
Y128500D01*
X289237D01*
X288942Y128942D01*
X288500Y129237D01*
D02*
G37*
G36*
X286500D02*
X286058Y128942D01*
X285763Y128500D01*
X286500D01*
Y129237D01*
D02*
G37*
G36*
X276000D02*
Y128500D01*
X276737D01*
X276442Y128942D01*
X276000Y129237D01*
D02*
G37*
G36*
X274000D02*
X273558Y128942D01*
X273263Y128500D01*
X274000D01*
Y129237D01*
D02*
G37*
G36*
X171000D02*
Y128500D01*
X171737D01*
X171442Y128942D01*
X171000Y129237D01*
D02*
G37*
G36*
X169000D02*
X168558Y128942D01*
X168263Y128500D01*
X169000D01*
Y129237D01*
D02*
G37*
G36*
X163500D02*
Y128500D01*
X164237D01*
X163942Y128942D01*
X163500Y129237D01*
D02*
G37*
G36*
X161500D02*
X161058Y128942D01*
X160763Y128500D01*
X161500D01*
Y129237D01*
D02*
G37*
G36*
X66000D02*
Y128500D01*
X66737D01*
X66442Y128942D01*
X66000Y129237D01*
D02*
G37*
G36*
X64000D02*
X63558Y128942D01*
X63263Y128500D01*
X64000D01*
Y129237D01*
D02*
G37*
G36*
X58500D02*
Y128500D01*
X59237D01*
X58942Y128942D01*
X58500Y129237D01*
D02*
G37*
G36*
X56500D02*
X56058Y128942D01*
X55763Y128500D01*
X56500D01*
Y129237D01*
D02*
G37*
G36*
X191000Y126737D02*
Y126000D01*
X191737D01*
X191442Y126442D01*
X191000Y126737D01*
D02*
G37*
G36*
X189000D02*
X188558Y126442D01*
X188263Y126000D01*
X189000D01*
Y126737D01*
D02*
G37*
G36*
X141000D02*
Y126000D01*
X141737D01*
X141442Y126442D01*
X141000Y126737D01*
D02*
G37*
G36*
X139000D02*
X138558Y126442D01*
X138263Y126000D01*
X139000D01*
Y126737D01*
D02*
G37*
G36*
X126000D02*
Y126000D01*
X126737D01*
X126442Y126442D01*
X126000Y126737D01*
D02*
G37*
G36*
X124000D02*
X123558Y126442D01*
X123263Y126000D01*
X124000D01*
Y126737D01*
D02*
G37*
G36*
X86000D02*
Y126000D01*
X86737D01*
X86442Y126442D01*
X86000Y126737D01*
D02*
G37*
G36*
X84000D02*
X83558Y126442D01*
X83263Y126000D01*
X84000D01*
Y126737D01*
D02*
G37*
G36*
X36000D02*
Y126000D01*
X36737D01*
X36442Y126442D01*
X36000Y126737D01*
D02*
G37*
G36*
X34000D02*
X33558Y126442D01*
X33263Y126000D01*
X34000D01*
Y126737D01*
D02*
G37*
G36*
X21000D02*
Y126000D01*
X21737D01*
X21442Y126442D01*
X21000Y126737D01*
D02*
G37*
G36*
X19000D02*
X18558Y126442D01*
X18263Y126000D01*
X19000D01*
Y126737D01*
D02*
G37*
G36*
X289237Y126500D02*
X288500D01*
Y125763D01*
X288942Y126058D01*
X289237Y126500D01*
D02*
G37*
G36*
X286500D02*
X285763D01*
X286058Y126058D01*
X286500Y125763D01*
Y126500D01*
D02*
G37*
G36*
X276737D02*
X276000D01*
Y125763D01*
X276442Y126058D01*
X276737Y126500D01*
D02*
G37*
G36*
X274000D02*
X273263D01*
X273558Y126058D01*
X274000Y125763D01*
Y126500D01*
D02*
G37*
G36*
X171737D02*
X171000D01*
Y125763D01*
X171442Y126058D01*
X171737Y126500D01*
D02*
G37*
G36*
X169000D02*
X168263D01*
X168558Y126058D01*
X169000Y125763D01*
Y126500D01*
D02*
G37*
G36*
X164237D02*
X163500D01*
Y125763D01*
X163942Y126058D01*
X164237Y126500D01*
D02*
G37*
G36*
X161500D02*
X160763D01*
X161058Y126058D01*
X161500Y125763D01*
Y126500D01*
D02*
G37*
G36*
X66737D02*
X66000D01*
Y125763D01*
X66442Y126058D01*
X66737Y126500D01*
D02*
G37*
G36*
X64000D02*
X63263D01*
X63558Y126058D01*
X64000Y125763D01*
Y126500D01*
D02*
G37*
G36*
X59237D02*
X58500D01*
Y125763D01*
X58942Y126058D01*
X59237Y126500D01*
D02*
G37*
G36*
X56500D02*
X55763D01*
X56058Y126058D01*
X56500Y125763D01*
Y126500D01*
D02*
G37*
G36*
X288500Y124237D02*
Y123500D01*
X289237D01*
X288942Y123942D01*
X288500Y124237D01*
D02*
G37*
G36*
X286500D02*
X286058Y123942D01*
X285763Y123500D01*
X286500D01*
Y124237D01*
D02*
G37*
G36*
X276000D02*
Y123500D01*
X276737D01*
X276442Y123942D01*
X276000Y124237D01*
D02*
G37*
G36*
X274000D02*
X273558Y123942D01*
X273263Y123500D01*
X274000D01*
Y124237D01*
D02*
G37*
G36*
X171000D02*
Y123500D01*
X171737D01*
X171442Y123942D01*
X171000Y124237D01*
D02*
G37*
G36*
X169000D02*
X168558Y123942D01*
X168263Y123500D01*
X169000D01*
Y124237D01*
D02*
G37*
G36*
X163500D02*
Y123500D01*
X164237D01*
X163942Y123942D01*
X163500Y124237D01*
D02*
G37*
G36*
X161500D02*
X161058Y123942D01*
X160763Y123500D01*
X161500D01*
Y124237D01*
D02*
G37*
G36*
X66000D02*
Y123500D01*
X66737D01*
X66442Y123942D01*
X66000Y124237D01*
D02*
G37*
G36*
X64000D02*
X63558Y123942D01*
X63263Y123500D01*
X64000D01*
Y124237D01*
D02*
G37*
G36*
X58500D02*
Y123500D01*
X59237D01*
X58942Y123942D01*
X58500Y124237D01*
D02*
G37*
G36*
X56500D02*
X56058Y123942D01*
X55763Y123500D01*
X56500D01*
Y124237D01*
D02*
G37*
G36*
X191737Y124000D02*
X191000D01*
Y123263D01*
X191442Y123558D01*
X191737Y124000D01*
D02*
G37*
G36*
X189000D02*
X188263D01*
X188558Y123558D01*
X189000Y123263D01*
Y124000D01*
D02*
G37*
G36*
X141737D02*
X141000D01*
Y123263D01*
X141442Y123558D01*
X141737Y124000D01*
D02*
G37*
G36*
X139000D02*
X138263D01*
X138558Y123558D01*
X139000Y123263D01*
Y124000D01*
D02*
G37*
G36*
X126737D02*
X126000D01*
Y123263D01*
X126442Y123558D01*
X126737Y124000D01*
D02*
G37*
G36*
X124000D02*
X123263D01*
X123558Y123558D01*
X124000Y123263D01*
Y124000D01*
D02*
G37*
G36*
X86737D02*
X86000D01*
Y123263D01*
X86442Y123558D01*
X86737Y124000D01*
D02*
G37*
G36*
X84000D02*
X83263D01*
X83558Y123558D01*
X84000Y123263D01*
Y124000D01*
D02*
G37*
G36*
X36737D02*
X36000D01*
Y123263D01*
X36442Y123558D01*
X36737Y124000D01*
D02*
G37*
G36*
X34000D02*
X33263D01*
X33558Y123558D01*
X34000Y123263D01*
Y124000D01*
D02*
G37*
G36*
X21737D02*
X21000D01*
Y123263D01*
X21442Y123558D01*
X21737Y124000D01*
D02*
G37*
G36*
X19000D02*
X18263D01*
X18558Y123558D01*
X19000Y123263D01*
Y124000D01*
D02*
G37*
G36*
X383474Y135462D02*
X372431D01*
Y124420D01*
X375104D01*
X375197Y123965D01*
X375187Y123920D01*
X374542Y123489D01*
X374247Y123047D01*
X377721D01*
X377426Y123489D01*
X376781Y123920D01*
X376771Y123965D01*
X376864Y124420D01*
X383474D01*
Y135462D01*
D02*
G37*
G36*
X365173Y123784D02*
Y123047D01*
X365910D01*
X365615Y123489D01*
X365173Y123784D01*
D02*
G37*
G36*
X363173D02*
X362731Y123489D01*
X362436Y123047D01*
X363173D01*
Y123784D01*
D02*
G37*
G36*
X152575D02*
Y123047D01*
X153311D01*
X153016Y123489D01*
X152575Y123784D01*
D02*
G37*
G36*
X150575D02*
X150133Y123489D01*
X149838Y123047D01*
X150575D01*
Y123784D01*
D02*
G37*
G36*
X46275D02*
Y123047D01*
X47012D01*
X46717Y123489D01*
X46275Y123784D01*
D02*
G37*
G36*
X44276D02*
X43834Y123489D01*
X43539Y123047D01*
X44276D01*
Y123784D01*
D02*
G37*
G36*
X289237Y121500D02*
X288500D01*
Y120763D01*
X288942Y121058D01*
X289237Y121500D01*
D02*
G37*
G36*
X286500D02*
X285763D01*
X286058Y121058D01*
X286500Y120763D01*
Y121500D01*
D02*
G37*
G36*
X276737D02*
X276000D01*
Y120763D01*
X276442Y121058D01*
X276737Y121500D01*
D02*
G37*
G36*
X274000D02*
X273263D01*
X273558Y121058D01*
X274000Y120763D01*
Y121500D01*
D02*
G37*
G36*
X171737D02*
X171000D01*
Y120763D01*
X171442Y121058D01*
X171737Y121500D01*
D02*
G37*
G36*
X169000D02*
X168263D01*
X168558Y121058D01*
X169000Y120763D01*
Y121500D01*
D02*
G37*
G36*
X164237D02*
X163500D01*
Y120763D01*
X163942Y121058D01*
X164237Y121500D01*
D02*
G37*
G36*
X161500D02*
X160763D01*
X161058Y121058D01*
X161500Y120763D01*
Y121500D01*
D02*
G37*
G36*
X66737D02*
X66000D01*
Y120763D01*
X66442Y121058D01*
X66737Y121500D01*
D02*
G37*
G36*
X64000D02*
X63263D01*
X63558Y121058D01*
X64000Y120763D01*
Y121500D01*
D02*
G37*
G36*
X59237D02*
X58500D01*
Y120763D01*
X58942Y121058D01*
X59237Y121500D01*
D02*
G37*
G36*
X56500D02*
X55763D01*
X56058Y121058D01*
X56500Y120763D01*
Y121500D01*
D02*
G37*
G36*
X377721Y121047D02*
X376984D01*
Y120310D01*
X377426Y120606D01*
X377721Y121047D01*
D02*
G37*
G36*
X374984D02*
X374247D01*
X374542Y120606D01*
X374984Y120310D01*
Y121047D01*
D02*
G37*
G36*
X153311D02*
X152575D01*
Y120310D01*
X153016Y120606D01*
X153311Y121047D01*
D02*
G37*
G36*
X150575D02*
X149838D01*
X150133Y120606D01*
X150575Y120310D01*
Y121047D01*
D02*
G37*
G36*
X47012D02*
X46275D01*
Y120310D01*
X46717Y120606D01*
X47012Y121047D01*
D02*
G37*
G36*
X44276D02*
X43539D01*
X43834Y120606D01*
X44276Y120310D01*
Y121047D01*
D02*
G37*
G36*
X258497Y136118D02*
X227200D01*
X226849Y136048D01*
X226551Y135849D01*
X224351Y133649D01*
X224152Y133351D01*
X224106Y133120D01*
X221644D01*
Y127195D01*
X224082D01*
Y122962D01*
X221644D01*
Y117038D01*
X226622D01*
X226885Y116538D01*
X226802Y116418D01*
X219880D01*
X218356Y117942D01*
Y122962D01*
X215918D01*
Y127195D01*
X218356D01*
Y133120D01*
X211644D01*
Y127195D01*
X214082D01*
Y122962D01*
X211644D01*
Y117038D01*
X216665D01*
X218851Y114851D01*
X219149Y114652D01*
X219500Y114582D01*
X227500D01*
X227851Y114652D01*
X228149Y114851D01*
X229649Y116351D01*
X229848Y116649D01*
X229918Y117000D01*
Y129120D01*
X231182Y130384D01*
X231644Y130193D01*
Y127195D01*
X234082D01*
Y122962D01*
X231644D01*
Y117038D01*
X237941D01*
X237941Y117038D01*
X237941D01*
X238050Y117038D01*
X238202Y116538D01*
X238058Y116442D01*
X237763Y116000D01*
X239500D01*
Y115000D01*
X240500D01*
Y113263D01*
X240942Y113558D01*
X241384Y114220D01*
X241539Y115000D01*
X241461Y115392D01*
X241871Y115820D01*
X242382D01*
X242928Y115275D01*
X242952Y115152D01*
X243151Y114854D01*
X244424Y113582D01*
X244232Y113120D01*
X241644D01*
Y111158D01*
X245000D01*
X248356D01*
Y112582D01*
X251644D01*
Y111158D01*
X255000D01*
X258356D01*
Y111241D01*
X258818Y111433D01*
X259903Y110348D01*
X260200Y110149D01*
X260551Y110079D01*
X265044D01*
X265058Y110058D01*
X265720Y109616D01*
X266500Y109461D01*
X267280Y109616D01*
X267942Y110058D01*
X268384Y110720D01*
X268539Y111500D01*
X268384Y112280D01*
X267942Y112942D01*
X267586Y113180D01*
X267585Y113182D01*
X267620Y113759D01*
X268068Y114058D01*
X268510Y114720D01*
X268666Y115500D01*
X268510Y116280D01*
X268068Y116942D01*
X267407Y117384D01*
X266626Y117539D01*
X265846Y117384D01*
X265184Y116942D01*
X264742Y116280D01*
X264738Y116257D01*
X264192Y116075D01*
X263733Y116381D01*
X263020Y116523D01*
X262850Y116762D01*
X262740Y117004D01*
X262884Y117220D01*
X263039Y118000D01*
X262884Y118780D01*
X262442Y119442D01*
X262434Y119447D01*
X262540Y119978D01*
X262977Y120065D01*
X263638Y120507D01*
X264080Y121168D01*
X264235Y121949D01*
X264080Y122729D01*
X263638Y123391D01*
X262977Y123833D01*
X262196Y123988D01*
X261591Y123868D01*
X261186Y124143D01*
X261118Y124235D01*
Y133497D01*
X261048Y133848D01*
X260849Y134146D01*
X259146Y135849D01*
X258848Y136048D01*
X258497Y136118D01*
D02*
G37*
G36*
X365910Y121047D02*
X362436D01*
X362731Y120606D01*
X363393Y120164D01*
X363659Y120111D01*
X363765Y119580D01*
X363558Y119442D01*
X363116Y118780D01*
X362961Y118000D01*
X363116Y117220D01*
X363558Y116558D01*
X364220Y116116D01*
X364726Y116015D01*
X364778Y116005D01*
Y115495D01*
X364726Y115485D01*
X364220Y115384D01*
X363558Y114942D01*
X363263Y114500D01*
X366737D01*
X366442Y114942D01*
X365780Y115384D01*
X365274Y115485D01*
X365222Y115495D01*
Y116005D01*
X365274Y116015D01*
X365780Y116116D01*
X366442Y116558D01*
X366656Y116878D01*
X371344D01*
X371558Y116558D01*
X372220Y116116D01*
X373000Y115961D01*
X373780Y116116D01*
X374442Y116558D01*
X374884Y117220D01*
X375039Y118000D01*
X374884Y118780D01*
X374442Y119442D01*
X373780Y119884D01*
X373000Y120039D01*
X372220Y119884D01*
X371558Y119442D01*
X371344Y119122D01*
X366656D01*
X366442Y119442D01*
X365780Y119884D01*
X365514Y119937D01*
X365408Y120468D01*
X365615Y120606D01*
X365910Y121047D01*
D02*
G37*
G36*
X372000Y115237D02*
Y114500D01*
X372737D01*
X372442Y114942D01*
X372000Y115237D01*
D02*
G37*
G36*
X370000D02*
X369558Y114942D01*
X369263Y114500D01*
X370000D01*
Y115237D01*
D02*
G37*
G36*
X180000Y122039D02*
X179220Y121884D01*
X178558Y121442D01*
X178116Y120780D01*
X177961Y120000D01*
X178116Y119220D01*
X178558Y118558D01*
X179220Y118116D01*
X180000Y117961D01*
X180618Y118084D01*
X181939Y116763D01*
X181616Y116280D01*
X181461Y115500D01*
X181616Y114720D01*
X182058Y114058D01*
X182720Y113616D01*
X183500Y113461D01*
X184280Y113616D01*
X184942Y114058D01*
X185384Y114720D01*
X185539Y115500D01*
X185384Y116280D01*
X184942Y116942D01*
X184280Y117384D01*
X183823Y117475D01*
X181916Y119382D01*
X182039Y120000D01*
X181884Y120780D01*
X181442Y121442D01*
X180780Y121884D01*
X180000Y122039D01*
D02*
G37*
G36*
X372737Y112500D02*
X372000D01*
Y111763D01*
X372442Y112058D01*
X372737Y112500D01*
D02*
G37*
G36*
X370000D02*
X369263D01*
X369558Y112058D01*
X370000Y111763D01*
Y112500D01*
D02*
G37*
G36*
X366737D02*
X366000D01*
Y111763D01*
X366442Y112058D01*
X366737Y112500D01*
D02*
G37*
G36*
X364000D02*
X363263D01*
X363558Y112058D01*
X364000Y111763D01*
Y112500D01*
D02*
G37*
G36*
X323856Y113620D02*
X321500D01*
Y111658D01*
X323856D01*
Y113620D01*
D02*
G37*
G36*
X359267Y111973D02*
Y111236D01*
X360004D01*
X359709Y111678D01*
X359267Y111973D01*
D02*
G37*
G36*
X357267D02*
X356826Y111678D01*
X356531Y111236D01*
X357267D01*
Y111973D01*
D02*
G37*
G36*
X347457D02*
Y111236D01*
X348193D01*
X347898Y111678D01*
X347457Y111973D01*
D02*
G37*
G36*
X345457D02*
X345015Y111678D01*
X344720Y111236D01*
X345457D01*
Y111973D01*
D02*
G37*
G36*
X300212D02*
Y111236D01*
X300949D01*
X300654Y111678D01*
X300212Y111973D01*
D02*
G37*
G36*
X298212D02*
X297771Y111678D01*
X297476Y111236D01*
X298212D01*
Y111973D01*
D02*
G37*
G36*
X205724D02*
Y111236D01*
X206461D01*
X206166Y111678D01*
X205724Y111973D01*
D02*
G37*
G36*
X203724D02*
X203283Y111678D01*
X202988Y111236D01*
X203724D01*
Y111973D01*
D02*
G37*
G36*
X193913D02*
Y111236D01*
X194650D01*
X194355Y111678D01*
X193913Y111973D01*
D02*
G37*
G36*
X191913D02*
X191472Y111678D01*
X191176Y111236D01*
X191913D01*
Y111973D01*
D02*
G37*
G36*
X182102D02*
Y111236D01*
X182839D01*
X182544Y111678D01*
X182102Y111973D01*
D02*
G37*
G36*
X180102D02*
X179661Y111678D01*
X179366Y111236D01*
X180102D01*
Y111973D01*
D02*
G37*
G36*
X134858D02*
Y111236D01*
X135595D01*
X135300Y111678D01*
X134858Y111973D01*
D02*
G37*
G36*
X132858D02*
X132416Y111678D01*
X132122Y111236D01*
X132858D01*
Y111973D01*
D02*
G37*
G36*
X99425D02*
Y111236D01*
X100162D01*
X99867Y111678D01*
X99425Y111973D01*
D02*
G37*
G36*
X97425D02*
X96983Y111678D01*
X96688Y111236D01*
X97425D01*
Y111973D01*
D02*
G37*
G36*
X87614D02*
Y111236D01*
X88351D01*
X88056Y111678D01*
X87614Y111973D01*
D02*
G37*
G36*
X85614D02*
X85172Y111678D01*
X84877Y111236D01*
X85614D01*
Y111973D01*
D02*
G37*
G36*
X75803D02*
Y111236D01*
X76540D01*
X76245Y111678D01*
X75803Y111973D01*
D02*
G37*
G36*
X73803D02*
X73361Y111678D01*
X73066Y111236D01*
X73803D01*
Y111973D01*
D02*
G37*
G36*
X16748D02*
Y111236D01*
X17485D01*
X17190Y111678D01*
X16748Y111973D01*
D02*
G37*
G36*
X14748D02*
X14306Y111678D01*
X14011Y111236D01*
X14748D01*
Y111973D01*
D02*
G37*
G36*
X238500Y114000D02*
X237763D01*
X238017Y113620D01*
X237947Y113358D01*
X237814Y113120D01*
X236000D01*
Y111158D01*
X238356D01*
Y112758D01*
X238466Y112867D01*
X238500Y112886D01*
Y114000D01*
D02*
G37*
G36*
X228356Y113120D02*
X226000D01*
Y111158D01*
X228356D01*
Y113120D01*
D02*
G37*
G36*
X218356D02*
X216000D01*
Y111158D01*
X218356D01*
Y113120D01*
D02*
G37*
G36*
X234000D02*
X231644D01*
Y111158D01*
X234000D01*
Y113120D01*
D02*
G37*
G36*
X224000D02*
X221644D01*
Y111158D01*
X224000D01*
Y113120D01*
D02*
G37*
G36*
X214000D02*
X211644D01*
Y111158D01*
X214000D01*
Y113120D01*
D02*
G37*
G36*
X281500Y111737D02*
Y111000D01*
X282237D01*
X281942Y111442D01*
X281500Y111737D01*
D02*
G37*
G36*
X279500D02*
X279058Y111442D01*
X278763Y111000D01*
X279500D01*
Y111737D01*
D02*
G37*
G36*
X360004Y109236D02*
X359267D01*
Y108499D01*
X359709Y108794D01*
X360004Y109236D01*
D02*
G37*
G36*
X357267D02*
X356531D01*
X356826Y108794D01*
X357267Y108499D01*
Y109236D01*
D02*
G37*
G36*
X348193D02*
X347457D01*
Y108499D01*
X347898Y108794D01*
X348193Y109236D01*
D02*
G37*
G36*
X345457D02*
X344720D01*
X345015Y108794D01*
X345457Y108499D01*
Y109236D01*
D02*
G37*
G36*
X300949D02*
X300212D01*
Y108499D01*
X300654Y108794D01*
X300949Y109236D01*
D02*
G37*
G36*
X298212D02*
X297476D01*
X297771Y108794D01*
X298212Y108499D01*
Y109236D01*
D02*
G37*
G36*
X206461D02*
X205724D01*
Y108499D01*
X206166Y108794D01*
X206461Y109236D01*
D02*
G37*
G36*
X203724D02*
X202988D01*
X203283Y108794D01*
X203724Y108499D01*
Y109236D01*
D02*
G37*
G36*
X194650D02*
X193913D01*
Y108499D01*
X194355Y108794D01*
X194650Y109236D01*
D02*
G37*
G36*
X191913D02*
X191176D01*
X191472Y108794D01*
X191913Y108499D01*
Y109236D01*
D02*
G37*
G36*
X182839D02*
X182102D01*
Y108499D01*
X182544Y108794D01*
X182839Y109236D01*
D02*
G37*
G36*
X180102D02*
X179366D01*
X179661Y108794D01*
X180102Y108499D01*
Y109236D01*
D02*
G37*
G36*
X135595D02*
X134858D01*
Y108499D01*
X135300Y108794D01*
X135595Y109236D01*
D02*
G37*
G36*
X132858D02*
X132122D01*
X132416Y108794D01*
X132858Y108499D01*
Y109236D01*
D02*
G37*
G36*
X100162D02*
X99425D01*
Y108499D01*
X99867Y108794D01*
X100162Y109236D01*
D02*
G37*
G36*
X97425D02*
X96688D01*
X96983Y108794D01*
X97425Y108499D01*
Y109236D01*
D02*
G37*
G36*
X88351D02*
X87614D01*
Y108499D01*
X88056Y108794D01*
X88351Y109236D01*
D02*
G37*
G36*
X85614D02*
X84877D01*
X85172Y108794D01*
X85614Y108499D01*
Y109236D01*
D02*
G37*
G36*
X76540D02*
X75803D01*
Y108499D01*
X76245Y108794D01*
X76540Y109236D01*
D02*
G37*
G36*
X73803D02*
X73066D01*
X73361Y108794D01*
X73803Y108499D01*
Y109236D01*
D02*
G37*
G36*
X17485D02*
X16748D01*
Y108499D01*
X17190Y108794D01*
X17485Y109236D01*
D02*
G37*
G36*
X14748D02*
X14011D01*
X14306Y108794D01*
X14748Y108499D01*
Y109236D01*
D02*
G37*
G36*
X282237Y109000D02*
X281500D01*
Y108263D01*
X281942Y108558D01*
X282237Y109000D01*
D02*
G37*
G36*
X279500D02*
X278763D01*
X279058Y108558D01*
X279500Y108263D01*
Y109000D01*
D02*
G37*
G36*
X323856Y109658D02*
X321500D01*
Y107695D01*
X323856D01*
Y109658D01*
D02*
G37*
G36*
X319500D02*
X317144D01*
Y107695D01*
X319500D01*
Y109658D01*
D02*
G37*
G36*
X313856D02*
X311500D01*
Y107695D01*
X313856D01*
Y109658D01*
D02*
G37*
G36*
X309500D02*
X307144D01*
Y107695D01*
X309500D01*
Y109658D01*
D02*
G37*
G36*
X258356Y109158D02*
X256000D01*
Y107195D01*
X258356D01*
Y109158D01*
D02*
G37*
G36*
X254000D02*
X251644D01*
Y107195D01*
X254000D01*
Y109158D01*
D02*
G37*
G36*
X248356D02*
X246000D01*
Y107195D01*
X248356D01*
Y109158D01*
D02*
G37*
G36*
X244000D02*
X241644D01*
Y107195D01*
X244000D01*
Y109158D01*
D02*
G37*
G36*
X238356D02*
X236000D01*
Y107195D01*
X238356D01*
Y109158D01*
D02*
G37*
G36*
X234000D02*
X231644D01*
Y107195D01*
X234000D01*
Y109158D01*
D02*
G37*
G36*
X228356D02*
X226000D01*
Y107195D01*
X228356D01*
Y109158D01*
D02*
G37*
G36*
X224000D02*
X221644D01*
Y107195D01*
X224000D01*
Y109158D01*
D02*
G37*
G36*
X218356D02*
X216000D01*
Y107195D01*
X218356D01*
Y109158D01*
D02*
G37*
G36*
X214000D02*
X211644D01*
Y107195D01*
X214000D01*
Y109158D01*
D02*
G37*
G36*
X365173Y100162D02*
Y99425D01*
X365910D01*
X365615Y99867D01*
X365173Y100162D01*
D02*
G37*
G36*
X363173D02*
X362731Y99867D01*
X362436Y99425D01*
X363173D01*
Y100162D01*
D02*
G37*
G36*
X341551D02*
Y99425D01*
X342288D01*
X341993Y99867D01*
X341551Y100162D01*
D02*
G37*
G36*
X339551D02*
X339109Y99867D01*
X338814Y99425D01*
X339551D01*
Y100162D01*
D02*
G37*
G36*
X283000Y108039D02*
X282220Y107884D01*
X281558Y107442D01*
X281116Y106780D01*
X280961Y106000D01*
X281116Y105220D01*
X281558Y104558D01*
X282082Y104208D01*
Y103000D01*
X282152Y102649D01*
X282351Y102351D01*
X283084Y101618D01*
X282961Y101000D01*
X283116Y100220D01*
X283558Y99558D01*
X284220Y99116D01*
X285000Y98961D01*
X285780Y99116D01*
X286442Y99558D01*
X286884Y100220D01*
X287039Y101000D01*
X286884Y101780D01*
X286442Y102442D01*
X285780Y102884D01*
X285000Y103039D01*
X284382Y102916D01*
X283918Y103380D01*
Y104208D01*
X284442Y104558D01*
X284884Y105220D01*
X285039Y106000D01*
X284884Y106780D01*
X284442Y107442D01*
X283780Y107884D01*
X283000Y108039D01*
D02*
G37*
G36*
X365910Y97425D02*
X365173D01*
Y96688D01*
X365615Y96983D01*
X365910Y97425D01*
D02*
G37*
G36*
X363173D02*
X362436D01*
X362731Y96983D01*
X363173Y96688D01*
Y97425D01*
D02*
G37*
G36*
X342288D02*
X341551D01*
Y96688D01*
X341993Y96983D01*
X342288Y97425D01*
D02*
G37*
G36*
X339551D02*
X338814D01*
X339109Y96983D01*
X339551Y96688D01*
Y97425D01*
D02*
G37*
G36*
X256500Y97039D02*
X255720Y96884D01*
X255058Y96442D01*
X254844Y96122D01*
X245656D01*
X245442Y96442D01*
X244780Y96884D01*
X244000Y97039D01*
X243220Y96884D01*
X242558Y96442D01*
X242116Y95780D01*
X241961Y95000D01*
X242116Y94220D01*
X242558Y93558D01*
X243220Y93116D01*
X244000Y92961D01*
X244780Y93116D01*
X245442Y93558D01*
X245656Y93878D01*
X254844D01*
X255058Y93558D01*
X255720Y93116D01*
X256500Y92961D01*
X257280Y93116D01*
X257942Y93558D01*
X258384Y94220D01*
X258539Y95000D01*
X258384Y95780D01*
X257942Y96442D01*
X257280Y96884D01*
X256500Y97039D01*
D02*
G37*
G36*
X153000D02*
X152220Y96884D01*
X151558Y96442D01*
X151344Y96122D01*
X149656D01*
X149442Y96442D01*
X148780Y96884D01*
X148000Y97039D01*
X147220Y96884D01*
X146558Y96442D01*
X146116Y95780D01*
X145961Y95000D01*
X146116Y94220D01*
X146558Y93558D01*
X147220Y93116D01*
X148000Y92961D01*
X148780Y93116D01*
X149442Y93558D01*
X149656Y93878D01*
X151344D01*
X151558Y93558D01*
X152220Y93116D01*
X153000Y92961D01*
X153780Y93116D01*
X154442Y93558D01*
X154884Y94220D01*
X155039Y95000D01*
X154884Y95780D01*
X154442Y96442D01*
X153780Y96884D01*
X153000Y97039D01*
D02*
G37*
G36*
X45000D02*
X44220Y96884D01*
X43558Y96442D01*
X43208Y95918D01*
X37292D01*
X36942Y96442D01*
X36280Y96884D01*
X35500Y97039D01*
X34720Y96884D01*
X34058Y96442D01*
X33616Y95780D01*
X33461Y95000D01*
X33616Y94220D01*
X34058Y93558D01*
X34720Y93116D01*
X35500Y92961D01*
X36280Y93116D01*
X36942Y93558D01*
X37292Y94082D01*
X43208D01*
X43558Y93558D01*
X44220Y93116D01*
X45000Y92961D01*
X45780Y93116D01*
X46442Y93558D01*
X46884Y94220D01*
X47039Y95000D01*
X46884Y95780D01*
X46442Y96442D01*
X45780Y96884D01*
X45000Y97039D01*
D02*
G37*
G36*
X378953Y96323D02*
Y91886D01*
X383390D01*
X383332Y92327D01*
X382776Y93670D01*
X381891Y94824D01*
X380737Y95709D01*
X379394Y96265D01*
X378953Y96323D01*
D02*
G37*
G36*
X376953D02*
X376511Y96265D01*
X375168Y95709D01*
X374015Y94824D01*
X373130Y93670D01*
X372574Y92327D01*
X372516Y91886D01*
X376953D01*
Y96323D01*
D02*
G37*
G36*
X14500Y100039D02*
X13720Y99884D01*
X13058Y99442D01*
X12616Y98780D01*
X12461Y98000D01*
X12616Y97220D01*
X13058Y96558D01*
X13720Y96116D01*
X14500Y95961D01*
X15118Y96084D01*
X15963Y95239D01*
X15923Y94686D01*
X15558Y94442D01*
X15116Y93780D01*
X14961Y93000D01*
X15116Y92220D01*
X15558Y91558D01*
X16220Y91116D01*
X17000Y90961D01*
X17780Y91116D01*
X18442Y91558D01*
X18884Y92220D01*
X19039Y93000D01*
X18884Y93780D01*
X18442Y94442D01*
X17918Y94792D01*
Y95500D01*
X17848Y95851D01*
X17649Y96149D01*
X16416Y97382D01*
X16539Y98000D01*
X16384Y98780D01*
X15942Y99442D01*
X15280Y99884D01*
X14500Y100039D01*
D02*
G37*
G36*
X51000Y88737D02*
Y88000D01*
X51737D01*
X51442Y88442D01*
X51000Y88737D01*
D02*
G37*
G36*
X49000D02*
X48558Y88442D01*
X48263Y88000D01*
X49000D01*
Y88737D01*
D02*
G37*
G36*
X31000D02*
Y88000D01*
X31737D01*
X31442Y88442D01*
X31000Y88737D01*
D02*
G37*
G36*
X29000D02*
X28558Y88442D01*
X28263Y88000D01*
X29000D01*
Y88737D01*
D02*
G37*
G36*
X371079Y88351D02*
Y87614D01*
X371815D01*
X371520Y88056D01*
X371079Y88351D01*
D02*
G37*
G36*
X369079D02*
X368637Y88056D01*
X368342Y87614D01*
X369079D01*
Y88351D01*
D02*
G37*
G36*
X359267D02*
Y87614D01*
X360004D01*
X359709Y88056D01*
X359267Y88351D01*
D02*
G37*
G36*
X357267D02*
X356826Y88056D01*
X356531Y87614D01*
X357267D01*
Y88351D01*
D02*
G37*
G36*
X347457D02*
Y87614D01*
X348193D01*
X347898Y88056D01*
X347457Y88351D01*
D02*
G37*
G36*
X345457D02*
X345015Y88056D01*
X344720Y87614D01*
X345457D01*
Y88351D01*
D02*
G37*
G36*
X205724D02*
Y87614D01*
X206461D01*
X206166Y88056D01*
X205724Y88351D01*
D02*
G37*
G36*
X203724D02*
X203283Y88056D01*
X202988Y87614D01*
X203724D01*
Y88351D01*
D02*
G37*
G36*
X111236D02*
Y87614D01*
X111973D01*
X111678Y88056D01*
X111236Y88351D01*
D02*
G37*
G36*
X109236D02*
X108794Y88056D01*
X108499Y87614D01*
X109236D01*
Y88351D01*
D02*
G37*
G36*
X383390Y89886D02*
X378953D01*
Y85449D01*
X379394Y85507D01*
X380737Y86063D01*
X381891Y86948D01*
X382776Y88101D01*
X383332Y89445D01*
X383390Y89886D01*
D02*
G37*
G36*
X376953D02*
X372516D01*
X372574Y89445D01*
X373130Y88101D01*
X374015Y86948D01*
X375168Y86063D01*
X376511Y85507D01*
X376953Y85449D01*
Y89886D01*
D02*
G37*
G36*
X45500Y86539D02*
X44720Y86384D01*
X44058Y85942D01*
X43708Y85418D01*
X38792D01*
X38442Y85942D01*
X37780Y86384D01*
X37000Y86539D01*
X36220Y86384D01*
X35558Y85942D01*
X35116Y85280D01*
X34961Y84500D01*
X35116Y83720D01*
X35558Y83058D01*
X36220Y82616D01*
X37000Y82461D01*
X37780Y82616D01*
X38442Y83058D01*
X38792Y83582D01*
X43708D01*
X44058Y83058D01*
X44720Y82616D01*
X45500Y82461D01*
X46280Y82616D01*
X46942Y83058D01*
X47384Y83720D01*
X47539Y84500D01*
X47384Y85280D01*
X46942Y85942D01*
X46280Y86384D01*
X45500Y86539D01*
D02*
G37*
G36*
X51737Y86000D02*
X51000D01*
Y85263D01*
X51442Y85558D01*
X51737Y86000D01*
D02*
G37*
G36*
X49000D02*
X48263D01*
X48558Y85558D01*
X49000Y85263D01*
Y86000D01*
D02*
G37*
G36*
X31737D02*
X31000D01*
Y85263D01*
X31442Y85558D01*
X31737Y86000D01*
D02*
G37*
G36*
X29000D02*
X28263D01*
X28558Y85558D01*
X29000Y85263D01*
Y86000D01*
D02*
G37*
G36*
X277000Y85737D02*
Y85000D01*
X277737D01*
X277442Y85442D01*
X277000Y85737D01*
D02*
G37*
G36*
X275000D02*
X274558Y85442D01*
X274263Y85000D01*
X275000D01*
Y85737D01*
D02*
G37*
G36*
X371815Y85614D02*
X371079D01*
Y84877D01*
X371520Y85172D01*
X371815Y85614D01*
D02*
G37*
G36*
X369079D02*
X368342D01*
X368637Y85172D01*
X369079Y84877D01*
Y85614D01*
D02*
G37*
G36*
X360004D02*
X359267D01*
Y84877D01*
X359709Y85172D01*
X360004Y85614D01*
D02*
G37*
G36*
X357267D02*
X356531D01*
X356826Y85172D01*
X357267Y84877D01*
Y85614D01*
D02*
G37*
G36*
X348193D02*
X347457D01*
Y84877D01*
X347898Y85172D01*
X348193Y85614D01*
D02*
G37*
G36*
X345457D02*
X344720D01*
X345015Y85172D01*
X345457Y84877D01*
Y85614D01*
D02*
G37*
G36*
X206461D02*
X205724D01*
Y84877D01*
X206166Y85172D01*
X206461Y85614D01*
D02*
G37*
G36*
X203724D02*
X202988D01*
X203283Y85172D01*
X203724Y84877D01*
Y85614D01*
D02*
G37*
G36*
X111973D02*
X111236D01*
Y84877D01*
X111678Y85172D01*
X111973Y85614D01*
D02*
G37*
G36*
X109236D02*
X108499D01*
X108794Y85172D01*
X109236Y84877D01*
Y85614D01*
D02*
G37*
G36*
X260000Y85237D02*
Y84500D01*
X260737D01*
X260442Y84942D01*
X260000Y85237D01*
D02*
G37*
G36*
X258000D02*
X257558Y84942D01*
X257263Y84500D01*
X258000D01*
Y85237D01*
D02*
G37*
G36*
X277737Y83000D02*
X277000D01*
Y82263D01*
X277442Y82558D01*
X277737Y83000D01*
D02*
G37*
G36*
X275000D02*
X274263D01*
X274558Y82558D01*
X275000Y82263D01*
Y83000D01*
D02*
G37*
G36*
X49000Y83039D02*
X48220Y82884D01*
X47558Y82442D01*
X47208Y81918D01*
X41792D01*
X41442Y82442D01*
X40780Y82884D01*
X40000Y83039D01*
X39220Y82884D01*
X38558Y82442D01*
X38116Y81780D01*
X37961Y81000D01*
X38116Y80220D01*
X38558Y79558D01*
X39220Y79116D01*
X40000Y78961D01*
X40780Y79116D01*
X41442Y79558D01*
X41792Y80082D01*
X47208D01*
X47558Y79558D01*
X48220Y79116D01*
X49000Y78961D01*
X49780Y79116D01*
X50442Y79558D01*
X50884Y80220D01*
X51039Y81000D01*
X50884Y81780D01*
X50442Y82442D01*
X49780Y82884D01*
X49000Y83039D01*
D02*
G37*
G36*
X260737Y82500D02*
X260000D01*
Y81763D01*
X260442Y82058D01*
X260737Y82500D01*
D02*
G37*
G36*
X258000D02*
X257263D01*
X257558Y82058D01*
X258000Y81763D01*
Y82500D01*
D02*
G37*
G36*
X329740Y76540D02*
Y75803D01*
X330477D01*
X330182Y76245D01*
X329740Y76540D01*
D02*
G37*
G36*
X327740D02*
X327298Y76245D01*
X327003Y75803D01*
X327740D01*
Y76540D01*
D02*
G37*
G36*
X258874D02*
Y75803D01*
X259611D01*
X259315Y76245D01*
X258874Y76540D01*
D02*
G37*
G36*
X256874D02*
X256432Y76245D01*
X256137Y75803D01*
X256874D01*
Y76540D01*
D02*
G37*
G36*
X152575D02*
Y75803D01*
X153311D01*
X153016Y76245D01*
X152575Y76540D01*
D02*
G37*
G36*
X150575D02*
X150133Y76245D01*
X149838Y75803D01*
X150575D01*
Y76540D01*
D02*
G37*
G36*
X46275D02*
Y75803D01*
X47012D01*
X46717Y76245D01*
X46275Y76540D01*
D02*
G37*
G36*
X44276D02*
X43834Y76245D01*
X43539Y75803D01*
X44276D01*
Y76540D01*
D02*
G37*
G36*
X330477Y73803D02*
X329740D01*
Y73066D01*
X330182Y73361D01*
X330477Y73803D01*
D02*
G37*
G36*
X327740D02*
X327003D01*
X327298Y73361D01*
X327740Y73066D01*
Y73803D01*
D02*
G37*
G36*
X259611D02*
X258874D01*
Y73066D01*
X259315Y73361D01*
X259611Y73803D01*
D02*
G37*
G36*
X256874D02*
X256137D01*
X256432Y73361D01*
X256874Y73066D01*
Y73803D01*
D02*
G37*
G36*
X153311D02*
X152575D01*
Y73066D01*
X153016Y73361D01*
X153311Y73803D01*
D02*
G37*
G36*
X150575D02*
X149838D01*
X150133Y73361D01*
X150575Y73066D01*
Y73803D01*
D02*
G37*
G36*
X47012D02*
X46275D01*
Y73066D01*
X46717Y73361D01*
X47012Y73803D01*
D02*
G37*
G36*
X44276D02*
X43539D01*
X43834Y73361D01*
X44276Y73066D01*
Y73803D01*
D02*
G37*
G36*
X383474Y76407D02*
X372431D01*
Y65365D01*
X383474D01*
Y76407D01*
D02*
G37*
G36*
X205724Y64729D02*
Y63992D01*
X206461D01*
X206166Y64434D01*
X205724Y64729D01*
D02*
G37*
G36*
X203724D02*
X203283Y64434D01*
X202988Y63992D01*
X203724D01*
Y64729D01*
D02*
G37*
G36*
X170291D02*
Y63992D01*
X171028D01*
X170733Y64434D01*
X170291Y64729D01*
D02*
G37*
G36*
X168291D02*
X167850Y64434D01*
X167554Y63992D01*
X168291D01*
Y64729D01*
D02*
G37*
G36*
X158480D02*
Y63992D01*
X159217D01*
X158922Y64434D01*
X158480Y64729D01*
D02*
G37*
G36*
X156480D02*
X156039Y64434D01*
X155744Y63992D01*
X156480D01*
Y64729D01*
D02*
G37*
G36*
X99425D02*
Y63992D01*
X100162D01*
X99867Y64434D01*
X99425Y64729D01*
D02*
G37*
G36*
X97425D02*
X96983Y64434D01*
X96688Y63992D01*
X97425D01*
Y64729D01*
D02*
G37*
G36*
X16748D02*
Y63992D01*
X17485D01*
X17190Y64434D01*
X16748Y64729D01*
D02*
G37*
G36*
X14748D02*
X14306Y64434D01*
X14011Y63992D01*
X14748D01*
Y64729D01*
D02*
G37*
G36*
X206461Y61992D02*
X205724D01*
Y61255D01*
X206166Y61550D01*
X206461Y61992D01*
D02*
G37*
G36*
X203724D02*
X202988D01*
X203283Y61550D01*
X203724Y61255D01*
Y61992D01*
D02*
G37*
G36*
X171028D02*
X170291D01*
Y61255D01*
X170733Y61550D01*
X171028Y61992D01*
D02*
G37*
G36*
X168291D02*
X167554D01*
X167850Y61550D01*
X168291Y61255D01*
Y61992D01*
D02*
G37*
G36*
X159217D02*
X158480D01*
Y61255D01*
X158922Y61550D01*
X159217Y61992D01*
D02*
G37*
G36*
X156480D02*
X155744D01*
X156039Y61550D01*
X156480Y61255D01*
Y61992D01*
D02*
G37*
G36*
X100162D02*
X99425D01*
Y61255D01*
X99867Y61550D01*
X100162Y61992D01*
D02*
G37*
G36*
X97425D02*
X96688D01*
X96983Y61550D01*
X97425Y61255D01*
Y61992D01*
D02*
G37*
G36*
X17485D02*
X16748D01*
Y61255D01*
X17190Y61550D01*
X17485Y61992D01*
D02*
G37*
G36*
X14748D02*
X14011D01*
X14306Y61550D01*
X14748Y61255D01*
Y61992D01*
D02*
G37*
G36*
X329740Y52918D02*
Y52181D01*
X330477D01*
X330182Y52623D01*
X329740Y52918D01*
D02*
G37*
G36*
X327740D02*
X327298Y52623D01*
X327003Y52181D01*
X327740D01*
Y52918D01*
D02*
G37*
G36*
X317929D02*
Y52181D01*
X318666D01*
X318371Y52623D01*
X317929Y52918D01*
D02*
G37*
G36*
X315929D02*
X315487Y52623D01*
X315192Y52181D01*
X315929D01*
Y52918D01*
D02*
G37*
G36*
X306118D02*
Y52181D01*
X306855D01*
X306560Y52623D01*
X306118Y52918D01*
D02*
G37*
G36*
X304118D02*
X303676Y52623D01*
X303381Y52181D01*
X304118D01*
Y52918D01*
D02*
G37*
G36*
X294307D02*
Y52181D01*
X295044D01*
X294749Y52623D01*
X294307Y52918D01*
D02*
G37*
G36*
X292307D02*
X291865Y52623D01*
X291570Y52181D01*
X292307D01*
Y52918D01*
D02*
G37*
G36*
X270685D02*
Y52181D01*
X271422D01*
X271127Y52623D01*
X270685Y52918D01*
D02*
G37*
G36*
X268685D02*
X268243Y52623D01*
X267948Y52181D01*
X268685D01*
Y52918D01*
D02*
G37*
G36*
X211630D02*
Y52181D01*
X212367D01*
X212071Y52623D01*
X211630Y52918D01*
D02*
G37*
G36*
X209630D02*
X209188Y52623D01*
X208893Y52181D01*
X209630D01*
Y52918D01*
D02*
G37*
G36*
X199819D02*
Y52181D01*
X200555D01*
X200260Y52623D01*
X199819Y52918D01*
D02*
G37*
G36*
X197819D02*
X197377Y52623D01*
X197082Y52181D01*
X197819D01*
Y52918D01*
D02*
G37*
G36*
X188008D02*
Y52181D01*
X188744D01*
X188449Y52623D01*
X188008Y52918D01*
D02*
G37*
G36*
X186008D02*
X185566Y52623D01*
X185271Y52181D01*
X186008D01*
Y52918D01*
D02*
G37*
G36*
X117142D02*
Y52181D01*
X117878D01*
X117583Y52623D01*
X117142Y52918D01*
D02*
G37*
G36*
X115142D02*
X114700Y52623D01*
X114405Y52181D01*
X115142D01*
Y52918D01*
D02*
G37*
G36*
X105331D02*
Y52181D01*
X106067D01*
X105772Y52623D01*
X105331Y52918D01*
D02*
G37*
G36*
X103331D02*
X102889Y52623D01*
X102594Y52181D01*
X103331D01*
Y52918D01*
D02*
G37*
G36*
X93520D02*
Y52181D01*
X94256D01*
X93961Y52623D01*
X93520Y52918D01*
D02*
G37*
G36*
X91520D02*
X91078Y52623D01*
X90783Y52181D01*
X91520D01*
Y52918D01*
D02*
G37*
G36*
X81709D02*
Y52181D01*
X82445D01*
X82150Y52623D01*
X81709Y52918D01*
D02*
G37*
G36*
X79709D02*
X79267Y52623D01*
X78972Y52181D01*
X79709D01*
Y52918D01*
D02*
G37*
G36*
X265000Y52539D02*
X264220Y52384D01*
X263558Y51942D01*
X263500Y51855D01*
X263000D01*
X262942Y51942D01*
X262280Y52384D01*
X261500Y52539D01*
X260720Y52384D01*
X260058Y51942D01*
X260000Y51855D01*
X259500D01*
X259442Y51942D01*
X258780Y52384D01*
X258000Y52539D01*
X257220Y52384D01*
X256558Y51942D01*
X256116Y51280D01*
X255961Y50500D01*
X256116Y49720D01*
X256558Y49058D01*
X257082Y48708D01*
Y36792D01*
X256558Y36442D01*
X256116Y35780D01*
X255961Y35000D01*
X256116Y34220D01*
X256558Y33558D01*
X257220Y33116D01*
X258000Y32961D01*
X258780Y33116D01*
X259442Y33558D01*
X259884Y34220D01*
X260039Y35000D01*
X259931Y35541D01*
X260382Y35842D01*
X260720Y35616D01*
X261500Y35461D01*
X262280Y35616D01*
X262942Y36058D01*
X263384Y36720D01*
X263539Y37500D01*
X263384Y38280D01*
X262942Y38942D01*
X262418Y39292D01*
Y48708D01*
X262942Y49058D01*
X263000Y49145D01*
X263500D01*
X263558Y49058D01*
X264220Y48616D01*
X264582Y48544D01*
Y34292D01*
X264058Y33942D01*
X263616Y33280D01*
X263461Y32500D01*
X263616Y31720D01*
X264058Y31058D01*
X264720Y30616D01*
X265500Y30461D01*
X266280Y30616D01*
X266942Y31058D01*
X267384Y31720D01*
X267539Y32500D01*
X267384Y33280D01*
X266942Y33942D01*
X266418Y34292D01*
Y49042D01*
X266442Y49058D01*
X266884Y49720D01*
X267039Y50500D01*
X266884Y51280D01*
X266442Y51942D01*
X265780Y52384D01*
X265000Y52539D01*
D02*
G37*
G36*
X330477Y50181D02*
X329740D01*
Y49444D01*
X330182Y49739D01*
X330477Y50181D01*
D02*
G37*
G36*
X327740D02*
X327003D01*
X327298Y49739D01*
X327740Y49444D01*
Y50181D01*
D02*
G37*
G36*
X318666D02*
X317929D01*
Y49444D01*
X318371Y49739D01*
X318666Y50181D01*
D02*
G37*
G36*
X315929D02*
X315192D01*
X315487Y49739D01*
X315929Y49444D01*
Y50181D01*
D02*
G37*
G36*
X306855D02*
X306118D01*
Y49444D01*
X306560Y49739D01*
X306855Y50181D01*
D02*
G37*
G36*
X304118D02*
X303381D01*
X303676Y49739D01*
X304118Y49444D01*
Y50181D01*
D02*
G37*
G36*
X295044D02*
X294307D01*
Y49444D01*
X294749Y49739D01*
X295044Y50181D01*
D02*
G37*
G36*
X292307D02*
X291570D01*
X291865Y49739D01*
X292307Y49444D01*
Y50181D01*
D02*
G37*
G36*
X271422D02*
X270685D01*
Y49444D01*
X271127Y49739D01*
X271422Y50181D01*
D02*
G37*
G36*
X268685D02*
X267948D01*
X268243Y49739D01*
X268685Y49444D01*
Y50181D01*
D02*
G37*
G36*
X212367D02*
X211630D01*
Y49444D01*
X212071Y49739D01*
X212367Y50181D01*
D02*
G37*
G36*
X209630D02*
X208893D01*
X209188Y49739D01*
X209630Y49444D01*
Y50181D01*
D02*
G37*
G36*
X200555D02*
X199819D01*
Y49444D01*
X200260Y49739D01*
X200555Y50181D01*
D02*
G37*
G36*
X197819D02*
X197082D01*
X197377Y49739D01*
X197819Y49444D01*
Y50181D01*
D02*
G37*
G36*
X188744D02*
X188008D01*
Y49444D01*
X188449Y49739D01*
X188744Y50181D01*
D02*
G37*
G36*
X186008D02*
X185271D01*
X185566Y49739D01*
X186008Y49444D01*
Y50181D01*
D02*
G37*
G36*
X117878D02*
X117142D01*
Y49444D01*
X117583Y49739D01*
X117878Y50181D01*
D02*
G37*
G36*
X115142D02*
X114405D01*
X114700Y49739D01*
X115142Y49444D01*
Y50181D01*
D02*
G37*
G36*
X106067D02*
X105331D01*
Y49444D01*
X105772Y49739D01*
X106067Y50181D01*
D02*
G37*
G36*
X103331D02*
X102594D01*
X102889Y49739D01*
X103331Y49444D01*
Y50181D01*
D02*
G37*
G36*
X94256D02*
X93520D01*
Y49444D01*
X93961Y49739D01*
X94256Y50181D01*
D02*
G37*
G36*
X91520D02*
X90783D01*
X91078Y49739D01*
X91520Y49444D01*
Y50181D01*
D02*
G37*
G36*
X82445D02*
X81709D01*
Y49444D01*
X82150Y49739D01*
X82445Y50181D01*
D02*
G37*
G36*
X79709D02*
X78972D01*
X79267Y49739D01*
X79709Y49444D01*
Y50181D01*
D02*
G37*
G36*
X241157Y41107D02*
Y40370D01*
X241894D01*
X241599Y40812D01*
X241157Y41107D01*
D02*
G37*
G36*
X239157D02*
X238716Y40812D01*
X238421Y40370D01*
X239157D01*
Y41107D01*
D02*
G37*
G36*
X217535D02*
Y40370D01*
X218272D01*
X217977Y40812D01*
X217535Y41107D01*
D02*
G37*
G36*
X215535D02*
X215094Y40812D01*
X214799Y40370D01*
X215535D01*
Y41107D01*
D02*
G37*
G36*
X205724D02*
Y40370D01*
X206461D01*
X206166Y40812D01*
X205724Y41107D01*
D02*
G37*
G36*
X203724D02*
X203283Y40812D01*
X202988Y40370D01*
X203724D01*
Y41107D01*
D02*
G37*
G36*
X123047D02*
Y40370D01*
X123784D01*
X123489Y40812D01*
X123047Y41107D01*
D02*
G37*
G36*
X121047D02*
X120606Y40812D01*
X120310Y40370D01*
X121047D01*
Y41107D01*
D02*
G37*
G36*
X111236D02*
Y40370D01*
X111973D01*
X111678Y40812D01*
X111236Y41107D01*
D02*
G37*
G36*
X109236D02*
X108794Y40812D01*
X108499Y40370D01*
X109236D01*
Y41107D01*
D02*
G37*
G36*
X99425D02*
Y40370D01*
X100162D01*
X99867Y40812D01*
X99425Y41107D01*
D02*
G37*
G36*
X97425D02*
X96983Y40812D01*
X96688Y40370D01*
X97425D01*
Y41107D01*
D02*
G37*
G36*
X75803D02*
Y40370D01*
X76540D01*
X76245Y40812D01*
X75803Y41107D01*
D02*
G37*
G36*
X73803D02*
X73361Y40812D01*
X73066Y40370D01*
X73803D01*
Y41107D01*
D02*
G37*
G36*
X63992D02*
Y40370D01*
X64729D01*
X64434Y40812D01*
X63992Y41107D01*
D02*
G37*
G36*
X61992D02*
X61550Y40812D01*
X61255Y40370D01*
X61992D01*
Y41107D01*
D02*
G37*
G36*
X241894Y38370D02*
X241157D01*
Y37633D01*
X241599Y37928D01*
X241894Y38370D01*
D02*
G37*
G36*
X239157D02*
X238421D01*
X238716Y37928D01*
X239157Y37633D01*
Y38370D01*
D02*
G37*
G36*
X218272D02*
X217535D01*
Y37633D01*
X217977Y37928D01*
X218272Y38370D01*
D02*
G37*
G36*
X215535D02*
X214799D01*
X215094Y37928D01*
X215535Y37633D01*
Y38370D01*
D02*
G37*
G36*
X206461D02*
X205724D01*
Y37633D01*
X206166Y37928D01*
X206461Y38370D01*
D02*
G37*
G36*
X203724D02*
X202988D01*
X203283Y37928D01*
X203724Y37633D01*
Y38370D01*
D02*
G37*
G36*
X123784D02*
X123047D01*
Y37633D01*
X123489Y37928D01*
X123784Y38370D01*
D02*
G37*
G36*
X121047D02*
X120310D01*
X120606Y37928D01*
X121047Y37633D01*
Y38370D01*
D02*
G37*
G36*
X111973D02*
X111236D01*
Y37633D01*
X111678Y37928D01*
X111973Y38370D01*
D02*
G37*
G36*
X109236D02*
X108499D01*
X108794Y37928D01*
X109236Y37633D01*
Y38370D01*
D02*
G37*
G36*
X100162D02*
X99425D01*
Y37633D01*
X99867Y37928D01*
X100162Y38370D01*
D02*
G37*
G36*
X97425D02*
X96688D01*
X96983Y37928D01*
X97425Y37633D01*
Y38370D01*
D02*
G37*
G36*
X76540D02*
X75803D01*
Y37633D01*
X76245Y37928D01*
X76540Y38370D01*
D02*
G37*
G36*
X73803D02*
X73066D01*
X73361Y37928D01*
X73803Y37633D01*
Y38370D01*
D02*
G37*
G36*
X64729D02*
X63992D01*
Y37633D01*
X64434Y37928D01*
X64729Y38370D01*
D02*
G37*
G36*
X61992D02*
X61255D01*
X61550Y37928D01*
X61992Y37633D01*
Y38370D01*
D02*
G37*
G36*
X247063Y29296D02*
Y28559D01*
X247800D01*
X247504Y29001D01*
X247063Y29296D01*
D02*
G37*
G36*
X245063D02*
X244621Y29001D01*
X244326Y28559D01*
X245063D01*
Y29296D01*
D02*
G37*
G36*
X223441D02*
Y28559D01*
X224178D01*
X223883Y29001D01*
X223441Y29296D01*
D02*
G37*
G36*
X221441D02*
X220999Y29001D01*
X220704Y28559D01*
X221441D01*
Y29296D01*
D02*
G37*
G36*
X128953D02*
Y28559D01*
X129689D01*
X129394Y29001D01*
X128953Y29296D01*
D02*
G37*
G36*
X126953D02*
X126511Y29001D01*
X126216Y28559D01*
X126953D01*
Y29296D01*
D02*
G37*
G36*
X81709D02*
Y28559D01*
X82445D01*
X82150Y29001D01*
X81709Y29296D01*
D02*
G37*
G36*
X79709D02*
X79267Y29001D01*
X78972Y28559D01*
X79709D01*
Y29296D01*
D02*
G37*
G36*
X69898D02*
Y28559D01*
X70634D01*
X70339Y29001D01*
X69898Y29296D01*
D02*
G37*
G36*
X67898D02*
X67456Y29001D01*
X67161Y28559D01*
X67898D01*
Y29296D01*
D02*
G37*
G36*
X247800Y26559D02*
X247063D01*
Y25822D01*
X247504Y26117D01*
X247800Y26559D01*
D02*
G37*
G36*
X245063D02*
X244326D01*
X244621Y26117D01*
X245063Y25822D01*
Y26559D01*
D02*
G37*
G36*
X224178D02*
X223441D01*
Y25822D01*
X223883Y26117D01*
X224178Y26559D01*
D02*
G37*
G36*
X221441D02*
X220704D01*
X220999Y26117D01*
X221441Y25822D01*
Y26559D01*
D02*
G37*
G36*
X129689D02*
X128953D01*
Y25822D01*
X129394Y26117D01*
X129689Y26559D01*
D02*
G37*
G36*
X126953D02*
X126216D01*
X126511Y26117D01*
X126953Y25822D01*
Y26559D01*
D02*
G37*
G36*
X82445D02*
X81709D01*
Y25822D01*
X82150Y26117D01*
X82445Y26559D01*
D02*
G37*
G36*
X79709D02*
X78972D01*
X79267Y26117D01*
X79709Y25822D01*
Y26559D01*
D02*
G37*
G36*
X70634D02*
X69898D01*
Y25822D01*
X70339Y26117D01*
X70634Y26559D01*
D02*
G37*
G36*
X67898D02*
X67161D01*
X67456Y26117D01*
X67898Y25822D01*
Y26559D01*
D02*
G37*
G36*
X76387Y21269D02*
X65345D01*
Y16906D01*
X65262Y16846D01*
X64582Y16967D01*
X64434Y17190D01*
X63992Y17485D01*
Y15748D01*
Y14011D01*
X64434Y14306D01*
X64582Y14528D01*
X65262Y14649D01*
X65345Y14590D01*
Y10227D01*
X76387D01*
Y21269D01*
D02*
G37*
G36*
X217535Y17485D02*
Y16748D01*
X218272D01*
X217977Y17190D01*
X217535Y17485D01*
D02*
G37*
G36*
X215535D02*
X215094Y17190D01*
X214799Y16748D01*
X215535D01*
Y17485D01*
D02*
G37*
G36*
X61992D02*
X61550Y17190D01*
X61255Y16748D01*
X61992D01*
Y17485D01*
D02*
G37*
G36*
X218272Y14748D02*
X217535D01*
Y14011D01*
X217977Y14306D01*
X218272Y14748D01*
D02*
G37*
G36*
X215535D02*
X214799D01*
X215094Y14306D01*
X215535Y14011D01*
Y14748D01*
D02*
G37*
G36*
X61992D02*
X61255D01*
X61550Y14306D01*
X61992Y14011D01*
Y14748D01*
D02*
G37*
G36*
X317595Y22598D02*
X298400D01*
Y13400D01*
X317595D01*
Y22598D01*
D02*
G37*
G36*
X170876Y21269D02*
X159833D01*
Y10227D01*
X170876D01*
Y21269D01*
D02*
G37*
G36*
X185354Y21317D02*
X183913Y21127D01*
X182570Y20571D01*
X181416Y19686D01*
X180532Y18532D01*
X179975Y17189D01*
X179785Y15748D01*
X179975Y14307D01*
X180532Y12964D01*
X181416Y11810D01*
X182570Y10925D01*
X183913Y10369D01*
X185354Y10179D01*
X186796Y10369D01*
X188139Y10925D01*
X189292Y11810D01*
X190177Y12964D01*
X190734Y14307D01*
X190923Y15748D01*
X190734Y17189D01*
X190177Y18532D01*
X189292Y19686D01*
X188139Y20571D01*
X186796Y21127D01*
X185354Y21317D01*
D02*
G37*
G36*
X90866D02*
X89425Y21127D01*
X88082Y20571D01*
X86928Y19686D01*
X86043Y18532D01*
X85487Y17189D01*
X85297Y15748D01*
X85487Y14307D01*
X86043Y12964D01*
X86928Y11810D01*
X88082Y10925D01*
X89425Y10369D01*
X90866Y10179D01*
X92308Y10369D01*
X93651Y10925D01*
X94804Y11810D01*
X95689Y12964D01*
X96245Y14307D01*
X96435Y15748D01*
X96245Y17189D01*
X95689Y18532D01*
X94804Y19686D01*
X93651Y20571D01*
X92308Y21127D01*
X90866Y21317D01*
D02*
G37*
%LPD*%
G36*
X280500Y190153D02*
X280038Y189962D01*
X280000Y190000D01*
X248197D01*
X248000Y190039D01*
X247803Y190000D01*
X210000D01*
Y207254D01*
X210500Y207303D01*
X210616Y206720D01*
X211058Y206058D01*
X211500Y205763D01*
Y207500D01*
X213500D01*
Y205763D01*
X213942Y206058D01*
X214200Y206444D01*
X214800D01*
X215058Y206058D01*
X215500Y205763D01*
Y207500D01*
X217500D01*
Y205763D01*
X217942Y206058D01*
X218200Y206444D01*
X218800D01*
X219058Y206058D01*
X219500Y205763D01*
Y207500D01*
X221500D01*
Y205763D01*
X221942Y206058D01*
X222384Y206720D01*
X222495Y207278D01*
X223005D01*
X223116Y206720D01*
X223558Y206058D01*
X224000Y205763D01*
Y207500D01*
X225000D01*
Y208500D01*
X226737D01*
X226442Y208942D01*
X225780Y209384D01*
X225197Y209500D01*
X225246Y210000D01*
X280500D01*
Y190153D01*
D02*
G37*
%LPC*%
G36*
X278500Y207237D02*
Y206500D01*
X279237D01*
X278942Y206942D01*
X278500Y207237D01*
D02*
G37*
G36*
X276500D02*
X276058Y206942D01*
X275763Y206500D01*
X276500D01*
Y207237D01*
D02*
G37*
G36*
X269000D02*
Y206500D01*
X269737D01*
X269442Y206942D01*
X269000Y207237D01*
D02*
G37*
G36*
X267000D02*
X266558Y206942D01*
X266263Y206500D01*
X267000D01*
Y207237D01*
D02*
G37*
G36*
X226737Y206500D02*
X226000D01*
Y205763D01*
X226442Y206058D01*
X226737Y206500D01*
D02*
G37*
G36*
X269737Y204500D02*
X269000D01*
Y203763D01*
X269442Y204058D01*
X269737Y204500D01*
D02*
G37*
G36*
X267000D02*
X266263D01*
X266558Y204058D01*
X267000Y203763D01*
Y204500D01*
D02*
G37*
G36*
X279237D02*
X275763D01*
X276058Y204058D01*
X276720Y203616D01*
X277226Y203515D01*
X277278Y203505D01*
Y202995D01*
X277226Y202985D01*
X276720Y202884D01*
X276058Y202442D01*
X275763Y202000D01*
X279237D01*
X278942Y202442D01*
X278280Y202884D01*
X277774Y202985D01*
X277722Y202995D01*
Y203505D01*
X277774Y203515D01*
X278280Y203616D01*
X278942Y204058D01*
X279237Y204500D01*
D02*
G37*
G36*
X269000Y202237D02*
Y201500D01*
X269737D01*
X269442Y201942D01*
X269000Y202237D01*
D02*
G37*
G36*
X267000D02*
X266558Y201942D01*
X266263Y201500D01*
X267000D01*
Y202237D01*
D02*
G37*
G36*
X279237Y200000D02*
X278500D01*
Y199263D01*
X278942Y199558D01*
X279237Y200000D01*
D02*
G37*
G36*
X276500D02*
X275763D01*
X276058Y199558D01*
X276500Y199263D01*
Y200000D01*
D02*
G37*
G36*
X269737Y199500D02*
X269000D01*
Y198763D01*
X269442Y199058D01*
X269737Y199500D01*
D02*
G37*
G36*
X267000D02*
X266263D01*
X266558Y199058D01*
X267000Y198763D01*
Y199500D01*
D02*
G37*
%LPD*%
G36*
X251644Y127195D02*
X254082D01*
Y122962D01*
X251644D01*
Y119408D01*
X251144Y119141D01*
X251000Y119237D01*
Y117500D01*
X249000D01*
Y119237D01*
X248856Y119141D01*
X248356Y119408D01*
Y122962D01*
X245918D01*
Y127195D01*
X248356D01*
Y133082D01*
X251644D01*
Y127195D01*
D02*
G37*
D11*
X324075Y313882D02*
X331075D01*
X334075Y299882D02*
X341075D01*
X385500Y172500D02*
Y261000D01*
X225000Y287500D02*
X232000D01*
X223500Y289000D02*
X225000Y287500D01*
X223500Y289000D02*
Y290000D01*
X282622Y143000D02*
X289000D01*
X173500Y152000D02*
X179500Y146000D01*
X148500Y94500D02*
X149000Y95000D01*
X173500Y152000D02*
X174000Y152500D01*
X170500Y149500D02*
Y151500D01*
Y149500D02*
X177000Y143000D01*
X378650Y165650D02*
X385500Y172500D01*
X363150Y165650D02*
X378650D01*
X363000Y165500D02*
X363150Y165650D01*
X225000Y140000D02*
X235000D01*
X215000D02*
X225000D01*
X255000Y145000D02*
X264000Y154000D01*
X245000Y140000D02*
X255000D01*
Y145000D01*
X235000Y140000D02*
X245000D01*
X264000Y154000D02*
X280000D01*
X341075Y299882D02*
X343075Y297882D01*
X244000Y95000D02*
X256500D01*
X65500Y152000D02*
Y153500D01*
Y152000D02*
X71000Y146500D01*
X68900Y153600D02*
Y153734D01*
Y153600D02*
X73500Y149000D01*
X149000Y95000D02*
X153000D01*
X148000D02*
X148500Y94500D01*
X365000Y118000D02*
X373000D01*
X365000Y113500D02*
X371000D01*
X248000Y171000D02*
Y188000D01*
X267000Y165000D02*
Y172000D01*
X280000Y154000D02*
X290000D01*
X289000Y143000D02*
Y144000D01*
X295000Y157000D02*
Y163000D01*
X304000Y131000D02*
Y137000D01*
X300000Y20998D02*
Y15000D01*
X302999D01*
X303999Y16000D01*
Y16999D01*
X302999Y17999D01*
X300000D01*
X302999D01*
X303999Y18999D01*
Y19998D01*
X302999Y20998D01*
X300000D01*
X308997D02*
X306998D01*
X305998Y19998D01*
Y16000D01*
X306998Y15000D01*
X308997D01*
X309997Y16000D01*
Y19998D01*
X308997Y20998D01*
X311996D02*
X315995D01*
X313996D01*
Y15000D01*
D39*
X255000Y140000D02*
D03*
Y130157D02*
D03*
X245000Y140000D02*
D03*
Y130157D02*
D03*
X235000Y140000D02*
D03*
Y130157D02*
D03*
X225000Y140000D02*
D03*
Y130157D02*
D03*
X215000Y140000D02*
D03*
Y130157D02*
D03*
Y120000D02*
D03*
Y110158D02*
D03*
X225000Y120000D02*
D03*
Y110158D02*
D03*
X235000Y120000D02*
D03*
Y110158D02*
D03*
X245000Y120000D02*
D03*
Y110158D02*
D03*
X255000Y120000D02*
D03*
Y110158D02*
D03*
X310500Y140500D02*
D03*
Y130657D02*
D03*
X320500Y140500D02*
D03*
Y130657D02*
D03*
Y120500D02*
D03*
Y110658D02*
D03*
X310500Y120500D02*
D03*
Y110658D02*
D03*
D130*
X41732Y289764D02*
X47244Y295276D01*
X35827Y289764D02*
X41732D01*
X33465Y287402D02*
X35827Y289764D01*
X39469Y287500D02*
X49602D01*
X37404Y285435D02*
X39469Y287500D01*
X49602D02*
X57378Y295276D01*
X17717Y287402D02*
X33465D01*
X186540Y280700D02*
X191415D01*
X183500Y283740D02*
X186540Y280700D01*
X112992Y326260D02*
X122047D01*
X114906Y348937D02*
Y349606D01*
X115039Y349739D01*
Y370079D01*
X174185Y192312D02*
Y198803D01*
Y192312D02*
X175197Y191300D01*
X169902Y196455D02*
X170000Y196553D01*
X169902Y189000D02*
Y196455D01*
X343347Y264500D02*
Y271654D01*
X323307Y267453D02*
Y275633D01*
Y267453D02*
X324803Y265957D01*
X267284Y264500D02*
Y266961D01*
X277284Y264500D02*
Y273346D01*
X309055Y270798D02*
Y273000D01*
X303346Y265089D02*
X309055Y270798D01*
X323346Y264500D02*
X324803Y265957D01*
X303346Y264500D02*
Y265089D01*
X312898Y264051D02*
X313347Y264500D01*
X312898Y255256D02*
Y264051D01*
X157480Y273000D02*
X164736D01*
X165236Y273500D01*
X160118Y277165D02*
X170500D01*
X364000Y148000D02*
X368000Y152000D01*
X364000Y138500D02*
Y148000D01*
X256000Y261000D02*
X258500D01*
X246500Y251500D02*
X256000Y261000D01*
X322480Y135000D02*
X322500Y135020D01*
X316000Y135000D02*
X322480D01*
X217500Y251500D02*
X246500D01*
X310500Y140500D02*
X316000Y135000D01*
X361000Y150000D02*
X365500Y154500D01*
X361000Y141500D02*
Y150000D01*
X222000Y249000D02*
X248500D01*
X326000Y140500D02*
X330500Y136000D01*
X248500Y249000D02*
X257000Y257500D01*
X320500Y140500D02*
X326000D01*
X125000Y348898D02*
X125039Y348937D01*
Y370079D01*
X145039Y346457D02*
Y370079D01*
X155039Y348898D02*
X155157Y348780D01*
X155039Y348898D02*
Y370079D01*
X37404Y271654D02*
Y285435D01*
X199214Y207500D02*
X200400Y206314D01*
X194075Y207500D02*
X199214D01*
X190945Y210630D02*
Y217386D01*
Y210630D02*
X194075Y207500D01*
X200400Y187300D02*
Y206314D01*
X200300Y187200D02*
X200400Y187300D01*
X201842Y191772D02*
Y208661D01*
X198063Y212441D02*
X201842Y208661D01*
X196000Y212441D02*
X198063D01*
X203043Y194882D02*
Y225398D01*
Y194882D02*
X207957Y189968D01*
Y187110D02*
Y189968D01*
X196000Y232441D02*
X203043Y225398D01*
X203753Y189862D02*
X204000Y189615D01*
Y169291D02*
Y189615D01*
X201842Y191772D02*
X203753Y189862D01*
X190945Y217386D02*
X196000Y222441D01*
X201500Y125500D02*
Y137000D01*
X205000Y124000D02*
Y137000D01*
X207402Y169291D02*
Y186554D01*
X207957Y187110D01*
X200300Y170091D02*
Y187200D01*
X200000Y169791D02*
X200300Y170091D01*
X200000Y169791D02*
X200500Y169291D01*
X267284Y266961D02*
X278020Y277697D01*
X281634D02*
X282622D01*
X277284Y273346D02*
X281634Y277697D01*
X180000Y120000D02*
X184000Y116000D01*
X260200Y123553D02*
X262000Y121753D01*
X35500Y95000D02*
X45000D01*
X17000Y93000D02*
Y95500D01*
X14500Y98000D02*
X17000Y95500D01*
X249500Y292000D02*
X275500D01*
X237500Y304000D02*
X249500Y292000D01*
X304000Y140500D02*
X310500Y134000D01*
Y130657D02*
Y134000D01*
Y120500D02*
Y130657D01*
X296500Y114500D02*
X316500D01*
X320500Y118500D01*
Y120500D01*
Y130657D01*
X259000Y120000D02*
X261000Y118000D01*
X260503Y114497D02*
X262953D01*
X255000Y120000D02*
X260503Y114497D01*
X258545Y114700D02*
X261048Y112197D01*
X263905D01*
X225000Y130157D02*
Y133000D01*
X227200Y135200D01*
X258497D01*
X260200Y133497D01*
Y123553D02*
Y133497D01*
X262000Y121753D02*
X262196Y121949D01*
X258048Y113500D02*
X260551Y110997D01*
X265997D01*
X266500Y111500D01*
X265253Y114500D02*
X266253Y115500D01*
X265253Y113544D02*
Y114500D01*
X263905Y112197D02*
X265253Y113544D01*
X246300Y114700D02*
X258545D01*
X266253Y115500D02*
X266626D01*
X215000Y120000D02*
X219500Y115500D01*
X227500D01*
X229000Y117000D01*
Y129500D01*
X231344Y131844D01*
Y132893D01*
X232452Y134000D01*
X258000D01*
X259000Y133000D01*
Y120000D02*
Y133000D01*
X245000Y116000D02*
Y120000D01*
Y116000D02*
X246300Y114700D01*
X215000Y120000D02*
Y130157D01*
X225000Y120000D02*
Y130157D01*
X235000Y120000D02*
Y130157D01*
X245000Y120000D02*
Y130157D01*
X255000Y120000D02*
Y130157D01*
X258000Y35000D02*
Y50500D01*
X261500Y37500D02*
Y50500D01*
X265500Y32500D02*
Y50000D01*
X265000Y50500D02*
X265500Y50000D01*
X234500Y276753D02*
X239000Y272253D01*
X234500Y276753D02*
Y279500D01*
X239000Y270500D02*
Y272253D01*
X234500Y273500D02*
X236700Y271300D01*
X238000Y276500D02*
Y277000D01*
X236700Y267800D02*
Y271300D01*
Y267800D02*
X237000Y267500D01*
X238000Y276500D02*
X241500Y273000D01*
X10000Y168000D02*
X16000Y162000D01*
X10000Y168000D02*
Y170000D01*
X5000Y163000D02*
Y165000D01*
Y163000D02*
X10000Y158000D01*
X7500Y165500D02*
X13000Y160000D01*
X7500Y165500D02*
Y167500D01*
X198000Y124000D02*
Y137000D01*
X201500Y124000D02*
Y124500D01*
X202000Y125000D01*
X201500Y125500D02*
X202000Y125000D01*
X183500Y115500D02*
X184000Y116000D01*
X40000Y81000D02*
X49000D01*
X37000Y84500D02*
X45500D01*
X283000Y103000D02*
X285000Y101000D01*
X283000Y103000D02*
Y106000D01*
X245803Y113500D02*
X258048D01*
X243800Y115503D02*
X245803Y113500D01*
X243800Y115503D02*
Y115700D01*
X242762Y116738D02*
X243800Y115700D01*
X241871Y116738D02*
X242762D01*
X238609Y120000D02*
X241871Y116738D01*
X235000Y120000D02*
X238609D01*
D131*
X171260Y334252D02*
X179070Y342062D01*
X179720D01*
X185039Y348937D02*
Y370079D01*
X80908Y348425D02*
Y366142D01*
X188992Y177000D02*
Y193583D01*
X211500Y166000D02*
X217000Y160500D01*
Y159500D02*
Y160500D01*
X371000Y48500D02*
Y58000D01*
X258500Y321000D02*
Y330500D01*
X250000Y321000D02*
Y330500D01*
X231000Y264500D02*
X242500D01*
X244500Y266500D01*
X250000Y305000D02*
Y315000D01*
D136*
X135531Y245669D02*
D03*
Y238583D02*
D03*
Y298819D02*
D03*
Y291732D02*
D03*
D137*
X100394Y312992D02*
D03*
X129764Y259842D02*
D03*
X129921Y312992D02*
D03*
X100236Y277559D02*
D03*
X100389Y242126D02*
D03*
X67378Y295276D02*
D03*
X47378D02*
D03*
X27378D02*
D03*
X57378D02*
D03*
X37378D02*
D03*
X17378D02*
D03*
X277716Y264500D02*
D03*
X267717D02*
D03*
X353346D02*
D03*
X333347D02*
D03*
X313347D02*
D03*
X343347D02*
D03*
X323346D02*
D03*
X303346D02*
D03*
X196000Y212441D02*
D03*
Y232441D02*
D03*
Y222441D02*
D03*
X181890Y212283D02*
D03*
Y232283D02*
D03*
Y222284D02*
D03*
X67378Y312531D02*
D03*
X47378D02*
D03*
X57378D02*
D03*
X37378D02*
D03*
X185039Y380079D02*
D03*
X175039D02*
D03*
X165039D02*
D03*
X155039D02*
D03*
X145039D02*
D03*
X135039D02*
D03*
X125039D02*
D03*
X115039D02*
D03*
X175039Y370079D02*
D03*
X165039D02*
D03*
X155039D02*
D03*
X145039D02*
D03*
X135039D02*
D03*
X125039D02*
D03*
X115039D02*
D03*
X95039D02*
D03*
X105039D02*
D03*
X95039Y380079D02*
D03*
X105039D02*
D03*
D138*
X110394Y312992D02*
D03*
X139764Y259842D02*
D03*
X139921Y312992D02*
D03*
X110236Y277559D02*
D03*
X110389Y242126D02*
D03*
X196000Y202441D02*
D03*
X181890Y202284D02*
D03*
D139*
X77378Y295276D02*
D03*
X287717Y264500D02*
D03*
X363347D02*
D03*
X77378Y312531D02*
D03*
X185039Y370079D02*
D03*
D140*
X70866Y15748D02*
D03*
X165354D02*
D03*
D141*
X90866D02*
D03*
X185354D02*
D03*
X377953Y149941D02*
D03*
Y90886D02*
D03*
D142*
X373154Y314894D02*
D03*
Y297571D02*
D03*
D143*
X377953Y129941D02*
D03*
Y70886D02*
D03*
D144*
X354331Y240177D02*
D03*
D145*
Y220492D02*
D03*
Y200807D02*
D03*
Y181122D02*
D03*
D146*
X238189Y287402D02*
D03*
X179134Y293307D02*
D03*
X387795Y311024D02*
D03*
X381890Y299213D02*
D03*
X387795Y263779D02*
D03*
X381890Y251969D02*
D03*
Y204724D02*
D03*
Y181102D02*
D03*
Y157480D02*
D03*
X375984Y311024D02*
D03*
X370079Y251969D02*
D03*
Y228346D02*
D03*
X375984Y216535D02*
D03*
Y192913D02*
D03*
Y169291D02*
D03*
Y122047D02*
D03*
X370079Y86614D02*
D03*
X358268Y251969D02*
D03*
Y228346D02*
D03*
X364173Y216535D02*
D03*
Y122047D02*
D03*
X358268Y110236D02*
D03*
X364173Y98425D02*
D03*
X358268Y86614D02*
D03*
X352362Y287402D02*
D03*
X346457Y251969D02*
D03*
Y228346D02*
D03*
Y181102D02*
D03*
Y110236D02*
D03*
Y86614D02*
D03*
X340551Y287402D02*
D03*
Y98425D02*
D03*
X328740Y381890D02*
D03*
X322835Y370079D02*
D03*
X328740Y358268D02*
D03*
X322835Y346457D02*
D03*
X328740Y334646D02*
D03*
X322835Y299213D02*
D03*
X328740Y287402D02*
D03*
X322835Y181102D02*
D03*
Y157480D02*
D03*
X328740Y145669D02*
D03*
Y74803D02*
D03*
Y51181D02*
D03*
X316929Y381890D02*
D03*
X311024Y370079D02*
D03*
X316929Y358268D02*
D03*
X311024Y346457D02*
D03*
X316929Y51181D02*
D03*
X305118Y381890D02*
D03*
X299213Y370079D02*
D03*
X305118Y358268D02*
D03*
X299213Y346457D02*
D03*
Y322835D02*
D03*
X305118Y311024D02*
D03*
X299213Y299213D02*
D03*
X305118Y287402D02*
D03*
Y169291D02*
D03*
X299213Y110236D02*
D03*
X305118Y51181D02*
D03*
X293307Y381890D02*
D03*
X287402Y370079D02*
D03*
X293307Y358268D02*
D03*
X287402Y346457D02*
D03*
X293307Y334646D02*
D03*
X287402Y322835D02*
D03*
X293307Y311024D02*
D03*
X287402Y299213D02*
D03*
X293307Y287402D02*
D03*
Y263779D02*
D03*
Y169291D02*
D03*
Y51181D02*
D03*
X281496Y381890D02*
D03*
X275590Y370079D02*
D03*
X281496Y358268D02*
D03*
X275590Y346457D02*
D03*
X281496Y334646D02*
D03*
X275590Y322835D02*
D03*
X281496Y311024D02*
D03*
X275590Y299213D02*
D03*
X281496Y287402D02*
D03*
X269685Y381890D02*
D03*
X263779Y370079D02*
D03*
X269685Y358268D02*
D03*
X263779Y346457D02*
D03*
X269685Y334646D02*
D03*
Y51181D02*
D03*
X257874Y381890D02*
D03*
Y74803D02*
D03*
X246063Y381890D02*
D03*
Y334646D02*
D03*
X240158Y157480D02*
D03*
Y39370D02*
D03*
X246063Y27559D02*
D03*
X234252Y381890D02*
D03*
X228346Y346457D02*
D03*
X234252Y334646D02*
D03*
X222441Y381890D02*
D03*
Y358268D02*
D03*
X216535Y299213D02*
D03*
Y275590D02*
D03*
Y39370D02*
D03*
X222441Y27559D02*
D03*
X216535Y15748D02*
D03*
X210630Y381890D02*
D03*
Y358268D02*
D03*
Y287402D02*
D03*
X204724Y228346D02*
D03*
Y110236D02*
D03*
Y86614D02*
D03*
Y62992D02*
D03*
X210630Y51181D02*
D03*
X204724Y39370D02*
D03*
X198819Y381890D02*
D03*
X192913Y346457D02*
D03*
Y110236D02*
D03*
X198819Y51181D02*
D03*
X187008Y240158D02*
D03*
X181102Y133858D02*
D03*
Y110236D02*
D03*
X187008Y51181D02*
D03*
X175197Y263779D02*
D03*
Y240158D02*
D03*
X169291Y228346D02*
D03*
X175197Y216535D02*
D03*
X169291Y62992D02*
D03*
X157480Y322835D02*
D03*
Y299213D02*
D03*
Y251969D02*
D03*
X163386Y240158D02*
D03*
X157480Y228346D02*
D03*
X163386Y216535D02*
D03*
X157480Y204724D02*
D03*
Y62992D02*
D03*
X151575Y334646D02*
D03*
X145669Y322835D02*
D03*
X151575Y311024D02*
D03*
Y287402D02*
D03*
X145669Y275590D02*
D03*
Y251969D02*
D03*
X151575Y216535D02*
D03*
X145669Y204724D02*
D03*
X151575Y122047D02*
D03*
Y74803D02*
D03*
X133858Y346457D02*
D03*
X139764Y334646D02*
D03*
X133858Y322835D02*
D03*
Y251969D02*
D03*
X139764Y240158D02*
D03*
X133858Y204724D02*
D03*
Y110236D02*
D03*
X122047Y346457D02*
D03*
X127953Y334646D02*
D03*
X122047Y228346D02*
D03*
Y204724D02*
D03*
Y39370D02*
D03*
X127953Y27559D02*
D03*
X110236Y346457D02*
D03*
X116142Y334646D02*
D03*
X110236Y322835D02*
D03*
X116142Y240158D02*
D03*
X110236Y204724D02*
D03*
Y86614D02*
D03*
X116142Y51181D02*
D03*
X110236Y39370D02*
D03*
X98425Y346457D02*
D03*
X104331Y334646D02*
D03*
X98425Y322835D02*
D03*
X104331Y263779D02*
D03*
X98425Y204724D02*
D03*
X104331Y192913D02*
D03*
X98425Y181102D02*
D03*
Y110236D02*
D03*
Y62992D02*
D03*
X104331Y51181D02*
D03*
X98425Y39370D02*
D03*
X86614Y370079D02*
D03*
Y346457D02*
D03*
X92520Y334646D02*
D03*
Y311024D02*
D03*
Y287402D02*
D03*
Y240158D02*
D03*
Y216535D02*
D03*
Y192913D02*
D03*
X86614Y181102D02*
D03*
Y110236D02*
D03*
X92520Y51181D02*
D03*
X74803Y370079D02*
D03*
Y346457D02*
D03*
Y322835D02*
D03*
X80709Y287402D02*
D03*
Y263779D02*
D03*
X74803Y251969D02*
D03*
X80709Y240158D02*
D03*
X74803Y228346D02*
D03*
X80709Y192913D02*
D03*
X74803Y181102D02*
D03*
Y110236D02*
D03*
X80709Y51181D02*
D03*
X74803Y39370D02*
D03*
X80709Y27559D02*
D03*
X68898Y381890D02*
D03*
X62992Y370079D02*
D03*
X68898Y334646D02*
D03*
Y263779D02*
D03*
X62992Y251969D02*
D03*
X68898Y240158D02*
D03*
Y192913D02*
D03*
X62992Y181102D02*
D03*
Y39370D02*
D03*
X68898Y27559D02*
D03*
X62992Y15748D02*
D03*
X57087Y263779D02*
D03*
X51181Y251969D02*
D03*
X57087Y240158D02*
D03*
X51181Y228346D02*
D03*
Y181102D02*
D03*
X45276Y263779D02*
D03*
X39370Y251969D02*
D03*
X45276Y240158D02*
D03*
X39370Y228346D02*
D03*
Y181102D02*
D03*
X45276Y122047D02*
D03*
Y74803D02*
D03*
X27559Y322835D02*
D03*
X33465Y263779D02*
D03*
X27559Y251969D02*
D03*
X33465Y240158D02*
D03*
X27559Y228346D02*
D03*
Y204724D02*
D03*
X33465Y192913D02*
D03*
X27559Y181102D02*
D03*
X15748Y275590D02*
D03*
X21654Y263779D02*
D03*
X15748Y251969D02*
D03*
X21654Y240158D02*
D03*
X15748Y228346D02*
D03*
Y204724D02*
D03*
X21654Y192913D02*
D03*
X15748Y181102D02*
D03*
Y110236D02*
D03*
Y62992D02*
D03*
D147*
X17717Y287402D02*
D03*
X191415Y280700D02*
D03*
X183500Y283740D02*
D03*
X171260Y334252D02*
D03*
X179720Y342062D02*
D03*
X185039Y348937D02*
D03*
X122047Y326260D02*
D03*
X112992D02*
D03*
X114906Y348937D02*
D03*
X80908Y348425D02*
D03*
Y366142D02*
D03*
X174185Y198803D02*
D03*
X175197Y191300D02*
D03*
X170000Y196553D02*
D03*
X169902Y189000D02*
D03*
X343347Y271654D02*
D03*
X323307Y275633D02*
D03*
X309055Y273000D02*
D03*
X312898Y255256D02*
D03*
X157480Y273000D02*
D03*
X165236Y273500D02*
D03*
X160118Y277165D02*
D03*
X170500D02*
D03*
X368000Y152000D02*
D03*
X364000Y138500D02*
D03*
X258500Y261000D02*
D03*
X322500Y135020D02*
D03*
X217500Y251500D02*
D03*
X365500Y154500D02*
D03*
X361000Y141500D02*
D03*
X257000Y257500D02*
D03*
X330500Y136000D02*
D03*
X222000Y249000D02*
D03*
X125000Y348898D02*
D03*
X145039Y346457D02*
D03*
X155157Y348780D02*
D03*
X37404Y271654D02*
D03*
X201500Y137000D02*
D03*
X205000D02*
D03*
X188992Y193583D02*
D03*
Y177000D02*
D03*
X207957Y187110D02*
D03*
X200300Y187200D02*
D03*
X203753Y189862D02*
D03*
X207402Y169291D02*
D03*
X204000D02*
D03*
X200500D02*
D03*
X282622Y277697D02*
D03*
X278020D02*
D03*
X332724Y309032D02*
D03*
X331075Y313882D02*
D03*
X334075Y299882D02*
D03*
X385500Y261000D02*
D03*
X232000Y287500D02*
D03*
X223500Y290000D02*
D03*
X250000Y117500D02*
D03*
X330000Y182500D02*
D03*
X315000D02*
D03*
X300000D02*
D03*
X285000D02*
D03*
X270000D02*
D03*
X20000Y125000D02*
D03*
X35000D02*
D03*
X85000D02*
D03*
X125000D02*
D03*
X140000D02*
D03*
X190000D02*
D03*
X170000Y122500D02*
D03*
X162500D02*
D03*
X170000Y127500D02*
D03*
X162500D02*
D03*
X65000Y122500D02*
D03*
X57500D02*
D03*
X65000Y127500D02*
D03*
X57500D02*
D03*
X45000Y95000D02*
D03*
X35500D02*
D03*
X17000Y93000D02*
D03*
X14500Y98000D02*
D03*
X174000Y152500D02*
D03*
X179500Y146000D02*
D03*
X170500Y151500D02*
D03*
X177000Y143000D02*
D03*
X275500Y292000D02*
D03*
X237500Y304000D02*
D03*
X363000Y165500D02*
D03*
X275000Y127500D02*
D03*
Y122500D02*
D03*
X287500D02*
D03*
Y127500D02*
D03*
X280500Y110000D02*
D03*
X304000Y140500D02*
D03*
X296500Y114500D02*
D03*
X262196Y121949D02*
D03*
X266500Y111500D02*
D03*
X262953Y114497D02*
D03*
X261000Y118000D02*
D03*
X266626Y115500D02*
D03*
X211500Y166000D02*
D03*
X217000Y159500D02*
D03*
X371000Y58000D02*
D03*
Y48500D02*
D03*
X324075Y313882D02*
D03*
X258500Y330500D02*
D03*
X250000D02*
D03*
X258500Y321000D02*
D03*
X343075Y297882D02*
D03*
X244000Y95000D02*
D03*
X256500D02*
D03*
X231000Y264500D02*
D03*
X244500Y266500D02*
D03*
X250000Y321000D02*
D03*
Y315000D02*
D03*
Y305000D02*
D03*
X258000Y35000D02*
D03*
X261500Y37500D02*
D03*
X265500Y32500D02*
D03*
X258000Y50500D02*
D03*
X261500D02*
D03*
X265000D02*
D03*
X234500Y279500D02*
D03*
Y273500D02*
D03*
X238000Y277000D02*
D03*
X237000Y267500D02*
D03*
X239000Y270500D02*
D03*
X241500Y273000D02*
D03*
X10000Y170000D02*
D03*
X16000Y162000D02*
D03*
X13000Y160000D02*
D03*
X10000Y158000D02*
D03*
X5000Y165000D02*
D03*
X7500Y167500D02*
D03*
X198000Y137000D02*
D03*
Y124000D02*
D03*
X201500D02*
D03*
X205000D02*
D03*
X183500Y115500D02*
D03*
X180000Y120000D02*
D03*
X40000Y81000D02*
D03*
X49000D02*
D03*
X45500Y84500D02*
D03*
X37000D02*
D03*
X65500Y153500D02*
D03*
X68900Y153734D02*
D03*
X73500Y149000D02*
D03*
X71000Y146500D02*
D03*
X153000Y95000D02*
D03*
X148000D02*
D03*
X268000Y200500D02*
D03*
Y205500D02*
D03*
X277500Y201000D02*
D03*
Y205500D02*
D03*
X220500Y207500D02*
D03*
X225000D02*
D03*
X216500D02*
D03*
X212500D02*
D03*
X373000Y118000D02*
D03*
X365000Y113500D02*
D03*
Y118000D02*
D03*
X371000Y113500D02*
D03*
X283000Y106000D02*
D03*
X285000Y101000D02*
D03*
X267000Y165000D02*
D03*
X248000Y171000D02*
D03*
Y188000D02*
D03*
X267000Y172000D02*
D03*
X295000Y163000D02*
D03*
X290000Y154000D02*
D03*
X280000D02*
D03*
X282622Y143000D02*
D03*
X289000Y144000D02*
D03*
X295000Y157000D02*
D03*
X304000Y131000D02*
D03*
Y137000D02*
D03*
X353075Y301882D02*
D03*
X239500Y115000D02*
D03*
X276000Y84000D02*
D03*
X259000Y83500D02*
D03*
X50000Y87000D02*
D03*
X30000D02*
D03*
X255000Y300000D02*
D03*
X254500Y321000D02*
D03*
X239500Y317000D02*
D03*
X275000Y156500D02*
D03*
M02*
