M48
;Layer_Color=9474304
;FILE_FORMAT=2:5
INCH,LZ
;TYPE=PLATED
T1F00S00C0.01575
T2F00S00C0.03150
T3F00S00C0.03543
T4F00S00C0.03937
T5F00S00C0.05118
T6F00S00C0.05512
T7F00S00C0.05906
T8F00S00C0.12205
%
T01
X027565Y005815
X029065
X030565
X032065
X032815Y007315
X033565Y008815
X035065
X036565
X035815Y010315
X034315
X0365Y01135
X0371
Y0058
Y00485
X0276Y0084
X0285Y0101
X0283Y0106
X02805Y011
X02965Y01145
X0266626Y01155
X02665Y01115
X0262953Y0114497
X02395Y0115
X0244Y0095
X02565
X0259Y00835
X0258Y00505
X02615
X0265
X02615Y00375
X0258Y0035
X02655Y00325
X024565Y002815
X020815Y004315
X020065Y005815
X018565
X017065
X0153Y0095
X0148
X01835Y01155
X020065Y008815
X012565Y002815
X010315Y004315
X011065Y005815
X009565
X008065
X007315Y004315
X008065Y002815
X006565
X0049Y0081
X00455Y00845
X005Y0087
X0045Y0095
X00355
X0037Y00845
X004Y0081
X003Y0087
X0017Y0093
X00145Y0098
X001315Y007315
X002Y0125
X0035
X00575Y01225
Y01275
X0065
Y01225
X0085Y0125
X009565Y011815
X00735Y0149
X0071Y01465
X00689Y0153734
X00655Y01535
X0016Y0162
X0013Y016
X001Y0158
Y017
X00075Y01675
X0005Y0165
X004315Y019315
X003565Y020815
X004315Y022315
X005815
X007315
X008065Y023815
X009565
X011065
X010315Y025315
X011065Y026815
X008065
X006565
X005065
X003565
X004315Y025315
X005815
X007315
X006565Y023815
X002065
X00895Y02125
X010315Y022315
X011815
X013315
X014815
X016315
X017815
X019315
X020065Y023815
X018565
X017065
X015565
X014065
X012565
X013315Y025315
X014815
X015565Y026815
X0164Y0268
X014065Y026815
X012565
X011815Y025315
Y019315
X013315
X014815
X016315
X017815
X0191Y0193
X02Y01865
X02035Y01885
X02075Y01855
Y01705
X0204
X02005
X02115Y0166
X0217Y01595
X023815Y016315
X0248Y0171
Y0188
X026065Y017815
X0267Y0172
Y0165
X027Y01825
X0268Y02005
Y02055
X0225Y02075
X02205
X02165
X02125
X018565Y020815
X017065
X015565
X0191Y0177
X0174Y01525
X01705Y01515
X01795Y0146
X0177Y0143
X017Y01275
Y01225
X01625
Y01275
X014Y0125
X0125
X018Y012
X019Y0125
X0198Y0124
X02015
X0205
Y0137
X02015
X0198
X025Y01175
X0261Y0118
X0262196Y0121949
X0257Y02575
X02585Y0261
X02445Y02665
X0237Y02675
X0239Y02705
X0231Y02645
X0222Y0249
X02175Y02515
X0276Y02705
X029065Y026815
X030565
X032065
X033565
X035065
X036565
X038065
X037315Y025315
X038065Y023815
Y020815
X037315Y019315
X038065Y017815
X037315Y016315
X0363Y01655
X035815Y016315
X03655Y01545
X0368Y0152
X0361Y01415
X0364Y01385
X0365Y0118
X0373
X033565Y011815
X03305Y0136
X03225Y013502
X032065Y014815
X0304Y01405
Y0137
Y0131
X02875Y01275
Y01225
X0275
Y01275
X0282622Y0143
X0289Y0144
X029Y0154
X0295Y0157
Y0163
X028Y0154
X0275Y01565
X0285Y01825
X03
X0315
X033
X02775Y0201
Y02055
X0273Y02735
X02815Y0276
X02785Y0279
X028315Y028315
X029815
X030565Y029815
X03135Y0292
X0322
X032815Y028315
X034315
X035815
X037315
X03855Y029
X038065Y029815
X036565
X035065
X033565
X035815Y031315
X035065Y032815
X032065
X03095Y0331
X030035Y032965
X02955Y0328
Y0321
X031315Y031315
X03115Y034
X03075Y035
X029065Y029815
X027565
X02755Y0292
X0255Y03
X025Y0305
Y0315
Y0321
X02545
X02585
Y03305
X025
X025315Y034315
X026815
Y037315
X024565Y035815
X023065
X022315Y034315
X020815
X01925Y0328
X0189
X01855
X01825Y03305
X018Y0326
Y0318
X01705Y03185
Y0328
X01735Y03305
Y0334
Y03375
X0174643Y03409
X01725Y0349
X017065Y035815
X018565
X01865Y0323
X01965Y0321
Y0317
Y0313
X0194Y0297
X0193Y02935
X0192Y0283
X01885Y0284
X017Y0285
X01705Y0295
X01575Y031
X01455Y0315
X0142
X0138
X01345Y03125
X01295Y03135
Y03045
X01345
X0138
X0142
X01455
X014815Y028315
X011815
X0163Y03305
Y0334
Y03375
Y0341
X0162Y03455
X021565Y029815
X02235Y029
X0232Y02875
X023815Y028315
X0238Y0277
X02345Y02795
Y02735
X02415Y0273
X02375Y0304
X02395Y0317
X011065Y029815
X006565
X005065
X003565
X002065
X001315Y031315
X005815
Y028315
X007315
X004315
X009565Y035815
X011065
T02
X0021457Y032
X0028543
X0066457
X0073543
T03
X0294488Y0370079
X0311811
T04
X005Y019
X006
X007
X008
X009
X01
X034Y0305
Y0315
Y0325
X0185039Y0370079
Y0380079
X0175039
X0165039
X0155039
X0145039
X0135039
X0125039
Y0370079
X0135039
X0145039
X0155039
X0165039
X0175039
X0115039
Y0380079
X0105039
Y0370079
X0095039
Y0380079
T05
X0377953Y0070886
Y0090886
X0185354Y0015748
X0165354
X0090866
X0070866
X0377953Y0129941
Y0149941
T06
X0023622Y0208661
Y0267717
X0354331Y0240177
Y0220492
Y0200807
Y0181122
T07
X0013583Y0198622
Y0218701
X0033661
Y0198622
Y0257677
X0013583
Y0277756
X0033661
T08
X0354331Y003937
X003937
X0354331Y0354331
X003937
M30
