M48
;Layer_Color=9474304
;FILE_FORMAT=2:5
INCH,LZ
;TYPE=PLATED
T1F00S00C0.01575
T2F00S00C0.03150
T3F00S00C0.03543
T4F00S00C0.03937
T5F00S00C0.05118
T6F00S00C0.05512
T7F00S00C0.12205
%
T01
X0293307Y0051181
X0305118
X0316929
X032874
Y0074803
X0346457Y0086614
X0358268
X0370079
X0364173Y0098425
X0365Y01135
X0371
X0358268Y0110236
X0346457
X0340551Y0098425
X0299213Y0110236
X02965Y01145
X02805Y011
X0283Y0106
X0285Y0101
X0276Y0084
X0371Y0058
Y00485
X0269685Y0051181
X0265Y00505
X02615
X0258
Y0035
X02615Y00375
X02655Y00325
X0246063Y0027559
X0240158Y003937
X0216535
X0204724
X021063Y0051181
X0198819
X0187008
X0204724Y0062992
Y0086614
Y0110236
X0192913
X0181102
X01835Y01155
X0153Y0095
X0148
X0151575Y0074803
X015748Y0062992
X0169291
X0116142Y0051181
X0122047Y003937
X0127953Y0027559
X0133858Y0110236
X02395Y0115
X0262953Y0114497
X0266626Y01155
X02665Y01115
X02565Y0095
X0244
X0259Y00835
X0257874Y0074803
X0222441Y0027559
X0216535Y0015748
X0110236Y003937
X0098425
X0104331Y0051181
X009252
X0080709
X0074803Y003937
X0062992
X0068898Y0027559
X0080709
X0062992Y0015748
X0045276Y0074803
X0049Y0081
X00455Y00845
X005Y0087
X0045Y0095
X00355
X0037Y00845
X004Y0081
X003Y0087
X0017Y0093
X00145Y0098
X0015748Y0110236
Y0062992
X0098425
X0110236Y0086614
X0098425Y0110236
X0086614
X0074803
X0065Y01225
Y01275
X00575
Y01225
X0045276Y0122047
X0035Y0125
X002
X0016Y0162
X0013Y016
X001Y0158
Y017
X00075Y01675
X0005Y0165
X0015748Y0181102
X0027559
X003937
X0051181
X0062992
X0074803
X0086614
X0098425
X0104331Y0192913
X009252
X0080709
X0068898
X0033465
X0021654
X0027559Y0204724
X0015748
Y0228346
X0027559
X003937
X0051181
X0057087Y0240158
X0068898
X0080709
X009252
Y0216535
X0098425Y0204724
X0110236
X0074803Y0228346
Y0251969
X0062992
X0051181
X003937
X0027559
X0015748
X0021654Y0263779
X0033465
X0045276
X0057087
X0068898
X0080709
X0104331
X0037404Y0271654
X0033465Y0240158
X0045276
X0021654
X00655Y01535
X00689Y0153734
X00735Y0149
X0071Y01465
X0085Y0125
X0125
X014
X0151575Y0122047
X01625Y01225
Y01275
X017
Y01225
X018Y012
X0181102Y0133858
X0177Y0143
X01795Y0146
X0174Y01525
X01705Y01515
X0169902Y0189
X0175197Y01913
X0174185Y0198803
X017Y0196553
X015748Y0204724
X0145669
X0133858
X0122047
Y0228346
X0116142Y0240158
X0139764
X0145669Y0251969
X015748
X0163386Y0240158
X0175197
X0187008
X0204724Y0228346
X02125Y02075
X02165
X02205
X0225
X0207957Y018711
X0203753Y0189862
X02003Y01872
X0188992Y0193583
Y0177
X02005Y0169291
X0204
X0207402
X02115Y0166
X0217Y01595
X0240158Y015748
X0248Y0171
Y0188
X027Y01825
X0267Y0172
Y0165
X0268Y02005
Y02055
X0257Y02575
X02585Y0261
X02445Y02665
X0237Y02675
X0239Y02705
X0231Y02645
X0222Y0249
X02175Y02515
X0175197Y0263779
X0169291Y0228346
X015748
X0163386Y0216535
X0175197
X0151575
X0133858Y0251969
X0198Y0137
X02015
X0205
Y0124
X02015
X0198
X019Y0125
X025Y01175
X0261Y0118
X0262196Y0121949
X0275Y01225
Y01275
X02875
Y01225
X0289Y0144
X0282622Y0143
X028Y0154
X0275Y01565
X029Y0154
X0295Y0157
Y0163
X0293307Y0169291
X0305118
X03Y01825
X0315
X0322835Y0181102
X033Y01825
X0346457Y0181102
X0363Y01655
X03655Y01545
X0368Y0152
X0364Y01385
X0361Y01415
X0364173Y0122047
X0365Y0118
X0373
X0375984Y0122047
X038189Y015748
X0375984Y0169291
X038189Y0181102
X0375984Y0192913
X038189Y0204724
X0375984Y0216535
X0364173
X0370079Y0228346
X0358268
X0346457
Y0251969
X0358268
X0370079
X038189
X03855Y0261
X0387795Y0263779
X0343347Y0271654
X0312898Y0255256
X0293307Y0263779
X02775Y02055
Y0201
X0285Y01825
X0304Y01405
Y0137
Y0131
X03225Y013502
X03305Y0136
X032874Y0145669
X0322835Y015748
X0323307Y0275633
X0309055Y0273
X0305118Y0287402
X0293307
X0281496
X02755Y0292
X027559Y0299213
X0287402
X0299213
X0305118Y0311024
X0293307
X0281496
X0287402Y0322835
X0299213
X0293307Y0334646
X0281496
X0287402Y0346457
X0299213
X0311024
X0322835
X032874Y0358268
X0316929
X0305118
X0293307
X0281496
X0287402Y0370079
X0299213
X0311024
X0322835
X032874Y038189
X0316929
X0305118
X0293307
X0281496
X027559Y0370079
Y0346457
Y0322835
X027802Y0277697
X0282622
X032874Y0287402
X0340551
X0352362
X0353075Y0301882
X0343075Y0297882
X0334075Y0299882
X0332724Y0309032
X0331075Y0313882
X0324075
X0322835Y0299213
X032874Y0334646
X0375984Y0311024
X0387795
X038189Y0299213
X0255Y03
X025Y0305
Y0315
Y0321
X02545
X02585
Y03305
X025
X0246063Y0334646
X0234252
X0228346Y0346457
X0222441Y0358268
X021063
Y038189
X0222441
X0234252
X0246063
X0257874
X0269685
X0263779Y0370079
X0269685Y0358268
X0263779Y0346457
X0269685Y0334646
X02395Y0317
X02375Y0304
X0238189Y0287402
X0232Y02875
X02345Y02795
Y02735
X0238Y0277
X02415Y0273
X0216535Y027559
X021063Y0287402
X02235Y029
X0216535Y0299213
X0179134Y0293307
X01835Y028374
X0191415Y02807
X01705Y0277165
X0165236Y02735
X015748Y0273
X0160118Y0277165
X0145669Y027559
X0151575Y0287402
X015748Y0299213
X0151575Y0311024
X015748Y0322835
X0145669
X0133858
X0122047Y032626
X0116142Y0334646
X0127953
X0139764
X0151575
X0155157Y034878
X0145039Y0346457
X0133858Y0346457
X0125Y0348898
X0122047Y0346457
X017126Y0334252
X017972Y0342062
X0185039Y0348937
X0192913Y0346457
X0198819Y038189
X0114906Y0348937
X0110236Y0346457
X0098425
X0086614
X0080908Y0348425
X0074803Y0346457
X0068898Y0334646
X0074803Y0322835
X0098425
X0110236
X0112992Y032626
X0104331Y0334646
X009252
Y0311024
Y0287402
X0080709
X0017717Y0287402
X0015748Y027559
X0027559Y0322835
X0062992Y0370079
X0074803
X0080908Y0366142
X0086614Y0370079
X0068898Y038189
T02
X0135531Y0238583
Y0245669
Y0291732
Y0298819
T03
X0373154Y0297571
Y0314894
T04
X0100389Y0242126
X0110389
X0129764Y0259842
X0139764
X018189Y0232283
Y0222284
Y0212283
Y0202284
X0196Y0202441
Y0212441
Y0222441
Y0232441
X0267717Y02645
X0277716
X0287717
X0303346
X0313347
X0323346
X0333347
X0343347
X0353346
X0363347
X0139921Y0312992
X0129921
X0125039Y0370079
Y0380079
X0135039
X0145039
X0155039
X0165039
X0175039
X0185039
Y0370079
X0175039
X0165039
X0155039
X0145039
X0135039
X0115039
Y0380079
X0105039
Y0370079
X0095039
Y0380079
X0100394Y0312992
X0110394
X0077378Y0312531
X0067378
X0057378
X0047378
X0037378
Y0295276
X0047378
X0057378
X0067378
X0077378
X0100236Y0277559
X0110236
X0027378Y0295276
X0017378
T05
X0377953Y0070886
Y0090886
X0185354Y0015748
X0165354
X0090866
X0070866
X0377953Y0129941
Y0149941
T06
X0354331Y0181122
Y0200807
Y0220492
Y0240177
T07
X0354331Y003937
X003937
X0354331Y0354331
X003937
M30
