M48
;Layer_Color=9474304
;FILE_FORMAT=2:5
INCH,LZ
;TYPE=PLATED
T1F00S00C0.01575
T2F00S00C0.02800
T3F00S00C0.03937
T4F00S00C0.05512
T5F00S00C0.05906
%
T01
X0172441Y0001969
X0180315Y0017717
X0196063
Y0049213
X0172441Y0033465
X0156693
X0140945
X0125197
X0109449
X0111Y0041
X0106
X0101Y0039
X0096Y0035
X0095Y003
X0085
Y0035
X00875Y004
X00925Y0045
X00975Y005
X01025Y00525
X01075
X0085827Y0049213
X0070079
X0062205Y0033465
X0077953
X0070079Y0017717
X0054331
X0038583
X0022835
X0014961Y0033465
X0030709
X0046457
X0038583Y0049213
X0022835
X0014961Y0001969
X0030709
X0046457
X0062205
X0109449
X0125197
X0140945
X0156693
X0164567Y0017717
X0148819
X0133071
X0117323
X0133071Y0049213
X0148819
X0164567
X0007087Y0017717
Y0080709
Y0143701
X-0000787Y0159449
X0007087Y0175197
X0014961Y0159449
X0022835Y0143701
X0038583
X0054331
X0070079
X0085827
X0101575
X0117323
X0133071
X0148819
X0164567
X0156693Y0127953
X0140945
X0148819Y0112205
X0164567
X0156693Y0064961
X0140945
X0125197
X0109449
X0093701
X0077953
X0046457
X0030709
X0014961
X0022835Y0080709
X0038583
X0030709Y0096457
X0046457
Y0127953
X0030709
X0014961
Y0096457
X0070079Y0112205
X0109449Y0096457
X0125197
X0172441
X0180315Y0112205
X0196063
Y0143701
X0180315
X0172441Y0159449
X0180315Y0175197
X0196063
X0172441Y0127953
X0180315Y0080709
X0196063
T02
X0171Y0060126
X0166Y007
X0132Y0105
Y0125
T03
X019Y0
Y001
Y002
Y003
Y004
Y005
Y006
X0Y005
Y004
Y003
Y002
Y001
Y0
Y007
Y008
Y009
Y01
Y011
Y012
Y013
Y014
X019Y0135984
Y0125984
Y0115984
Y0105984
Y0095984
Y0085984
Y007
Y0145984
Y0155984
Y0165984
Y0175984
T04
X009Y001
T05
X0079961Y-0000039
Y0020039
X0100039
Y-0000039
M30
