G04*
G04 #@! TF.GenerationSoftware,Altium Limited,Altium Designer,18.1.9 (240)*
G04*
G04 Layer_Color=65535*
%FSLAX25Y25*%
%MOIN*%
G70*
G01*
G75*
%ADD10C,0.00787*%
%ADD11C,0.00500*%
%ADD12C,0.01000*%
D10*
X87555Y105630D02*
G03*
X91492Y105630I1969J0D01*
G01*
X152362Y74094D02*
Y76063D01*
X147638Y74094D02*
Y76063D01*
X142362Y74094D02*
Y76063D01*
X137638Y74094D02*
Y76063D01*
X58028Y105630D02*
X87555D01*
X58028Y42638D02*
X121020D01*
X91492Y105630D02*
X121020D01*
X86063Y-3779D02*
X93543D01*
X103779Y6457D02*
Y13543D01*
X76221Y6457D02*
Y13543D01*
X86457Y23779D02*
X93543D01*
D11*
X-5000Y-5000D02*
X5000D01*
X-5000D02*
Y55000D01*
X5000Y-5000D02*
Y55000D01*
X-5000D02*
X5000D01*
X-5000Y65000D02*
X5000D01*
X-5000D02*
Y145000D01*
X5000Y65000D02*
Y145000D01*
X-5000D02*
X5000D01*
X185000Y80984D02*
X195000D01*
X185000D02*
Y180984D01*
X195000Y80984D02*
Y180984D01*
X185000D02*
X195000D01*
X185000Y75000D02*
X195000D01*
Y-5000D02*
Y75000D01*
X185000Y-5000D02*
Y75000D01*
Y-5000D02*
X195000D01*
D12*
X10000Y55998D02*
X13999Y50000D01*
Y55998D02*
X10000Y50000D01*
X18997D02*
Y55998D01*
X15998Y52999D01*
X19997D01*
X10000Y135998D02*
X13999Y130000D01*
Y135998D02*
X10000Y130000D01*
X19997D02*
X15998D01*
X19997Y133999D01*
Y134998D01*
X18997Y135998D01*
X16998D01*
X15998Y134998D01*
X170000Y135998D02*
X173999Y130000D01*
Y135998D02*
X170000Y130000D01*
X175998D02*
X177997D01*
X176998D01*
Y135998D01*
X175998Y134998D01*
X170000Y75998D02*
X173999Y70000D01*
Y75998D02*
X170000Y70000D01*
X175998Y74998D02*
X176998Y75998D01*
X178997D01*
X179997Y74998D01*
Y73999D01*
X178997Y72999D01*
X177997D01*
X178997D01*
X179997Y71999D01*
Y71000D01*
X178997Y70000D01*
X176998D01*
X175998Y71000D01*
X74650Y35348D02*
X78649Y29350D01*
Y35348D02*
X74650Y29350D01*
X84647Y35348D02*
X82647Y34348D01*
X80648Y32349D01*
Y30350D01*
X81648Y29350D01*
X83647D01*
X84647Y30350D01*
Y31349D01*
X83647Y32349D01*
X80648D01*
X133999Y64998D02*
X132999Y65998D01*
X131000D01*
X130000Y64998D01*
Y61000D01*
X131000Y60000D01*
X132999D01*
X133999Y61000D01*
X139997Y60000D02*
X135998D01*
X139997Y63999D01*
Y64998D01*
X138997Y65998D01*
X136998D01*
X135998Y64998D01*
X153999D02*
X152999Y65998D01*
X151000D01*
X150000Y64998D01*
Y61000D01*
X151000Y60000D01*
X152999D01*
X153999Y61000D01*
X155998Y60000D02*
X157997D01*
X156998D01*
Y65998D01*
X155998Y64998D01*
X55710Y109018D02*
Y113017D01*
X57710Y115016D01*
X59709Y113017D01*
Y109018D01*
Y112017D01*
X55710D01*
X61708Y109018D02*
X63708D01*
X62708D01*
Y115016D01*
X61708Y114016D01*
M02*
