G04*
G04 #@! TF.GenerationSoftware,Altium Limited,Altium Designer,18.1.9 (240)*
G04*
G04 Layer_Color=8388736*
%FSLAX25Y25*%
%MOIN*%
G70*
G01*
G75*
%ADD16O,0.10642X0.05524*%
%ADD17R,0.06312X0.05524*%
%ADD18R,0.10642X0.05524*%
%ADD19C,0.07800*%
%ADD20R,0.07800X0.07800*%
%ADD21C,0.12611*%
D16*
X60000Y85748D02*
D03*
Y62126D02*
D03*
Y70000D02*
D03*
Y77874D02*
D03*
Y93622D02*
D03*
X119055Y46378D02*
D03*
Y54252D02*
D03*
Y62126D02*
D03*
Y70000D02*
D03*
Y77874D02*
D03*
Y85748D02*
D03*
Y93622D02*
D03*
Y101496D02*
D03*
X60000Y46378D02*
D03*
Y54252D02*
D03*
D17*
X150000Y70157D02*
D03*
Y80000D02*
D03*
X140000Y70157D02*
D03*
Y80000D02*
D03*
D18*
X60000Y101496D02*
D03*
D19*
X0Y10000D02*
D03*
Y30000D02*
D03*
Y0D02*
D03*
Y20000D02*
D03*
Y40000D02*
D03*
Y80000D02*
D03*
Y100000D02*
D03*
Y120000D02*
D03*
Y70000D02*
D03*
Y90000D02*
D03*
Y110000D02*
D03*
Y130000D02*
D03*
X190000Y95984D02*
D03*
Y115984D02*
D03*
Y135984D02*
D03*
Y155984D02*
D03*
Y175984D02*
D03*
Y105984D02*
D03*
Y125984D02*
D03*
Y145984D02*
D03*
Y165984D02*
D03*
Y60000D02*
D03*
Y40000D02*
D03*
Y20000D02*
D03*
Y70000D02*
D03*
Y50000D02*
D03*
Y30000D02*
D03*
Y10000D02*
D03*
D20*
X0Y50000D02*
D03*
Y140000D02*
D03*
X190000Y85984D02*
D03*
Y0D02*
D03*
D21*
X100039Y20039D02*
D03*
X90000Y10000D02*
D03*
X79961Y20039D02*
D03*
Y-39D02*
D03*
X100039D02*
D03*
M02*
